<?xml version="1.0" encoding="UTF-8"?>
<svg xmlns="http://www.w3.org/2000/svg" xmlns:xlink="http://www.w3.org/1999/xlink" version="1.2" >
<font id="ITC Caslon 224 Medium">
<font-face  font-family="ITC Caslon 224" units-per-em="1000" ascent="729.98" descent="-193.848" font-style="normal" font-weight="500" font-stretch="normal" cap-height="750" x-height="500" underline-position="-75" underline-thickness="50" />
<missing-glyph  horiz-adv-x="287" d="" />
<glyph glyph-name="NULL" d="" />
<glyph glyph-name="CR" unicode="&#xd;" horiz-adv-x="250" d="" />
<glyph glyph-name="space" unicode="&#x20;" horiz-adv-x="287" d="" />
<glyph glyph-name="exclam" unicode="&#x21;" horiz-adv-x="407" d="M203 198 C211 198 213 209 215 233 C229 394 266 461 266 576 C266 667 239 694 203 694 C168 694 140 667 140 576 C140 461 177 394 191 233 C193 209 195 198 203 198 L203 198 Z M203 128 C163 128 131 96 131 56 C131 16 163 -16 203 -16 C243 -16 275 16 275 56 C275 96 243 128 203 128 L203 128 Z " />
<glyph glyph-name="quotedbl" unicode="&#x22;" horiz-adv-x="333" d="M86 694 C60 694 46 672 46 648 C46 607 59 450 64 409 C65 401 68 378 86 378 C104 378 107 401 108 409 C113 450 126 607 126 648 C126 672 112 694 86 694 L86 694 Z M247 694 C221 694 207 672 207 648 C207 607 220 450 225 409 C226 401 229 378 247 378 C265 378 268 401 269 409 C274 450 287 607 287 648 C287 672 273 694 247 694 L247 694 Z " />
<glyph glyph-name="numbersign" unicode="&#x23;" horiz-adv-x="574" d="M504 268 L409 268 L430 410 L533 410 L533 468 L438 468 L468 678 L403 678 L374 468 L247 468 L277 678 L212 678 L183 468 L70 468 L70 410 L175 410 L154 268 L41 268 L41 210 L146 210 L115 0 L179 0 L210 210 L337 210 L306 0 L370 0 L401 210 L504 210 L504 268 Z M366 410 L345 268 L218 268 L239 410 L366 410 Z " />
<glyph glyph-name="dollar" unicode="&#x24;" horiz-adv-x="574" d="M413 538 C450 479 448 432 463 432 C470 432 473 437 473 442 C473 452 470 501 466 602 L465 627 C465 634 465 647 470 658 L494 720 L469 720 C453 684 442 637 407 637 C399 637 384 643 371 648 L403 722 L379 722 L348 655 C332 658 302 666 268 666 C171 666 89 590 89 485 C89 395 172 344 204 324 L139 175 C101 249 113 303 92 303 C82 303 82 284 82 266 L82 117 C82 57 63 -1 33 -75 L55 -75 C96 28 106 45 136 45 C151 45 163 39 169 36 L122 -78 L146 -78 L191 28 C219 15 256 8 287 8 C394 8 502 75 502 196 C502 290 437 358 349 391 L413 538 Z M251 433 C191 456 163 498 163 545 C163 607 209 648 268 648 C299 648 324 633 335 625 L251 433 Z M299 280 C340 261 416 226 416 144 C416 68 360 26 295 26 C257 26 226 47 207 68 L299 280 Z M354 609 C377 588 383 582 398 560 L327 400 L272 424 L354 609 Z M191 89 C177 108 157 135 151 149 L225 314 L279 289 L191 89 Z " />
<glyph glyph-name="percent" unicode="&#x25;" horiz-adv-x="759" d="M181 668 C226 668 248 610 248 495 C248 380 226 322 181 322 C136 322 114 380 114 495 C114 610 136 668 181 668 L181 668 Z M332 495 C332 596 268 686 181 686 C94 686 30 596 30 495 C30 395 94 304 181 304 C268 304 332 395 332 495 L332 495 Z M578 10 C533 10 511 68 511 183 C511 298 533 356 578 356 C623 356 645 298 645 183 C645 68 623 10 578 10 L578 10 Z M729 183 C729 284 665 374 578 374 C491 374 427 284 427 183 C427 83 491 -8 578 -8 C665 -8 729 83 729 183 L729 183 Z M612 686 L570 686 L146 -8 L187 -8 L612 686 Z " />
<glyph glyph-name="ampersand" unicode="&#x26;" horiz-adv-x="796" d="M30 182 C30 70 122 -16 246 -16 C330 -16 408 5 483 80 C545 4 597 -16 658 -16 C782 -16 810 71 810 105 C810 113 806 117 799 117 C792 117 790 110 787 94 C780 62 751 36 712 36 C653 36 611 89 561 178 C602 253 638 327 679 372 C720 418 762 397 762 420 C762 431 752 432 737 432 C702 432 667 430 633 430 C598 430 563 432 528 432 C512 432 503 431 503 419 C503 397 588 428 588 324 C588 293 584 263 549 201 C491 286 451 325 360 386 C424 415 482 458 482 540 C482 616 416 694 313 694 C187 694 126 594 126 516 C126 452 151 410 191 374 C93 343 30 260 30 182 L30 182 Z M140 232 C140 290 157 340 203 362 C327 267 372 246 469 100 C432 58 376 26 317 26 C231 26 140 106 140 232 L140 232 Z M428 538 C428 484 399 418 341 401 C271 447 220 498 220 557 C220 627 258 670 319 670 C396 670 428 606 428 538 L428 538 Z " />
<glyph glyph-name="quotesingle" unicode="&#x27;" horiz-adv-x="222" d="M111 694 C85 694 71 672 71 648 C71 607 84 450 89 409 C90 401 93 378 111 378 C129 378 132 401 133 409 C138 450 151 607 151 648 C151 672 137 694 111 694 L111 694 Z " />
<glyph glyph-name="parenleft" unicode="&#x28;" horiz-adv-x="407" d="M174 259 C174 489 224 626 320 689 C358 715 369 715 369 724 C369 728 365 730 361 730 C293 730 76 574 76 259 C76 -56 293 -212 361 -212 C365 -212 369 -210 369 -206 C369 -197 358 -197 320 -171 C224 -108 174 29 174 259 L174 259 Z " />
<glyph glyph-name="parenright" unicode="&#x29;" horiz-adv-x="407" d="M233 259 C233 29 183 -108 87 -171 C49 -197 38 -197 38 -206 C38 -210 42 -212 46 -212 C114 -212 331 -56 331 259 C331 574 114 730 46 730 C42 730 38 728 38 724 C38 715 49 715 87 689 C183 626 233 489 233 259 L233 259 Z " />
<glyph glyph-name="asterisk" unicode="&#x2a;" horiz-adv-x="500" d="M251 323 C276 323 294 344 294 372 C294 405 266 427 250 486 C234 427 206 405 206 372 C206 344 224 323 251 323 L251 323 Z M422 576 C422 599 405 618 374 618 C332 618 317 560 278 523 L280 521 C306 526 327 526 350 526 C422 526 422 572 422 576 L422 576 Z M78 434 C78 411 95 392 126 392 C168 392 183 450 222 487 L220 489 C194 484 173 484 150 484 C78 484 78 438 78 434 L78 434 Z M422 434 C422 438 422 484 350 484 C327 484 306 484 278 489 C317 450 332 392 374 392 C405 392 422 411 422 434 L422 434 Z M78 576 C78 572 78 526 150 526 C173 526 194 526 222 521 C183 560 168 618 126 618 C95 618 78 599 78 576 L78 576 Z M251 694 C224 694 206 673 206 645 C206 612 234 590 250 531 C266 590 294 612 294 645 C294 673 276 694 251 694 L251 694 Z " />
<glyph glyph-name="plus" unicode="&#x2b;" horiz-adv-x="600" d="M259 268 L73 268 L73 186 L259 186 L259 0 L341 0 L341 186 L527 186 L527 268 L341 268 L341 454 L259 454 L259 268 Z " />
<glyph glyph-name="comma" unicode="&#x2c;" horiz-adv-x="287" d="M143 128 C94 128 71 92 71 61 C71 17 103 -8 145 -8 C155 -8 162 -5 166 -5 C170 -5 171 -7 171 -13 C171 -31 158 -63 130 -91 C112 -109 106 -110 106 -116 C106 -119 108 -122 112 -122 C132 -122 215 -54 215 44 C215 90 191 128 143 128 L143 128 Z " />
<glyph glyph-name="hyphen" unicode="&#x2d;" horiz-adv-x="333" d="M289 181 L289 273 L43 273 L43 181 L289 181 Z " />
<glyph glyph-name="period" unicode="&#x2e;" horiz-adv-x="287" d="M71 64 C71 24 103 -8 143 -8 C183 -8 215 24 215 64 C215 104 183 136 143 136 C103 136 71 104 71 64 L71 64 Z " />
<glyph glyph-name="slash" unicode="&#x2f;" horiz-adv-x="278" d="M299 694 L219 694 L-21 -16 L59 -16 L299 694 Z " />
<glyph glyph-name="zero" unicode="0" horiz-adv-x="574" d="M287 16 C210 16 151 86 151 339 C151 592 210 662 287 662 C364 662 423 592 423 339 C423 86 364 16 287 16 L287 16 Z M287 686 C143 686 37 521 37 339 C37 157 143 -8 287 -8 C431 -8 537 157 537 339 C537 521 431 686 287 686 L287 686 Z " />
<glyph glyph-name="one" unicode="1" horiz-adv-x="574" d="M239 97 C239 30 224 22 108 22 C88 22 83 18 83 9 C83 3 90 -2 105 -2 C147 -2 213 0 295 0 C377 0 441 -2 490 -2 C500 -2 506 1 506 9 C506 20 498 22 477 22 C385 22 359 30 359 97 L359 656 C359 677 356 686 349 686 C334 686 333 668 267 644 C142 597 78 622 78 601 C78 594 81 590 91 590 L218 590 C232 590 239 584 239 568 L239 97 Z " />
<glyph glyph-name="two" unicode="2" horiz-adv-x="574" d="M448 0 L493 171 C494 174 495 178 495 181 C495 186 495 191 488 191 C467 191 477 116 373 116 L117 116 C224 292 497 278 497 492 C497 573 420 686 284 686 C119 686 59 521 59 495 C59 488 61 485 67 485 C84 485 96 612 238 612 C316 612 383 547 383 464 C383 270 60 230 52 0 L448 0 Z " />
<glyph glyph-name="three" unicode="3" horiz-adv-x="574" d="M34 128 C34 59 106 -8 241 -8 C429 -8 517 133 517 228 C517 325 447 381 409 405 C442 436 469 471 469 522 C469 618 378 686 284 686 C154 686 97 566 97 545 C97 541 99 537 104 537 C113 537 113 548 141 576 C164 599 195 616 235 616 C318 616 355 559 355 495 C355 403 282 362 238 362 C232 362 227 359 227 352 C227 344 235 344 258 344 C332 344 403 287 403 176 C403 74 346 10 258 10 C121 10 213 193 91 193 C54 193 34 162 34 128 L34 128 Z " />
<glyph glyph-name="four" unicode="4" horiz-adv-x="574" d="M413 678 L385 678 L23 229 L35 189 L303 189 L303 74 C303 -2 212 38 212 9 C212 -1 218 -2 235 -2 C276 -2 318 0 361 0 C404 0 446 -2 487 -2 C504 -2 510 -1 510 9 C510 35 413 -2 413 88 L413 189 L513 189 L534 241 L413 241 L413 678 Z M303 241 L64 241 L301 534 L303 534 L303 241 Z " />
<glyph glyph-name="five" unicode="5" horiz-adv-x="574" d="M453 562 L486 665 C492 683 496 695 496 700 C496 706 493 709 488 709 C472 709 486 678 434 678 L150 678 C144 598 118 446 95 346 C108 350 116 352 150 352 C345 352 410 234 410 157 C410 95 380 16 281 16 C223 16 199 49 185 103 C173 150 154 181 110 181 C76 181 52 156 52 121 C52 73 111 -8 259 -8 C396 -8 502 97 502 210 C502 361 358 462 168 462 L140 462 L157 562 L453 562 Z " />
<glyph glyph-name="six" unicode="6" horiz-adv-x="574" d="M431 215 C431 98 406 16 298 16 C208 16 160 69 160 214 C160 263 160 294 163 308 C184 349 238 385 295 385 C379 385 431 326 431 215 L431 215 Z M317 409 C251 409 204 377 170 342 L168 344 C199 485 285 597 420 656 C443 666 463 670 463 679 C463 684 458 686 453 686 C445 686 46 602 46 279 C46 132 147 -8 302 -8 C444 -8 545 84 545 194 C545 316 455 409 317 409 L317 409 Z " />
<glyph glyph-name="seven" unicode="7" horiz-adv-x="574" d="M507 678 L112 678 L60 538 C58 533 56 528 56 522 C56 517 58 512 63 512 C81 512 73 562 154 562 L453 562 C312 375 214 221 197 -6 C222 -2 247 0 272 0 C297 0 322 -2 347 -6 L347 32 C347 258 414 482 530 634 L507 678 Z " />
<glyph glyph-name="eight" unicode="8" horiz-adv-x="574" d="M500 523 C500 605 420 686 300 686 C184 686 83 609 83 499 C83 432 130 378 177 350 C106 314 51 261 51 174 C51 79 148 -8 283 -8 C420 -8 534 67 534 196 C534 294 489 336 409 371 C460 408 500 457 500 523 L500 523 Z M428 148 C428 54 358 16 278 16 C171 16 115 91 115 194 C115 253 143 305 193 339 C290 287 428 255 428 148 L428 148 Z M310 662 C408 662 444 596 444 521 C444 455 419 405 384 382 C263 429 179 459 179 559 C179 616 232 662 310 662 L310 662 Z " />
<glyph glyph-name="nine" unicode="9" horiz-adv-x="574" d="M143 463 C143 580 168 662 276 662 C366 662 414 609 414 464 C414 415 414 384 411 370 C390 329 336 293 279 293 C195 293 143 352 143 463 L143 463 Z M257 269 C323 269 370 301 404 336 L406 334 C375 193 289 81 154 22 C131 12 111 8 111 -1 C111 -6 116 -8 121 -8 C129 -8 528 76 528 399 C528 546 427 686 272 686 C130 686 29 594 29 484 C29 362 119 269 257 269 L257 269 Z " />
<glyph glyph-name="colon" unicode="&#x3a;" horiz-adv-x="287" d="M71 64 C71 24 103 -8 143 -8 C183 -8 215 24 215 64 C215 104 183 136 143 136 C103 136 71 104 71 64 L71 64 Z M71 322 C71 282 103 250 143 250 C183 250 215 282 215 322 C215 362 183 394 143 394 C103 394 71 362 71 322 L71 322 Z " />
<glyph glyph-name="semicolon" unicode="&#x3b;" horiz-adv-x="287" d="M143 128 C94 128 71 92 71 61 C71 17 103 -8 145 -8 C155 -8 162 -5 166 -5 C170 -5 171 -7 171 -13 C171 -31 158 -63 130 -91 C112 -109 106 -110 106 -116 C106 -119 108 -122 112 -122 C132 -122 215 -54 215 44 C215 90 191 128 143 128 L143 128 Z M71 322 C71 282 103 250 143 250 C183 250 215 282 215 322 C215 362 183 394 143 394 C103 394 71 362 71 322 L71 322 Z " />
<glyph glyph-name="less" unicode="&#x3c;" horiz-adv-x="600" d="M527 76 L188 227 L527 378 L527 461 L73 259 L73 195 L527 -7 L527 76 Z " />
<glyph glyph-name="equal" unicode="&#x3d;" horiz-adv-x="600" d="M527 96 L527 178 L73 178 L73 96 L527 96 Z M527 276 L527 358 L73 358 L73 276 L527 276 Z " />
<glyph glyph-name="greater" unicode="&#x3e;" horiz-adv-x="600" d="M73 -7 L527 195 L527 259 L73 461 L73 378 L412 227 L73 76 L73 -7 Z " />
<glyph glyph-name="question" unicode="&#x3f;" horiz-adv-x="574" d="M182 389 C208 311 211 299 236 183 L271 191 L271 262 C282 260 294 259 305 259 C424 259 511 348 511 465 C511 584 417 694 263 694 C169 694 84 634 84 562 C84 526 102 497 142 497 C233 497 198 660 323 660 C396 660 459 593 459 518 C459 443 414 361 307 361 C263 361 244 373 207 404 L182 389 Z M253 128 C213 128 181 96 181 56 C181 16 213 -16 253 -16 C293 -16 325 16 325 56 C325 96 293 128 253 128 L253 128 Z " />
<glyph glyph-name="at" unicode="&#x40;" horiz-adv-x="800" d="M334 282 C334 398 418 474 466 474 C496 474 509 450 509 407 C509 310 443 198 392 198 C360 198 334 223 334 282 L334 282 Z M528 472 C514 496 504 524 456 524 C318 524 254 352 254 273 C254 164 321 148 352 148 C407 148 461 202 471 220 L473 220 C472 206 496 146 565 146 C688 146 756 286 756 391 C756 565 608 694 418 694 C216 694 44 545 44 323 C44 185 161 -16 430 -16 C510 -16 580 13 644 45 L633 84 C574 57 520 34 429 34 C264 34 140 166 140 313 C140 541 277 648 418 648 C598 648 702 506 702 390 C702 303 653 186 581 186 C552 186 543 210 543 230 C543 239 546 247 549 259 L611 510 L539 510 L528 472 Z " />
<glyph glyph-name="A" unicode="A" horiz-adv-x="667" d="M406 244 L463 114 C470 99 480 69 480 60 C480 6 410 35 410 10 C410 1 416 -2 426 -2 C467 -2 506 0 546 0 C586 0 626 -2 666 -2 C676 -2 683 -1 683 10 C683 32 635 3 609 62 L396 533 C337 665 337 698 324 698 C311 698 316 684 295 640 C267 581 250 583 250 568 C250 556 274 537 274 530 C274 522 257 485 137 185 C110 117 77 64 51 42 C23 18 -16 28 -16 10 C-16 2 -13 -2 -3 -2 C33 -2 65 0 98 0 C166 0 190 -2 211 -2 C222 -2 227 -2 227 9 C227 33 144 9 144 109 C144 138 157 167 184 244 L406 244 Z M396 268 L194 268 L288 514 L396 268 Z " />
<glyph glyph-name="B" unicode="B" horiz-adv-x="648" d="M118 72 C118 5 35 37 35 12 C35 0 41 -2 57 -2 C92 -2 118 0 178 0 C251 0 317 -2 381 -2 C540 -2 622 59 622 178 C622 290 547 353 352 356 L352 358 C483 365 588 406 588 514 C588 610 503 680 335 680 C283 680 230 678 178 678 C118 678 92 680 57 680 C41 680 35 678 35 666 C35 641 118 673 118 606 L118 72 Z M237 342 L307 342 C427 342 502 298 502 180 C502 82 459 22 336 22 C261 22 237 40 237 86 L237 342 Z M238 656 L313 656 C407 656 468 607 468 510 C468 417 423 366 298 366 L238 366 L238 656 Z " />
<glyph glyph-name="C" unicode="C" horiz-adv-x="741" d="M652 663 C652 673 650 682 641 682 C619 682 634 635 598 635 C562 635 502 694 380 694 C218 694 39 542 39 339 C39 138 190 -16 372 -16 C494 -16 556 32 594 32 C636 32 618 -16 642 -16 C654 -16 656 -7 656 3 L656 250 C656 260 654 269 647 269 C637 269 635 261 632 246 C610 123 501 8 386 8 C267 8 171 114 171 339 C171 559 267 670 384 670 C521 670 606 534 628 426 C633 405 633 396 643 396 C650 396 652 405 652 415 L652 663 Z " />
<glyph glyph-name="D" unicode="D" horiz-adv-x="741" d="M118 72 C118 5 35 37 35 12 C35 0 41 -2 57 -2 C92 -2 118 0 178 0 C237 0 295 -2 362 -2 C587 -2 702 149 702 336 C702 541 557 680 320 680 C265 680 219 678 178 678 C118 678 92 680 57 680 C41 680 35 678 35 666 C35 641 118 673 118 606 L118 72 Z M238 656 L341 656 C494 656 570 520 570 329 C570 74 461 22 347 22 C275 22 238 48 238 112 L238 656 Z " />
<glyph glyph-name="E" unicode="E" horiz-adv-x="667" d="M118 72 C118 5 35 37 35 12 C35 0 41 -2 57 -2 C92 -2 118 0 178 0 C426 0 511 -2 594 -2 L636 224 C639 238 639 247 639 253 C639 258 637 263 630 263 C623 263 620 258 615 243 C586 144 507 22 322 22 C262 22 238 40 238 78 L238 338 L260 338 C346 338 411 303 411 198 C411 183 416 180 423 180 C431 180 435 183 435 198 L435 497 C435 512 431 516 423 516 C416 516 411 512 411 497 C411 396 346 362 260 362 L238 362 L238 656 L268 656 C387 656 472 639 533 552 C582 482 579 457 591 457 C597 457 599 460 599 467 C599 472 597 480 593 493 L545 680 C473 680 399 678 178 678 C118 678 92 680 57 680 C41 680 35 678 35 666 C35 641 118 673 118 606 L118 72 Z " />
<glyph glyph-name="F" unicode="F" horiz-adv-x="611" d="M118 72 C118 5 35 37 35 12 C35 0 41 -2 57 -2 C92 -2 118 0 178 0 C238 0 264 -2 299 -2 C315 -2 321 0 321 12 C321 37 238 5 238 72 L238 338 L260 338 C346 338 411 303 411 198 C411 183 416 180 423 180 C431 180 435 183 435 198 L435 497 C435 512 431 516 423 516 C416 516 411 512 411 497 C411 396 346 362 260 362 L238 362 L238 656 L260 656 C379 656 464 639 525 552 C574 482 571 457 583 457 C589 457 591 460 591 467 C591 472 589 480 585 493 L537 680 C473 680 399 678 178 678 C118 678 92 680 57 680 C41 680 35 678 35 666 C35 641 118 673 118 606 L118 72 Z " />
<glyph glyph-name="G" unicode="G" horiz-adv-x="796" d="M687 0 L687 232 C687 299 770 267 770 292 C770 304 764 306 748 306 C713 306 687 304 627 304 C567 304 541 306 506 306 C490 306 484 304 484 292 C484 267 567 299 567 232 L567 142 C567 76 521 8 398 8 C271 8 171 114 171 339 C171 566 274 670 391 670 C525 670 611 556 642 426 C647 405 647 396 657 396 C664 396 666 405 666 415 L666 663 C666 673 664 682 656 682 C635 682 653 635 614 635 C585 635 498 694 387 694 C211 694 39 538 39 339 C39 108 229 -16 387 -16 C483 -16 567 12 621 56 L651 0 L687 0 Z " />
<glyph glyph-name="H" unicode="H" horiz-adv-x="759" d="M524 346 L524 72 C524 5 441 37 441 12 C441 0 447 -2 463 -2 C498 -2 524 0 584 0 C644 0 670 -2 705 -2 C721 -2 727 0 727 12 C727 37 644 5 644 72 L644 606 C644 673 727 641 727 666 C727 678 721 680 705 680 C670 680 644 678 584 678 C524 678 498 680 463 680 C447 680 441 678 441 666 C441 641 524 673 524 606 L524 370 L235 370 L235 606 C235 673 318 641 318 666 C318 678 312 680 296 680 C261 680 235 678 175 678 C115 678 89 680 54 680 C38 680 32 678 32 666 C32 641 115 673 115 606 L115 72 C115 5 32 37 32 12 C32 0 38 -2 54 -2 C89 -2 115 0 175 0 C235 0 261 -2 296 -2 C312 -2 318 0 318 12 C318 37 235 5 235 72 L235 346 L524 346 Z " />
<glyph glyph-name="I" unicode="I" horiz-adv-x="370" d="M125 72 C125 5 42 37 42 12 C42 0 48 -2 64 -2 C99 -2 125 0 185 0 C245 0 271 -2 306 -2 C322 -2 328 0 328 12 C328 37 245 5 245 72 L245 606 C245 673 328 641 328 666 C328 678 322 680 306 680 C271 680 245 678 185 678 C125 678 99 680 64 680 C48 680 42 678 42 666 C42 641 125 673 125 606 L125 72 Z " />
<glyph glyph-name="J" unicode="J" horiz-adv-x="463" d="M244 88 C244 24 220 2 177 2 C150 2 126 14 126 46 C126 79 136 80 136 106 C136 136 114 162 78 162 C45 162 16 136 16 100 C16 46 64 -12 175 -16 C318 -12 364 86 364 204 L364 606 C364 673 447 641 447 666 C447 678 441 680 425 680 C390 680 364 678 304 678 C244 678 218 680 183 680 C167 680 161 678 161 666 C161 641 244 673 244 606 L244 88 Z " />
<glyph glyph-name="K" unicode="K" horiz-adv-x="667" d="M316 366 L511 0 C595 0 633 -2 671 -2 C688 -2 693 0 693 8 C693 38 640 1 586 102 L393 458 L497 577 C581 674 637 647 637 667 C637 680 628 680 605 680 C570 680 546 678 521 678 C497 678 472 680 426 680 C411 680 405 677 405 668 C405 648 459 671 459 613 C459 584 446 562 398 503 L240 307 L238 307 L238 606 C238 673 321 641 321 666 C321 678 315 680 299 680 C264 680 238 678 178 678 C118 678 92 680 57 680 C41 680 35 678 35 666 C35 641 118 673 118 606 L118 72 C118 5 35 37 35 12 C35 0 41 -2 57 -2 C92 -2 118 0 178 0 C238 0 264 -2 299 -2 C315 -2 321 0 321 12 C321 37 238 5 238 72 L238 274 L316 366 Z " />
<glyph glyph-name="L" unicode="L" horiz-adv-x="630" d="M118 72 C118 5 35 37 35 12 C35 0 41 -2 57 -2 C92 -2 118 0 178 0 C400 0 487 -2 565 -2 L607 224 C610 238 610 247 610 253 C610 258 608 263 601 263 C594 263 591 258 586 243 C557 144 470 22 314 22 C264 22 238 36 238 93 L238 606 C238 673 321 641 321 666 C321 678 315 680 299 680 C264 680 238 678 178 678 C118 678 92 680 57 680 C41 680 35 678 35 666 C35 641 118 673 118 606 L118 72 Z " />
<glyph glyph-name="M" unicode="M" horiz-adv-x="870" d="M226 678 L162 678 C102 678 76 680 41 680 C25 680 19 678 19 666 C19 641 122 673 122 584 L122 246 C122 125 113 47 42 27 C16 19 5 24 5 8 C5 -1 14 -2 28 -2 C46 -2 72 0 134 0 C174 0 201 -2 229 -2 C245 -2 251 0 251 9 C251 23 239 19 213 27 C175 39 146 80 146 165 L146 584 L148 584 L376 21 C380 10 384 0 389 0 C396 0 400 12 404 21 L637 592 L639 592 L639 72 C639 5 556 37 556 12 C556 0 562 -2 578 -2 C613 -2 639 0 699 0 C759 0 785 -2 820 -2 C836 -2 842 0 842 12 C842 37 759 5 759 72 L759 606 C759 673 842 641 842 666 C842 678 836 680 820 680 C785 680 759 678 699 678 L653 678 L438 167 L226 678 Z " />
<glyph glyph-name="N" unicode="N" horiz-adv-x="704" d="M567 172 L565 172 L188 678 L95 678 C63 678 43 680 19 680 C4 680 -3 677 -3 666 C-3 647 51 676 109 593 L109 165 C109 80 72 39 34 27 C8 19 -4 23 -4 9 C-4 0 2 -2 18 -2 C54 -2 81 0 123 0 C165 0 192 -2 228 -2 C244 -2 250 0 250 9 C250 23 238 19 212 27 C174 39 137 80 137 165 L137 558 L139 558 L563 -6 C568 -13 576 -16 583 -16 C591 -16 595 -9 595 -2 L595 513 C595 598 632 639 670 651 C696 659 708 655 708 669 C708 678 702 680 686 680 C650 680 623 678 581 678 C539 678 512 680 476 680 C460 680 454 678 454 669 C454 655 466 659 492 651 C530 639 567 598 567 513 L567 172 Z " />
<glyph glyph-name="O" unicode="O" horiz-adv-x="796" d="M625 339 C625 113 529 8 398 8 C267 8 171 113 171 339 C171 565 267 670 398 670 C529 670 625 565 625 339 L625 339 Z M398 694 C229 694 39 563 39 339 C39 115 229 -16 398 -16 C567 -16 757 115 757 339 C757 563 567 694 398 694 L398 694 Z " />
<glyph glyph-name="P" unicode="P" horiz-adv-x="593" d="M238 300 L276 300 C454 300 582 354 582 490 C582 588 505 680 298 680 C256 680 220 678 178 678 C118 678 92 680 57 680 C41 680 35 678 35 666 C35 641 118 673 118 606 L118 72 C118 5 35 37 35 12 C35 0 41 -2 57 -2 C92 -2 118 0 178 0 C238 0 264 -2 307 -2 C323 -2 333 0 333 12 C333 37 238 5 238 72 L238 300 Z M238 656 L308 656 C404 656 462 601 462 493 C462 382 418 324 290 324 L238 324 L238 656 Z " />
<glyph glyph-name="Q" unicode="Q" horiz-adv-x="796" d="M625 339 C625 113 529 8 398 8 C267 8 171 113 171 339 C171 565 267 670 398 670 C529 670 625 565 625 339 L625 339 Z M757 339 C757 563 567 694 398 694 C229 694 39 563 39 339 C39 180 134 68 251 16 L251 14 C177 6 121 -49 121 -92 C121 -99 124 -102 131 -102 C140 -102 139 -90 145 -77 C159 -46 196 -28 236 -28 C348 -28 457 -140 601 -140 C729 -140 812 -51 812 0 C812 6 808 9 804 9 C785 9 796 -70 679 -70 C613 -70 507 -27 442 -14 L442 -12 C598 7 757 134 757 339 L757 339 Z " />
<glyph glyph-name="R" unicode="R" horiz-adv-x="667" d="M118 72 C118 5 35 37 35 12 C35 0 41 -2 57 -2 C92 -2 118 0 178 0 C238 0 264 -2 299 -2 C315 -2 321 0 321 12 C321 37 238 5 238 72 L238 314 L254 314 C330 314 350 292 420 162 L507 0 C596 -1 665 -2 679 -2 C693 -2 699 1 699 10 C699 35 627 1 584 87 L529 199 C479 300 435 316 339 327 L339 329 C483 339 581 401 581 502 C581 588 505 680 310 680 C271 680 232 678 178 678 C118 678 92 680 57 680 C41 680 35 678 35 666 C35 641 118 673 118 606 L118 72 Z M238 656 L297 656 C392 656 449 614 449 499 C449 383 392 338 284 338 L238 338 L238 656 Z " />
<glyph glyph-name="S" unicode="S" horiz-adv-x="556" d="M60 0 C60 -10 65 -12 69 -12 C88 -12 73 22 114 22 C140 22 207 -16 280 -16 C443 -16 519 91 519 197 C519 440 148 378 148 562 C148 625 193 670 269 670 C382 670 436 573 470 459 C473 448 475 435 483 435 C489 435 494 439 494 449 C494 462 490 531 477 671 C476 682 474 686 467 686 C448 686 461 654 432 654 C393 654 359 694 270 694 C156 694 60 606 60 502 C60 256 431 338 431 136 C431 68 386 8 286 8 C154 8 101 134 84 257 C81 279 79 287 70 287 C65 287 60 284 60 275 L60 0 Z " />
<glyph glyph-name="T" unicode="T" horiz-adv-x="685" d="M403 654 C504 654 591 565 630 484 C641 461 646 448 652 448 C659 448 661 452 661 456 C661 468 655 492 651 511 L619 675 C618 681 617 694 608 694 C602 694 600 690 595 686 C589 682 580 678 559 678 L126 678 C105 678 96 682 90 686 C85 690 83 694 77 694 C68 694 67 681 66 675 L34 511 C30 492 24 468 24 456 C24 452 26 448 33 448 C39 448 44 461 55 484 C94 565 181 654 282 654 L283 72 C283 5 184 37 184 12 C184 0 194 -2 210 -2 C257 -2 283 0 343 0 C403 0 429 -2 476 -2 C492 -2 502 0 502 12 C502 37 403 5 403 72 L403 654 Z " />
<glyph glyph-name="U" unicode="U" horiz-adv-x="722" d="M107 183 C107 70 194 -16 379 -16 C535 -16 616 66 616 206 L616 513 C616 598 653 639 691 651 C717 659 729 655 729 669 C729 678 723 680 707 680 C671 680 644 678 602 678 C560 678 533 680 497 680 C481 680 475 678 475 669 C475 655 487 659 513 651 C551 639 588 598 588 513 L588 204 C588 84 527 14 409 14 C300 14 227 77 227 182 L227 606 C227 673 310 641 310 666 C310 678 304 680 288 680 C253 680 227 678 167 678 C107 678 81 680 46 680 C30 680 24 678 24 666 C24 641 107 673 107 606 L107 183 Z " />
<glyph glyph-name="V" unicode="V" horiz-adv-x="667" d="M214 573 C209 586 204 604 204 612 C204 674 278 642 278 668 C278 678 272 680 255 680 C213 680 177 678 116 678 C77 678 34 680 17 680 C-2 680 -7 675 -7 668 C-7 643 46 677 80 593 L320 -1 C324 -12 328 -16 335 -16 C342 -16 346 -12 350 -1 L548 511 C612 676 694 642 694 668 C694 679 688 680 663 680 C631 680 599 678 557 678 C515 678 483 680 461 680 C446 680 441 677 441 668 C441 640 528 672 528 577 C528 548 523 521 505 471 L380 135 L214 573 Z " />
<glyph glyph-name="W" unicode="W" horiz-adv-x="907" d="M346 160 L344 160 L212 573 C204 598 204 610 204 618 C204 670 272 645 272 668 C272 677 270 680 253 680 C211 680 175 678 127 678 C93 678 44 680 7 680 C-5 680 -9 676 -9 667 C-9 643 53 679 82 592 L282 -1 C286 -12 290 -16 296 -16 C302 -16 306 -12 310 -1 L455 425 L457 425 L598 -1 C602 -12 606 -16 612 -16 C618 -16 622 -12 626 -1 L812 539 C859 674 933 646 933 671 C933 676 928 680 916 680 C899 680 872 678 835 678 C784 678 754 680 712 680 C699 680 695 676 695 668 C695 649 779 665 779 575 C779 558 773 518 759 471 L661 157 L659 157 L533 549 C527 570 518 598 518 612 C518 670 589 647 589 666 C589 677 585 680 568 680 C528 680 492 678 456 678 C408 678 366 680 333 680 C323 680 318 674 318 668 C318 646 365 676 393 603 C416 544 444 478 444 458 C444 451 442 445 440 439 L346 160 Z " />
<glyph glyph-name="X" unicode="X" horiz-adv-x="685" d="M438 102 C447 86 451 71 451 59 C451 7 382 34 382 10 C382 1 387 -2 406 -2 C437 -2 482 0 541 0 C583 0 626 -2 684 -2 C695 -2 698 -1 698 9 C698 23 676 18 652 27 C627 36 595 63 573 97 L391 391 L513 556 C602 677 660 648 660 668 C660 678 651 680 635 680 C600 680 570 678 540 678 C510 678 480 680 438 680 C424 680 419 679 419 668 C419 650 488 669 488 598 C488 570 474 545 457 521 L378 412 L273 581 C264 595 255 612 255 627 C255 668 319 648 319 667 C319 677 315 680 300 680 C262 680 214 678 176 678 C138 678 100 680 46 680 C33 680 28 677 28 669 C28 647 83 682 134 599 L302 329 L192 179 C134 101 97 60 63 40 C27 19 -14 24 -14 8 C-14 0 -6 -2 10 -2 C56 -2 94 0 131 0 C168 0 218 -2 250 -2 C266 -2 273 -1 273 9 C273 36 194 -1 194 82 C194 127 219 165 317 309 L438 102 Z " />
<glyph glyph-name="Y" unicode="Y" horiz-adv-x="630" d="M508 533 C603 674 656 651 656 668 C656 677 647 680 630 680 C605 680 575 678 545 678 C515 678 475 680 446 680 C429 680 424 677 424 669 C424 647 494 674 494 598 C494 541 444 469 359 346 L240 562 C231 578 224 602 224 615 C224 666 288 646 288 666 C288 675 283 680 261 680 C225 680 187 678 149 678 C103 678 58 680 12 680 C2 680 -3 677 -3 669 C-3 649 52 667 92 595 L255 303 L255 72 C255 5 168 37 168 12 C168 0 178 -2 194 -2 C229 -2 255 0 315 0 C375 0 401 -2 436 -2 C452 -2 466 0 466 12 C466 37 375 5 375 72 L375 334 L508 533 Z " />
<glyph glyph-name="Z" unicode="Z" horiz-adv-x="611" d="M163 22 L557 642 C568 660 573 667 573 673 C573 678 568 680 555 680 C512 680 396 678 325 678 C254 678 182 680 111 680 L63 493 C59 480 57 472 57 467 C57 460 59 457 65 457 C77 457 74 482 123 552 C184 639 269 656 388 656 L427 656 L49 48 C31 18 25 14 25 7 C25 -1 31 -2 44 -2 C130 -2 200 0 270 0 C340 0 409 -2 518 -2 L560 224 C563 238 563 247 563 253 C563 258 561 263 554 263 C547 263 544 258 539 243 C510 144 431 22 246 22 L163 22 Z " />
<glyph glyph-name="bracketleft" unicode="&#x5b;" horiz-adv-x="407" d="M120 -175 C120 -188 130 -194 141 -194 L282 -194 C290 -194 297 -193 297 -184 C297 -164 220 -193 220 -117 L220 635 C220 711 297 682 297 702 C297 711 290 712 282 712 L141 712 C130 712 120 706 120 693 L120 -175 Z " />
<glyph glyph-name="backslash" unicode="&#x5c;" horiz-adv-x="278" d="M219 -16 L299 -16 L59 694 L-21 694 L219 -16 Z " />
<glyph glyph-name="bracketright" unicode="&#x5d;" horiz-adv-x="407" d="M287 693 C287 706 277 712 266 712 L125 712 C117 712 110 711 110 702 C110 682 187 711 187 635 L187 -117 C187 -193 110 -164 110 -184 C110 -193 117 -194 125 -194 L266 -194 C277 -194 287 -188 287 -175 L287 693 Z " />
<glyph glyph-name="asciicircum" unicode="&#x5e;" horiz-adv-x="600" d="M192 350 L300 574 L407 352 L498 352 L336 678 L263 678 L102 350 L192 350 Z " />
<glyph glyph-name="underscore" unicode="&#x5f;" horiz-adv-x="500" d="M500 -125 L500 -75 L0 -75 L0 -125 L500 -125 Z " />
<glyph glyph-name="grave" unicode="&#x60;" horiz-adv-x="296" d="M224 510 L91 649 C68 673 54 688 32 688 C13 688 -4 671 -4 650 C-4 632 7 618 35 600 L177 510 L224 510 Z " />
<glyph glyph-name="a" unicode="a" horiz-adv-x="500" d="M305 90 C303 83 245 32 195 32 C152 32 140 79 140 113 C140 184 210 219 305 253 L305 90 Z M305 273 C130 219 30 171 30 81 C30 24 74 -8 136 -8 C203 -8 260 30 308 64 C317 23 330 -8 393 -8 C449 -8 500 41 500 60 C500 66 496 68 490 68 C478 68 469 33 434 33 C420 33 415 46 415 58 L415 344 C415 419 379 462 293 462 C167 462 45 384 45 317 C45 290 63 268 95 268 C143 268 160 289 171 347 C183 408 219 438 267 438 C292 438 305 426 305 402 L305 273 Z " />
<glyph glyph-name="b" unicode="b" horiz-adv-x="556" d="M129 38 C170 7 225 -8 276 -8 C396 -8 522 87 522 247 C522 372 432 462 320 462 C263 462 221 440 186 410 L186 730 C64 672 -4 682 -4 660 C-4 638 76 660 76 577 L76 3 C76 -5 80 -8 85 -8 C92 -8 95 -5 97 -2 L129 38 Z M186 382 C200 397 237 422 276 422 C342 422 402 364 402 204 C402 66 339 16 273 16 C213 16 186 60 186 108 L186 382 Z " />
<glyph glyph-name="c" unicode="c" horiz-adv-x="500" d="M138 265 C138 369 174 438 266 438 C314 438 337 414 337 370 C337 343 335 328 335 311 C335 282 351 250 394 250 C432 250 451 273 451 316 C451 388 381 462 266 462 C142 462 38 361 38 212 C38 140 86 -8 263 -8 C413 -8 462 121 462 153 C462 160 458 162 452 162 C438 162 427 66 304 66 C193 66 138 168 138 265 L138 265 Z " />
<glyph glyph-name="d" unicode="d" horiz-adv-x="556" d="M480 730 C358 672 290 682 290 660 C290 638 370 660 370 577 L370 454 C343 457 320 462 290 462 C156 462 34 366 34 201 C34 105 86 -8 220 -8 C288 -8 343 36 370 71 L372 71 L372 -8 C510 42 544 30 544 47 C544 66 480 58 480 112 L480 730 Z M370 111 C358 70 311 44 275 44 C207 44 144 106 144 236 C144 365 198 438 280 438 C342 438 370 391 370 348 L370 111 Z " />
<glyph glyph-name="e" unicode="e" horiz-adv-x="500" d="M468 256 C468 395 370 462 264 462 C125 462 30 345 30 229 C30 85 129 -8 259 -8 C415 -8 470 121 470 153 C470 158 467 162 463 162 C450 162 454 140 423 108 C394 78 360 66 303 66 C207 66 140 155 140 245 L140 256 L468 256 Z M140 280 C141 341 177 438 260 438 C326 438 358 390 358 302 L358 280 L140 280 Z " />
<glyph glyph-name="f" unicode="f" horiz-adv-x="296" d="M302 454 L192 454 C190 523 172 575 172 651 C172 688 180 728 213 728 C227 728 238 719 238 700 C238 680 229 668 229 646 C229 618 243 597 280 597 C308 597 338 619 338 662 C338 714 294 752 243 752 C97 752 128 481 30 402 L82 402 L82 67 C82 2 8 33 8 8 C8 0 15 -2 28 -2 C70 -2 104 0 137 0 C170 0 204 -2 246 -2 C259 -2 266 0 266 8 C266 33 192 2 192 67 L192 402 L287 402 L302 454 Z " />
<glyph glyph-name="g" unicode="g" horiz-adv-x="481" d="M178 175 C115 171 41 135 41 56 C41 14 57 -15 88 -34 C40 -46 16 -70 16 -102 C16 -152 71 -212 224 -212 C422 -212 479 -156 479 -74 C479 3 430 45 328 47 L191 50 C129 51 115 75 115 105 C115 149 148 165 246 170 C391 176 435 249 435 322 C435 400 373 452 247 462 C249 480 258 506 284 506 C302 506 320 490 346 490 C378 490 396 506 396 537 C396 572 374 592 333 592 C259 592 240 511 229 462 C125 458 49 402 49 313 C49 231 101 190 178 177 L178 175 Z M60 -96 C60 -75 78 -47 101 -40 C220 -88 405 -25 405 -115 C405 -163 352 -194 230 -194 C94 -194 60 -136 60 -96 L60 -96 Z M159 317 C159 395 180 444 242 444 C304 444 325 395 325 315 C325 237 304 188 242 188 C180 188 159 237 159 317 L159 317 Z " />
<glyph glyph-name="h" unicode="h" horiz-adv-x="593" d="M203 354 C228 376 282 416 327 416 C356 416 390 396 390 351 L390 67 C390 2 316 33 316 8 C316 0 323 -2 336 -2 C378 -2 412 0 445 0 C478 0 512 -2 554 -2 C567 -2 574 0 574 8 C574 33 500 2 500 67 L500 350 C500 419 464 462 386 462 C321 462 274 435 203 382 L203 730 C81 672 13 682 13 660 C13 638 93 660 93 577 L93 67 C93 2 19 33 19 8 C19 0 26 -2 39 -2 C81 -2 115 0 148 0 C181 0 215 -2 257 -2 C270 -2 277 0 277 8 C277 33 203 2 203 67 L203 354 Z " />
<glyph glyph-name="i" unicode="i" horiz-adv-x="296" d="M203 462 C61 404 13 411 13 392 C13 373 93 388 93 315 L93 67 C93 2 19 33 19 8 C19 0 26 -2 39 -2 C81 -2 115 0 148 0 C181 0 215 -2 257 -2 C270 -2 277 0 277 8 C277 33 203 2 203 67 L203 462 Z M77 602 C77 564 107 534 145 534 C183 534 213 564 213 602 C213 640 183 670 145 670 C107 670 77 640 77 602 L77 602 Z " />
<glyph glyph-name="j" unicode="j" horiz-adv-x="296" d="M220 462 C98 404 30 414 30 392 C30 370 110 392 110 309 L110 -45 C110 -86 135 -102 135 -138 C135 -173 99 -188 77 -188 C53 -188 46 -174 44 -137 C42 -97 25 -73 -14 -73 C-52 -73 -80 -94 -80 -131 C-80 -177 -27 -212 39 -212 C168 -212 220 -118 220 2 L220 462 Z M94 602 C94 564 124 534 162 534 C200 534 230 564 230 602 C230 640 200 670 162 670 C124 670 94 640 94 602 L94 602 Z " />
<glyph glyph-name="k" unicode="k" horiz-adv-x="556" d="M93 67 C93 2 19 33 19 8 C19 0 26 -2 39 -2 C81 -2 115 0 148 0 C181 0 215 -2 257 -2 C270 -2 277 0 277 8 C277 33 203 2 203 67 L203 197 L273 246 L347 103 C356 86 369 65 369 50 C369 7 308 35 308 9 C308 2 314 -2 330 -2 C379 -2 409 0 440 0 C501 0 522 -2 552 -2 C563 -2 571 -2 571 7 C571 35 524 5 500 48 L350 311 C387 354 415 397 467 421 C511 442 530 429 530 445 C530 452 525 456 515 456 C475 456 442 454 410 454 C378 454 346 456 317 456 C305 456 301 451 301 444 C301 421 374 448 374 392 C374 361 322 301 203 222 L203 730 C81 672 13 682 13 660 C13 638 93 660 93 577 L93 67 Z " />
<glyph glyph-name="l" unicode="l" horiz-adv-x="296" d="M203 730 C81 672 13 682 13 660 C13 638 93 660 93 577 L93 67 C93 2 19 33 19 8 C19 0 26 -2 39 -2 C81 -2 115 0 148 0 C181 0 215 -2 257 -2 C270 -2 277 0 277 8 C277 33 203 2 203 67 L203 730 Z " />
<glyph glyph-name="m" unicode="m" horiz-adv-x="889" d="M95 67 C95 2 21 33 21 8 C21 0 28 -2 41 -2 C83 -2 117 0 150 0 C183 0 217 -2 259 -2 C272 -2 279 0 279 8 C279 33 205 2 205 67 L205 354 C230 376 284 416 329 416 C358 416 389 396 389 351 L389 67 C389 2 315 33 315 8 C315 0 322 -2 335 -2 C377 -2 411 0 444 0 C477 0 511 -2 553 -2 C566 -2 573 0 573 8 C573 33 499 2 499 67 L499 346 C534 383 580 416 620 416 C654 416 683 390 683 351 L683 67 C683 2 609 33 609 8 C609 0 616 -2 629 -2 C671 -2 705 0 738 0 C771 0 805 -2 847 -2 C860 -2 867 0 867 8 C867 33 793 2 793 67 L793 332 C793 420 762 462 676 462 C605 462 543 419 492 374 C489 415 466 462 386 462 C321 462 276 435 205 382 L205 462 C83 404 15 414 15 392 C15 370 95 392 95 309 L95 67 Z " />
<glyph glyph-name="n" unicode="n" horiz-adv-x="593" d="M203 354 C228 376 282 416 327 416 C356 416 390 396 390 351 L390 67 C390 2 316 33 316 8 C316 0 323 -2 336 -2 C378 -2 412 0 445 0 C478 0 512 -2 554 -2 C567 -2 574 0 574 8 C574 33 500 2 500 67 L500 350 C500 419 464 462 386 462 C321 462 274 435 203 382 L203 462 C81 404 13 414 13 392 C13 370 93 392 93 309 L93 67 C93 2 19 33 19 8 C19 0 26 -2 39 -2 C81 -2 115 0 148 0 C181 0 215 -2 257 -2 C270 -2 277 0 277 8 C277 33 203 2 203 67 L203 354 Z " />
<glyph glyph-name="o" unicode="o" horiz-adv-x="556" d="M278 16 C204 16 154 70 154 227 C154 384 204 438 278 438 C352 438 402 384 402 227 C402 70 352 16 278 16 L278 16 Z M278 462 C143 462 34 357 34 227 C34 97 143 -8 278 -8 C413 -8 522 97 522 227 C522 357 413 462 278 462 L278 462 Z " />
<glyph glyph-name="p" unicode="p" horiz-adv-x="556" d="M76 -125 C76 -190 2 -159 2 -184 C2 -192 9 -194 22 -194 C64 -194 98 -192 131 -192 C164 -192 198 -194 240 -194 C253 -194 260 -192 260 -184 C260 -159 186 -190 186 -125 L186 2 C220 -4 238 -8 267 -8 C424 -8 522 115 522 256 C522 393 445 462 352 462 C293 462 249 439 186 390 L186 462 C64 404 -4 414 -4 392 C-4 370 76 392 76 309 L76 -125 Z M186 362 C215 389 250 410 282 410 C352 410 412 354 412 231 C412 122 372 16 270 16 C220 16 186 55 186 141 L186 362 Z " />
<glyph glyph-name="q" unicode="q" horiz-adv-x="556" d="M480 462 C459 450 438 431 424 415 C385 439 350 462 281 462 C146 462 34 351 34 202 C34 99 82 -8 213 -8 C291 -8 346 38 368 67 L370 67 L370 -125 C370 -190 296 -159 296 -184 C296 -192 303 -194 316 -194 C358 -194 392 -192 425 -192 C458 -192 492 -194 534 -194 C547 -194 554 -192 554 -184 C554 -159 480 -190 480 -125 L480 462 Z M370 121 C357 80 325 44 265 44 C194 44 144 125 144 236 C144 355 189 438 275 438 C339 438 367 399 370 323 L370 121 Z " />
<glyph glyph-name="r" unicode="r" horiz-adv-x="426" d="M100 67 C100 2 26 33 26 8 C26 0 33 -2 46 -2 C88 -2 122 0 155 0 C188 0 222 -2 264 -2 C277 -2 284 0 284 8 C284 33 210 2 210 67 L210 209 C210 335 257 382 287 382 C325 382 322 334 369 334 C398 334 428 354 428 390 C428 434 394 462 349 462 C282 462 232 397 209 328 L207 328 L207 462 C72 402 20 418 20 402 C20 376 100 398 100 321 L100 67 Z " />
<glyph glyph-name="s" unicode="s" horiz-adv-x="426" d="M361 430 C333 444 269 462 211 462 C95 462 52 388 52 335 C52 174 310 204 310 87 C310 44 276 16 225 16 C159 16 119 54 86 115 C61 163 68 179 56 179 C51 179 49 176 49 170 L49 23 C75 13 133 -8 206 -8 C324 -8 392 54 392 142 C392 308 134 282 134 387 C134 413 160 438 207 438 C267 438 303 405 325 358 C345 316 345 303 353 303 C359 303 361 305 361 313 L361 430 Z " />
<glyph glyph-name="t" unicode="t" horiz-adv-x="370" d="M100 113 C100 41 146 -8 234 -8 C330 -8 372 66 372 89 C372 92 370 96 366 96 C360 96 359 87 347 72 C331 53 310 38 281 38 C232 38 210 71 210 144 L210 402 L323 402 L347 454 L210 454 L210 604 C150 520 96 466 26 402 L100 402 L100 113 Z " />
<glyph glyph-name="u" unicode="u" horiz-adv-x="574" d="M378 -8 C499 42 561 34 561 48 C561 66 487 46 487 125 L487 462 C365 404 297 420 297 404 C297 376 377 398 377 321 L377 101 C362 74 307 38 255 38 C225 38 197 56 197 100 L197 462 C75 404 7 420 7 404 C7 376 87 398 87 321 L87 88 C87 18 141 -8 195 -8 C269 -8 322 23 378 76 L378 -8 Z " />
<glyph glyph-name="v" unicode="v" horiz-adv-x="519" d="M195 374 C191 383 188 392 188 401 C188 446 241 427 241 446 C241 454 235 456 216 456 C192 456 169 454 122 454 C81 454 49 456 21 456 C8 456 4 452 4 446 C4 423 35 448 60 392 L234 6 C238 -3 241 -12 250 -12 C259 -12 262 -3 266 6 L429 346 C475 442 514 430 514 446 C514 454 507 456 495 456 C479 456 468 454 439 454 C401 454 378 456 354 456 C342 456 337 453 337 446 C337 425 394 448 394 376 C394 330 377 280 299 123 L195 374 Z " />
<glyph glyph-name="w" unicode="w" horiz-adv-x="759" d="M466 373 C462 382 459 391 459 406 C459 445 510 425 510 446 C510 454 505 456 487 456 C467 456 442 454 394 454 C370 454 346 456 296 456 C285 456 277 456 277 446 C277 428 314 448 340 388 L370 316 L287 139 L194 373 C191 382 187 391 187 404 C187 445 230 427 230 446 C230 456 224 456 211 456 C171 456 147 454 122 454 C78 454 48 456 25 456 C14 456 9 454 9 446 C9 434 44 447 67 389 L220 4 C224 -6 229 -12 236 -12 C243 -12 247 -6 251 4 L381 294 L498 4 C502 -6 507 -12 514 -12 C521 -12 525 -6 529 4 L666 329 C719 454 769 429 769 447 C769 453 764 456 755 456 C737 456 701 454 678 454 C656 454 633 456 605 456 C595 456 588 454 588 446 C588 428 649 451 649 384 C649 345 643 329 563 132 L466 373 Z " />
<glyph glyph-name="x" unicode="x" horiz-adv-x="556" d="M319 268 L421 378 C484 445 524 425 524 445 C524 453 518 456 498 456 C480 456 458 454 428 454 C404 454 375 456 355 456 C335 456 330 451 330 446 C330 424 378 444 378 395 C378 372 368 356 308 282 C254 359 236 379 236 402 C236 443 289 422 289 445 C289 452 280 456 259 456 C218 456 188 454 157 454 C127 454 97 456 49 456 C32 456 26 453 26 445 C26 418 68 449 108 390 L224 215 L111 76 C47 -1 2 33 2 7 C2 -2 7 -2 23 -2 C50 -2 88 0 111 0 C156 0 181 -2 201 -2 C215 -2 221 -2 221 8 C221 25 166 11 166 72 C166 109 201 155 236 199 C304 100 329 69 329 44 C329 5 270 33 270 8 C270 0 274 -2 287 -2 C318 -2 366 0 412 0 C461 0 500 -2 536 -2 C548 -2 553 -2 553 8 C553 29 503 4 463 61 L319 268 Z " />
<glyph glyph-name="y" unicode="y" horiz-adv-x="519" d="M255 -15 L214 -108 C207 -123 200 -132 188 -132 C163 -132 169 -78 117 -78 C88 -78 65 -104 65 -139 C65 -187 99 -212 135 -212 C177 -212 203 -187 243 -91 L422 337 C470 453 526 418 526 445 C526 450 519 456 507 456 C464 456 441 454 419 454 C397 454 374 456 334 456 C319 456 312 452 312 445 C312 419 390 451 390 365 C390 316 363 252 311 127 L205 368 C199 382 192 398 192 405 C192 440 239 425 239 446 C239 454 233 456 210 456 C177 456 151 454 125 454 C99 454 73 456 27 456 C15 456 7 456 7 446 C7 424 46 449 79 376 L255 -15 Z " />
<glyph glyph-name="z" unicode="z" horiz-adv-x="500" d="M465 456 C405 456 344 454 283 454 C222 454 162 456 99 456 L62 315 C55 286 49 270 49 265 C49 258 51 255 56 255 C66 255 71 272 79 288 C104 338 190 438 333 438 L20 -2 C86 -2 151 0 217 0 C282 0 347 -2 413 -2 L458 204 C460 215 462 223 462 229 C462 234 459 237 454 237 C445 237 444 230 433 202 C396 107 296 16 156 16 L465 456 Z " />
<glyph glyph-name="braceleft" unicode="&#x7b;" horiz-adv-x="407" d="M120 -64 C120 -191 188 -212 310 -212 L310 -192 C243 -188 220 -147 220 -74 L220 122 C220 197 205 239 121 258 L121 260 C205 278 220 320 220 396 L220 592 C220 665 243 706 310 710 L310 730 C188 730 120 709 120 582 L120 380 C120 312 103 278 28 259 C103 239 120 206 120 138 L120 -64 Z " />
<glyph glyph-name="bar" unicode="&#x7c;" horiz-adv-x="222" d="M70 0 L152 0 L152 730 L70 730 L70 0 Z " />
<glyph glyph-name="braceright" unicode="&#x7d;" horiz-adv-x="407" d="M287 582 C287 709 219 730 97 730 L97 710 C164 706 187 665 187 592 L187 396 C187 321 202 279 286 260 L286 258 C202 240 187 198 187 122 L187 -74 C187 -147 164 -188 97 -192 L97 -212 C219 -212 287 -191 287 -64 L287 138 C287 206 304 240 379 259 C304 279 287 312 287 380 L287 582 Z " />
<glyph glyph-name="asciitilde" unicode="&#x7e;" horiz-adv-x="600" d="M475 303 C454 271 432 239 396 239 C372 239 338 256 305 270 C271 285 236 299 205 299 C145 299 113 259 89 221 L125 151 C140 181 161 215 201 215 C242 215 275 199 304 183 C333 167 362 153 395 153 C451 153 481 193 511 231 L475 303 Z " />
<glyph glyph-name="exclamdown" unicode="&#xa1;" horiz-adv-x="407" d="M204 284 C196 284 194 273 192 249 C178 88 141 21 141 -94 C141 -185 168 -212 204 -212 C239 -212 267 -185 267 -94 C267 21 230 88 216 249 C214 273 212 284 204 284 L204 284 Z M204 354 C244 354 276 386 276 426 C276 466 244 498 204 498 C164 498 132 466 132 426 C132 386 164 354 204 354 L204 354 Z " />
<glyph glyph-name="cent" unicode="&#xa2;" horiz-adv-x="574" d="M495 678 L464 678 L391 544 C367 556 346 562 303 562 C194 562 87 465 87 332 C87 259 134 186 179 156 L91 -2 L123 -2 L203 141 C228 128 259 118 303 118 C444 118 490 252 490 268 C490 274 488 278 483 278 C469 278 460 200 346 200 C307 200 263 218 253 232 L363 431 L365 431 C368 395 389 362 426 362 C454 362 485 383 485 425 C485 471 455 512 416 534 L495 678 Z M230 254 C191 292 181 356 181 388 C181 477 225 544 300 544 C326 544 357 536 365 498 L230 254 Z " />
<glyph glyph-name="sterling" unicode="&#xa3;" horiz-adv-x="574" d="M136 139 C169 139 196 120 250 51 C225 30 196 16 155 16 C110 16 79 51 79 85 C79 116 104 139 136 139 L136 139 Z M34 384 L34 338 L177 338 C263 286 308 222 308 162 C308 154 305 146 301 138 C259 166 209 193 164 193 C77 193 55 123 55 89 C55 27 99 -8 160 -8 C206 -8 229 9 266 33 C290 10 326 -16 379 -16 C475 -16 550 94 550 240 C550 253 548 257 538 257 C526 257 530 241 524 210 C511 143 487 92 410 92 C380 92 354 103 318 127 C338 163 350 203 350 244 C350 272 344 308 330 338 L430 338 L430 384 L303 384 C215 473 165 484 165 570 C165 623 204 668 265 668 C338 668 397 601 436 518 C464 460 461 448 473 448 C481 448 481 454 481 459 C481 466 480 476 479 484 L457 662 C456 673 455 678 448 678 C431 678 449 648 414 648 C378 648 338 686 268 686 C161 686 87 592 87 495 C87 452 101 419 126 384 L34 384 Z " />
<glyph glyph-name="currency" unicode="&#xa4;" horiz-adv-x="574" d="M482 583 L428 529 C392 559 341 577 287 577 C233 577 182 559 146 529 L92 583 L43 534 L96 481 C65 446 49 393 49 339 C49 285 65 232 96 195 L43 143 L92 94 L146 148 C182 118 233 101 287 101 C341 101 392 118 428 148 L482 94 L531 143 L478 195 C509 232 525 285 525 339 C525 393 509 446 478 481 L531 534 L482 583 Z M287 167 C193 167 121 248 121 338 C121 429 193 511 287 511 C381 511 453 429 453 338 C453 248 381 167 287 167 L287 167 Z " />
<glyph glyph-name="yen" unicode="&#xa5;" horiz-adv-x="574" d="M387 392 L481 532 C575 674 628 651 628 668 C628 677 619 680 602 680 C577 680 547 678 517 678 C487 678 457 680 426 680 C409 680 396 679 396 668 C396 647 474 674 474 606 C474 552 448 520 327 342 L214 546 C200 571 188 599 188 615 C188 667 252 648 252 667 C252 676 245 680 233 680 C197 680 159 678 121 678 C75 678 30 680 -5 680 C-26 680 -31 677 -31 667 C-31 650 29 673 64 611 L187 392 L64 392 L64 346 L213 346 L232 311 L232 261 L64 261 L64 215 L232 215 L232 72 C232 5 140 37 140 12 C140 0 150 -2 166 -2 C201 -2 227 0 287 0 C347 0 373 -2 408 -2 C424 -2 438 0 438 12 C438 37 342 5 342 72 L342 215 L516 215 L516 261 L342 261 L342 324 L357 346 L516 346 L516 392 L387 392 Z " />
<glyph glyph-name="brokenbar" unicode="&#xa6;" horiz-adv-x="222" d="M70 0 L152 0 L152 272 L70 272 L70 0 Z M70 458 L152 458 L152 730 L70 730 L70 458 Z " />
<glyph glyph-name="section" unicode="&#xa7;" horiz-adv-x="500" d="M378 242 C378 209 359 180 328 162 C190 231 128 256 128 320 C128 356 162 399 206 400 C324 337 378 297 378 242 L378 242 Z M426 673 C426 682 424 686 418 686 C411 686 396 662 373 662 C355 662 316 694 237 694 C135 694 74 639 74 566 C74 498 115 466 182 418 C77 394 44 325 44 266 C44 79 343 100 343 -20 C343 -51 324 -100 248 -100 C151 -100 106 -25 77 37 C58 79 54 98 46 98 C40 98 38 95 38 84 L38 -101 C38 -111 42 -114 49 -114 C61 -114 80 -84 98 -84 C118 -84 161 -124 247 -124 C408 -124 443 -18 443 34 C443 96 395 132 353 152 C406 177 462 209 462 301 C462 467 174 483 174 602 C174 641 212 670 256 670 C305 670 352 643 377 598 C407 542 405 502 417 502 C423 502 426 506 426 511 L426 673 Z " />
<glyph glyph-name="dieresis" unicode="&#xa8;" horiz-adv-x="296" d="M-6 579 C-6 550 18 526 47 526 C76 526 100 550 100 579 C100 608 76 632 47 632 C18 632 -6 608 -6 579 L-6 579 Z M196 579 C196 550 220 526 249 526 C278 526 302 550 302 579 C302 608 278 632 249 632 C220 632 196 608 196 579 L196 579 Z " />
<glyph glyph-name="copyright" unicode="&#xa9;" horiz-adv-x="800" d="M400 -16 C597 -16 748 141 748 339 C748 537 597 694 400 694 C203 694 52 537 52 339 C52 141 203 -16 400 -16 L400 -16 Z M400 40 C246 40 126 178 126 338 C126 499 246 638 400 638 C554 638 674 499 674 338 C674 178 554 40 400 40 L400 40 Z M552 260 C529 209 489 170 429 170 C350 170 314 224 314 355 C314 470 360 524 427 524 C484 524 520 490 536 436 L554 436 L554 510 C554 528 488 548 428 548 C280 548 202 460 202 350 C202 212 292 146 420 146 C481 146 552 170 554 181 L570 260 L552 260 Z " />
<glyph glyph-name="ordfeminine" unicode="&#xaa;" horiz-adv-x="300" d="M192 463 C191 459 153 428 121 428 C93 428 86 456 86 477 C86 515 131 536 192 557 L192 463 Z M192 573 C79 540 14 512 14 458 C14 423 42 404 82 404 C126 404 163 422 194 442 C200 418 213 404 249 404 C293 404 321 434 321 445 C321 451 317 454 313 454 C309 454 306 452 301 445 C296 439 286 434 276 434 C267 434 264 441 264 450 L264 615 C264 660 240 686 184 686 C103 686 23 639 23 599 C23 583 35 570 56 570 C87 570 98 582 105 617 C112 650 136 668 168 668 C184 668 192 661 192 646 L192 573 Z " />
<glyph glyph-name="guillemotleft" unicode="&#xab;" horiz-adv-x="463" d="M154 207 C148 216 142 223 142 226 C142 231 148 238 154 247 L252 400 C256 407 258 410 258 414 C258 418 255 420 252 420 C246 420 240 415 236 410 L73 240 C70 237 66 233 66 227 C66 221 70 217 73 214 L236 44 C240 39 246 34 252 34 C255 34 258 36 258 40 C258 44 256 47 252 54 L154 207 Z M293 207 C287 216 281 223 281 226 C281 231 287 238 293 247 L391 400 C395 407 397 410 397 414 C397 418 394 420 391 420 C385 420 379 415 375 410 L212 240 C209 237 205 233 205 227 C205 221 209 217 212 214 L375 44 C379 39 385 34 391 34 C394 34 397 36 397 40 C397 44 395 47 391 54 L293 207 Z " />
<glyph glyph-name="logicalnot" unicode="&#xac;" horiz-adv-x="600" d="M445 96 L527 96 L527 358 L73 358 L73 276 L445 276 L445 96 Z " />
<glyph glyph-name="registered" unicode="&#xae;" horiz-adv-x="800" d="M234 517 C274 512 277 510 277 469 L277 219 C277 179 274 177 234 174 L234 156 L410 156 L410 174 C362 177 363 179 363 219 L363 322 L397 322 C454 236 481 156 515 156 L589 156 L589 171 C576 184 548 218 524 251 L465 334 C507 349 539 390 539 439 C539 505 485 535 424 535 L234 535 L234 517 Z M363 511 L395 511 C430 511 451 493 451 435 C451 385 440 346 395 346 L363 346 L363 511 Z M400 -16 C597 -16 748 141 748 339 C748 537 597 694 400 694 C203 694 52 537 52 339 C52 141 203 -16 400 -16 L400 -16 Z M400 40 C246 40 126 178 126 338 C126 499 246 638 400 638 C554 638 674 499 674 338 C674 178 554 40 400 40 L400 40 Z " />
<glyph glyph-name="macron" unicode="&#xaf;" horiz-adv-x="296" d="M306 550 L306 610 L-10 610 L-10 550 L306 550 Z " />
<glyph glyph-name="degree" unicode="&#xb0;" horiz-adv-x="400" d="M200 450 C151 450 111 494 111 543 C111 592 151 636 200 636 C249 636 289 592 289 543 C289 494 249 450 200 450 L200 450 Z M200 400 C280 400 343 463 343 543 C343 623 280 686 200 686 C120 686 57 623 57 543 C57 463 120 400 200 400 L200 400 Z " />
<glyph glyph-name="plusminus" unicode="&#xb1;" horiz-adv-x="600" d="M259 325 L73 325 L73 243 L259 243 L259 114 L341 114 L341 243 L527 243 L527 325 L341 325 L341 454 L259 454 L259 325 Z M73 0 L527 0 L527 82 L73 82 L73 0 Z " />
<glyph glyph-name="twosuperior" unicode="&#xb2;" horiz-adv-x="344" d="M284 274 L308 356 C311 368 315 382 315 386 C315 389 313 393 307 393 C291 393 291 344 229 344 L81 344 C151 449 316 435 316 569 C316 618 266 686 178 686 C66 686 27 587 27 571 C27 565 31 561 37 561 C56 561 59 634 148 634 C194 634 234 602 234 552 C234 444 32 416 27 274 L284 274 Z " />
<glyph glyph-name="threesuperior" unicode="&#xb3;" horiz-adv-x="344" d="M143 638 C192 638 215 603 215 571 C215 516 173 495 146 495 C142 495 135 495 135 485 C135 478 146 477 156 477 C199 477 247 454 247 380 C247 324 209 286 159 286 C71 286 130 390 50 390 C25 390 12 371 12 351 C12 309 59 268 148 268 C271 268 329 354 329 411 C329 469 283 503 258 517 C280 536 297 557 297 587 C297 645 238 686 176 686 C91 686 50 614 50 601 C49 596 52 589 59 590 C70 590 91 638 143 638 L143 638 Z " />
<glyph glyph-name="acute" unicode="&#xb4;" horiz-adv-x="296" d="M119 510 L261 600 C289 618 300 632 300 650 C300 671 283 688 264 688 C242 688 228 673 205 649 L72 510 L119 510 Z " />
<glyph glyph-name="mu" unicode="&#xb5;" horiz-adv-x="574" d="M378 -8 C499 42 561 34 561 48 C561 66 487 46 487 125 L487 462 C365 404 297 420 297 404 C297 376 377 398 377 321 L377 101 C362 74 307 38 255 38 C225 38 197 56 197 100 L197 462 C75 404 7 420 7 404 C7 376 87 398 87 321 L87 125 C87 12 81 -84 81 -134 C81 -185 101 -212 139 -212 C174 -212 201 -187 201 -130 C201 -93 197 -47 197 -8 C269 -8 322 23 378 76 L378 -8 Z " />
<glyph glyph-name="paragraph" unicode="&#xb6;" horiz-adv-x="600" d="M378 -122 L460 -122 L460 592 C460 630 479 654 530 654 L530 678 L265 678 C106 678 56 586 56 480 C56 354 117 267 237 267 L237 -122 L319 -122 L319 648 L378 648 L378 -122 Z " />
<glyph glyph-name="periodcentered" unicode="&#xb7;" horiz-adv-x="287" d="M71 227 C71 187 103 155 143 155 C183 155 215 187 215 227 C215 267 183 299 143 299 C103 299 71 267 71 227 L71 227 Z " />
<glyph glyph-name="cedilla" unicode="&#xb8;" horiz-adv-x="296" d="M130 0 L87 -98 L101 -104 C108 -100 120 -98 129 -98 C159 -98 175 -113 175 -138 C175 -166 154 -178 113 -178 C89 -178 71 -172 57 -166 L43 -199 C59 -204 75 -216 130 -216 C210 -216 253 -185 253 -131 C253 -91 225 -60 172 -60 C162 -60 148 -62 139 -64 L167 0 L130 0 Z " />
<glyph glyph-name="onesuperior" unicode="&#xb9;" horiz-adv-x="344" d="M136 337 C136 299 125 292 51 292 C42 292 39 287 39 282 C39 276 42 272 49 272 C81 272 123 274 177 274 C230 274 272 272 302 272 C311 272 314 275 314 282 C314 288 309 292 299 292 C241 292 222 299 222 337 L222 675 C222 682 220 686 213 686 C202 686 201 675 159 660 C87 634 36 647 36 630 C36 623 39 620 46 620 L123 620 C132 620 136 616 136 607 L136 337 Z " />
<glyph glyph-name="ordmasculine" unicode="&#xba;" horiz-adv-x="334" d="M86 545 C86 600 103 668 167 668 C231 668 248 600 248 545 C248 491 231 422 167 422 C103 422 86 491 86 545 L86 545 Z M167 686 C79 686 8 623 8 545 C8 467 79 404 167 404 C255 404 326 467 326 545 C326 623 255 686 167 686 L167 686 Z " />
<glyph glyph-name="guillemotright" unicode="&#xbb;" horiz-adv-x="463" d="M309 247 C315 238 321 231 321 228 C321 223 315 216 309 207 L211 54 C207 47 205 44 205 40 C205 36 208 34 211 34 C217 34 223 39 227 44 L390 214 C393 217 397 221 397 227 C397 233 393 237 390 240 L227 410 C223 415 217 420 211 420 C208 420 205 418 205 414 C205 410 207 407 211 400 L309 247 Z M170 247 C176 238 182 231 182 228 C182 223 176 216 170 207 L72 54 C68 47 66 44 66 40 C66 36 69 34 72 34 C78 34 84 39 88 44 L251 214 C254 217 258 221 258 227 C258 233 254 237 251 240 L88 410 C84 415 78 420 72 420 C69 420 66 418 66 414 C66 410 68 407 72 400 L170 247 Z " />
<glyph glyph-name="onequarter" unicode="&#xbc;" horiz-adv-x="861" d="M511 137 L529 108 L698 108 L698 49 C698 4 640 28 640 10 C640 -1 644 -2 655 -2 C681 -2 709 0 737 0 C765 0 792 -2 823 -2 C834 -2 838 -1 838 10 C838 26 774 4 774 58 L774 108 L835 108 L853 150 L774 150 L774 408 L746 408 L511 137 Z M698 150 L560 150 L696 308 L698 308 L698 150 Z M708 686 L637 686 L207 -8 L280 -8 L708 686 Z M128 335 C128 297 117 290 43 290 C34 290 31 285 31 280 C31 276 34 272 41 272 C73 272 115 274 169 274 C222 274 264 272 294 272 C303 272 306 275 306 280 C306 286 301 290 291 290 C233 290 214 297 214 335 L214 675 C214 682 212 686 205 686 C194 686 193 675 151 660 C79 634 28 647 28 630 C28 623 31 620 38 620 L115 620 C124 620 128 616 128 607 L128 335 Z " />
<glyph glyph-name="onehalf" unicode="&#xbd;" horiz-adv-x="861" d="M684 686 L613 686 L183 -8 L256 -8 L684 686 Z M128 335 C128 297 117 290 43 290 C34 290 31 285 31 280 C31 276 34 272 41 272 C73 272 115 274 169 274 C222 274 264 272 294 272 C303 272 306 275 306 280 C306 286 301 290 291 290 C233 290 214 297 214 335 L214 675 C214 682 212 686 205 686 C194 686 193 675 151 660 C79 634 28 647 28 630 C28 623 31 620 38 620 L115 620 C124 620 128 616 128 607 L128 335 Z M808 -1 L832 81 C835 93 839 107 839 111 C839 114 837 118 831 118 C815 118 815 69 753 69 L605 69 C675 174 840 160 840 294 C840 343 790 411 702 411 C590 411 551 312 551 296 C551 290 555 286 561 286 C580 286 583 359 672 359 C718 359 758 327 758 277 C758 169 556 141 551 -1 L808 -1 Z " />
<glyph glyph-name="threequarters" unicode="&#xbe;" horiz-adv-x="861" d="M511 137 L529 108 L698 108 L698 49 C698 4 640 28 640 10 C640 -1 644 -2 655 -2 C681 -2 709 0 737 0 C765 0 792 -2 823 -2 C834 -2 838 -1 838 10 C838 26 774 4 774 58 L774 108 L835 108 L853 150 L774 150 L774 408 L746 408 L511 137 Z M698 150 L560 150 L696 308 L698 308 L698 150 Z M716 686 L645 686 L215 -8 L288 -8 L716 686 Z M157 638 C206 638 229 603 229 571 C229 516 187 495 160 495 C156 495 149 495 149 485 C149 478 160 477 170 477 C213 477 261 454 261 380 C261 324 223 286 173 286 C85 286 144 390 64 390 C39 390 26 371 26 351 C26 309 73 268 162 268 C285 268 343 354 343 411 C343 469 297 503 272 517 C294 536 311 557 311 587 C311 645 252 686 190 686 C105 686 64 614 64 601 C63 596 66 589 73 590 C84 590 105 638 157 638 L157 638 Z " />
<glyph glyph-name="questiondown" unicode="&#xbf;" horiz-adv-x="574" d="M392 93 C366 171 363 183 338 299 L303 291 L303 220 C292 222 280 223 269 223 C150 223 63 134 63 17 C63 -102 157 -212 311 -212 C405 -212 490 -152 490 -80 C490 -44 472 -15 432 -15 C341 -15 376 -178 251 -178 C178 -178 115 -111 115 -36 C115 39 160 121 267 121 C311 121 330 109 367 78 L392 93 Z M321 354 C361 354 393 386 393 426 C393 466 361 498 321 498 C281 498 249 466 249 426 C249 386 281 354 321 354 L321 354 Z " />
<glyph glyph-name="Agrave" unicode="&#xc0;" horiz-adv-x="667" d="M406 244 L463 114 C470 99 480 69 480 60 C480 6 410 35 410 10 C410 1 416 -2 426 -2 C467 -2 506 0 546 0 C586 0 626 -2 666 -2 C676 -2 683 -1 683 10 C683 32 635 3 609 62 L396 533 C337 665 337 698 324 698 C311 698 316 684 295 640 C267 581 250 583 250 568 C250 556 274 537 274 530 C274 522 257 485 137 185 C110 117 77 64 51 42 C23 18 -16 28 -16 10 C-16 2 -13 -2 -3 -2 C33 -2 65 0 98 0 C166 0 190 -2 211 -2 C222 -2 227 -2 227 9 C227 33 144 9 144 109 C144 138 157 167 184 244 L406 244 Z M396 268 L194 268 L288 514 L396 268 Z M393 718 L260 857 C237 881 223 896 201 896 C182 896 165 879 165 858 C165 840 176 826 204 808 L346 718 L393 718 Z " />
<glyph glyph-name="Aacute" unicode="&#xc1;" horiz-adv-x="667" d="M406 244 L463 114 C470 99 480 69 480 60 C480 6 410 35 410 10 C410 1 416 -2 426 -2 C467 -2 506 0 546 0 C586 0 626 -2 666 -2 C676 -2 683 -1 683 10 C683 32 635 3 609 62 L396 533 C337 665 337 698 324 698 C311 698 316 684 295 640 C267 581 250 583 250 568 C250 556 274 537 274 530 C274 522 257 485 137 185 C110 117 77 64 51 42 C23 18 -16 28 -16 10 C-16 2 -13 -2 -3 -2 C33 -2 65 0 98 0 C166 0 190 -2 211 -2 C222 -2 227 -2 227 9 C227 33 144 9 144 109 C144 138 157 167 184 244 L406 244 Z M396 268 L194 268 L288 514 L396 268 Z M288 718 L430 808 C458 826 469 840 469 858 C469 879 452 896 433 896 C411 896 397 881 374 857 L241 718 L288 718 Z " />
<glyph glyph-name="Acircumflex" unicode="&#xc2;" horiz-adv-x="667" d="M406 244 L463 114 C470 99 480 69 480 60 C480 6 410 35 410 10 C410 1 416 -2 426 -2 C467 -2 506 0 546 0 C586 0 626 -2 666 -2 C676 -2 683 -1 683 10 C683 32 635 3 609 62 L396 533 C337 665 337 698 324 698 C311 698 316 684 295 640 C267 581 250 583 250 568 C250 556 274 537 274 530 C274 522 257 485 137 185 C110 117 77 64 51 42 C23 18 -16 28 -16 10 C-16 2 -13 -2 -3 -2 C33 -2 65 0 98 0 C166 0 190 -2 211 -2 C222 -2 227 -2 227 9 C227 33 144 9 144 109 C144 138 157 167 184 244 L406 244 Z M396 268 L194 268 L288 514 L396 268 Z M283 886 L159 718 L202 718 L317 820 L432 718 L475 718 L351 886 L283 886 Z " />
<glyph glyph-name="Atilde" unicode="&#xc3;" horiz-adv-x="667" d="M406 244 L463 114 C470 99 480 69 480 60 C480 6 410 35 410 10 C410 1 416 -2 426 -2 C467 -2 506 0 546 0 C586 0 626 -2 666 -2 C676 -2 683 -1 683 10 C683 32 635 3 609 62 L396 533 C337 665 337 698 324 698 C311 698 316 684 295 640 C267 581 250 583 250 568 C250 556 274 537 274 530 C274 522 257 485 137 185 C110 117 77 64 51 42 C23 18 -16 28 -16 10 C-16 2 -13 -2 -3 -2 C33 -2 65 0 98 0 C166 0 190 -2 211 -2 C222 -2 227 -2 227 9 C227 33 144 9 144 109 C144 138 157 167 184 244 L406 244 Z M396 268 L194 268 L288 514 L396 268 Z M178 742 C184 760 194 790 230 790 C255 790 275 779 298 767 C320 756 344 744 378 744 C441 744 465 785 488 854 L454 854 C438 811 421 804 401 804 C378 804 356 816 333 828 C310 840 286 852 255 852 C185 852 153 784 146 742 L178 742 Z " />
<glyph glyph-name="Adieresis" unicode="&#xc4;" horiz-adv-x="667" d="M406 244 L463 114 C470 99 480 69 480 60 C480 6 410 35 410 10 C410 1 416 -2 426 -2 C467 -2 506 0 546 0 C586 0 626 -2 666 -2 C676 -2 683 -1 683 10 C683 32 635 3 609 62 L396 533 C337 665 337 698 324 698 C311 698 316 684 295 640 C267 581 250 583 250 568 C250 556 274 537 274 530 C274 522 257 485 137 185 C110 117 77 64 51 42 C23 18 -16 28 -16 10 C-16 2 -13 -2 -3 -2 C33 -2 65 0 98 0 C166 0 190 -2 211 -2 C222 -2 227 -2 227 9 C227 33 144 9 144 109 C144 138 157 167 184 244 L406 244 Z M396 268 L194 268 L288 514 L396 268 Z M163 787 C163 758 187 734 216 734 C245 734 269 758 269 787 C269 816 245 840 216 840 C187 840 163 816 163 787 L163 787 Z M365 787 C365 758 389 734 418 734 C447 734 471 758 471 787 C471 816 447 840 418 840 C389 840 365 816 365 787 L365 787 Z " />
<glyph glyph-name="Aring" unicode="&#xc5;" horiz-adv-x="667" d="M406 244 L463 114 C470 99 480 69 480 60 C480 6 410 35 410 10 C410 1 416 -2 426 -2 C467 -2 506 0 546 0 C586 0 626 -2 666 -2 C676 -2 683 -1 683 10 C683 32 635 3 609 62 L396 533 C337 665 337 698 324 698 C311 698 316 684 295 640 C267 581 250 583 250 568 C250 556 274 537 274 530 C274 522 257 485 137 185 C110 117 77 64 51 42 C23 18 -16 28 -16 10 C-16 2 -13 -2 -3 -2 C33 -2 65 0 98 0 C166 0 190 -2 211 -2 C222 -2 227 -2 227 9 C227 33 144 9 144 109 C144 138 157 167 184 244 L406 244 Z M396 268 L194 268 L288 514 L396 268 Z M216 820 C216 765 262 718 317 718 C372 718 418 765 418 820 C418 875 372 920 317 920 C262 920 216 875 216 820 L216 820 Z M254 819 C254 855 281 882 317 882 C353 882 380 855 380 819 C380 783 353 756 317 756 C281 756 254 783 254 819 L254 819 Z " />
<glyph glyph-name="AE" unicode="&#xc6;" horiz-adv-x="1000" d="M435 72 C435 5 352 37 352 12 C352 0 358 -2 374 -2 C409 -2 435 0 495 0 C741 0 828 -2 911 -2 L953 224 C956 238 956 247 956 253 C956 258 954 263 947 263 C940 263 937 258 932 243 C903 144 824 22 639 22 C579 22 555 40 555 78 L555 330 L577 330 C663 330 728 295 728 190 C728 175 733 172 740 172 C748 172 752 175 752 190 L752 489 C752 504 748 508 740 508 C733 508 728 504 728 489 C728 388 663 354 577 354 L555 354 L555 656 L585 656 C704 656 789 639 850 552 C899 482 896 457 908 457 C914 457 916 460 916 467 C916 472 914 480 910 493 L862 680 C783 680 695 678 607 678 C520 678 432 680 331 680 C306 680 303 680 303 670 C303 643 374 672 374 621 C374 601 371 591 356 567 L138 218 C5 5 -92 31 -92 10 C-92 1 -88 -2 -76 -2 C-51 -2 -23 0 60 0 C114 0 159 -2 181 -2 C200 -2 209 -2 209 9 C209 36 126 5 126 105 C126 153 141 175 188 252 L236 330 L435 330 L435 72 Z M435 354 L252 354 L431 650 L435 650 L435 354 Z " />
<glyph glyph-name="Ccedilla" unicode="&#xc7;" horiz-adv-x="741" d="M652 663 C652 673 650 682 641 682 C619 682 634 635 598 635 C562 635 502 694 380 694 C218 694 39 542 39 339 C39 138 190 -16 372 -16 C494 -16 556 32 594 32 C636 32 618 -16 642 -16 C654 -16 656 -7 656 3 L656 250 C656 260 654 269 647 269 C637 269 635 261 632 246 C610 123 501 8 386 8 C267 8 171 114 171 339 C171 559 267 670 384 670 C521 670 606 534 628 426 C633 405 633 396 643 396 C650 396 652 405 652 415 L652 663 Z M365 0 L322 -98 L336 -104 C343 -100 355 -98 364 -98 C394 -98 410 -113 410 -138 C410 -166 389 -178 348 -178 C324 -178 306 -172 292 -166 L278 -199 C294 -204 310 -216 365 -216 C445 -216 488 -185 488 -131 C488 -91 460 -60 407 -60 C397 -60 383 -62 374 -64 L402 0 L365 0 Z " />
<glyph glyph-name="Egrave" unicode="&#xc8;" horiz-adv-x="667" d="M118 72 C118 5 35 37 35 12 C35 0 41 -2 57 -2 C92 -2 118 0 178 0 C426 0 511 -2 594 -2 L636 224 C639 238 639 247 639 253 C639 258 637 263 630 263 C623 263 620 258 615 243 C586 144 507 22 322 22 C262 22 238 40 238 78 L238 338 L260 338 C346 338 411 303 411 198 C411 183 416 180 423 180 C431 180 435 183 435 198 L435 497 C435 512 431 516 423 516 C416 516 411 512 411 497 C411 396 346 362 260 362 L238 362 L238 656 L268 656 C387 656 472 639 533 552 C582 482 579 457 591 457 C597 457 599 460 599 467 C599 472 597 480 593 493 L545 680 C473 680 399 678 178 678 C118 678 92 680 57 680 C41 680 35 678 35 666 C35 641 118 673 118 606 L118 72 Z M398 718 L265 857 C242 881 228 896 206 896 C187 896 170 879 170 858 C170 840 181 826 209 808 L351 718 L398 718 Z " />
<glyph glyph-name="Eacute" unicode="&#xc9;" horiz-adv-x="667" d="M118 72 C118 5 35 37 35 12 C35 0 41 -2 57 -2 C92 -2 118 0 178 0 C426 0 511 -2 594 -2 L636 224 C639 238 639 247 639 253 C639 258 637 263 630 263 C623 263 620 258 615 243 C586 144 507 22 322 22 C262 22 238 40 238 78 L238 338 L260 338 C346 338 411 303 411 198 C411 183 416 180 423 180 C431 180 435 183 435 198 L435 497 C435 512 431 516 423 516 C416 516 411 512 411 497 C411 396 346 362 260 362 L238 362 L238 656 L268 656 C387 656 472 639 533 552 C582 482 579 457 591 457 C597 457 599 460 599 467 C599 472 597 480 593 493 L545 680 C473 680 399 678 178 678 C118 678 92 680 57 680 C41 680 35 678 35 666 C35 641 118 673 118 606 L118 72 Z M293 718 L435 808 C463 826 474 840 474 858 C474 879 457 896 438 896 C416 896 402 881 379 857 L246 718 L293 718 Z " />
<glyph glyph-name="Ecircumflex" unicode="&#xca;" horiz-adv-x="667" d="M118 72 C118 5 35 37 35 12 C35 0 41 -2 57 -2 C92 -2 118 0 178 0 C426 0 511 -2 594 -2 L636 224 C639 238 639 247 639 253 C639 258 637 263 630 263 C623 263 620 258 615 243 C586 144 507 22 322 22 C262 22 238 40 238 78 L238 338 L260 338 C346 338 411 303 411 198 C411 183 416 180 423 180 C431 180 435 183 435 198 L435 497 C435 512 431 516 423 516 C416 516 411 512 411 497 C411 396 346 362 260 362 L238 362 L238 656 L268 656 C387 656 472 639 533 552 C582 482 579 457 591 457 C597 457 599 460 599 467 C599 472 597 480 593 493 L545 680 C473 680 399 678 178 678 C118 678 92 680 57 680 C41 680 35 678 35 666 C35 641 118 673 118 606 L118 72 Z M288 886 L164 718 L207 718 L322 820 L437 718 L480 718 L356 886 L288 886 Z " />
<glyph glyph-name="Edieresis" unicode="&#xcb;" horiz-adv-x="667" d="M118 72 C118 5 35 37 35 12 C35 0 41 -2 57 -2 C92 -2 118 0 178 0 C426 0 511 -2 594 -2 L636 224 C639 238 639 247 639 253 C639 258 637 263 630 263 C623 263 620 258 615 243 C586 144 507 22 322 22 C262 22 238 40 238 78 L238 338 L260 338 C346 338 411 303 411 198 C411 183 416 180 423 180 C431 180 435 183 435 198 L435 497 C435 512 431 516 423 516 C416 516 411 512 411 497 C411 396 346 362 260 362 L238 362 L238 656 L268 656 C387 656 472 639 533 552 C582 482 579 457 591 457 C597 457 599 460 599 467 C599 472 597 480 593 493 L545 680 C473 680 399 678 178 678 C118 678 92 680 57 680 C41 680 35 678 35 666 C35 641 118 673 118 606 L118 72 Z M168 787 C168 758 192 734 221 734 C250 734 274 758 274 787 C274 816 250 840 221 840 C192 840 168 816 168 787 L168 787 Z M370 787 C370 758 394 734 423 734 C452 734 476 758 476 787 C476 816 452 840 423 840 C394 840 370 816 370 787 L370 787 Z " />
<glyph glyph-name="Igrave" unicode="&#xcc;" horiz-adv-x="370" d="M125 72 C125 5 42 37 42 12 C42 0 48 -2 64 -2 C99 -2 125 0 185 0 C245 0 271 -2 306 -2 C322 -2 328 0 328 12 C328 37 245 5 245 72 L245 606 C245 673 328 641 328 666 C328 678 322 680 306 680 C271 680 245 678 185 678 C125 678 99 680 64 680 C48 680 42 678 42 666 C42 641 125 673 125 606 L125 72 Z M261 718 L128 857 C105 881 91 896 69 896 C50 896 33 879 33 858 C33 840 44 826 72 808 L214 718 L261 718 Z " />
<glyph glyph-name="Iacute" unicode="&#xcd;" horiz-adv-x="370" d="M125 72 C125 5 42 37 42 12 C42 0 48 -2 64 -2 C99 -2 125 0 185 0 C245 0 271 -2 306 -2 C322 -2 328 0 328 12 C328 37 245 5 245 72 L245 606 C245 673 328 641 328 666 C328 678 322 680 306 680 C271 680 245 678 185 678 C125 678 99 680 64 680 C48 680 42 678 42 666 C42 641 125 673 125 606 L125 72 Z M156 718 L298 808 C326 826 337 840 337 858 C337 879 320 896 301 896 C279 896 265 881 242 857 L109 718 L156 718 Z " />
<glyph glyph-name="Icircumflex" unicode="&#xce;" horiz-adv-x="370" d="M125 72 C125 5 42 37 42 12 C42 0 48 -2 64 -2 C99 -2 125 0 185 0 C245 0 271 -2 306 -2 C322 -2 328 0 328 12 C328 37 245 5 245 72 L245 606 C245 673 328 641 328 666 C328 678 322 680 306 680 C271 680 245 678 185 678 C125 678 99 680 64 680 C48 680 42 678 42 666 C42 641 125 673 125 606 L125 72 Z M151 886 L27 718 L70 718 L185 820 L300 718 L343 718 L219 886 L151 886 Z " />
<glyph glyph-name="Idieresis" unicode="&#xcf;" horiz-adv-x="370" d="M125 72 C125 5 42 37 42 12 C42 0 48 -2 64 -2 C99 -2 125 0 185 0 C245 0 271 -2 306 -2 C322 -2 328 0 328 12 C328 37 245 5 245 72 L245 606 C245 673 328 641 328 666 C328 678 322 680 306 680 C271 680 245 678 185 678 C125 678 99 680 64 680 C48 680 42 678 42 666 C42 641 125 673 125 606 L125 72 Z M31 787 C31 758 55 734 84 734 C113 734 137 758 137 787 C137 816 113 840 84 840 C55 840 31 816 31 787 L31 787 Z M233 787 C233 758 257 734 286 734 C315 734 339 758 339 787 C339 816 315 840 286 840 C257 840 233 816 233 787 L233 787 Z " />
<glyph glyph-name="Eth" unicode="&#xd0;" horiz-adv-x="741" d="M118 370 L25 370 L25 334 L118 334 L118 72 C118 5 35 37 35 12 C35 0 41 -2 57 -2 C92 -2 118 0 178 0 C237 0 295 -2 362 -2 C587 -2 702 149 702 336 C702 541 557 680 320 680 C265 680 219 678 178 678 C118 678 92 680 57 680 C41 680 35 678 35 666 C35 641 118 673 118 606 L118 370 Z M238 334 L411 334 L411 370 L238 370 L238 656 L341 656 C494 656 570 520 570 329 C570 74 461 22 347 22 C275 22 238 48 238 112 L238 334 Z " />
<glyph glyph-name="Ntilde" unicode="&#xd1;" horiz-adv-x="704" d="M567 172 L565 172 L188 678 L95 678 C63 678 43 680 19 680 C4 680 -3 677 -3 666 C-3 647 51 676 109 593 L109 165 C109 80 72 39 34 27 C8 19 -4 23 -4 9 C-4 0 2 -2 18 -2 C54 -2 81 0 123 0 C165 0 192 -2 228 -2 C244 -2 250 0 250 9 C250 23 238 19 212 27 C174 39 137 80 137 165 L137 558 L139 558 L563 -6 C568 -13 576 -16 583 -16 C591 -16 595 -9 595 -2 L595 513 C595 598 632 639 670 651 C696 659 708 655 708 669 C708 678 702 680 686 680 C650 680 623 678 581 678 C539 678 512 680 476 680 C460 680 454 678 454 669 C454 655 466 659 492 651 C530 639 567 598 567 513 L567 172 Z M219 742 C225 760 235 790 271 790 C296 790 316 779 339 767 C361 756 385 744 419 744 C482 744 506 785 529 854 L495 854 C479 811 462 804 442 804 C419 804 397 816 374 828 C351 840 327 852 296 852 C226 852 194 784 187 742 L219 742 Z " />
<glyph glyph-name="Ograve" unicode="&#xd2;" horiz-adv-x="796" d="M625 339 C625 113 529 8 398 8 C267 8 171 113 171 339 C171 565 267 670 398 670 C529 670 625 565 625 339 L625 339 Z M398 694 C229 694 39 563 39 339 C39 115 229 -16 398 -16 C567 -16 757 115 757 339 C757 563 567 694 398 694 L398 694 Z M474 718 L341 857 C318 881 304 896 282 896 C263 896 246 879 246 858 C246 840 257 826 285 808 L427 718 L474 718 Z " />
<glyph glyph-name="Oacute" unicode="&#xd3;" horiz-adv-x="796" d="M625 339 C625 113 529 8 398 8 C267 8 171 113 171 339 C171 565 267 670 398 670 C529 670 625 565 625 339 L625 339 Z M398 694 C229 694 39 563 39 339 C39 115 229 -16 398 -16 C567 -16 757 115 757 339 C757 563 567 694 398 694 L398 694 Z M369 718 L511 808 C539 826 550 840 550 858 C550 879 533 896 514 896 C492 896 478 881 455 857 L322 718 L369 718 Z " />
<glyph glyph-name="Ocircumflex" unicode="&#xd4;" horiz-adv-x="796" d="M625 339 C625 113 529 8 398 8 C267 8 171 113 171 339 C171 565 267 670 398 670 C529 670 625 565 625 339 L625 339 Z M398 694 C229 694 39 563 39 339 C39 115 229 -16 398 -16 C567 -16 757 115 757 339 C757 563 567 694 398 694 L398 694 Z M364 886 L240 718 L283 718 L398 820 L513 718 L556 718 L432 886 L364 886 Z " />
<glyph glyph-name="Otilde" unicode="&#xd5;" horiz-adv-x="796" d="M625 339 C625 113 529 8 398 8 C267 8 171 113 171 339 C171 565 267 670 398 670 C529 670 625 565 625 339 L625 339 Z M398 694 C229 694 39 563 39 339 C39 115 229 -16 398 -16 C567 -16 757 115 757 339 C757 563 567 694 398 694 L398 694 Z M259 742 C265 760 275 790 311 790 C336 790 356 779 379 767 C401 756 425 744 459 744 C522 744 546 785 569 854 L535 854 C519 811 502 804 482 804 C459 804 437 816 414 828 C391 840 367 852 336 852 C266 852 234 784 227 742 L259 742 Z " />
<glyph glyph-name="Odieresis" unicode="&#xd6;" horiz-adv-x="796" d="M625 339 C625 113 529 8 398 8 C267 8 171 113 171 339 C171 565 267 670 398 670 C529 670 625 565 625 339 L625 339 Z M398 694 C229 694 39 563 39 339 C39 115 229 -16 398 -16 C567 -16 757 115 757 339 C757 563 567 694 398 694 L398 694 Z M244 787 C244 758 268 734 297 734 C326 734 350 758 350 787 C350 816 326 840 297 840 C268 840 244 816 244 787 L244 787 Z M446 787 C446 758 470 734 499 734 C528 734 552 758 552 787 C552 816 528 840 499 840 C470 840 446 816 446 787 L446 787 Z " />
<glyph glyph-name="multiply" unicode="&#xd7;" horiz-adv-x="600" d="M242 227 L73 58 L131 0 L300 169 L468 0 L527 58 L358 227 L527 396 L468 454 L300 285 L131 454 L73 396 L242 227 Z " />
<glyph glyph-name="Oslash" unicode="&#xd8;" horiz-adv-x="796" d="M554 597 C598 544 625 458 625 339 C625 113 529 8 398 8 C349 8 304 23 269 53 L554 597 Z M152 -83 L198 -83 L250 17 C297 -5 349 -16 398 -16 C567 -16 757 115 757 339 C757 483 679 588 579 645 L632 746 L588 746 L544 662 C498 683 447 694 398 694 C229 694 39 563 39 339 C39 197 115 93 214 35 L152 -83 Z M240 84 C197 137 171 222 171 339 C171 565 267 670 398 670 C446 670 490 656 525 626 L240 84 Z " />
<glyph glyph-name="Ugrave" unicode="&#xd9;" horiz-adv-x="722" d="M107 183 C107 70 194 -16 379 -16 C535 -16 616 66 616 206 L616 513 C616 598 653 639 691 651 C717 659 729 655 729 669 C729 678 723 680 707 680 C671 680 644 678 602 678 C560 678 533 680 497 680 C481 680 475 678 475 669 C475 655 487 659 513 651 C551 639 588 598 588 513 L588 204 C588 84 527 14 409 14 C300 14 227 77 227 182 L227 606 C227 673 310 641 310 666 C310 678 304 680 288 680 C253 680 227 678 167 678 C107 678 81 680 46 680 C30 680 24 678 24 666 C24 641 107 673 107 606 L107 183 Z M446 718 L313 857 C290 881 276 896 254 896 C235 896 218 879 218 858 C218 840 229 826 257 808 L399 718 L446 718 Z " />
<glyph glyph-name="Uacute" unicode="&#xda;" horiz-adv-x="722" d="M107 183 C107 70 194 -16 379 -16 C535 -16 616 66 616 206 L616 513 C616 598 653 639 691 651 C717 659 729 655 729 669 C729 678 723 680 707 680 C671 680 644 678 602 678 C560 678 533 680 497 680 C481 680 475 678 475 669 C475 655 487 659 513 651 C551 639 588 598 588 513 L588 204 C588 84 527 14 409 14 C300 14 227 77 227 182 L227 606 C227 673 310 641 310 666 C310 678 304 680 288 680 C253 680 227 678 167 678 C107 678 81 680 46 680 C30 680 24 678 24 666 C24 641 107 673 107 606 L107 183 Z M341 718 L483 808 C511 826 522 840 522 858 C522 879 505 896 486 896 C464 896 450 881 427 857 L294 718 L341 718 Z " />
<glyph glyph-name="Ucircumflex" unicode="&#xdb;" horiz-adv-x="722" d="M107 183 C107 70 194 -16 379 -16 C535 -16 616 66 616 206 L616 513 C616 598 653 639 691 651 C717 659 729 655 729 669 C729 678 723 680 707 680 C671 680 644 678 602 678 C560 678 533 680 497 680 C481 680 475 678 475 669 C475 655 487 659 513 651 C551 639 588 598 588 513 L588 204 C588 84 527 14 409 14 C300 14 227 77 227 182 L227 606 C227 673 310 641 310 666 C310 678 304 680 288 680 C253 680 227 678 167 678 C107 678 81 680 46 680 C30 680 24 678 24 666 C24 641 107 673 107 606 L107 183 Z M336 886 L212 718 L255 718 L370 820 L485 718 L528 718 L404 886 L336 886 Z " />
<glyph glyph-name="Udieresis" unicode="&#xdc;" horiz-adv-x="722" d="M107 183 C107 70 194 -16 379 -16 C535 -16 616 66 616 206 L616 513 C616 598 653 639 691 651 C717 659 729 655 729 669 C729 678 723 680 707 680 C671 680 644 678 602 678 C560 678 533 680 497 680 C481 680 475 678 475 669 C475 655 487 659 513 651 C551 639 588 598 588 513 L588 204 C588 84 527 14 409 14 C300 14 227 77 227 182 L227 606 C227 673 310 641 310 666 C310 678 304 680 288 680 C253 680 227 678 167 678 C107 678 81 680 46 680 C30 680 24 678 24 666 C24 641 107 673 107 606 L107 183 Z M216 787 C216 758 240 734 269 734 C298 734 322 758 322 787 C322 816 298 840 269 840 C240 840 216 816 216 787 L216 787 Z M418 787 C418 758 442 734 471 734 C500 734 524 758 524 787 C524 816 500 840 471 840 C442 840 418 816 418 787 L418 787 Z " />
<glyph glyph-name="Yacute" unicode="&#xdd;" horiz-adv-x="630" d="M508 533 C603 674 656 651 656 668 C656 677 647 680 630 680 C605 680 575 678 545 678 C515 678 475 680 446 680 C429 680 424 677 424 669 C424 647 494 674 494 598 C494 541 444 469 359 346 L240 562 C231 578 224 602 224 615 C224 666 288 646 288 666 C288 675 283 680 261 680 C225 680 187 678 149 678 C103 678 58 680 12 680 C2 680 -3 677 -3 669 C-3 649 52 667 92 595 L255 303 L255 72 C255 5 168 37 168 12 C168 0 178 -2 194 -2 C229 -2 255 0 315 0 C375 0 401 -2 436 -2 C452 -2 466 0 466 12 C466 37 375 5 375 72 L375 334 L508 533 Z M280 718 L422 808 C450 826 461 840 461 858 C461 879 444 896 425 896 C403 896 389 881 366 857 L233 718 L280 718 Z " />
<glyph glyph-name="Thorn" unicode="&#xde;" horiz-adv-x="593" d="M238 156 L276 156 C454 156 582 210 582 346 C582 444 505 536 298 536 C278 536 259 536 238 535 L238 606 C238 673 321 641 321 666 C321 678 315 680 299 680 C264 680 238 678 178 678 C118 678 92 680 57 680 C41 680 35 678 35 666 C35 641 118 673 118 606 L118 72 C118 5 35 37 35 12 C35 0 41 -2 57 -2 C92 -2 118 0 178 0 C238 0 264 -2 307 -2 C323 -2 333 0 333 12 C333 37 238 5 238 72 L238 156 Z M238 512 L308 512 C404 512 462 457 462 349 C462 238 418 180 290 180 L238 180 L238 512 Z " />
<glyph glyph-name="germandbls" unicode="&#xdf;" horiz-adv-x="574" d="M100 67 C100 2 26 33 26 8 C26 0 33 -2 46 -2 C88 -2 122 0 155 0 L210 0 L210 406 C210 508 195 556 195 604 C195 673 230 722 286 722 C345 722 369 680 369 618 C369 478 307 496 307 428 C307 340 428 370 428 153 C428 38 411 10 372 10 C351 10 338 21 338 36 C338 59 353 68 353 93 C353 125 333 146 305 146 C274 146 253 118 253 85 C253 30 306 -8 370 -8 C464 -8 548 60 548 175 C548 258 496 319 447 349 C387 384 331 389 331 426 C331 474 439 485 439 593 C439 671 373 746 295 746 C119 746 123 464 18 397 L100 397 L100 67 Z " />
<glyph glyph-name="agrave" unicode="&#xe0;" horiz-adv-x="500" d="M305 90 C303 83 245 32 195 32 C152 32 140 79 140 113 C140 184 210 219 305 253 L305 90 Z M305 273 C130 219 30 171 30 81 C30 24 74 -8 136 -8 C203 -8 260 30 308 64 C317 23 330 -8 393 -8 C449 -8 500 41 500 60 C500 66 496 68 490 68 C478 68 469 33 434 33 C420 33 415 46 415 58 L415 344 C415 419 379 462 293 462 C167 462 45 384 45 317 C45 290 63 268 95 268 C143 268 160 289 171 347 C183 408 219 438 267 438 C292 438 305 426 305 402 L305 273 Z M326 510 L193 649 C170 673 156 688 134 688 C115 688 98 671 98 650 C98 632 109 618 137 600 L279 510 L326 510 Z " />
<glyph glyph-name="aacute" unicode="&#xe1;" horiz-adv-x="500" d="M305 90 C303 83 245 32 195 32 C152 32 140 79 140 113 C140 184 210 219 305 253 L305 90 Z M305 273 C130 219 30 171 30 81 C30 24 74 -8 136 -8 C203 -8 260 30 308 64 C317 23 330 -8 393 -8 C449 -8 500 41 500 60 C500 66 496 68 490 68 C478 68 469 33 434 33 C420 33 415 46 415 58 L415 344 C415 419 379 462 293 462 C167 462 45 384 45 317 C45 290 63 268 95 268 C143 268 160 289 171 347 C183 408 219 438 267 438 C292 438 305 426 305 402 L305 273 Z M221 510 L363 600 C391 618 402 632 402 650 C402 671 385 688 366 688 C344 688 330 673 307 649 L174 510 L221 510 Z " />
<glyph glyph-name="acircumflex" unicode="&#xe2;" horiz-adv-x="500" d="M305 90 C303 83 245 32 195 32 C152 32 140 79 140 113 C140 184 210 219 305 253 L305 90 Z M305 273 C130 219 30 171 30 81 C30 24 74 -8 136 -8 C203 -8 260 30 308 64 C317 23 330 -8 393 -8 C449 -8 500 41 500 60 C500 66 496 68 490 68 C478 68 469 33 434 33 C420 33 415 46 415 58 L415 344 C415 419 379 462 293 462 C167 462 45 384 45 317 C45 290 63 268 95 268 C143 268 160 289 171 347 C183 408 219 438 267 438 C292 438 305 426 305 402 L305 273 Z M216 678 L92 510 L135 510 L250 612 L365 510 L408 510 L284 678 L216 678 Z " />
<glyph glyph-name="atilde" unicode="&#xe3;" horiz-adv-x="500" d="M305 90 C303 83 245 32 195 32 C152 32 140 79 140 113 C140 184 210 219 305 253 L305 90 Z M305 273 C130 219 30 171 30 81 C30 24 74 -8 136 -8 C203 -8 260 30 308 64 C317 23 330 -8 393 -8 C449 -8 500 41 500 60 C500 66 496 68 490 68 C478 68 469 33 434 33 C420 33 415 46 415 58 L415 344 C415 419 379 462 293 462 C167 462 45 384 45 317 C45 290 63 268 95 268 C143 268 160 289 171 347 C183 408 219 438 267 438 C292 438 305 426 305 402 L305 273 Z M111 534 C117 552 127 582 163 582 C188 582 208 571 231 559 C253 548 277 536 311 536 C374 536 398 577 421 646 L387 646 C371 603 354 596 334 596 C311 596 289 608 266 620 C243 632 219 644 188 644 C118 644 86 576 79 534 L111 534 Z " />
<glyph glyph-name="adieresis" unicode="&#xe4;" horiz-adv-x="500" d="M305 90 C303 83 245 32 195 32 C152 32 140 79 140 113 C140 184 210 219 305 253 L305 90 Z M305 273 C130 219 30 171 30 81 C30 24 74 -8 136 -8 C203 -8 260 30 308 64 C317 23 330 -8 393 -8 C449 -8 500 41 500 60 C500 66 496 68 490 68 C478 68 469 33 434 33 C420 33 415 46 415 58 L415 344 C415 419 379 462 293 462 C167 462 45 384 45 317 C45 290 63 268 95 268 C143 268 160 289 171 347 C183 408 219 438 267 438 C292 438 305 426 305 402 L305 273 Z M96 579 C96 550 120 526 149 526 C178 526 202 550 202 579 C202 608 178 632 149 632 C120 632 96 608 96 579 L96 579 Z M298 579 C298 550 322 526 351 526 C380 526 404 550 404 579 C404 608 380 632 351 632 C322 632 298 608 298 579 L298 579 Z " />
<glyph glyph-name="aring" unicode="&#xe5;" horiz-adv-x="500" d="M305 90 C303 83 245 32 195 32 C152 32 140 79 140 113 C140 184 210 219 305 253 L305 90 Z M305 273 C130 219 30 171 30 81 C30 24 74 -8 136 -8 C203 -8 260 30 308 64 C317 23 330 -8 393 -8 C449 -8 500 41 500 60 C500 66 496 68 490 68 C478 68 469 33 434 33 C420 33 415 46 415 58 L415 344 C415 419 379 462 293 462 C167 462 45 384 45 317 C45 290 63 268 95 268 C143 268 160 289 171 347 C183 408 219 438 267 438 C292 438 305 426 305 402 L305 273 Z M149 612 C149 557 195 510 250 510 C305 510 351 557 351 612 C351 667 305 712 250 712 C195 712 149 667 149 612 L149 612 Z M187 611 C187 647 214 674 250 674 C286 674 313 647 313 611 C313 575 286 548 250 548 C214 548 187 575 187 611 L187 611 Z " />
<glyph glyph-name="ae" unicode="&#xe6;" horiz-adv-x="759" d="M289 90 C287 83 229 32 179 32 C136 32 124 79 124 113 C124 184 194 219 289 253 L289 90 Z M726 256 C724 389 638 462 523 462 C468 462 420 444 383 415 C363 446 330 462 277 462 C151 462 29 384 29 317 C29 290 47 268 79 268 C127 268 144 289 155 347 C167 408 203 438 251 438 C276 438 289 426 289 402 L289 273 C114 219 14 171 14 81 C14 24 58 -8 120 -8 C174 -8 230 13 326 93 C366 29 436 -8 517 -8 C673 -8 728 121 728 153 C728 158 725 162 721 162 C708 162 712 140 681 108 C652 78 618 66 561 66 C466 66 399 155 399 245 L399 256 L726 256 Z M400 280 C400 341 436 438 519 438 C589 438 616 385 616 302 L616 280 L400 280 Z " />
<glyph glyph-name="ccedilla" unicode="&#xe7;" horiz-adv-x="500" d="M138 265 C138 369 174 438 266 438 C314 438 337 414 337 370 C337 343 335 328 335 311 C335 282 351 250 394 250 C432 250 451 273 451 316 C451 388 381 462 266 462 C142 462 38 361 38 212 C38 140 86 -8 263 -8 C413 -8 462 121 462 153 C462 160 458 162 452 162 C438 162 427 66 304 66 C193 66 138 168 138 265 L138 265 Z M241 0 L198 -98 L212 -104 C219 -100 231 -98 240 -98 C270 -98 286 -113 286 -138 C286 -166 265 -178 224 -178 C200 -178 182 -172 168 -166 L154 -199 C170 -204 186 -216 241 -216 C321 -216 364 -185 364 -131 C364 -91 336 -60 283 -60 C273 -60 259 -62 250 -64 L278 0 L241 0 Z " />
<glyph glyph-name="egrave" unicode="&#xe8;" horiz-adv-x="500" d="M468 256 C468 395 370 462 264 462 C125 462 30 345 30 229 C30 85 129 -8 259 -8 C415 -8 470 121 470 153 C470 158 467 162 463 162 C450 162 454 140 423 108 C394 78 360 66 303 66 C207 66 140 155 140 245 L140 256 L468 256 Z M140 280 C141 341 177 438 260 438 C326 438 358 390 358 302 L358 280 L140 280 Z M338 510 L205 649 C182 673 168 688 146 688 C127 688 110 671 110 650 C110 632 121 618 149 600 L291 510 L338 510 Z " />
<glyph glyph-name="eacute" unicode="&#xe9;" horiz-adv-x="500" d="M468 256 C468 395 370 462 264 462 C125 462 30 345 30 229 C30 85 129 -8 259 -8 C415 -8 470 121 470 153 C470 158 467 162 463 162 C450 162 454 140 423 108 C394 78 360 66 303 66 C207 66 140 155 140 245 L140 256 L468 256 Z M140 280 C141 341 177 438 260 438 C326 438 358 390 358 302 L358 280 L140 280 Z M233 510 L375 600 C403 618 414 632 414 650 C414 671 397 688 378 688 C356 688 342 673 319 649 L186 510 L233 510 Z " />
<glyph glyph-name="ecircumflex" unicode="&#xea;" horiz-adv-x="500" d="M468 256 C468 395 370 462 264 462 C125 462 30 345 30 229 C30 85 129 -8 259 -8 C415 -8 470 121 470 153 C470 158 467 162 463 162 C450 162 454 140 423 108 C394 78 360 66 303 66 C207 66 140 155 140 245 L140 256 L468 256 Z M140 280 C141 341 177 438 260 438 C326 438 358 390 358 302 L358 280 L140 280 Z M228 678 L104 510 L147 510 L262 612 L377 510 L420 510 L296 678 L228 678 Z " />
<glyph glyph-name="edieresis" unicode="&#xeb;" horiz-adv-x="500" d="M468 256 C468 395 370 462 264 462 C125 462 30 345 30 229 C30 85 129 -8 259 -8 C415 -8 470 121 470 153 C470 158 467 162 463 162 C450 162 454 140 423 108 C394 78 360 66 303 66 C207 66 140 155 140 245 L140 256 L468 256 Z M140 280 C141 341 177 438 260 438 C326 438 358 390 358 302 L358 280 L140 280 Z M108 579 C108 550 132 526 161 526 C190 526 214 550 214 579 C214 608 190 632 161 632 C132 632 108 608 108 579 L108 579 Z M310 579 C310 550 334 526 363 526 C392 526 416 550 416 579 C416 608 392 632 363 632 C334 632 310 608 310 579 L310 579 Z " />
<glyph glyph-name="igrave" unicode="&#xec;" horiz-adv-x="296" d="M203 462 C61 404 13 411 13 392 C13 373 93 388 93 315 L93 67 C93 2 19 33 19 8 C19 0 26 -2 39 -2 C81 -2 115 0 148 0 C181 0 215 -2 257 -2 C270 -2 277 0 277 8 C277 33 203 2 203 67 L203 462 Z M224 510 L91 649 C68 673 54 688 32 688 C13 688 -4 671 -4 650 C-4 632 7 618 35 600 L177 510 L224 510 Z " />
<glyph glyph-name="iacute" unicode="&#xed;" horiz-adv-x="296" d="M203 462 C61 404 13 411 13 392 C13 373 93 388 93 315 L93 67 C93 2 19 33 19 8 C19 0 26 -2 39 -2 C81 -2 115 0 148 0 C181 0 215 -2 257 -2 C270 -2 277 0 277 8 C277 33 203 2 203 67 L203 462 Z M119 510 L261 600 C289 618 300 632 300 650 C300 671 283 688 264 688 C242 688 228 673 205 649 L72 510 L119 510 Z " />
<glyph glyph-name="icircumflex" unicode="&#xee;" horiz-adv-x="296" d="M203 462 C61 404 13 411 13 392 C13 373 93 388 93 315 L93 67 C93 2 19 33 19 8 C19 0 26 -2 39 -2 C81 -2 115 0 148 0 C181 0 215 -2 257 -2 C270 -2 277 0 277 8 C277 33 203 2 203 67 L203 462 Z M114 678 L-10 510 L33 510 L148 612 L263 510 L306 510 L182 678 L114 678 Z " />
<glyph glyph-name="idieresis" unicode="&#xef;" horiz-adv-x="296" d="M203 462 C61 404 13 411 13 392 C13 373 93 388 93 315 L93 67 C93 2 19 33 19 8 C19 0 26 -2 39 -2 C81 -2 115 0 148 0 C181 0 215 -2 257 -2 C270 -2 277 0 277 8 C277 33 203 2 203 67 L203 462 Z M-6 579 C-6 550 18 526 47 526 C76 526 100 550 100 579 C100 608 76 632 47 632 C18 632 -6 608 -6 579 L-6 579 Z M196 579 C196 550 220 526 249 526 C278 526 302 550 302 579 C302 608 278 632 249 632 C220 632 196 608 196 579 L196 579 Z " />
<glyph glyph-name="eth" unicode="&#xf0;" horiz-adv-x="556" d="M278 16 C204 16 154 70 154 227 C154 384 204 438 278 438 C352 438 402 384 402 227 C402 70 352 16 278 16 L278 16 Z M462 676 L462 710 L311 636 C272 664 155 730 109 730 C103 730 100 728 100 721 C100 715 108 712 116 709 C164 691 225 650 260 607 L126 540 L126 506 L281 582 C312 544 335 499 352 452 C328 458 304 462 278 462 C143 462 34 357 34 227 C34 97 143 -8 278 -8 C413 -8 522 88 522 254 C522 397 451 521 340 614 L462 676 Z " />
<glyph glyph-name="ntilde" unicode="&#xf1;" horiz-adv-x="593" d="M203 354 C228 376 282 416 327 416 C356 416 390 396 390 351 L390 67 C390 2 316 33 316 8 C316 0 323 -2 336 -2 C378 -2 412 0 445 0 C478 0 512 -2 554 -2 C567 -2 574 0 574 8 C574 33 500 2 500 67 L500 350 C500 419 464 462 386 462 C321 462 274 435 203 382 L203 462 C81 404 13 414 13 392 C13 370 93 392 93 309 L93 67 C93 2 19 33 19 8 C19 0 26 -2 39 -2 C81 -2 115 0 148 0 C181 0 215 -2 257 -2 C270 -2 277 0 277 8 C277 33 203 2 203 67 L203 354 Z M158 534 C164 552 174 582 210 582 C235 582 255 571 278 559 C300 548 324 536 358 536 C421 536 445 577 468 646 L434 646 C418 603 401 596 381 596 C358 596 336 608 313 620 C290 632 266 644 235 644 C165 644 133 576 126 534 L158 534 Z " />
<glyph glyph-name="ograve" unicode="&#xf2;" horiz-adv-x="556" d="M278 16 C204 16 154 70 154 227 C154 384 204 438 278 438 C352 438 402 384 402 227 C402 70 352 16 278 16 L278 16 Z M278 462 C143 462 34 357 34 227 C34 97 143 -8 278 -8 C413 -8 522 97 522 227 C522 357 413 462 278 462 L278 462 Z M354 510 L221 649 C198 673 184 688 162 688 C143 688 126 671 126 650 C126 632 137 618 165 600 L307 510 L354 510 Z " />
<glyph glyph-name="oacute" unicode="&#xf3;" horiz-adv-x="556" d="M278 16 C204 16 154 70 154 227 C154 384 204 438 278 438 C352 438 402 384 402 227 C402 70 352 16 278 16 L278 16 Z M278 462 C143 462 34 357 34 227 C34 97 143 -8 278 -8 C413 -8 522 97 522 227 C522 357 413 462 278 462 L278 462 Z M249 510 L391 600 C419 618 430 632 430 650 C430 671 413 688 394 688 C372 688 358 673 335 649 L202 510 L249 510 Z " />
<glyph glyph-name="ocircumflex" unicode="&#xf4;" horiz-adv-x="556" d="M278 16 C204 16 154 70 154 227 C154 384 204 438 278 438 C352 438 402 384 402 227 C402 70 352 16 278 16 L278 16 Z M278 462 C143 462 34 357 34 227 C34 97 143 -8 278 -8 C413 -8 522 97 522 227 C522 357 413 462 278 462 L278 462 Z M244 678 L120 510 L163 510 L278 612 L393 510 L436 510 L312 678 L244 678 Z " />
<glyph glyph-name="otilde" unicode="&#xf5;" horiz-adv-x="556" d="M278 16 C204 16 154 70 154 227 C154 384 204 438 278 438 C352 438 402 384 402 227 C402 70 352 16 278 16 L278 16 Z M278 462 C143 462 34 357 34 227 C34 97 143 -8 278 -8 C413 -8 522 97 522 227 C522 357 413 462 278 462 L278 462 Z M139 534 C145 552 155 582 191 582 C216 582 236 571 259 559 C281 548 305 536 339 536 C402 536 426 577 449 646 L415 646 C399 603 382 596 362 596 C339 596 317 608 294 620 C271 632 247 644 216 644 C146 644 114 576 107 534 L139 534 Z " />
<glyph glyph-name="odieresis" unicode="&#xf6;" horiz-adv-x="556" d="M278 16 C204 16 154 70 154 227 C154 384 204 438 278 438 C352 438 402 384 402 227 C402 70 352 16 278 16 L278 16 Z M278 462 C143 462 34 357 34 227 C34 97 143 -8 278 -8 C413 -8 522 97 522 227 C522 357 413 462 278 462 L278 462 Z M124 579 C124 550 148 526 177 526 C206 526 230 550 230 579 C230 608 206 632 177 632 C148 632 124 608 124 579 L124 579 Z M326 579 C326 550 350 526 379 526 C408 526 432 550 432 579 C432 608 408 632 379 632 C350 632 326 608 326 579 L326 579 Z " />
<glyph glyph-name="divide" unicode="&#xf7;" horiz-adv-x="600" d="M527 186 L527 268 L73 268 L73 186 L527 186 Z M300 106 C264 106 235 77 235 41 C235 5 264 -24 300 -24 C336 -24 365 5 365 41 C365 77 336 106 300 106 L300 106 Z M300 478 C264 478 235 449 235 413 C235 377 264 348 300 348 C336 348 365 377 365 413 C365 449 336 478 300 478 L300 478 Z " />
<glyph glyph-name="oslash" unicode="&#xf8;" horiz-adv-x="556" d="M376 375 C393 344 402 295 402 227 C402 70 352 16 278 16 C247 16 221 25 201 48 L376 375 Z M180 79 C163 112 154 160 154 227 C154 384 204 438 278 438 C308 438 333 429 354 407 L180 79 Z M373 443 C343 455 312 462 278 462 C143 462 34 357 34 227 C34 142 81 67 152 27 L101 -68 L139 -68 L182 12 C212 -2 244 -8 278 -8 C413 -8 522 97 522 227 C522 312 475 387 404 428 L451 516 L412 516 L373 443 Z " />
<glyph glyph-name="ugrave" unicode="&#xf9;" horiz-adv-x="574" d="M378 -8 C499 42 561 34 561 48 C561 66 487 46 487 125 L487 462 C365 404 297 420 297 404 C297 376 377 398 377 321 L377 101 C362 74 307 38 255 38 C225 38 197 56 197 100 L197 462 C75 404 7 420 7 404 C7 376 87 398 87 321 L87 88 C87 18 141 -8 195 -8 C269 -8 322 23 378 76 L378 -8 Z M363 510 L230 649 C207 673 193 688 171 688 C152 688 135 671 135 650 C135 632 146 618 174 600 L316 510 L363 510 Z " />
<glyph glyph-name="uacute" unicode="&#xfa;" horiz-adv-x="574" d="M378 -8 C499 42 561 34 561 48 C561 66 487 46 487 125 L487 462 C365 404 297 420 297 404 C297 376 377 398 377 321 L377 101 C362 74 307 38 255 38 C225 38 197 56 197 100 L197 462 C75 404 7 420 7 404 C7 376 87 398 87 321 L87 88 C87 18 141 -8 195 -8 C269 -8 322 23 378 76 L378 -8 Z M258 510 L400 600 C428 618 439 632 439 650 C439 671 422 688 403 688 C381 688 367 673 344 649 L211 510 L258 510 Z " />
<glyph glyph-name="ucircumflex" unicode="&#xfb;" horiz-adv-x="574" d="M378 -8 C499 42 561 34 561 48 C561 66 487 46 487 125 L487 462 C365 404 297 420 297 404 C297 376 377 398 377 321 L377 101 C362 74 307 38 255 38 C225 38 197 56 197 100 L197 462 C75 404 7 420 7 404 C7 376 87 398 87 321 L87 88 C87 18 141 -8 195 -8 C269 -8 322 23 378 76 L378 -8 Z M253 678 L129 510 L172 510 L287 612 L402 510 L445 510 L321 678 L253 678 Z " />
<glyph glyph-name="udieresis" unicode="&#xfc;" horiz-adv-x="574" d="M378 -8 C499 42 561 34 561 48 C561 66 487 46 487 125 L487 462 C365 404 297 420 297 404 C297 376 377 398 377 321 L377 101 C362 74 307 38 255 38 C225 38 197 56 197 100 L197 462 C75 404 7 420 7 404 C7 376 87 398 87 321 L87 88 C87 18 141 -8 195 -8 C269 -8 322 23 378 76 L378 -8 Z M133 579 C133 550 157 526 186 526 C215 526 239 550 239 579 C239 608 215 632 186 632 C157 632 133 608 133 579 L133 579 Z M335 579 C335 550 359 526 388 526 C417 526 441 550 441 579 C441 608 417 632 388 632 C359 632 335 608 335 579 L335 579 Z " />
<glyph glyph-name="yacute" unicode="&#xfd;" horiz-adv-x="519" d="M255 -15 L214 -108 C207 -123 200 -132 188 -132 C163 -132 169 -78 117 -78 C88 -78 65 -104 65 -139 C65 -187 99 -212 135 -212 C177 -212 203 -187 243 -91 L422 337 C470 453 526 418 526 445 C526 450 519 456 507 456 C464 456 441 454 419 454 C397 454 374 456 334 456 C319 456 312 452 312 445 C312 419 390 451 390 365 C390 316 363 252 311 127 L205 368 C199 382 192 398 192 405 C192 440 239 425 239 446 C239 454 233 456 210 456 C177 456 151 454 125 454 C99 454 73 456 27 456 C15 456 7 456 7 446 C7 424 46 449 79 376 L255 -15 Z M231 510 L373 600 C401 618 412 632 412 650 C412 671 395 688 376 688 C354 688 340 673 317 649 L184 510 L231 510 Z " />
<glyph glyph-name="thorn" unicode="&#xfe;" horiz-adv-x="556" d="M76 -125 C76 -190 2 -159 2 -184 C2 -192 9 -194 22 -194 C64 -194 98 -192 131 -192 C164 -192 198 -194 240 -194 C253 -194 260 -192 260 -184 C260 -159 186 -190 186 -125 L186 2 C220 -4 238 -8 267 -8 C424 -8 522 115 522 256 C522 393 445 462 352 462 C293 462 249 439 186 390 L186 730 C64 672 -4 682 -4 660 C-4 638 76 660 76 577 L76 -125 Z M186 362 C215 389 250 410 282 410 C352 410 412 354 412 231 C412 122 372 16 270 16 C220 16 186 55 186 141 L186 362 Z " />
<glyph glyph-name="ydieresis" unicode="&#xff;" horiz-adv-x="519" d="M255 -15 L214 -108 C207 -123 200 -132 188 -132 C163 -132 169 -78 117 -78 C88 -78 65 -104 65 -139 C65 -187 99 -212 135 -212 C177 -212 203 -187 243 -91 L422 337 C470 453 526 418 526 445 C526 450 519 456 507 456 C464 456 441 454 419 454 C397 454 374 456 334 456 C319 456 312 452 312 445 C312 419 390 451 390 365 C390 316 363 252 311 127 L205 368 C199 382 192 398 192 405 C192 440 239 425 239 446 C239 454 233 456 210 456 C177 456 151 454 125 454 C99 454 73 456 27 456 C15 456 7 456 7 446 C7 424 46 449 79 376 L255 -15 Z M106 579 C106 550 130 526 159 526 C188 526 212 550 212 579 C212 608 188 632 159 632 C130 632 106 608 106 579 L106 579 Z M308 579 C308 550 332 526 361 526 C390 526 414 550 414 579 C414 608 390 632 361 632 C332 632 308 608 308 579 L308 579 Z " />
<glyph glyph-name="dotlessi" unicode="&#x131;" horiz-adv-x="296" d="M203 462 C61 404 13 411 13 392 C13 373 93 388 93 315 L93 67 C93 2 19 33 19 8 C19 0 26 -2 39 -2 C81 -2 115 0 148 0 C181 0 215 -2 257 -2 C270 -2 277 0 277 8 C277 33 203 2 203 67 L203 462 Z " />
<glyph glyph-name="Lslash" unicode="&#x141;" horiz-adv-x="630" d="M238 388 L238 606 C238 673 321 641 321 666 C321 678 315 680 299 680 C264 680 238 678 178 678 C118 678 92 680 57 680 C41 680 35 678 35 666 C35 641 118 673 118 606 L118 340 L4 294 L4 256 L118 301 L118 72 C118 5 35 37 35 12 C35 0 41 -2 57 -2 C92 -2 118 0 178 0 C400 0 487 -2 565 -2 L607 224 C610 238 610 247 610 253 C610 258 608 263 601 263 C594 263 591 258 586 243 C557 144 470 22 314 22 C264 22 238 36 238 93 L238 349 L444 431 L444 471 L238 388 Z " />
<glyph glyph-name="lslash" unicode="&#x142;" horiz-adv-x="296" d="M307 473 L307 505 L203 452 L203 730 C81 672 13 682 13 660 C13 638 93 660 93 577 L93 395 L-11 341 L-11 309 L93 363 L93 67 C93 2 19 33 19 8 C19 0 26 -2 39 -2 C81 -2 115 0 148 0 C181 0 215 -2 257 -2 C270 -2 277 0 277 8 C277 33 203 2 203 67 L203 420 L307 473 Z " />
<glyph glyph-name="OE" unicode="&#x152;" horiz-adv-x="1167" d="M625 339 C625 113 529 8 390 8 C267 8 171 113 171 339 C171 565 267 670 390 670 C529 670 625 565 625 339 L625 339 Z M618 614 C550 666 468 694 390 694 C229 694 39 563 39 339 C39 115 229 -16 390 -16 C468 -16 550 12 618 64 L618 0 C813 0 971 -1 1094 -2 L1136 224 C1139 238 1139 247 1139 253 C1139 258 1137 263 1130 263 C1123 263 1120 258 1115 243 C1086 144 1007 22 822 22 C762 22 738 40 738 78 L738 338 L760 338 C846 338 911 303 911 198 C911 183 916 180 923 180 C931 180 935 183 935 198 L935 497 C935 512 931 516 923 516 C916 516 911 512 911 497 C911 396 846 362 760 362 L738 362 L738 656 L768 656 C887 656 972 639 1033 552 C1082 482 1079 457 1091 457 C1097 457 1099 460 1099 467 C1099 472 1097 480 1093 493 L1045 680 C975 679 833 678 618 678 L618 614 Z " />
<glyph glyph-name="oe" unicode="&#x153;" horiz-adv-x="889" d="M150 227 C150 384 200 438 284 438 C368 438 419 384 419 227 C419 70 368 16 284 16 C200 16 150 70 150 227 L150 227 Z M856 256 C854 389 768 462 653 462 C575 462 512 425 470 373 C426 427 355 462 274 462 C139 462 30 357 30 227 C30 97 139 -8 274 -8 C353 -8 422 25 467 77 C508 23 573 -8 647 -8 C803 -8 858 121 858 153 C858 158 855 162 851 162 C838 162 842 140 811 108 C782 78 748 66 691 66 C596 66 529 155 529 245 L529 256 L856 256 Z M530 280 C530 341 566 438 649 438 C719 438 746 385 746 302 L746 280 L530 280 Z " />
<glyph glyph-name="Scaron" unicode="&#x160;" horiz-adv-x="556" d="M60 0 C60 -10 65 -12 69 -12 C88 -12 73 22 114 22 C140 22 207 -16 280 -16 C443 -16 519 91 519 197 C519 440 148 378 148 562 C148 625 193 670 269 670 C382 670 436 573 470 459 C473 448 475 435 483 435 C489 435 494 439 494 449 C494 462 490 531 477 671 C476 682 474 686 467 686 C448 686 461 654 432 654 C393 654 359 694 270 694 C156 694 60 606 60 502 C60 256 431 338 431 136 C431 68 386 8 286 8 C154 8 101 134 84 257 C81 279 79 287 70 287 C65 287 60 284 60 275 L60 0 Z M306 718 L430 886 L387 886 L272 784 L157 886 L114 886 L238 718 L306 718 Z " />
<glyph glyph-name="scaron" unicode="&#x161;" horiz-adv-x="426" d="M361 430 C333 444 269 462 211 462 C95 462 52 388 52 335 C52 174 310 204 310 87 C310 44 276 16 225 16 C159 16 119 54 86 115 C61 163 68 179 56 179 C51 179 49 176 49 170 L49 23 C75 13 133 -8 206 -8 C324 -8 392 54 392 142 C392 308 134 282 134 387 C134 413 160 438 207 438 C267 438 303 405 325 358 C345 316 345 303 353 303 C359 303 361 305 361 313 L361 430 Z M247 510 L371 678 L328 678 L213 576 L98 678 L55 678 L179 510 L247 510 Z " />
<glyph glyph-name="Ydieresis" unicode="&#x178;" horiz-adv-x="630" d="M508 533 C603 674 656 651 656 668 C656 677 647 680 630 680 C605 680 575 678 545 678 C515 678 475 680 446 680 C429 680 424 677 424 669 C424 647 494 674 494 598 C494 541 444 469 359 346 L240 562 C231 578 224 602 224 615 C224 666 288 646 288 666 C288 675 283 680 261 680 C225 680 187 678 149 678 C103 678 58 680 12 680 C2 680 -3 677 -3 669 C-3 649 52 667 92 595 L255 303 L255 72 C255 5 168 37 168 12 C168 0 178 -2 194 -2 C229 -2 255 0 315 0 C375 0 401 -2 436 -2 C452 -2 466 0 466 12 C466 37 375 5 375 72 L375 334 L508 533 Z M173 787 C173 758 197 734 226 734 C255 734 279 758 279 787 C279 816 255 840 226 840 C197 840 173 816 173 787 L173 787 Z M375 787 C375 758 399 734 428 734 C457 734 481 758 481 787 C481 816 457 840 428 840 C399 840 375 816 375 787 L375 787 Z " />
<glyph glyph-name="Zcaron" unicode="&#x17d;" horiz-adv-x="611" d="M163 22 L557 642 C568 660 573 667 573 673 C573 678 568 680 555 680 C512 680 396 678 325 678 C254 678 182 680 111 680 L63 493 C59 480 57 472 57 467 C57 460 59 457 65 457 C77 457 74 482 123 552 C184 639 269 656 388 656 L427 656 L49 48 C31 18 25 14 25 7 C25 -1 31 -2 44 -2 C130 -2 200 0 270 0 C340 0 409 -2 518 -2 L560 224 C563 238 563 247 563 253 C563 258 561 263 554 263 C547 263 544 258 539 243 C510 144 431 22 246 22 L163 22 Z M352 718 L476 886 L433 886 L318 784 L203 886 L160 886 L284 718 L352 718 Z " />
<glyph glyph-name="zcaron" unicode="&#x17e;" horiz-adv-x="500" d="M465 456 C405 456 344 454 283 454 C222 454 162 456 99 456 L62 315 C55 286 49 270 49 265 C49 258 51 255 56 255 C66 255 71 272 79 288 C104 338 190 438 333 438 L20 -2 C86 -2 151 0 217 0 C282 0 347 -2 413 -2 L458 204 C460 215 462 223 462 229 C462 234 459 237 454 237 C445 237 444 230 433 202 C396 107 296 16 156 16 L465 456 Z M284 510 L408 678 L365 678 L250 576 L135 678 L92 678 L216 510 L284 510 Z " />
<glyph glyph-name="florin" unicode="&#x192;" horiz-adv-x="574" d="M251 394 C218 259 205 124 194 -11 C190 -61 185 -122 135 -122 C88 -122 115 -44 37 -44 C-3 -44 -22 -74 -22 -103 C-22 -146 7 -182 63 -182 C259 -182 341 258 364 394 L435 394 L457 454 L374 454 C381 626 407 694 464 694 C524 694 471 590 554 590 C595 590 614 621 614 655 C614 688 588 730 521 730 C345 730 291 460 184 394 L251 394 Z " />
<glyph glyph-name="circumflex" unicode="&#x2c6;" horiz-adv-x="296" d="M114 678 L-10 510 L33 510 L148 612 L263 510 L306 510 L182 678 L114 678 Z " />
<glyph glyph-name="caron" unicode="&#x2c7;" horiz-adv-x="296" d="M182 510 L306 678 L263 678 L148 576 L33 678 L-10 678 L114 510 L182 510 Z " />
<glyph glyph-name="breve" unicode="&#x2d8;" horiz-adv-x="296" d="M258 668 C247 608 211 572 148 572 C85 572 49 608 38 668 L2 668 C10 562 68 510 148 510 C228 510 286 562 294 668 L258 668 Z " />
<glyph glyph-name="dotaccent" unicode="&#x2d9;" horiz-adv-x="296" d="M95 579 C95 550 119 526 148 526 C177 526 201 550 201 579 C201 608 177 632 148 632 C119 632 95 608 95 579 L95 579 Z " />
<glyph glyph-name="ring" unicode="&#x2da;" horiz-adv-x="296" d="M47 612 C47 557 93 510 148 510 C203 510 249 557 249 612 C249 667 203 712 148 712 C93 712 47 667 47 612 L47 612 Z M85 611 C85 647 112 674 148 674 C184 674 211 647 211 611 C211 575 184 548 148 548 C112 548 85 575 85 611 L85 611 Z " />
<glyph glyph-name="ogonek" unicode="&#x2db;" horiz-adv-x="296" d="M258 20 C121 -5 30 -56 30 -125 C30 -177 74 -212 129 -212 C182 -212 231 -184 277 -154 L260 -122 C229 -143 196 -162 157 -162 C129 -162 108 -142 108 -111 C108 -64 177 -23 258 11 L258 20 Z " />
<glyph glyph-name="tilde" unicode="&#x2dc;" horiz-adv-x="296" d="M9 534 C15 552 25 582 61 582 C86 582 106 571 129 559 C151 548 175 536 209 536 C272 536 296 577 319 646 L285 646 C269 603 252 596 232 596 C209 596 187 608 164 620 C141 632 117 644 86 644 C16 644 -16 576 -23 534 L9 534 Z " />
<glyph glyph-name="hungarumlaut" unicode="&#x2dd;" horiz-adv-x="296" d="M195 510 L337 600 C365 618 376 632 376 650 C376 671 359 688 340 688 C318 688 304 673 281 649 L148 510 L195 510 Z M43 510 L177 600 C205 619 216 632 216 650 C216 671 199 688 180 688 C158 688 144 673 122 648 L0 510 L43 510 Z " />
<glyph glyph-name="endash" unicode="&#x2013;" horiz-adv-x="500" d="M0 264 L0 190 L500 190 L500 264 L0 264 Z " />
<glyph glyph-name="emdash" unicode="&#x2014;" horiz-adv-x="1000" d="M0 264 L0 190 L1000 190 L1000 264 L0 264 Z " />
<glyph glyph-name="quoteleft" unicode="&#x2018;" horiz-adv-x="241" d="M129 478 C181 478 205 509 205 540 C205 581 177 598 137 598 C104 598 97 603 97 629 C97 658 113 680 131 695 C159 718 173 723 173 730 C173 735 170 738 165 738 C160 738 150 735 112 706 C77 679 37 634 37 576 C37 510 84 478 129 478 L129 478 Z " />
<glyph glyph-name="quoteright" unicode="&#x2019;" horiz-adv-x="241" d="M112 730 C60 730 36 699 36 668 C36 627 64 610 104 610 C137 610 144 605 144 579 C144 550 128 528 110 513 C82 490 68 485 68 478 C68 473 71 470 76 470 C81 470 91 473 129 502 C164 529 204 574 204 632 C204 698 157 730 112 730 L112 730 Z " />
<glyph glyph-name="quotesinglbase" unicode="&#x201a;" horiz-adv-x="241" d="M112 120 C60 120 36 89 36 58 C36 17 64 0 104 0 C137 0 144 -5 144 -31 C144 -60 128 -82 110 -97 C82 -120 68 -125 68 -132 C68 -137 71 -140 76 -140 C81 -140 91 -137 129 -108 C164 -81 204 -36 204 22 C204 88 157 120 112 120 L112 120 Z " />
<glyph glyph-name="quotedblleft" unicode="&#x201c;" horiz-adv-x="537" d="M156 478 C208 478 232 509 232 540 C232 581 204 598 164 598 C131 598 124 603 124 629 C124 658 140 680 158 695 C186 718 200 723 200 730 C200 735 197 738 192 738 C187 738 177 735 139 706 C104 679 64 634 64 576 C64 510 111 478 156 478 L156 478 Z M397 478 C449 478 473 509 473 540 C473 581 445 598 405 598 C372 598 365 603 365 629 C365 658 381 680 399 695 C427 718 441 723 441 730 C441 735 438 738 433 738 C428 738 418 735 380 706 C345 679 305 634 305 576 C305 510 352 478 397 478 L397 478 Z " />
<glyph glyph-name="quotedblright" unicode="&#x201d;" horiz-adv-x="537" d="M381 730 C329 730 305 699 305 668 C305 627 333 610 373 610 C406 610 413 605 413 579 C413 550 397 528 379 513 C351 490 337 485 337 478 C337 473 340 470 345 470 C350 470 360 473 398 502 C433 529 473 574 473 632 C473 698 426 730 381 730 L381 730 Z M140 730 C88 730 64 699 64 668 C64 627 92 610 132 610 C165 610 172 605 172 579 C172 550 156 528 138 513 C110 490 96 485 96 478 C96 473 99 470 104 470 C109 470 119 473 157 502 C192 529 232 574 232 632 C232 698 185 730 140 730 L140 730 Z " />
<glyph glyph-name="quotedblbase" unicode="&#x201e;" horiz-adv-x="537" d="M381 120 C329 120 305 89 305 58 C305 17 333 0 373 0 C406 0 413 -5 413 -31 C413 -60 397 -82 379 -97 C351 -120 337 -125 337 -132 C337 -137 340 -140 345 -140 C350 -140 360 -137 398 -108 C433 -81 473 -36 473 22 C473 88 426 120 381 120 L381 120 Z M140 120 C88 120 64 89 64 58 C64 17 92 0 132 0 C165 0 172 -5 172 -31 C172 -60 156 -82 138 -97 C110 -120 96 -125 96 -132 C96 -137 99 -140 104 -140 C109 -140 119 -137 157 -108 C192 -81 232 -36 232 22 C232 88 185 120 140 120 L140 120 Z " />
<glyph glyph-name="dagger" unicode="&#x2020;" horiz-adv-x="500" d="M264 -104 L270 177 C271 231 283 282 300 320 C278 364 264 392 264 412 C264 442 271 452 285 452 C317 452 344 412 403 412 C436 412 458 434 458 464 C458 494 436 516 403 516 C344 516 317 476 285 476 C269 476 263 485 263 497 C263 525 308 578 308 629 C308 663 289 694 250 694 C211 694 192 663 192 629 C192 578 237 525 237 497 C237 485 231 476 215 476 C183 476 156 516 97 516 C64 516 42 494 42 464 C42 434 64 412 97 412 C156 412 183 452 215 452 C229 452 236 442 236 412 C236 392 222 364 200 320 C217 282 229 231 230 177 L236 -104 L264 -104 Z " />
<glyph glyph-name="daggerdbl" unicode="&#x2021;" horiz-adv-x="500" d="M220 288 C220 251 205 230 196 217 C222 189 235 171 235 151 C235 133 221 124 215 124 C183 124 156 164 97 164 C64 164 42 142 42 112 C42 82 64 60 97 60 C156 60 183 100 215 100 C231 100 237 91 237 79 C237 51 192 -2 192 -53 C192 -87 211 -118 250 -118 C289 -118 308 -87 308 -53 C308 -2 263 51 263 79 C263 91 269 100 285 100 C317 100 344 60 403 60 C436 60 458 82 458 112 C458 142 436 164 403 164 C344 164 317 124 285 124 C274 124 259 133 259 151 C259 171 273 189 299 217 C290 230 274 251 274 288 C274 325 290 346 299 359 C273 387 259 405 259 425 C259 443 274 452 285 452 C317 452 344 412 403 412 C436 412 458 434 458 464 C458 494 436 516 403 516 C344 516 317 476 285 476 C269 476 263 485 263 497 C263 525 308 578 308 629 C308 663 289 694 250 694 C211 694 192 663 192 629 C192 578 237 525 237 497 C237 485 231 476 215 476 C183 476 156 516 97 516 C64 516 42 494 42 464 C42 434 64 412 97 412 C156 412 183 452 215 452 C221 452 235 443 235 425 C235 405 222 387 196 359 C205 346 220 325 220 288 L220 288 Z " />
<glyph glyph-name="bullet" unicode="&#x2022;" horiz-adv-x="500" d="M81 339 C81 246 157 170 250 170 C343 170 419 246 419 339 C419 432 343 508 250 508 C157 508 81 432 81 339 L81 339 Z " />
<glyph glyph-name="ellipsis" unicode="&#x2026;" horiz-adv-x="1000" d="M95 64 C95 24 127 -8 167 -8 C207 -8 239 24 239 64 C239 104 207 136 167 136 C127 136 95 104 95 64 L95 64 Z M761 64 C761 24 793 -8 833 -8 C873 -8 905 24 905 64 C905 104 873 136 833 136 C793 136 761 104 761 64 L761 64 Z M428 64 C428 24 460 -8 500 -8 C540 -8 572 24 572 64 C572 104 540 136 500 136 C460 136 428 104 428 64 L428 64 Z " />
<glyph glyph-name="perthousand" unicode="&#x2030;" horiz-adv-x="1130" d="M942 10 C897 10 875 68 875 183 C875 298 897 356 942 356 C987 356 1009 298 1009 183 C1009 68 987 10 942 10 L942 10 Z M1093 183 C1093 284 1029 374 942 374 C855 374 791 284 791 183 C791 83 855 -8 942 -8 C1029 -8 1093 83 1093 183 L1093 183 Z M188 668 C233 668 255 610 255 495 C255 380 233 322 188 322 C143 322 121 380 121 495 C121 610 143 668 188 668 L188 668 Z M339 495 C339 596 275 686 188 686 C101 686 37 596 37 495 C37 395 101 304 188 304 C275 304 339 395 339 495 L339 495 Z M578 10 C533 10 511 68 511 183 C511 298 533 356 578 356 C623 356 645 298 645 183 C645 68 623 10 578 10 L578 10 Z M729 183 C729 284 665 374 578 374 C491 374 427 284 427 183 C427 83 491 -8 578 -8 C665 -8 729 83 729 183 L729 183 Z M612 686 L570 686 L146 -8 L187 -8 L612 686 Z " />
<glyph glyph-name="guilsinglleft" unicode="&#x2039;" horiz-adv-x="333" d="M158 207 C152 216 146 223 146 226 C146 231 152 238 158 247 L256 400 C260 407 262 410 262 414 C262 418 259 420 256 420 C250 420 244 415 240 410 L77 240 C74 237 70 233 70 227 C70 221 74 217 77 214 L240 44 C244 39 250 34 256 34 C259 34 262 36 262 40 C262 44 260 47 256 54 L158 207 Z " />
<glyph glyph-name="guilsinglright" unicode="&#x203a;" horiz-adv-x="333" d="M175 247 C181 238 187 231 187 228 C187 223 181 216 175 207 L77 54 C73 47 71 44 71 40 C71 36 74 34 77 34 C83 34 89 39 93 44 L256 214 C259 217 263 221 263 227 C263 233 259 237 256 240 L93 410 C89 415 83 420 77 420 C74 420 71 418 71 414 C71 410 73 407 77 400 L175 247 Z " />
<glyph glyph-name="fraction" unicode="&#x2044;" horiz-adv-x="167" d="M334 686 L263 686 L-167 -8 L-94 -8 L334 686 Z " />
<glyph glyph-name="trademark" unicode="&#x2122;" horiz-adv-x="990" d="M242 654 L281 654 C322 654 339 623 347 587 L371 587 L371 678 L32 678 L32 587 L56 587 C65 623 82 654 124 654 L162 654 L162 365 C162 316 163 317 114 312 L114 288 L291 288 L291 312 C240 317 243 316 242 365 L242 654 Z M665 284 L674 284 L819 560 L821 560 L821 371 C823 316 823 317 775 312 L775 288 L950 288 L950 312 C899 317 901 316 901 365 L901 598 C901 632 914 652 957 654 L957 678 L843 678 L689 393 L542 678 L417 678 L417 654 C445 654 477 634 477 605 L477 373 C477 331 470 316 427 312 L427 288 L563 288 L563 312 C520 316 511 331 511 373 L511 581 L513 581 L665 284 Z " />
<glyph glyph-name="minus" unicode="&#x2212;" horiz-adv-x="600" d="M527 190 L527 264 L73 264 L73 190 L527 190 Z " />
<glyph glyph-name="fi" unicode="&#xfb01;" horiz-adv-x="574" d="M331 402 C370 402 381 394 382 353 L382 67 C382 2 308 33 308 8 C308 0 315 -2 328 -2 C370 -2 404 0 437 0 C470 0 504 -2 546 -2 C559 -2 566 0 566 8 C566 33 492 2 492 67 L492 462 C455 459 394 454 348 454 L192 454 L192 515 C192 653 212 728 288 728 C310 728 333 717 333 686 C333 669 329 651 329 633 C329 603 341 571 384 571 C425 571 443 605 443 637 C443 714 373 752 309 752 C121 752 138 480 30 402 L82 402 L82 67 C82 2 8 33 8 8 C8 0 15 -2 28 -2 C70 -2 104 0 137 0 C170 0 204 -2 246 -2 C259 -2 266 0 266 8 C266 33 192 2 192 67 L192 402 L331 402 Z " />
<glyph glyph-name="fl" unicode="&#xfb02;" horiz-adv-x="574" d="M492 730 L424 698 C404 734 352 752 309 752 C121 752 138 480 30 402 L82 402 L82 67 C82 2 8 33 8 8 C8 0 15 -2 28 -2 C70 -2 104 0 137 0 C170 0 204 -2 246 -2 C259 -2 266 0 266 8 C266 33 192 2 192 67 L192 402 L283 402 L305 454 L192 454 L192 515 C192 653 212 728 288 728 C310 728 333 717 333 686 C333 669 329 651 329 633 C329 596 346 574 382 570 L382 67 C382 2 308 33 308 8 C308 0 315 -2 328 -2 C370 -2 404 0 437 0 C470 0 504 -2 546 -2 C559 -2 566 0 566 8 C566 33 492 2 492 67 L492 730 Z " />
</font>
</svg>
