<?xml version="1.0" encoding="UTF-8"?>
<svg xmlns="http://www.w3.org/2000/svg" xmlns:xlink="http://www.w3.org/1999/xlink" version="1.2" >
<font id="Apercu Mono">
<font-face  font-family="Apercu" units-per-em="1000" ascent="708" descent="-204" font-style="normal" font-weight="400" font-stretch="normal" cap-height="700" x-height="504" underline-position="-75" underline-thickness="50" />
<missing-glyph  horiz-adv-x="620" d="M86 0 L533 0 L533 700 L86 700 L86 0 Z M449 624 L449 76 L170 76 L170 624 L449 624 Z " />
<glyph glyph-name="space" unicode="&#x20;" horiz-adv-x="620" d="" />
<glyph glyph-name="exclam" unicode="&#x21;" horiz-adv-x="620" d="M253 700 L277 200 L343 200 L367 700 L253 700 Z M240 65 C240 27 270 -3 310 -3 C350 -3 380 27 380 65 C380 105 350 136 310 136 C270 136 240 105 240 65 L240 65 Z " />
<glyph glyph-name="quotedbl" unicode="&#x22;" horiz-adv-x="620" d="M182 462 L246 462 L271 708 L157 708 L182 462 Z M373 462 L437 462 L462 708 L348 708 L373 462 Z " />
<glyph glyph-name="numbersign" unicode="&#x23;" horiz-adv-x="620" d="M80 418 L182 418 L160 282 L50 282 L50 208 L148 208 L114 0 L192 0 L226 208 L357 208 L324 0 L402 0 L435 208 L549 208 L549 282 L447 282 L469 418 L579 418 L579 492 L481 492 L515 700 L437 700 L403 492 L272 492 L305 700 L227 700 L194 492 L80 492 L80 418 Z M260 418 L391 418 L369 282 L238 282 L260 418 Z " />
<glyph glyph-name="dollar" unicode="&#x24;" horiz-adv-x="620" d="M540 558 C515 624 459 689 364 704 L364 800 L284 800 L284 706 C170 692 107 613 107 513 C107 373 210 342 309 317 C414 291 468 276 468 203 C468 118 409 76 324 76 C224 76 170 138 145 232 L63 200 C87 77 171 7 284 -6 L284 -100 L364 -100 L364 -6 C478 7 556 77 556 215 C556 337 464 369 357 397 C264 421 195 441 195 516 C195 585 244 625 321 625 C387 625 433 588 463 519 L540 558 Z " />
<glyph glyph-name="percent" unicode="&#x25;" horiz-adv-x="620" d="M13 548 C13 459 82 388 173 388 C264 388 333 459 333 548 C333 637 264 708 173 708 C82 708 13 637 13 548 L13 548 Z M86 548 C86 599 119 638 173 638 C227 638 260 599 260 548 C260 497 227 458 173 458 C119 458 86 497 86 548 L86 548 Z M287 152 C287 63 356 -8 447 -8 C538 -8 607 63 607 152 C607 241 538 312 447 312 C356 312 287 241 287 152 L287 152 Z M360 152 C360 203 393 242 447 242 C501 242 534 203 534 152 C534 101 501 62 447 62 C393 62 360 101 360 152 L360 152 Z M547 552 L40 199 L74 151 L581 504 L547 552 Z " />
<glyph glyph-name="ampersand" unicode="&#x26;" horiz-adv-x="620" d="M265 -8 C349 -8 408 24 452 74 L511 0 L612 0 L500 142 C520 180 536 218 552 265 L496 326 C480 280 465 240 449 207 L303 392 C350 416 394 448 414 483 C430 511 439 537 439 568 C439 639 381 708 283 708 C195 708 128 646 128 559 C128 499 164 447 189 413 C122 379 53 305 53 200 C53 69 139 -8 265 -8 L265 -8 Z M265 68 C198 68 137 114 137 198 C137 273 177 325 232 356 L404 135 C368 91 324 68 265 68 L265 68 Z M283 636 C329 636 360 604 360 563 C360 509 317 476 257 446 C230 481 208 520 208 555 C208 600 237 636 283 636 L283 636 Z " />
<glyph glyph-name="quotesingle" unicode="&#x27;" horiz-adv-x="620" d="M278 462 L342 462 L367 708 L253 708 L278 462 Z " />
<glyph glyph-name="parenleft" unicode="&#x28;" horiz-adv-x="620" d="M344 750 C283 654 236 536 236 350 C236 164 283 46 344 -50 L428 -50 C360 58 322 179 322 350 C322 521 360 642 428 750 L344 750 Z " />
<glyph glyph-name="parenright" unicode="&#x29;" horiz-adv-x="620" d="M196 750 C264 642 302 521 302 350 C302 179 264 58 196 -50 L280 -50 C341 46 388 164 388 350 C388 536 341 654 280 750 L196 750 Z " />
<glyph glyph-name="asterisk" unicode="&#x2a;" horiz-adv-x="620" d="M344 708 L276 708 L276 570 L145 613 L124 548 L254 505 L174 394 L229 355 L310 466 L391 355 L446 394 L366 505 L496 548 L475 613 L344 570 L344 708 Z " />
<glyph glyph-name="plus" unicode="&#x2b;" horiz-adv-x="620" d="M273 539 L273 356 L90 356 L90 282 L273 282 L273 99 L347 99 L347 282 L530 282 L530 356 L347 356 L347 539 L273 539 Z " />
<glyph glyph-name="comma" unicode="&#x2c;" horiz-adv-x="620" d="M198 -107 L271 -107 L417 110 L294 110 L198 -107 Z " />
<glyph glyph-name="hyphen" unicode="&#x2d;" horiz-adv-x="620" d="M136 280 L485 280 L485 354 L136 354 L136 280 Z " />
<glyph glyph-name="period" unicode="&#x2e;" horiz-adv-x="620" d="M230 76 C230 30 264 -4 310 -4 C356 -4 390 30 390 76 C390 122 356 156 310 156 C264 156 230 122 230 76 L230 76 Z " />
<glyph glyph-name="slash" unicode="&#x2f;" horiz-adv-x="620" d="M468 750 L62 -50 L148 -50 L554 750 L468 750 Z " />
<glyph glyph-name="zero" unicode="0" horiz-adv-x="620" d="M310 -8 C473 -8 566 132 566 350 C566 568 473 708 310 708 C147 708 54 568 54 350 C54 132 147 -8 310 -8 L310 -8 Z M142 350 C142 521 203 628 310 628 C339 628 365 620 387 605 L179 160 C155 208 142 272 142 350 L142 350 Z M310 72 C281 72 255 80 233 95 L441 540 C465 493 478 428 478 350 C478 179 417 72 310 72 L310 72 Z " />
<glyph glyph-name="one" unicode="1" horiz-adv-x="620" d="M349 700 L122 562 L122 470 L297 574 L297 76 L117 76 L117 0 L561 0 L561 76 L381 76 L381 700 L349 700 Z " />
<glyph glyph-name="two" unicode="2" horiz-adv-x="620" d="M119 0 L551 0 L551 80 L256 80 L482 362 C519 409 538 455 538 514 C538 569 524 613 494 647 C461 684 411 708 342 708 C236 708 145 627 134 517 L219 501 C230 576 275 628 342 628 C381 628 408 615 426 594 C443 574 452 548 452 514 C452 470 441 438 395 381 L119 39 L119 0 Z " />
<glyph glyph-name="three" unicode="3" horiz-adv-x="620" d="M80 192 C92 70 187 -8 303 -8 C436 -8 529 86 529 220 C529 349 450 435 343 435 C336 435 321 434 315 432 L493 673 L493 700 L113 700 L113 620 L365 620 L206 402 L241 355 C262 365 282 368 303 368 C386 368 443 316 443 220 C443 124 384 72 303 72 C222 72 176 120 164 203 L80 192 Z " />
<glyph glyph-name="four" unicode="4" horiz-adv-x="620" d="M366 0 L452 0 L452 149 L558 149 L558 229 L452 229 L452 700 L358 700 L62 184 L62 149 L366 149 L366 0 Z M176 229 L366 568 L366 229 L176 229 Z " />
<glyph glyph-name="five" unicode="5" horiz-adv-x="620" d="M95 183 C108 56 201 -8 315 -8 C450 -8 543 90 543 228 C543 372 464 464 329 464 C283 464 226 444 198 417 L224 620 L493 620 L493 700 L151 700 L111 318 L166 306 C199 349 258 384 323 384 C409 384 457 321 457 228 C457 135 400 72 315 72 C245 72 192 115 180 199 L95 183 Z " />
<glyph glyph-name="six" unicode="6" horiz-adv-x="620" d="M329 448 C318 448 302 446 291 441 L443 708 L347 708 L140 351 C117 312 104 268 104 220 C104 92 195 -8 325 -8 C455 -8 546 92 546 220 C546 354 457 448 329 448 L329 448 Z M325 368 C402 368 458 311 458 220 C458 134 402 72 325 72 C248 72 192 134 192 220 C192 311 248 368 325 368 L325 368 Z " />
<glyph glyph-name="seven" unicode="7" horiz-adv-x="620" d="M244 0 L556 663 L556 700 L107 700 L107 620 L446 620 L151 0 L244 0 Z " />
<glyph glyph-name="eight" unicode="8" horiz-adv-x="620" d="M310 708 C197 708 117 625 117 521 C117 462 150 402 197 377 C136 349 93 288 93 201 C93 69 194 -8 310 -8 C426 -8 527 69 527 201 C527 288 484 349 423 377 C470 402 503 462 503 521 C503 625 423 708 310 708 L310 708 Z M310 330 C384 330 439 281 439 201 C439 121 384 72 310 72 C236 72 181 121 181 201 C181 281 236 330 310 330 L310 330 Z M310 632 C376 632 417 585 417 521 C417 457 376 410 310 410 C244 410 203 457 203 521 C203 585 244 632 310 632 L310 632 Z " />
<glyph glyph-name="nine" unicode="9" horiz-adv-x="620" d="M299 252 C310 252 326 254 337 259 L185 -8 L281 -8 L488 349 C511 388 524 432 524 480 C524 608 433 708 303 708 C173 708 82 608 82 480 C82 346 171 252 299 252 L299 252 Z M303 332 C226 332 170 389 170 480 C170 566 226 628 303 628 C380 628 436 566 436 480 C436 389 380 332 303 332 L303 332 Z " />
<glyph glyph-name="colon" unicode="&#x3a;" horiz-adv-x="620" d="M230 76 C230 30 264 -4 310 -4 C356 -4 390 30 390 76 C390 122 356 156 310 156 C264 156 230 122 230 76 L230 76 Z M230 418 C230 372 264 338 310 338 C356 338 390 372 390 418 C390 464 356 498 310 498 C264 498 230 464 230 418 L230 418 Z " />
<glyph glyph-name="semicolon" unicode="&#x3b;" horiz-adv-x="620" d="M161 -107 L234 -107 L380 110 L257 110 L161 -107 Z M230 418 C230 372 264 338 310 338 C356 338 390 372 390 418 C390 464 356 498 310 498 C264 498 230 464 230 418 L230 418 Z " />
<glyph glyph-name="less" unicode="&#x3c;" horiz-adv-x="620" d="M98 266 L507 70 L507 157 L182 310 L507 463 L507 550 L98 354 L98 266 Z " />
<glyph glyph-name="equal" unicode="&#x3d;" horiz-adv-x="620" d="M111 356 L510 356 L510 430 L111 430 L111 356 Z M111 190 L510 190 L510 264 L111 264 L111 190 Z " />
<glyph glyph-name="greater" unicode="&#x3e;" horiz-adv-x="620" d="M522 354 L113 550 L113 463 L438 310 L113 157 L113 70 L522 266 L522 354 Z " />
<glyph glyph-name="question" unicode="&#x3f;" horiz-adv-x="620" d="M247 63 C247 26 276 -3 313 -3 C351 -3 381 26 381 63 C381 101 351 131 313 131 C276 131 247 101 247 63 L247 63 Z M447 307 C447 307 382 330 382 330 C369 299 348 271 310 271 C278 271 258 290 258 322 C258 349 271 371 307 391 L408 440 C459 465 485 507 485 559 C485 599 470 635 439 664 C410 691 371 708 315 708 C213 708 148 647 132 558 L210 545 C225 599 263 637 315 637 C346 637 364 630 380 616 C394 604 401 587 401 564 C401 535 393 512 358 493 C326 476 308 474 266 452 C214 425 181 385 181 326 C181 249 233 202 313 202 C376 202 424 239 447 307 L447 307 Z " />
<glyph glyph-name="at" unicode="&#x40;" horiz-adv-x="620" d="M579 107 L579 491 C579 641 483 718 335 718 C150 718 42 578 42 321 L42 282 C42 42 155 -94 350 -94 C446 -94 521 -58 568 -12 L529 49 C481 1 428 -23 350 -23 C201 -23 126 93 126 284 L126 318 C126 538 212 646 335 646 C436 646 502 586 502 485 L502 464 C477 491 432 508 385 508 C275 508 205 423 205 304 C205 190 275 99 385 99 C430 99 467 116 493 151 L501 107 L579 107 Z M393 434 C460 434 499 381 499 304 C499 228 460 173 393 173 C326 173 287 228 287 304 C287 381 326 434 393 434 L393 434 Z " />
<glyph glyph-name="A" unicode="A" horiz-adv-x="620" d="M268 700 L19 0 L110 0 L173 187 L447 187 L510 0 L601 0 L352 700 L268 700 Z M310 586 L418 271 L202 271 L310 586 Z " />
<glyph glyph-name="B" unicode="B" horiz-adv-x="620" d="M96 700 L96 0 L358 0 C494 0 576 78 576 208 C576 295 528 356 461 383 C505 407 541 458 541 520 C541 635 466 700 342 700 L96 700 Z M184 331 L345 331 C438 331 485 293 485 208 C485 122 438 84 345 84 L184 84 L184 331 Z M340 616 C405 616 450 583 450 515 C450 447 405 415 340 415 L184 415 L184 616 L340 616 Z " />
<glyph glyph-name="C" unicode="C" horiz-adv-x="620" d="M506 230 C475 128 426 76 338 76 C219 76 140 159 140 350 C140 541 219 624 338 624 C426 624 475 572 506 470 L589 495 C558 619 473 708 338 708 C180 708 49 592 49 350 C49 108 180 -8 338 -8 C473 -8 558 81 589 205 L506 230 Z " />
<glyph glyph-name="D" unicode="D" horiz-adv-x="620" d="M78 700 L78 0 L255 0 C437 0 566 113 566 350 C566 587 437 700 255 700 L78 700 Z M246 616 C385 616 472 546 472 350 C472 154 385 84 246 84 L166 84 L166 616 L246 616 Z " />
<glyph glyph-name="E" unicode="E" horiz-adv-x="620" d="M91 700 L91 0 L545 0 L545 84 L179 84 L179 331 L485 331 L485 415 L179 415 L179 616 L535 616 L535 700 L91 700 Z " />
<glyph glyph-name="F" unicode="F" horiz-adv-x="620" d="M91 700 L91 0 L179 0 L179 323 L479 323 L479 407 L179 407 L179 616 L528 616 L528 700 L91 700 Z " />
<glyph glyph-name="G" unicode="G" horiz-adv-x="620" d="M508 0 L581 0 L581 353 L333 353 L333 269 L490 269 C481 145 429 76 333 76 C214 76 135 159 135 350 C135 541 214 624 333 624 C421 624 470 572 501 470 L584 495 C553 619 471 708 333 708 C175 708 44 592 44 350 C44 108 175 -8 327 -8 C401 -8 471 24 503 94 L508 0 Z " />
<glyph glyph-name="H" unicode="H" horiz-adv-x="620" d="M464 700 L464 414 L156 414 L156 700 L68 700 L68 0 L156 0 L156 330 L464 330 L464 0 L552 0 L552 700 L464 700 Z " />
<glyph glyph-name="I" unicode="I" horiz-adv-x="620" d="M523 0 L523 76 L354 76 L354 624 L523 624 L523 700 L97 700 L97 624 L266 624 L266 76 L97 76 L97 0 L523 0 Z " />
<glyph glyph-name="J" unicode="J" horiz-adv-x="620" d="M418 222 C418 120 367 76 291 76 C222 76 178 125 162 201 L73 182 C89 79 164 -8 291 -8 C412 -8 506 67 506 224 L506 700 L418 700 L418 222 Z " />
<glyph glyph-name="K" unicode="K" horiz-adv-x="620" d="M591 0 L267 385 L569 700 L454 700 L186 419 L186 700 L98 700 L98 0 L186 0 L186 351 L479 0 L591 0 Z " />
<glyph glyph-name="L" unicode="L" horiz-adv-x="620" d="M578 0 L578 84 L221 84 L221 700 L133 700 L133 0 L578 0 Z " />
<glyph glyph-name="M" unicode="M" horiz-adv-x="620" d="M67 700 L67 0 L155 0 L155 513 L277 201 L343 201 L465 513 L465 0 L553 0 L553 700 L459 700 L310 312 L161 700 L67 700 Z " />
<glyph glyph-name="N" unicode="N" horiz-adv-x="620" d="M460 700 L460 160 L167 700 L71 700 L71 0 L159 0 L159 540 L452 0 L548 0 L548 700 L460 700 Z " />
<glyph glyph-name="O" unicode="O" horiz-adv-x="620" d="M310 708 C158 708 38 590 38 350 C38 110 158 -8 310 -8 C462 -8 582 110 582 350 C582 590 462 708 310 708 L310 708 Z M310 624 C413 624 491 548 491 350 C491 152 413 76 310 76 C207 76 129 152 129 350 C129 548 207 624 310 624 L310 624 Z " />
<glyph glyph-name="P" unicode="P" horiz-adv-x="620" d="M364 300 C499 300 572 378 572 500 C572 622 499 700 364 700 L99 700 L99 0 L187 0 L187 300 L364 300 Z M362 384 L187 384 L187 616 L362 616 C439 616 481 577 481 500 C481 423 439 384 362 384 L362 384 Z " />
<glyph glyph-name="Q" unicode="Q" horiz-adv-x="620" d="M310 708 C158 708 38 590 38 350 C38 110 158 -8 310 -8 C372 -8 429 12 474 52 L534 -8 L595 55 L530 120 C563 177 582 254 582 350 C582 590 462 708 310 708 L310 708 Z M342 186 L414 112 C385 87 349 76 310 76 C207 76 129 152 129 350 C129 548 207 624 310 624 C413 624 491 548 491 350 C491 281 481 227 465 186 L403 249 L342 186 Z " />
<glyph glyph-name="R" unicode="R" horiz-adv-x="620" d="M490 0 L594 0 L385 336 C476 355 531 412 531 515 C531 639 449 700 325 700 L80 700 L80 0 L168 0 L168 330 L285 330 L490 0 Z M327 616 C400 616 440 585 440 515 C440 445 400 414 327 414 L168 414 L168 616 L327 616 Z " />
<glyph glyph-name="S" unicode="S" horiz-adv-x="620" d="M536 558 C508 634 439 708 317 708 C180 708 103 624 103 513 C103 373 206 342 305 317 C410 291 464 276 464 203 C464 118 405 76 320 76 C220 76 166 138 141 232 C141 232 59 200 59 200 C86 63 188 -8 320 -8 C456 -8 552 62 552 215 C552 337 460 369 353 397 C260 421 191 441 191 516 C191 585 240 624 317 624 C383 624 429 588 459 519 L536 558 Z " />
<glyph glyph-name="T" unicode="T" horiz-adv-x="620" d="M48 616 L266 616 L266 0 L354 0 L354 616 L572 616 L572 700 L48 700 L48 616 Z " />
<glyph glyph-name="U" unicode="U" horiz-adv-x="620" d="M62 243 C62 83 171 -8 310 -8 C449 -8 558 83 558 243 L558 700 L470 700 L470 237 C470 144 414 76 310 76 C206 76 150 144 150 237 L150 700 L62 700 L62 243 Z " />
<glyph glyph-name="V" unicode="V" horiz-adv-x="620" d="M506 700 L310 125 L114 700 L23 700 L268 0 L352 0 L597 700 L506 700 Z " />
<glyph glyph-name="W" unicode="W" horiz-adv-x="620" d="M498 700 L456 130 L350 557 L270 557 L164 130 L122 700 L31 700 L98 0 L207 0 L310 411 L413 0 L522 0 L589 700 L498 700 Z " />
<glyph glyph-name="X" unicode="X" horiz-adv-x="620" d="M70 700 L260 376 L39 0 L140 0 L310 290 L480 0 L581 0 L360 376 L550 700 L449 700 L310 462 L171 700 L70 700 Z " />
<glyph glyph-name="Y" unicode="Y" horiz-adv-x="620" d="M266 276 L266 0 L354 0 L354 276 L579 700 L482 700 L310 364 L138 700 L41 700 L266 276 Z " />
<glyph glyph-name="Z" unicode="Z" horiz-adv-x="620" d="M87 616 L416 616 L73 42 L73 0 L554 0 L554 84 L200 84 L543 658 L543 700 L87 700 L87 616 Z " />
<glyph glyph-name="bracketleft" unicode="&#x5b;" horiz-adv-x="620" d="M205 -50 L473 -50 L473 26 L285 26 L285 674 L473 674 L473 750 L205 750 L205 -50 Z " />
<glyph glyph-name="backslash" unicode="&#x5c;" horiz-adv-x="620" d="M67 750 L473 -50 L559 -50 L153 750 L67 750 Z " />
<glyph glyph-name="bracketright" unicode="&#x5d;" horiz-adv-x="620" d="M415 750 L147 750 L147 674 L335 674 L335 26 L147 26 L147 -50 L415 -50 L415 750 Z " />
<glyph glyph-name="asciicircum" unicode="&#x5e;" horiz-adv-x="620" d="M277 700 L90 421 L176 421 L310 624 L444 421 L530 421 L343 700 L277 700 Z " />
<glyph glyph-name="underscore" unicode="&#x5f;" horiz-adv-x="620" d="M70 -80 L550 -80 L550 0 L70 0 L70 -80 Z " />
<glyph glyph-name="grave" unicode="&#x60;" horiz-adv-x="620" d="M336 704 L215 704 L337 560 L403 560 L336 704 Z " />
<glyph glyph-name="a" unicode="a" horiz-adv-x="620" d="M197 145 C197 202 245 238 331 238 L441 238 L441 222 C441 108 345 68 280 68 C230 68 197 97 197 145 L197 145 Z M525 318 C525 457 443 512 325 512 C233 512 155 458 132 370 L206 350 C222 399 266 436 325 436 C386 436 441 410 441 332 L441 310 L339 310 C201 310 111 257 111 145 C111 42 183 -8 267 -8 C342 -8 413 25 445 71 L457 0 L525 0 L525 318 Z " />
<glyph glyph-name="b" unicode="b" horiz-adv-x="620" d="M569 252 C569 406 486 512 338 512 C268 512 212 478 184 440 L184 708 L100 708 L100 0 L184 0 L184 67 C212 28 269 -8 338 -8 C486 -8 569 98 569 252 L569 252 Z M483 252 C483 144 426 68 330 68 C234 68 177 144 177 252 C177 360 234 436 330 436 C426 436 483 360 483 252 L483 252 Z " />
<glyph glyph-name="c" unicode="c" horiz-adv-x="620" d="M470 161 C444 100 399 68 330 68 C230 68 175 148 175 252 C175 356 230 436 330 436 C399 436 444 404 470 343 L543 373 C502 467 434 512 330 512 C176 512 89 389 89 252 C89 115 176 -8 330 -8 C434 -8 502 37 543 131 L470 161 Z " />
<glyph glyph-name="d" unicode="d" horiz-adv-x="620" d="M70 252 C70 98 153 -8 301 -8 C370 -8 427 28 455 67 L455 0 L539 0 L539 708 L455 708 L455 440 C427 478 371 512 301 512 C153 512 70 406 70 252 L70 252 Z M156 252 C156 360 213 436 309 436 C405 436 462 360 462 252 C462 144 405 68 309 68 C213 68 156 144 156 252 L156 252 Z " />
<glyph glyph-name="e" unicode="e" horiz-adv-x="620" d="M556 269 C556 401 473 512 317 512 C166 512 76 394 76 252 C76 105 170 -8 317 -8 C411 -8 491 27 546 133 L479 168 C445 105 393 68 317 68 C228 68 167 134 162 234 L556 234 L556 269 Z M317 436 C399 436 452 390 467 310 L168 310 C185 386 236 436 317 436 L317 436 Z " />
<glyph glyph-name="f" unicode="f" horiz-adv-x="620" d="M497 679 C469 696 438 708 392 708 C296 708 237 657 237 535 L237 504 L95 504 L95 428 L237 428 L237 0 L321 0 L321 428 L517 428 L517 504 L321 504 L321 537 C321 602 347 632 395 632 C422 632 445 625 476 605 L497 679 Z " />
<glyph glyph-name="g" unicode="g" horiz-adv-x="620" d="M142 343 C142 302 153 267 173 240 C126 223 99 183 99 139 C99 104 113 79 135 62 C105 39 83 1 83 -46 C83 -156 172 -212 316 -212 C431 -212 552 -165 552 -38 C552 53 491 101 383 101 L252 101 C210 101 181 114 181 143 C181 166 196 183 227 195 C254 181 285 174 320 174 C422 174 498 238 498 343 C498 375 491 403 477 427 L562 471 L524 540 L419 486 C391 502 357 512 320 512 C219 512 142 447 142 343 L142 343 Z M381 29 C434 29 466 10 466 -46 C466 -103 412 -138 316 -138 C226 -138 167 -102 167 -43 C167 -9 179 17 210 33 C226 30 244 29 262 29 L381 29 Z M224 343 C224 406 268 440 320 440 C373 440 416 406 416 343 C416 280 373 246 320 246 C268 246 224 280 224 343 L224 343 Z " />
<glyph glyph-name="h" unicode="h" horiz-adv-x="620" d="M529 348 C529 448 483 512 375 512 C296 512 229 465 192 411 L192 708 L108 708 L108 0 L192 0 L192 211 C192 355 273 436 352 436 C413 436 445 403 445 330 L445 0 L529 0 L529 348 Z " />
<glyph glyph-name="i" unicode="i" horiz-adv-x="620" d="M129 430 L283 430 L283 74 L109 74 L109 0 L553 0 L553 74 L367 74 L367 504 L129 504 L129 430 Z M250 638 C250 600 281 570 319 570 C358 570 388 600 388 638 C388 677 358 708 319 708 C281 708 250 677 250 638 L250 638 Z " />
<glyph glyph-name="j" unicode="j" horiz-adv-x="620" d="M241 -212 C334 -189 432 -119 432 28 L432 504 L150 504 L150 430 L348 430 L348 50 C348 -50 307 -100 213 -132 L241 -212 Z M315 638 C315 600 346 570 384 570 C423 570 453 600 453 638 C453 677 423 708 384 708 C346 708 315 677 315 638 L315 638 Z " />
<glyph glyph-name="k" unicode="k" horiz-adv-x="620" d="M111 708 L111 0 L195 0 L195 253 L433 0 L543 0 L285 273 L520 504 L410 504 L195 293 L195 708 L111 708 Z " />
<glyph glyph-name="l" unicode="l" horiz-adv-x="620" d="M201 624 L201 190 C201 63 275 -8 391 -8 C494 -8 566 53 584 175 L508 190 C495 105 451 68 391 68 C322 68 285 107 285 190 L285 700 L62 700 L62 624 L201 624 Z " />
<glyph glyph-name="m" unicode="m" horiz-adv-x="620" d="M588 376 C588 472 540 512 478 512 C425 512 380 478 354 430 C340 480 307 512 250 512 C198 512 158 482 132 440 L132 504 L48 504 L48 0 L132 0 L132 237 C132 378 173 435 221 435 C260 435 276 413 276 358 L276 0 L360 0 L360 237 C360 378 401 435 449 435 C488 435 504 413 504 358 L504 0 L588 0 L588 376 Z " />
<glyph glyph-name="n" unicode="n" horiz-adv-x="620" d="M522 351 C522 448 473 512 368 512 C296 512 233 469 197 411 L197 504 L113 504 L113 0 L197 0 L197 203 C197 350 266 436 345 436 C405 436 438 403 438 333 L438 0 L522 0 L522 351 Z " />
<glyph glyph-name="o" unicode="o" horiz-adv-x="620" d="M62 252 C62 113 156 -8 310 -8 C464 -8 558 113 558 252 C558 391 464 512 310 512 C156 512 62 391 62 252 L62 252 Z M148 252 C148 349 207 436 310 436 C413 436 472 349 472 252 C472 155 413 68 310 68 C207 68 148 155 148 252 L148 252 Z " />
<glyph glyph-name="p" unicode="p" horiz-adv-x="620" d="M573 252 C573 406 490 512 342 512 C273 512 216 476 188 437 L188 504 L104 504 L104 -204 L188 -204 L188 64 C216 26 272 -8 342 -8 C490 -8 573 98 573 252 L573 252 Z M487 252 C487 144 430 68 334 68 C238 68 181 144 181 252 C181 360 238 436 334 436 C430 436 487 360 487 252 L487 252 Z " />
<glyph glyph-name="q" unicode="q" horiz-adv-x="620" d="M57 252 C57 98 140 -8 288 -8 C358 -8 414 26 442 64 L442 -204 L526 -204 L526 504 L442 504 L442 437 C414 476 357 512 288 512 C140 512 57 406 57 252 L57 252 Z M143 252 C143 360 200 436 296 436 C392 436 449 360 449 252 C449 144 392 68 296 68 C200 68 143 144 143 252 L143 252 Z " />
<glyph glyph-name="r" unicode="r" horiz-adv-x="620" d="M559 344 C553 452 493 512 393 512 C309 512 246 472 207 411 L207 504 L123 504 L123 0 L207 0 L207 182 C207 353 290 436 378 436 C438 436 468 402 475 344 L559 344 Z " />
<glyph glyph-name="s" unicode="s" horiz-adv-x="620" d="M308 512 C215 512 136 456 136 366 C136 267 214 238 299 220 C379 203 429 189 429 146 C429 93 379 68 322 68 C253 68 205 106 183 168 L103 138 C134 42 221 -8 322 -8 C426 -8 516 50 516 154 C516 245 429 272 335 291 C260 306 218 326 218 369 C218 418 262 436 305 436 C359 436 395 412 426 356 L492 403 C454 472 399 512 308 512 L308 512 Z " />
<glyph glyph-name="t" unicode="t" horiz-adv-x="620" d="M66 428 L200 428 L200 167 C200 50 261 -8 371 -8 C434 -8 480 11 526 57 L495 128 C451 82 415 68 371 68 C315 68 284 100 284 170 L284 428 L530 428 L530 504 L284 504 L284 708 L200 655 L200 504 L66 504 L66 428 Z " />
<glyph glyph-name="u" unicode="u" horiz-adv-x="620" d="M103 153 C103 56 152 -8 257 -8 C329 -8 392 35 428 93 L428 0 L512 0 L512 504 L428 504 L428 301 C428 154 359 68 280 68 C220 68 187 101 187 171 L187 504 L103 504 L103 153 Z " />
<glyph glyph-name="v" unicode="v" horiz-adv-x="620" d="M472 504 L310 100 L148 504 L57 504 L268 0 L352 0 L563 504 L472 504 Z " />
<glyph glyph-name="w" unicode="w" horiz-adv-x="620" d="M507 504 L438 131 L352 454 L268 454 L182 131 L113 504 L27 504 L137 0 L213 0 L310 354 L407 0 L483 0 L593 504 L507 504 Z " />
<glyph glyph-name="x" unicode="x" horiz-adv-x="620" d="M421 504 L310 337 L199 504 L100 504 L264 267 L81 0 L176 0 L310 198 L444 0 L539 0 L356 267 L520 504 L421 504 Z " />
<glyph glyph-name="y" unicode="y" horiz-adv-x="620" d="M484 504 L335 135 L166 504 L72 504 L290 34 L192 -204 L276 -204 L575 504 L484 504 Z " />
<glyph glyph-name="z" unicode="z" horiz-adv-x="620" d="M123 428 L374 428 L110 36 L110 0 L513 0 L513 76 L234 76 L501 468 L501 504 L123 504 L123 428 Z " />
<glyph glyph-name="braceleft" unicode="&#x7b;" horiz-adv-x="620" d="M265 50 C265 -10 305 -50 365 -50 L503 -50 L503 26 L390 26 C358 26 345 39 345 71 L345 252 C345 320 315 340 275 350 C315 360 345 380 345 448 L345 629 C345 661 358 674 390 674 L503 674 L503 750 L365 750 C305 750 265 710 265 650 L265 478 C265 408 225 388 165 388 L165 312 C225 312 265 292 265 222 L265 50 Z " />
<glyph glyph-name="bar" unicode="&#x7c;" horiz-adv-x="620" d="M270 750 L270 -50 L350 -50 L350 750 L270 750 Z " />
<glyph glyph-name="braceright" unicode="&#x7d;" horiz-adv-x="620" d="M355 222 C355 292 395 312 455 312 L455 388 C395 388 355 408 355 478 L355 650 C355 710 315 750 255 750 L117 750 L117 674 L230 674 C262 674 275 661 275 629 L275 448 C275 380 305 360 345 350 C305 340 275 320 275 252 L275 71 C275 39 262 26 230 26 L117 26 L117 -50 L255 -50 C315 -50 355 -10 355 50 L355 222 Z " />
<glyph glyph-name="asciitilde" unicode="&#x7e;" horiz-adv-x="620" d="M125 268 C148 296 183 313 218 313 C290 313 327 263 412 263 C467 263 515 297 544 351 L495 402 C472 374 437 357 402 357 C330 357 293 407 208 407 C153 407 105 373 76 319 L125 268 Z " />
<glyph glyph-name="exclamdown" unicode="&#xa1;" horiz-adv-x="620" d="M367 -204 L343 296 L277 296 L253 -204 L367 -204 Z M240 431 C240 391 270 360 310 360 C350 360 380 391 380 431 C380 469 350 499 310 499 C270 499 240 469 240 431 L240 431 Z " />
<glyph glyph-name="cent" unicode="&#xa2;" horiz-adv-x="620" d="M464 259 C438 198 393 166 324 166 C224 166 169 246 169 350 C169 454 224 534 324 534 C393 534 438 502 464 441 L537 471 C501 552 446 597 364 607 L364 750 L284 750 L284 607 C155 587 83 474 83 350 C83 225 155 112 284 93 L284 -50 L364 -50 L364 92 C446 103 501 147 537 229 L464 259 Z " />
<glyph glyph-name="sterling" unicode="&#xa3;" horiz-adv-x="620" d="M112 324 L192 324 C198 301 203 277 203 251 C203 182 168 127 92 54 L149 -8 C187 20 218 32 262 32 C314 32 339 -8 416 -8 C479 -8 525 26 567 104 L501 140 C469 87 446 72 411 72 C369 72 345 111 288 111 C265 111 231 102 201 84 C243 125 280 184 280 261 C280 286 277 306 273 324 L411 324 L411 404 L247 404 C237 431 227 461 227 506 C227 590 280 628 340 628 C396 628 431 602 461 535 L536 570 C504 656 437 708 340 708 C230 708 143 632 143 507 C143 467 154 434 165 404 L112 404 L112 324 Z " />
<glyph glyph-name="currency" unicode="&#xa4;" horiz-adv-x="620" d="M147 422 C125 390 112 350 112 307 C112 264 125 224 147 192 L59 125 L128 56 L195 143 C227 119 266 105 310 105 C354 105 393 119 425 143 L492 56 L561 125 L473 192 C495 224 508 264 508 307 C508 350 495 390 473 422 L561 489 L492 558 L425 471 C393 495 354 509 310 509 C266 509 227 495 195 471 L128 558 L59 489 L147 422 Z M193 307 C193 381 239 433 310 433 C381 433 427 381 427 307 C427 233 381 181 310 181 C239 181 193 233 193 307 L193 307 Z " />
<glyph glyph-name="yen" unicode="&#xa5;" horiz-adv-x="620" d="M110 116 L266 116 L266 0 L354 0 L354 116 L510 116 L510 188 L354 188 L354 276 L510 276 L510 348 L392 348 L575 700 L478 700 L310 364 L142 700 L45 700 L228 348 L110 348 L110 276 L266 276 L266 188 L110 188 L110 116 Z " />
<glyph glyph-name="brokenbar" unicode="&#xa6;" horiz-adv-x="620" d="M270 299 L270 -50 L350 -50 L350 299 L270 299 Z M350 401 L350 750 L270 750 L270 401 L350 401 Z " />
<glyph glyph-name="section" unicode="&#xa7;" horiz-adv-x="620" d="M534 222 C534 287 500 324 422 364 C314 419 213 435 213 526 C213 590 255 628 318 628 C377 628 421 592 445 525 L522 550 C498 647 428 708 318 708 C210 708 129 640 129 522 C129 483 140 444 172 410 C126 376 102 333 102 274 C102 209 136 172 214 132 C322 77 423 61 423 -30 C423 -94 381 -132 318 -132 C259 -132 215 -96 191 -29 L114 -54 C138 -151 208 -212 318 -212 C426 -212 507 -144 507 -26 C507 13 496 52 464 86 C510 120 534 163 534 222 L534 222 Z M455 213 C455 175 434 152 400 131 C312 181 181 203 181 283 C181 321 202 344 236 365 C324 315 455 293 455 213 L455 213 Z " />
<glyph glyph-name="dieresis" unicode="&#xa8;" horiz-adv-x="620" d="M161 651 C161 619 186 595 217 595 C250 595 274 619 274 651 C274 683 250 708 217 708 C186 708 161 683 161 651 L161 651 Z M345 651 C345 619 370 595 401 595 C434 595 458 619 458 651 C458 683 434 708 401 708 C370 708 345 683 345 651 L345 651 Z " />
<glyph glyph-name="copyright" unicode="&#xa9;" horiz-adv-x="620" d="M39 350 C39 191 154 72 310 72 C466 72 581 191 581 350 C581 509 466 628 310 628 C154 628 39 509 39 350 L39 350 Z M103 350 C103 471 185 567 310 567 C435 567 517 471 517 350 C517 229 435 133 310 133 C185 133 103 229 103 350 L103 350 Z M381 302 C367 266 345 251 310 251 C263 251 228 280 228 350 C228 420 263 449 310 449 C345 449 367 434 381 398 L432 410 C421 469 372 502 310 502 C244 502 169 457 169 350 C169 243 244 198 310 198 C372 198 421 231 432 290 L381 302 Z " />
<glyph glyph-name="ordfeminine" unicode="&#xaa;" horiz-adv-x="620" d="M215 415 C215 460 252 489 319 489 L406 489 L406 476 C406 387 331 356 280 356 C238 356 215 378 215 415 L215 415 Z M472 551 C472 660 404 704 311 704 C239 704 181 661 164 592 L221 577 C234 615 267 644 311 644 C359 644 406 624 406 562 L406 545 L326 545 C217 545 147 500 147 415 C147 331 204 296 269 296 C328 296 384 321 409 358 L418 300 L472 300 L472 551 Z " />
<glyph glyph-name="guillemotleft" unicode="&#xab;" horiz-adv-x="620" d="M43 279 L337 80 L337 170 L128 310 L337 450 L337 540 L43 341 L43 279 Z M283 279 L577 80 L577 170 L368 310 L577 450 L577 540 L283 341 L283 279 Z " />
<glyph glyph-name="logicalnot" unicode="&#xac;" horiz-adv-x="620" d="M93 313 L459 313 L459 142 L543 142 L543 389 L93 389 L93 313 Z " />
<glyph glyph-name="registered" unicode="&#xae;" horiz-adv-x="620" d="M39 350 C39 191 154 72 310 72 C466 72 581 191 581 350 C581 509 466 628 310 628 C154 628 39 509 39 350 L39 350 Z M103 350 C103 471 185 567 310 567 C435 567 517 471 517 350 C517 229 435 133 310 133 C185 133 103 229 103 350 L103 350 Z M377 202 L436 202 L347 331 C385 339 413 370 413 413 C413 463 380 498 319 498 L213 498 L213 202 L265 202 L265 328 L289 328 L377 202 Z M316 449 C347 449 359 436 359 413 C359 390 347 377 316 377 L265 377 L265 449 L316 449 Z " />
<glyph glyph-name="macron" unicode="&#xaf;" horiz-adv-x="620" d="M186 632 L435 632 L435 708 L186 708 L186 632 Z " />
<glyph glyph-name="degree" unicode="&#xb0;" horiz-adv-x="620" d="M156 553 C156 465 219 400 310 400 C401 400 464 465 464 553 C464 641 401 706 310 706 C219 706 156 641 156 553 L156 553 Z M225 553 C225 604 258 640 310 640 C362 640 395 604 395 553 C395 502 362 466 310 466 C258 466 225 502 225 553 L225 553 Z " />
<glyph glyph-name="plusminus" unicode="&#xb1;" horiz-adv-x="620" d="M90 0 L530 0 L530 74 L90 74 L90 0 Z M273 619 L273 436 L90 436 L90 362 L273 362 L273 179 L347 179 L347 362 L530 362 L530 436 L347 436 L347 619 L273 619 Z " />
<glyph glyph-name="twosuperior" unicode="&#xb2;" horiz-adv-x="620" d="M261 602 C268 632 285 652 313 652 C341 652 354 633 354 611 C354 583 346 569 329 548 L203 393 L203 368 L428 368 L428 428 L312 428 L386 521 C409 549 420 575 420 612 C420 670 384 712 313 712 C250 712 211 671 202 617 L261 602 Z " />
<glyph glyph-name="threesuperior" unicode="&#xb3;" horiz-adv-x="620" d="M203 467 C208 406 257 364 324 364 C393 364 439 408 439 479 C439 540 405 581 339 581 L423 685 L423 708 L221 708 L221 648 L328 648 L262 565 L291 524 C300 531 312 537 324 537 C357 537 373 517 373 479 C373 445 357 424 324 424 C293 424 271 447 267 482 L203 467 Z " />
<glyph glyph-name="acute" unicode="&#xb4;" horiz-adv-x="620" d="M217 560 L283 560 L405 704 L284 704 L217 560 Z " />
<glyph glyph-name="&amp;#xb5;" unicode="&#xb5;" horiz-adv-x="620" d="M106 -204 L190 -204 L190 4 C209 -4 233 -8 260 -8 C332 -8 395 35 431 93 L431 0 L515 0 L515 504 L431 504 L431 301 C431 154 362 68 283 68 C223 68 190 101 190 171 L190 504 L106 504 L106 -204 Z " />
<glyph glyph-name="&amp;#x3bc;" unicode="&#x3bc;" horiz-adv-x="620" d="M106 -204 L190 -204 L190 4 C209 -4 233 -8 260 -8 C332 -8 395 35 431 93 L431 0 L515 0 L515 504 L431 504 L431 301 C431 154 362 68 283 68 C223 68 190 101 190 171 L190 504 L106 504 L106 -204 Z " />
<glyph glyph-name="paragraph" unicode="&#xb6;" horiz-adv-x="620" d="M52 507 C52 400 138 314 245 314 L245 -204 L329 -204 L329 624 L411 624 L411 -204 L495 -204 L495 624 L557 624 L557 700 L245 700 C138 700 52 614 52 507 L52 507 Z " />
<glyph glyph-name="periodcentered" unicode="&#xb7;" horiz-adv-x="620" d="M230 352 C230 306 264 272 310 272 C356 272 390 306 390 352 C390 398 356 432 310 432 C264 432 230 398 230 352 L230 352 Z " />
<glyph glyph-name="cedilla" unicode="&#xb8;" horiz-adv-x="620" d="M399 -60 L329 -60 L221 -190 L316 -235 L399 -60 Z " />
<glyph glyph-name="onesuperior" unicode="&#xb9;" horiz-adv-x="620" d="M199 368 L419 368 L419 424 L340 424 L340 708 L316 708 L203 656 L203 585 L278 619 L278 424 L199 424 L199 368 Z " />
<glyph glyph-name="ordmasculine" unicode="&#xba;" horiz-adv-x="620" d="M115 500 C115 391 188 296 309 296 C430 296 504 391 504 500 C504 609 430 704 309 704 C188 704 115 609 115 500 L115 500 Z M182 500 C182 576 228 644 309 644 C390 644 436 576 436 500 C436 424 390 355 309 355 C228 355 182 424 182 500 L182 500 Z " />
<glyph glyph-name="guillemotright" unicode="&#xbb;" horiz-adv-x="618" d="M575 341 L281 540 L281 450 L490 310 L281 170 L281 80 L575 279 L575 341 Z M335 341 L41 540 L41 450 L250 310 L41 170 L41 80 L335 279 L335 341 Z " />
<glyph glyph-name="onequarter" unicode="&#xbc;" horiz-adv-x="620" d="M463 -8 L525 -8 L525 53 L575 53 L575 113 L525 113 L525 332 L452 332 L313 80 L313 53 L463 53 L463 -8 Z M394 113 L463 244 L463 113 L394 113 Z M568 549 L61 196 L95 148 L602 501 L568 549 Z M29 368 L249 368 L249 424 L170 424 L170 708 L146 708 L33 656 L33 585 L108 619 L108 424 L29 424 L29 368 Z " />
<glyph glyph-name="onehalf" unicode="&#xbd;" horiz-adv-x="620" d="M29 368 L249 368 L249 424 L170 424 L170 708 L146 708 L33 656 L33 585 L108 619 L108 424 L29 424 L29 368 Z M568 549 L61 196 L95 148 L602 501 L568 549 Z M417 234 C424 264 441 284 469 284 C497 284 510 265 510 243 C510 215 502 201 485 180 L359 25 L359 0 L584 0 L584 60 L468 60 L542 153 C565 181 576 207 576 244 C576 302 540 344 469 344 C406 344 367 303 358 249 L417 234 Z " />
<glyph glyph-name="threequarters" unicode="&#xbe;" horiz-adv-x="620" d="M23 467 C28 406 77 364 144 364 C213 364 259 408 259 479 C259 540 225 581 159 581 L243 685 L243 708 L41 708 L41 648 L148 648 L82 565 L111 524 C120 531 132 537 144 537 C177 537 193 517 193 479 C193 445 177 424 144 424 C113 424 91 447 87 482 L23 467 Z M568 549 L61 196 L95 148 L602 501 L568 549 Z M463 -8 L525 -8 L525 53 L575 53 L575 113 L525 113 L525 332 L452 332 L313 80 L313 53 L463 53 L463 -8 Z M394 113 L463 244 L463 113 L394 113 Z " />
<glyph glyph-name="questiondown" unicode="&#xbf;" horiz-adv-x="620" d="M388 433 C388 470 359 499 322 499 C284 499 254 470 254 433 C254 395 284 365 322 365 C359 365 388 395 388 433 L388 433 Z M188 189 C188 189 253 166 253 166 C266 197 287 225 325 225 C357 225 377 206 377 174 C377 147 364 125 328 105 L227 56 C176 31 150 -11 150 -63 C150 -103 165 -139 196 -168 C225 -195 264 -212 320 -212 C422 -212 487 -151 503 -62 L425 -49 C410 -103 372 -141 320 -141 C289 -141 271 -134 255 -120 C241 -108 234 -91 234 -68 C234 -39 242 -16 277 3 C309 20 327 22 369 44 C421 71 454 111 454 170 C454 247 402 294 322 294 C259 294 211 257 188 189 L188 189 Z " />
<glyph glyph-name="Agrave" unicode="&#xc0;" horiz-adv-x="620" d="M268 700 L19 0 L110 0 L173 187 L447 187 L510 0 L601 0 L352 700 L268 700 Z M310 586 L418 271 L202 271 L310 586 Z M296 900 L175 900 L297 756 L363 756 L296 900 Z " />
<glyph glyph-name="Aacute" unicode="&#xc1;" horiz-adv-x="620" d="M268 700 L19 0 L110 0 L173 187 L447 187 L510 0 L601 0 L352 700 L268 700 Z M310 586 L418 271 L202 271 L310 586 Z M256 756 L322 756 L444 900 L323 900 L256 756 Z " />
<glyph glyph-name="Acircumflex" unicode="&#xc2;" horiz-adv-x="620" d="M268 700 L19 0 L110 0 L173 187 L447 187 L510 0 L601 0 L352 700 L268 700 Z M310 586 L418 271 L202 271 L310 586 Z M143 762 L230 762 L310 847 L390 762 L477 762 L323 926 L297 926 L143 762 Z " />
<glyph glyph-name="Atilde" unicode="&#xc3;" horiz-adv-x="620" d="M268 700 L19 0 L110 0 L173 187 L447 187 L510 0 L601 0 L352 700 L268 700 Z M310 586 L418 271 L202 271 L310 586 Z M183 782 C201 804 221 818 249 818 C299 818 312 778 380 778 C424 778 464 810 487 853 L438 892 C420 870 400 856 372 856 C322 856 309 896 241 896 C197 896 157 863 134 820 L183 782 Z " />
<glyph glyph-name="Adieresis" unicode="&#xc4;" horiz-adv-x="620" d="M268 700 L19 0 L110 0 L173 187 L447 187 L510 0 L601 0 L352 700 L268 700 Z M310 586 L418 271 L202 271 L310 586 Z M162 847 C162 815 187 791 218 791 C251 791 275 815 275 847 C275 879 251 904 218 904 C187 904 162 879 162 847 L162 847 Z M346 847 C346 815 371 791 402 791 C435 791 459 815 459 847 C459 879 435 904 402 904 C371 904 346 879 346 847 L346 847 Z " />
<glyph glyph-name="Aring" unicode="&#xc5;" horiz-adv-x="620" d="M268 700 L19 0 L110 0 L173 187 L447 187 L510 0 L601 0 L352 700 L268 700 Z M310 586 L418 271 L202 271 L310 586 Z M211 849 C211 795 254 753 310 753 C368 753 409 795 409 849 C409 905 368 949 310 949 C254 949 211 905 211 849 L211 849 Z M267 850 C267 876 285 896 310 896 C336 896 353 876 353 850 C353 825 336 806 310 806 C285 806 267 825 267 850 L267 850 Z " />
<glyph glyph-name="AE" unicode="&#xc6;" horiz-adv-x="620" d="M183 700 L-11 0 L77 0 L129 187 L281 187 L281 0 L585 0 L585 84 L369 84 L369 331 L535 331 L535 415 L369 415 L369 616 L575 616 L575 700 L183 700 Z M234 586 L281 586 L281 271 L149 271 L234 586 Z " />
<glyph glyph-name="Ccedilla" unicode="&#xc7;" horiz-adv-x="620" d="M506 230 C475 128 426 76 338 76 C219 76 140 159 140 350 C140 541 219 624 338 624 C426 624 475 572 506 470 L589 495 C558 619 473 708 338 708 C180 708 49 592 49 350 C49 108 180 -8 338 -8 C473 -8 558 81 589 205 L506 230 Z M392 -60 L322 -60 L214 -190 L309 -235 L392 -60 Z " />
<glyph glyph-name="Egrave" unicode="&#xc8;" horiz-adv-x="620" d="M91 700 L91 0 L545 0 L545 84 L179 84 L179 331 L485 331 L485 415 L179 415 L179 616 L535 616 L535 700 L91 700 Z M314 900 L193 900 L315 756 L381 756 L314 900 Z " />
<glyph glyph-name="Eacute" unicode="&#xc9;" horiz-adv-x="620" d="M91 700 L91 0 L545 0 L545 84 L179 84 L179 331 L485 331 L485 415 L179 415 L179 616 L535 616 L535 700 L91 700 Z M246 756 L312 756 L434 900 L313 900 L246 756 Z " />
<glyph glyph-name="Ecircumflex" unicode="&#xca;" horiz-adv-x="620" d="M91 700 L91 0 L545 0 L545 84 L179 84 L179 331 L485 331 L485 415 L179 415 L179 616 L535 616 L535 700 L91 700 Z M143 762 L230 762 L310 847 L390 762 L477 762 L323 926 L297 926 L143 762 Z " />
<glyph glyph-name="Edieresis" unicode="&#xcb;" horiz-adv-x="620" d="M91 700 L91 0 L545 0 L545 84 L179 84 L179 331 L485 331 L485 415 L179 415 L179 616 L535 616 L535 700 L91 700 Z M166 847 C166 815 191 791 222 791 C255 791 279 815 279 847 C279 879 255 904 222 904 C191 904 166 879 166 847 L166 847 Z M350 847 C350 815 375 791 406 791 C439 791 463 815 463 847 C463 879 439 904 406 904 C375 904 350 879 350 847 L350 847 Z " />
<glyph glyph-name="Igrave" unicode="&#xcc;" horiz-adv-x="620" d="M523 0 L523 76 L354 76 L354 624 L523 624 L523 700 L97 700 L97 624 L266 624 L266 76 L97 76 L97 0 L523 0 Z M326 900 L205 900 L327 756 L393 756 L326 900 Z " />
<glyph glyph-name="Iacute" unicode="&#xcd;" horiz-adv-x="620" d="M523 0 L523 76 L354 76 L354 624 L523 624 L523 700 L97 700 L97 624 L266 624 L266 76 L97 76 L97 0 L523 0 Z M226 756 L292 756 L414 900 L293 900 L226 756 Z " />
<glyph glyph-name="Icircumflex" unicode="&#xce;" horiz-adv-x="620" d="M523 0 L523 76 L354 76 L354 624 L523 624 L523 700 L97 700 L97 624 L266 624 L266 76 L97 76 L97 0 L523 0 Z M144 762 L231 762 L311 847 L391 762 L478 762 L324 926 L298 926 L144 762 Z " />
<glyph glyph-name="Idieresis" unicode="&#xcf;" horiz-adv-x="620" d="M523 0 L523 76 L354 76 L354 624 L523 624 L523 700 L97 700 L97 624 L266 624 L266 76 L97 76 L97 0 L523 0 Z M163 847 C163 815 188 791 219 791 C252 791 276 815 276 847 C276 879 252 904 219 904 C188 904 163 879 163 847 L163 847 Z M347 847 C347 815 372 791 403 791 C436 791 460 815 460 847 C460 879 436 904 403 904 C372 904 347 879 347 847 L347 847 Z " />
<glyph glyph-name="Eth" unicode="&#xd0;" horiz-adv-x="620" d="M26 308 L75 308 L75 0 L264 0 C446 0 575 113 575 350 C575 587 446 700 264 700 L75 700 L75 392 L26 392 L26 308 Z M255 616 C394 616 481 546 481 350 C481 154 394 84 255 84 L163 84 L163 308 L272 308 L272 392 L163 392 L163 616 L255 616 Z " />
<glyph glyph-name="Ntilde" unicode="&#xd1;" horiz-adv-x="620" d="M460 700 L460 160 L167 700 L71 700 L71 0 L159 0 L159 540 L452 0 L548 0 L548 700 L460 700 Z M186 782 C204 804 224 818 252 818 C302 818 315 778 383 778 C427 778 467 810 490 853 L441 892 C423 870 403 856 375 856 C325 856 312 896 244 896 C200 896 160 863 137 820 L186 782 Z " />
<glyph glyph-name="Ograve" unicode="&#xd2;" horiz-adv-x="620" d="M310 708 C158 708 38 590 38 350 C38 110 158 -8 310 -8 C462 -8 582 110 582 350 C582 590 462 708 310 708 L310 708 Z M310 624 C413 624 491 548 491 350 C491 152 413 76 310 76 C207 76 129 152 129 350 C129 548 207 624 310 624 L310 624 Z M308 900 L187 900 L309 756 L375 756 L308 900 Z " />
<glyph glyph-name="Oacute" unicode="&#xd3;" horiz-adv-x="620" d="M310 708 C158 708 38 590 38 350 C38 110 158 -8 310 -8 C462 -8 582 110 582 350 C582 590 462 708 310 708 L310 708 Z M310 624 C413 624 491 548 491 350 C491 152 413 76 310 76 C207 76 129 152 129 350 C129 548 207 624 310 624 L310 624 Z M236 756 L302 756 L424 900 L303 900 L236 756 Z " />
<glyph glyph-name="Ocircumflex" unicode="&#xd4;" horiz-adv-x="620" d="M310 708 C158 708 38 590 38 350 C38 110 158 -8 310 -8 C462 -8 582 110 582 350 C582 590 462 708 310 708 L310 708 Z M310 624 C413 624 491 548 491 350 C491 152 413 76 310 76 C207 76 129 152 129 350 C129 548 207 624 310 624 L310 624 Z M143 762 L230 762 L310 847 L390 762 L477 762 L323 926 L297 926 L143 762 Z " />
<glyph glyph-name="Otilde" unicode="&#xd5;" horiz-adv-x="620" d="M310 708 C158 708 38 590 38 350 C38 110 158 -8 310 -8 C462 -8 582 110 582 350 C582 590 462 708 310 708 L310 708 Z M310 624 C413 624 491 548 491 350 C491 152 413 76 310 76 C207 76 129 152 129 350 C129 548 207 624 310 624 L310 624 Z M183 782 C201 804 221 818 249 818 C299 818 312 778 380 778 C424 778 464 810 487 853 L438 892 C420 870 400 856 372 856 C322 856 309 896 241 896 C197 896 157 863 134 820 L183 782 Z " />
<glyph glyph-name="Odieresis" unicode="&#xd6;" horiz-adv-x="620" d="M310 708 C158 708 38 590 38 350 C38 110 158 -8 310 -8 C462 -8 582 110 582 350 C582 590 462 708 310 708 L310 708 Z M310 624 C413 624 491 548 491 350 C491 152 413 76 310 76 C207 76 129 152 129 350 C129 548 207 624 310 624 L310 624 Z M162 847 C162 815 187 791 218 791 C251 791 275 815 275 847 C275 879 251 904 218 904 C187 904 162 879 162 847 L162 847 Z M346 847 C346 815 371 791 402 791 C435 791 459 815 459 847 C459 879 435 904 402 904 C371 904 346 879 346 847 L346 847 Z " />
<glyph glyph-name="multiply" unicode="&#xd7;" horiz-adv-x="620" d="M468 529 L310 371 L152 529 L100 477 L258 319 L100 161 L152 109 L310 267 L468 109 L520 161 L362 319 L520 477 L468 529 Z " />
<glyph glyph-name="Oslash" unicode="&#xd8;" horiz-adv-x="620" d="M548 727 L482 641 C436 686 376 708 310 708 C158 708 38 590 38 350 C38 255 57 180 89 123 L9 17 L72 -27 L138 59 C184 14 244 -8 310 -8 C462 -8 582 110 582 350 C582 445 563 520 531 577 L611 683 L548 727 Z M310 624 C357 624 399 608 430 572 L149 202 C136 241 129 290 129 350 C129 548 207 624 310 624 L310 624 Z M491 350 C491 152 413 76 310 76 C263 76 221 92 190 128 L471 498 C484 459 491 410 491 350 L491 350 Z " />
<glyph glyph-name="Ugrave" unicode="&#xd9;" horiz-adv-x="620" d="M62 243 C62 83 171 -8 310 -8 C449 -8 558 83 558 243 L558 700 L470 700 L470 237 C470 144 414 76 310 76 C206 76 150 144 150 237 L150 700 L62 700 L62 243 Z M316 900 L195 900 L317 756 L383 756 L316 900 Z " />
<glyph glyph-name="Uacute" unicode="&#xda;" horiz-adv-x="620" d="M62 243 C62 83 171 -8 310 -8 C449 -8 558 83 558 243 L558 700 L470 700 L470 237 C470 144 414 76 310 76 C206 76 150 144 150 237 L150 700 L62 700 L62 243 Z M246 756 L312 756 L434 900 L313 900 L246 756 Z " />
<glyph glyph-name="Ucircumflex" unicode="&#xdb;" horiz-adv-x="620" d="M62 243 C62 83 171 -8 310 -8 C449 -8 558 83 558 243 L558 700 L470 700 L470 237 C470 144 414 76 310 76 C206 76 150 144 150 237 L150 700 L62 700 L62 243 Z M143 762 L230 762 L310 847 L390 762 L477 762 L323 926 L297 926 L143 762 Z " />
<glyph glyph-name="Udieresis" unicode="&#xdc;" horiz-adv-x="620" d="M62 243 C62 83 171 -8 310 -8 C449 -8 558 83 558 243 L558 700 L470 700 L470 237 C470 144 414 76 310 76 C206 76 150 144 150 237 L150 700 L62 700 L62 243 Z M162 847 C162 815 187 791 218 791 C251 791 275 815 275 847 C275 879 251 904 218 904 C187 904 162 879 162 847 L162 847 Z M346 847 C346 815 371 791 402 791 C435 791 459 815 459 847 C459 879 435 904 402 904 C371 904 346 879 346 847 L346 847 Z " />
<glyph glyph-name="Yacute" unicode="&#xdd;" horiz-adv-x="620" d="M266 276 L266 0 L354 0 L354 276 L579 700 L482 700 L310 364 L138 700 L41 700 L266 276 Z M245 756 L311 756 L433 900 L312 900 L245 756 Z " />
<glyph glyph-name="Thorn" unicode="&#xde;" horiz-adv-x="620" d="M352 150 C487 150 560 228 560 350 C560 472 487 550 352 550 L193 550 L193 700 L105 700 L105 0 L193 0 L193 150 L352 150 Z M350 234 L193 234 L193 466 L350 466 C427 466 469 427 469 350 C469 273 427 234 350 234 L350 234 Z " />
<glyph glyph-name="germandbls" unicode="&#xdf;" horiz-adv-x="620" d="M69 344 L119 344 L119 0 L203 0 L203 502 C203 586 244 632 308 632 C371 632 414 595 414 526 C414 465 388 420 316 420 L281 420 L281 344 L316 344 C403 344 457 298 457 206 C457 115 408 68 320 68 C296 68 275 71 255 75 L255 -1 C272 -5 291 -8 326 -8 C456 -8 541 63 541 212 C541 319 477 376 404 390 C454 405 494 452 494 529 C494 628 434 708 308 708 C206 708 119 641 119 505 L119 420 L69 420 L69 344 Z " />
<glyph glyph-name="agrave" unicode="&#xe0;" horiz-adv-x="620" d="M197 145 C197 202 245 238 331 238 L441 238 L441 222 C441 108 345 68 280 68 C230 68 197 97 197 145 L197 145 Z M525 318 C525 457 443 512 325 512 C233 512 155 458 132 370 L206 350 C222 399 266 436 325 436 C386 436 441 410 441 332 L441 310 L339 310 C201 310 111 257 111 145 C111 42 183 -8 267 -8 C342 -8 413 25 445 71 L457 0 L525 0 L525 318 Z M317 704 L196 704 L318 560 L384 560 L317 704 Z " />
<glyph glyph-name="aacute" unicode="&#xe1;" horiz-adv-x="620" d="M197 145 C197 202 245 238 331 238 L441 238 L441 222 C441 108 345 68 280 68 C230 68 197 97 197 145 L197 145 Z M525 318 C525 457 443 512 325 512 C233 512 155 458 132 370 L206 350 C222 399 266 436 325 436 C386 436 441 410 441 332 L441 310 L339 310 C201 310 111 257 111 145 C111 42 183 -8 267 -8 C342 -8 413 25 445 71 L457 0 L525 0 L525 318 Z M250 560 L316 560 L438 704 L317 704 L250 560 Z " />
<glyph glyph-name="acircumflex" unicode="&#xe2;" horiz-adv-x="620" d="M197 145 C197 202 245 238 331 238 L441 238 L441 222 C441 108 345 68 280 68 C230 68 197 97 197 145 L197 145 Z M525 318 C525 457 443 512 325 512 C233 512 155 458 132 370 L206 350 C222 399 266 436 325 436 C386 436 441 410 441 332 L441 310 L339 310 C201 310 111 257 111 145 C111 42 183 -8 267 -8 C342 -8 413 25 445 71 L457 0 L525 0 L525 318 Z M158 566 L245 566 L325 651 L405 566 L492 566 L338 730 L312 730 L158 566 Z " />
<glyph glyph-name="atilde" unicode="&#xe3;" horiz-adv-x="620" d="M197 145 C197 202 245 238 331 238 L441 238 L441 222 C441 108 345 68 280 68 C230 68 197 97 197 145 L197 145 Z M525 318 C525 457 443 512 325 512 C233 512 155 458 132 370 L206 350 C222 399 266 436 325 436 C386 436 441 410 441 332 L441 310 L339 310 C201 310 111 257 111 145 C111 42 183 -8 267 -8 C342 -8 413 25 445 71 L457 0 L525 0 L525 318 Z M197 586 C215 608 235 622 263 622 C313 622 326 582 394 582 C438 582 478 614 501 657 L452 696 C434 674 414 660 386 660 C336 660 323 700 255 700 C211 700 171 667 148 624 L197 586 Z " />
<glyph glyph-name="adieresis" unicode="&#xe4;" horiz-adv-x="620" d="M197 145 C197 202 245 238 331 238 L441 238 L441 222 C441 108 345 68 280 68 C230 68 197 97 197 145 L197 145 Z M525 318 C525 457 443 512 325 512 C233 512 155 458 132 370 L206 350 C222 399 266 436 325 436 C386 436 441 410 441 332 L441 310 L339 310 C201 310 111 257 111 145 C111 42 183 -8 267 -8 C342 -8 413 25 445 71 L457 0 L525 0 L525 318 Z M182 651 C182 619 207 595 238 595 C271 595 295 619 295 651 C295 683 271 708 238 708 C207 708 182 683 182 651 L182 651 Z M366 651 C366 619 391 595 422 595 C455 595 479 619 479 651 C479 683 455 708 422 708 C391 708 366 683 366 651 L366 651 Z " />
<glyph glyph-name="aring" unicode="&#xe5;" horiz-adv-x="620" d="M197 145 C197 202 245 238 331 238 L441 238 L441 222 C441 108 345 68 280 68 C230 68 197 97 197 145 L197 145 Z M525 318 C525 457 443 512 325 512 C233 512 155 458 132 370 L206 350 C222 399 266 436 325 436 C386 436 441 410 441 332 L441 310 L339 310 C201 310 111 257 111 145 C111 42 183 -8 267 -8 C342 -8 413 25 445 71 L457 0 L525 0 L525 318 Z M223 653 C223 599 266 557 322 557 C380 557 421 599 421 653 C421 709 380 753 322 753 C266 753 223 709 223 653 L223 653 Z M279 654 C279 680 297 700 322 700 C348 700 365 680 365 654 C365 629 348 610 322 610 C297 610 279 629 279 654 L279 654 Z " />
<glyph glyph-name="ae" unicode="&#xe6;" horiz-adv-x="620" d="M607 284 C607 430 550 512 450 512 C400 512 352 483 327 436 C309 485 272 512 210 512 C126 512 67 448 57 370 L131 350 C141 404 168 436 211 436 C255 436 279 397 279 342 L279 310 L224 310 C116 310 36 254 36 144 C36 45 96 -8 181 -8 C252 -8 301 28 325 82 C342 30 383 -8 444 -8 C528 -8 572 45 601 146 L529 167 C511 100 488 68 444 68 C393 68 365 130 365 234 L607 234 L607 284 Z M122 147 C122 206 162 238 235 238 L279 238 L279 199 C279 132 254 68 189 68 C148 68 122 99 122 147 L122 147 Z M444 436 C495 436 523 380 523 310 L365 310 C365 387 399 436 444 436 L444 436 Z " />
<glyph glyph-name="ccedilla" unicode="&#xe7;" horiz-adv-x="620" d="M470 161 C444 100 399 68 330 68 C230 68 175 148 175 252 C175 356 230 436 330 436 C399 436 444 404 470 343 L543 373 C502 467 434 512 330 512 C176 512 89 389 89 252 C89 115 176 -8 330 -8 C434 -8 502 37 543 131 L470 161 Z M389 -60 L319 -60 L211 -190 L306 -235 L389 -60 Z " />
<glyph glyph-name="egrave" unicode="&#xe8;" horiz-adv-x="620" d="M556 269 C556 401 473 512 317 512 C166 512 76 394 76 252 C76 105 170 -8 317 -8 C411 -8 491 27 546 133 L479 168 C445 105 393 68 317 68 C228 68 167 134 162 234 L556 234 L556 269 Z M317 436 C399 436 452 390 467 310 L168 310 C185 386 236 436 317 436 L317 436 Z M313 704 L192 704 L314 560 L380 560 L313 704 Z " />
<glyph glyph-name="eacute" unicode="&#xe9;" horiz-adv-x="620" d="M556 269 C556 401 473 512 317 512 C166 512 76 394 76 252 C76 105 170 -8 317 -8 C411 -8 491 27 546 133 L479 168 C445 105 393 68 317 68 C228 68 167 134 162 234 L556 234 L556 269 Z M317 436 C399 436 452 390 467 310 L168 310 C185 386 236 436 317 436 L317 436 Z M234 560 L300 560 L422 704 L301 704 L234 560 Z " />
<glyph glyph-name="ecircumflex" unicode="&#xea;" horiz-adv-x="620" d="M556 269 C556 401 473 512 317 512 C166 512 76 394 76 252 C76 105 170 -8 317 -8 C411 -8 491 27 546 133 L479 168 C445 105 393 68 317 68 C228 68 167 134 162 234 L556 234 L556 269 Z M317 436 C399 436 452 390 467 310 L168 310 C185 386 236 436 317 436 L317 436 Z M150 566 L237 566 L317 651 L397 566 L484 566 L330 730 L304 730 L150 566 Z " />
<glyph glyph-name="edieresis" unicode="&#xeb;" horiz-adv-x="620" d="M556 269 C556 401 473 512 317 512 C166 512 76 394 76 252 C76 105 170 -8 317 -8 C411 -8 491 27 546 133 L479 168 C445 105 393 68 317 68 C228 68 167 134 162 234 L556 234 L556 269 Z M317 436 C399 436 452 390 467 310 L168 310 C185 386 236 436 317 436 L317 436 Z M169 651 C169 619 194 595 225 595 C258 595 282 619 282 651 C282 683 258 708 225 708 C194 708 169 683 169 651 L169 651 Z M353 651 C353 619 378 595 409 595 C442 595 466 619 466 651 C466 683 442 708 409 708 C378 708 353 683 353 651 L353 651 Z " />
<glyph glyph-name="igrave" unicode="&#xec;" horiz-adv-x="620" d="M129 430 L283 430 L283 74 L109 74 L109 0 L553 0 L553 74 L367 74 L367 504 L129 504 L129 430 Z M295 704 L174 704 L296 560 L362 560 L295 704 Z " />
<glyph glyph-name="iacute" unicode="&#xed;" horiz-adv-x="620" d="M129 430 L283 430 L283 74 L109 74 L109 0 L553 0 L553 74 L367 74 L367 504 L129 504 L129 430 Z M205 560 L271 560 L393 704 L272 704 L205 560 Z " />
<glyph glyph-name="icircumflex" unicode="&#xee;" horiz-adv-x="620" d="M129 430 L283 430 L283 74 L109 74 L109 0 L553 0 L553 74 L367 74 L367 504 L129 504 L129 430 Z M129 566 L216 566 L296 651 L376 566 L463 566 L309 730 L283 730 L129 566 Z " />
<glyph glyph-name="idieresis" unicode="&#xef;" horiz-adv-x="620" d="M129 430 L283 430 L283 74 L109 74 L109 0 L553 0 L553 74 L367 74 L367 504 L129 504 L129 430 Z M149 651 C149 619 174 595 205 595 C238 595 262 619 262 651 C262 683 238 708 205 708 C174 708 149 683 149 651 L149 651 Z M333 651 C333 619 358 595 389 595 C422 595 446 619 446 651 C446 683 422 708 389 708 C358 708 333 683 333 651 L333 651 Z " />
<glyph glyph-name="eth" unicode="&#xf0;" horiz-adv-x="620" d="M277 542 L316 601 C368 562 408 525 429 468 C409 493 357 512 313 512 C162 512 73 389 73 252 C73 115 162 -8 313 -8 C464 -8 553 114 553 262 C553 438 497 557 357 662 L391 713 L333 755 L296 701 C272 715 245 728 216 740 L176 679 C203 668 230 656 256 641 L218 584 L277 542 Z M159 252 C159 345 210 436 313 436 C413 436 467 349 467 252 C467 159 416 68 313 68 C210 68 159 159 159 252 L159 252 Z " />
<glyph glyph-name="ntilde" unicode="&#xf1;" horiz-adv-x="620" d="M522 351 C522 448 473 512 368 512 C296 512 233 469 197 411 L197 504 L113 504 L113 0 L197 0 L197 203 C197 350 266 436 345 436 C405 436 438 403 438 333 L438 0 L522 0 L522 351 Z M198 586 C216 608 236 622 264 622 C314 622 327 582 395 582 C439 582 479 614 502 657 L453 696 C435 674 415 660 387 660 C337 660 324 700 256 700 C212 700 172 667 149 624 L198 586 Z " />
<glyph glyph-name="ograve" unicode="&#xf2;" horiz-adv-x="620" d="M62 252 C62 113 156 -8 310 -8 C464 -8 558 113 558 252 C558 391 464 512 310 512 C156 512 62 391 62 252 L62 252 Z M148 252 C148 349 207 436 310 436 C413 436 472 349 472 252 C472 155 413 68 310 68 C207 68 148 155 148 252 L148 252 Z M310 704 L189 704 L311 560 L377 560 L310 704 Z " />
<glyph glyph-name="oacute" unicode="&#xf3;" horiz-adv-x="620" d="M62 252 C62 113 156 -8 310 -8 C464 -8 558 113 558 252 C558 391 464 512 310 512 C156 512 62 391 62 252 L62 252 Z M148 252 C148 349 207 436 310 436 C413 436 472 349 472 252 C472 155 413 68 310 68 C207 68 148 155 148 252 L148 252 Z M230 560 L296 560 L418 704 L297 704 L230 560 Z " />
<glyph glyph-name="ocircumflex" unicode="&#xf4;" horiz-adv-x="620" d="M62 252 C62 113 156 -8 310 -8 C464 -8 558 113 558 252 C558 391 464 512 310 512 C156 512 62 391 62 252 L62 252 Z M148 252 C148 349 207 436 310 436 C413 436 472 349 472 252 C472 155 413 68 310 68 C207 68 148 155 148 252 L148 252 Z M143 566 L230 566 L310 651 L390 566 L477 566 L323 730 L297 730 L143 566 Z " />
<glyph glyph-name="otilde" unicode="&#xf5;" horiz-adv-x="620" d="M62 252 C62 113 156 -8 310 -8 C464 -8 558 113 558 252 C558 391 464 512 310 512 C156 512 62 391 62 252 L62 252 Z M148 252 C148 349 207 436 310 436 C413 436 472 349 472 252 C472 155 413 68 310 68 C207 68 148 155 148 252 L148 252 Z M182 586 C200 608 220 622 248 622 C298 622 311 582 379 582 C423 582 463 614 486 657 L437 696 C419 674 399 660 371 660 C321 660 308 700 240 700 C196 700 156 667 133 624 L182 586 Z " />
<glyph glyph-name="odieresis" unicode="&#xf6;" horiz-adv-x="620" d="M62 252 C62 113 156 -8 310 -8 C464 -8 558 113 558 252 C558 391 464 512 310 512 C156 512 62 391 62 252 L62 252 Z M148 252 C148 349 207 436 310 436 C413 436 472 349 472 252 C472 155 413 68 310 68 C207 68 148 155 148 252 L148 252 Z M162 651 C162 619 187 595 218 595 C251 595 275 619 275 651 C275 683 251 708 218 708 C187 708 162 683 162 651 L162 651 Z M346 651 C346 619 371 595 402 595 C435 595 459 619 459 651 C459 683 435 708 402 708 C371 708 346 683 346 651 L346 651 Z " />
<glyph glyph-name="divide" unicode="&#xf7;" horiz-adv-x="620" d="M244 491 C244 453 272 425 310 425 C348 425 376 453 376 491 C376 529 348 557 310 557 C272 557 244 529 244 491 L244 491 Z M90 280 L530 280 L530 354 L90 354 L90 280 Z M244 143 C244 105 272 77 310 77 C348 77 376 105 376 143 C376 181 348 209 310 209 C272 209 244 181 244 143 L244 143 Z " />
<glyph glyph-name="oslash" unicode="&#xf8;" horiz-adv-x="620" d="M494 547 L439 477 C403 499 359 512 310 512 C156 512 62 391 62 252 C62 185 84 122 124 75 L65 0 L126 -43 L181 27 C217 5 261 -8 310 -8 C464 -8 558 113 558 252 C558 319 536 382 496 429 L555 504 L494 547 Z M472 252 C472 155 413 68 310 68 C280 68 253 76 230 89 L443 361 C462 330 472 292 472 252 L472 252 Z M148 252 C148 349 207 436 310 436 C340 436 367 428 390 415 L177 143 C158 174 148 212 148 252 L148 252 Z " />
<glyph glyph-name="ugrave" unicode="&#xf9;" horiz-adv-x="620" d="M103 153 C103 56 152 -8 257 -8 C329 -8 392 35 428 93 L428 0 L512 0 L512 504 L428 504 L428 301 C428 154 359 68 280 68 C220 68 187 101 187 171 L187 504 L103 504 L103 153 Z M319 704 L198 704 L320 560 L386 560 L319 704 Z " />
<glyph glyph-name="uacute" unicode="&#xfa;" horiz-adv-x="620" d="M103 153 C103 56 152 -8 257 -8 C329 -8 392 35 428 93 L428 0 L512 0 L512 504 L428 504 L428 301 C428 154 359 68 280 68 C220 68 187 101 187 171 L187 504 L103 504 L103 153 Z M242 560 L308 560 L430 704 L309 704 L242 560 Z " />
<glyph glyph-name="ucircumflex" unicode="&#xfb;" horiz-adv-x="620" d="M103 153 C103 56 152 -8 257 -8 C329 -8 392 35 428 93 L428 0 L512 0 L512 504 L428 504 L428 301 C428 154 359 68 280 68 C220 68 187 101 187 171 L187 504 L103 504 L103 153 Z M143 566 L230 566 L310 651 L390 566 L477 566 L323 730 L297 730 L143 566 Z " />
<glyph glyph-name="udieresis" unicode="&#xfc;" horiz-adv-x="620" d="M103 153 C103 56 152 -8 257 -8 C329 -8 392 35 428 93 L428 0 L512 0 L512 504 L428 504 L428 301 C428 154 359 68 280 68 C220 68 187 101 187 171 L187 504 L103 504 L103 153 Z M162 651 C162 619 187 595 218 595 C251 595 275 619 275 651 C275 683 251 708 218 708 C187 708 162 683 162 651 L162 651 Z M346 651 C346 619 371 595 402 595 C435 595 459 619 459 651 C459 683 435 708 402 708 C371 708 346 683 346 651 L346 651 Z " />
<glyph glyph-name="yacute" unicode="&#xfd;" horiz-adv-x="620" d="M484 504 L335 135 L166 504 L72 504 L290 34 L192 -204 L276 -204 L575 504 L484 504 Z M264 560 L330 560 L452 704 L331 704 L264 560 Z " />
<glyph glyph-name="thorn" unicode="&#xfe;" horiz-adv-x="620" d="M557 252 C557 406 474 512 326 512 C256 512 203 477 172 440 L172 708 L88 708 L88 -204 L172 -204 L172 67 C200 28 257 -8 326 -8 C474 -8 557 98 557 252 L557 252 Z M471 252 C471 144 414 68 318 68 C222 68 165 144 165 252 C165 360 222 436 318 436 C414 436 471 360 471 252 L471 252 Z " />
<glyph glyph-name="ydieresis" unicode="&#xff;" horiz-adv-x="620" d="M484 504 L335 135 L166 504 L72 504 L290 34 L192 -204 L276 -204 L575 504 L484 504 Z M177 651 C177 619 202 595 233 595 C266 595 290 619 290 651 C290 683 266 708 233 708 C202 708 177 683 177 651 L177 651 Z M361 651 C361 619 386 595 417 595 C450 595 474 619 474 651 C474 683 450 708 417 708 C386 708 361 683 361 651 L361 651 Z " />
<glyph glyph-name="dotlessi" unicode="&#x131;" horiz-adv-x="620" d="M129 430 L283 430 L283 74 L109 74 L109 0 L553 0 L553 74 L367 74 L367 504 L129 504 L129 430 Z " />
<glyph glyph-name="Lslash" unicode="&#x141;" horiz-adv-x="620" d="M79 233 L133 263 L133 0 L578 0 L578 84 L221 84 L221 313 L367 396 L331 461 L221 399 L221 700 L133 700 L133 349 L43 298 L79 233 Z " />
<glyph glyph-name="lslash" unicode="&#x142;" horiz-adv-x="620" d="M209 624 L209 366 L89 298 L125 234 L209 281 L209 191 C209 66 283 -8 399 -8 C502 -8 574 52 592 174 L516 189 C503 104 459 68 399 68 C330 68 293 107 293 190 L293 329 L413 397 L377 461 L293 413 L293 700 L70 700 L70 624 L209 624 Z " />
<glyph glyph-name="OE" unicode="&#x152;" horiz-adv-x="620" d="M299 700 C147 700 38 590 38 350 C38 110 147 0 299 0 L571 0 L571 84 L378 84 L378 331 L534 331 L534 415 L378 415 L378 616 L561 616 L561 700 L299 700 Z M129 350 C129 548 187 624 290 624 L290 84 C187 84 129 152 129 350 L129 350 Z " />
<glyph glyph-name="oe" unicode="&#x153;" horiz-adv-x="620" d="M321 -8 C415 -8 495 27 550 133 L483 168 C455 117 417 84 363 72 L363 234 L560 234 L560 269 C560 401 477 512 321 512 C167 512 73 391 73 252 C73 113 167 -8 321 -8 L321 -8 Z M159 252 C159 334 199 410 277 430 L277 73 C199 94 159 169 159 252 L159 252 Z M471 310 L363 310 L363 432 C424 420 457 379 471 310 L471 310 Z " />
<glyph glyph-name="Scaron" unicode="&#x160;" horiz-adv-x="620" d="M536 558 C508 634 439 708 317 708 C180 708 103 624 103 513 C103 373 206 342 305 317 C410 291 464 276 464 203 C464 118 405 76 320 76 C220 76 166 138 141 232 C141 232 59 200 59 200 C86 63 188 -8 320 -8 C456 -8 552 62 552 215 C552 337 460 369 353 397 C260 421 191 441 191 516 C191 585 240 624 317 624 C383 624 429 588 459 519 L536 558 Z M303 762 L329 762 L483 926 L396 926 L316 841 L236 926 L149 926 L303 762 Z " />
<glyph glyph-name="scaron" unicode="&#x161;" horiz-adv-x="620" d="M307 512 C214 512 135 456 135 366 C135 267 213 238 298 220 C378 203 428 189 428 146 C428 93 378 68 321 68 C252 68 204 106 182 168 L102 138 C133 42 220 -8 321 -8 C425 -8 515 50 515 154 C515 245 428 272 334 291 C259 306 217 326 217 369 C217 418 261 436 304 436 C358 436 394 412 425 356 L491 403 C453 472 398 512 307 512 L307 512 Z M297 566 L323 566 L477 730 L390 730 L310 645 L230 730 L143 730 L297 566 Z " />
<glyph glyph-name="Ydieresis" unicode="&#x178;" horiz-adv-x="620" d="M266 276 L266 0 L354 0 L354 276 L579 700 L482 700 L310 364 L138 700 L41 700 L266 276 Z M162 847 C162 815 187 791 218 791 C251 791 275 815 275 847 C275 879 251 904 218 904 C187 904 162 879 162 847 L162 847 Z M346 847 C346 815 371 791 402 791 C435 791 459 815 459 847 C459 879 435 904 402 904 C371 904 346 879 346 847 L346 847 Z " />
<glyph glyph-name="Zcaron" unicode="&#x17d;" horiz-adv-x="620" d="M77 616 L406 616 L63 42 L63 0 L544 0 L544 84 L190 84 L533 658 L533 700 L77 700 L77 616 Z M292 762 L318 762 L472 926 L385 926 L305 841 L225 926 L138 926 L292 762 Z " />
<glyph glyph-name="zcaron" unicode="&#x17e;" horiz-adv-x="620" d="M123 428 L374 428 L110 36 L110 0 L513 0 L513 76 L234 76 L501 468 L501 504 L123 504 L123 428 Z M299 566 L325 566 L479 730 L392 730 L312 645 L232 730 L145 730 L299 566 Z " />
<glyph glyph-name="florin" unicode="&#x192;" horiz-adv-x="620" d="M8 -183 C34 -201 75 -212 114 -212 C207 -212 270 -172 296 -39 L387 428 L583 428 L598 504 L402 504 L408 537 C421 602 453 632 501 632 C528 632 552 625 576 605 L612 679 C586 697 545 708 506 708 C413 708 350 668 324 535 L318 504 L176 504 L161 428 L303 428 L212 -41 C199 -106 167 -136 119 -136 C92 -136 68 -129 44 -109 L8 -183 Z " />
<glyph glyph-name="circumflex" unicode="&#x2c6;" horiz-adv-x="620" d="M143 566 L230 566 L310 651 L390 566 L477 566 L323 730 L297 730 L143 566 Z " />
<glyph glyph-name="caron" unicode="&#x2c7;" horiz-adv-x="620" d="M297 566 L323 566 L477 730 L390 730 L310 645 L230 730 L143 730 L297 566 Z " />
<glyph glyph-name="breve" unicode="&#x2d8;" horiz-adv-x="620" d="M354 700 C354 674 337 655 310 655 C284 655 266 674 266 700 L199 700 C199 639 247 591 310 591 C375 591 421 639 421 700 L354 700 Z " />
<glyph glyph-name="dotaccent" unicode="&#x2d9;" horiz-adv-x="620" d="M241 638 C241 600 272 570 310 570 C349 570 379 600 379 638 C379 677 349 708 310 708 C272 708 241 677 241 638 L241 638 Z " />
<glyph glyph-name="ring" unicode="&#x2da;" horiz-adv-x="620" d="M211 653 C211 599 254 557 310 557 C368 557 409 599 409 653 C409 709 368 753 310 753 C254 753 211 709 211 653 L211 653 Z M267 654 C267 680 285 700 310 700 C336 700 353 680 353 654 C353 629 336 610 310 610 C285 610 267 629 267 654 L267 654 Z " />
<glyph glyph-name="ogonek" unicode="&#x2db;" horiz-adv-x="620" d="M268 -60 C226 -88 202 -123 202 -157 C202 -210 240 -244 297 -244 C351 -244 381 -220 417 -169 L370 -133 C347 -161 334 -176 308 -176 C288 -176 275 -164 275 -144 C275 -119 298 -93 337 -60 L268 -60 Z " />
<glyph glyph-name="tilde" unicode="&#x2dc;" horiz-adv-x="620" d="M182 586 C200 608 220 622 248 622 C298 622 311 582 379 582 C423 582 463 614 486 657 L437 696 C419 674 399 660 371 660 C321 660 308 700 240 700 C196 700 156 667 133 624 L182 586 Z " />
<glyph glyph-name="hungarumlaut" unicode="&#x2dd;" horiz-adv-x="620" d="M120 560 L188 560 L309 704 L188 704 L120 560 Z M310 560 L378 560 L499 704 L378 704 L310 560 Z " />
<glyph glyph-name="&amp;#x394;" unicode="&#x394;" horiz-adv-x="620" d="M61 0 L559 0 L559 20 L349 700 L271 700 L61 20 L61 0 Z M310 581 L464 76 L156 76 L310 581 Z " />
<glyph glyph-name="&amp;#x2206;" unicode="&#x2206;" horiz-adv-x="620" d="M61 0 L559 0 L559 20 L349 700 L271 700 L61 20 L61 0 Z M310 581 L464 76 L156 76 L310 581 Z " />
<glyph glyph-name="&amp;#x3a9;" unicode="&#x3a9;" horiz-adv-x="620" d="M48 0 L274 0 L274 23 C274 23 161 233 161 440 C161 562 211 632 310 632 C409 632 459 562 459 440 C459 233 346 23 346 23 L346 0 L572 0 L572 76 L437 76 C437 76 547 261 547 440 C547 601 466 708 310 708 C154 708 73 601 73 440 C73 261 183 76 183 76 L48 76 L48 0 Z " />
<glyph glyph-name="&amp;#x2126;" unicode="&#x2126;" horiz-adv-x="620" d="M48 0 L274 0 L274 23 C274 23 161 233 161 440 C161 562 211 632 310 632 C409 632 459 562 459 440 C459 233 346 23 346 23 L346 0 L572 0 L572 76 L437 76 C437 76 547 261 547 440 C547 601 466 708 310 708 C154 708 73 601 73 440 C73 261 183 76 183 76 L48 76 L48 0 Z " />
<glyph glyph-name="pi" unicode="&#x3c0;" horiz-adv-x="620" d="M46 428 L134 428 L134 0 L218 0 L218 428 L402 428 L402 0 L486 0 L486 428 L574 428 L574 504 L46 504 L46 428 Z " />
<glyph glyph-name="endash" unicode="&#x2013;" horiz-adv-x="620" d="M105 280 L514 280 L514 354 L105 354 L105 280 Z " />
<glyph glyph-name="emdash" unicode="&#x2014;" horiz-adv-x="620" d="M65 280 L555 280 L555 354 L65 354 L65 280 Z " />
<glyph glyph-name="quoteleft" unicode="&#x2018;" horiz-adv-x="620" d="M326 708 L200 708 L357 460 L421 460 L326 708 Z " />
<glyph glyph-name="quoteright" unicode="&#x2019;" horiz-adv-x="620" d="M199 460 L263 460 L420 708 L294 708 L199 460 Z " />
<glyph glyph-name="quotesinglbase" unicode="&#x201a;" horiz-adv-x="620" d="M199 -57 L263 -57 L420 191 L294 191 L199 -57 Z " />
<glyph glyph-name="quotedblleft" unicode="&#x201c;" horiz-adv-x="620" d="M434 708 L308 708 L465 460 L529 460 L434 708 Z M218 708 L92 708 L249 460 L313 460 L218 708 Z " />
<glyph glyph-name="quotedblright" unicode="&#x201d;" horiz-adv-x="620" d="M91 460 L155 460 L312 708 L186 708 L91 460 Z M307 460 L371 460 L528 708 L402 708 L307 460 Z " />
<glyph glyph-name="quotedblbase" unicode="&#x201e;" horiz-adv-x="620" d="M91 -57 L155 -57 L312 191 L186 191 L91 -57 Z M307 -57 L371 -57 L528 191 L402 191 L307 -57 Z " />
<glyph glyph-name="dagger" unicode="&#x2020;" horiz-adv-x="620" d="M90 424 L270 424 L270 -50 L350 -50 L350 424 L530 424 L530 504 L350 504 L350 750 L270 750 L270 504 L90 504 L90 424 Z " />
<glyph glyph-name="daggerdbl" unicode="&#x2021;" horiz-adv-x="620" d="M90 424 L270 424 L270 276 L90 276 L90 196 L270 196 L270 -50 L350 -50 L350 196 L530 196 L530 276 L350 276 L350 424 L530 424 L530 504 L350 504 L350 750 L270 750 L270 504 L90 504 L90 424 Z " />
<glyph glyph-name="bullet" unicode="&#x2022;" horiz-adv-x="620" d="M199 330 C199 268 248 219 310 219 C372 219 421 268 421 330 C421 392 372 441 310 441 C248 441 199 392 199 330 L199 330 Z " />
<glyph glyph-name="ellipsis" unicode="&#x2026;" horiz-adv-x="620" d="M30 74 C30 30 64 -4 108 -4 C154 -4 190 30 190 74 C190 120 154 156 108 156 C64 156 30 120 30 74 L30 74 Z M230 74 C230 30 264 -4 308 -4 C354 -4 390 30 390 74 C390 120 354 156 308 156 C264 156 230 120 230 74 L230 74 Z M430 74 C430 30 464 -4 508 -4 C554 -4 590 30 590 74 C590 120 554 156 508 156 C464 156 430 120 430 74 L430 74 Z " />
<glyph glyph-name="perthousand" unicode="&#x2030;" horiz-adv-x="620" d="M600 125 C600 199 543 258 468 258 C426 258 389 239 365 211 C341 239 304 258 262 258 C187 258 130 199 130 125 C130 51 187 -8 262 -8 C304 -8 341 11 365 39 C389 11 426 -8 468 -8 C543 -8 600 51 600 125 L600 125 Z M37 575 C37 501 95 442 170 442 C246 442 303 501 303 575 C303 649 246 708 170 708 C95 708 37 649 37 575 L37 575 Z M539 125 C539 83 513 51 468 51 C426 51 396 83 396 125 C396 167 426 199 468 199 C513 199 539 167 539 125 L539 125 Z M98 575 C98 617 125 649 170 649 C214 649 241 617 241 575 C241 533 214 501 170 501 C125 501 98 533 98 575 L98 575 Z M334 125 C334 83 304 51 262 51 C217 51 191 83 191 125 C191 167 217 199 262 199 C304 199 334 167 334 125 L334 125 Z M552 615 L45 262 L79 214 L586 567 L552 615 Z " />
<glyph glyph-name="guilsinglleft" unicode="&#x2039;" horiz-adv-x="620" d="M158 279 L452 80 L452 170 L243 310 L452 450 L452 540 L158 341 L158 279 Z " />
<glyph glyph-name="guilsinglright" unicode="&#x203a;" horiz-adv-x="620" d="M462 341 L168 540 L168 450 L377 310 L168 170 L168 80 L462 279 L462 341 Z " />
<glyph glyph-name="fraction" unicode="&#x2044;" horiz-adv-x="620" d="M547 549 L40 196 L74 148 L581 501 L547 549 Z " />
<glyph glyph-name="zerosuperior" unicode="&#x2070;" horiz-adv-x="620" d="M304 356 C384 356 435 424 435 530 C435 636 384 704 304 704 C224 704 173 636 173 530 C173 424 224 356 304 356 L304 356 Z M375 530 C375 452 347 416 304 416 C295 416 287 418 279 421 L364 601 C371 583 375 559 375 530 L375 530 Z M233 530 C233 608 261 644 304 644 C313 644 321 642 329 639 L244 459 C237 477 233 501 233 530 L233 530 Z " />
<glyph glyph-name="foursuperior" unicode="&#x2074;" horiz-adv-x="620" d="M316 360 L378 360 L378 421 L428 421 L428 481 L378 481 L378 700 L305 700 L166 448 L166 421 L316 421 L316 360 Z M247 481 L316 612 L316 481 L247 481 Z " />
<glyph glyph-name="fivesuperior" unicode="&#x2075;" horiz-adv-x="620" d="M199 451 C207 389 255 356 312 356 C380 356 427 396 427 472 C427 549 384 585 320 585 C297 585 280 578 269 569 L278 640 L402 640 L402 700 L226 700 L208 514 L257 505 C271 520 293 530 312 530 C346 530 361 507 361 472 C361 435 342 416 312 416 C286 416 267 435 261 465 L199 451 Z " />
<glyph glyph-name="sixsuperior" unicode="&#x2076;" horiz-adv-x="620" d="M310 577 C303 577 298 576 293 575 L361 704 L295 704 L205 536 C192 511 187 493 187 467 C187 405 236 356 300 356 C363 356 412 405 412 467 C412 542 362 577 310 577 L310 577 Z M300 517 C326 517 346 500 346 467 C346 435 326 416 300 416 C272 416 253 435 253 467 C253 500 272 517 300 517 L300 517 Z " />
<glyph glyph-name="sevensuperior" unicode="&#x2077;" horiz-adv-x="620" d="M309 360 L450 677 L450 700 L209 700 L209 640 L364 640 L238 360 L309 360 Z " />
<glyph glyph-name="eightsuperior" unicode="&#x2078;" horiz-adv-x="620" d="M309 708 C248 708 209 671 209 617 C209 582 229 557 247 546 C220 533 199 507 199 462 C199 395 243 356 309 356 C375 356 419 395 419 462 C419 507 398 533 370 546 C389 557 409 582 409 617 C409 671 371 708 309 708 L309 708 Z M309 511 C340 511 355 490 355 462 C355 434 340 413 309 413 C278 413 263 434 263 462 C263 490 278 511 309 511 L309 511 Z M309 654 C336 654 349 637 349 612 C349 587 336 570 309 570 C282 570 269 587 269 612 C269 637 282 654 309 654 L309 654 Z " />
<glyph glyph-name="ninesuperior" unicode="&#x2079;" horiz-adv-x="620" d="M301 483 C308 483 313 484 318 485 L250 356 L316 356 L406 524 C419 549 424 567 424 593 C424 655 375 704 311 704 C248 704 199 655 199 593 C199 518 249 483 301 483 L301 483 Z M311 543 C285 543 265 560 265 593 C265 625 285 644 311 644 C339 644 358 625 358 593 C358 560 339 543 311 543 L311 543 Z " />
<glyph glyph-name="Euro" unicode="&#x20ac;" horiz-adv-x="620" d="M51 393 L127 393 C126 379 126 365 126 350 C126 335 126 321 127 307 L85 307 L51 233 L136 233 C165 83 250 -8 382 -8 C482 -8 547 42 584 120 L510 160 C484 107 443 72 382 72 C301 72 246 128 224 233 L443 233 L477 307 L215 307 C214 321 214 335 214 350 C214 365 214 379 215 393 L443 393 L477 467 L224 467 C246 572 301 628 382 628 C443 628 484 593 510 540 L584 580 C547 658 482 708 382 708 C250 708 165 617 136 467 L85 467 L51 393 Z " />
<glyph glyph-name="trademark" unicode="&#x2122;" horiz-adv-x="620" d="M12 642 L105 642 L105 300 L167 300 L167 642 L260 642 L260 700 L12 700 L12 642 Z M306 700 L306 300 L368 300 L368 579 L431 415 L469 415 L532 579 L532 300 L596 300 L596 700 L527 700 L450 493 L373 700 L306 700 Z " />
<glyph glyph-name="partialdiff" unicode="&#x2202;" horiz-adv-x="620" d="M89 211 C89 75 171 -8 286 -8 C490 -8 564 182 564 357 C564 575 500 708 341 708 C243 708 174 651 142 568 L220 548 C246 607 285 632 338 632 C416 632 466 575 479 462 C458 491 422 512 363 512 C195 512 89 378 89 211 L89 211 Z M355 436 C434 436 473 385 473 296 C473 175 408 68 291 68 C212 68 175 127 175 209 C175 319 238 436 355 436 L355 436 Z " />
<glyph glyph-name="product" unicode="&#x220f;" horiz-adv-x="620" d="M106 0 L190 0 L190 624 L430 624 L430 0 L514 0 L514 700 L106 700 L106 0 Z " />
<glyph glyph-name="summation" unicode="&#x2211;" horiz-adv-x="620" d="M392 340 L392 360 L218 624 L538 624 L538 700 L82 700 L82 680 L306 350 L82 20 L82 0 L538 0 L538 76 L218 76 L392 340 Z " />
<glyph glyph-name="minus" unicode="&#x2212;" horiz-adv-x="620" d="M90 280 L530 280 L530 354 L90 354 L90 280 Z " />
<glyph glyph-name="radical" unicode="&#x221a;" horiz-adv-x="620" d="M521 708 L338 119 L252 389 L99 389 L99 313 L203 313 L304 0 L370 0 L601 708 L521 708 Z " />
<glyph glyph-name="infinity" unicode="&#x221e;" horiz-adv-x="620" d="M310 423 C292 480 235 524 169 524 C79 524 15 468 15 359 C15 250 79 194 169 194 C235 194 292 238 310 295 C328 238 385 194 451 194 C541 194 605 250 605 359 C605 468 541 524 451 524 C385 524 328 480 310 423 L310 423 Z M441 270 C397 270 360 314 348 359 C360 404 397 448 441 448 C488 448 519 415 519 359 C519 303 488 270 441 270 L441 270 Z M179 448 C223 448 260 404 272 359 C260 314 223 270 179 270 C132 270 101 303 101 359 C101 415 132 448 179 448 L179 448 Z " />
<glyph glyph-name="integral" unicode="&#x222b;" horiz-adv-x="620" d="M8 -183 C34 -201 75 -212 114 -212 C207 -212 270 -172 296 -39 L408 537 C421 602 453 632 501 632 C528 632 552 625 576 605 L612 679 C586 697 545 708 506 708 C413 708 350 668 324 535 L212 -41 C199 -106 167 -136 119 -136 C92 -136 68 -129 44 -109 L8 -183 Z " />
<glyph glyph-name="approxequal" unicode="&#x2248;" horiz-adv-x="620" d="M125 168 C148 196 183 213 218 213 C291 213 327 163 412 163 C467 163 515 197 544 251 L495 302 C472 274 437 257 402 257 C330 257 293 307 208 307 C153 307 105 271 76 218 L125 168 Z M125 368 C148 396 183 413 218 413 C291 413 327 363 412 363 C467 363 515 397 544 451 L495 502 C472 474 437 457 402 457 C330 457 293 507 208 507 C153 507 105 471 76 418 L125 368 Z " />
<glyph glyph-name="notequal" unicode="&#x2260;" horiz-adv-x="620" d="M111 356 L294 356 L242 264 L111 264 L111 190 L199 190 L162 125 L226 88 L285 190 L510 190 L510 264 L327 264 L379 356 L510 356 L510 430 L422 430 L459 495 L395 532 L336 430 L111 430 L111 356 Z " />
<glyph glyph-name="lessequal" unicode="&#x2264;" horiz-adv-x="620" d="M105 358 L514 162 L514 249 L189 402 L514 555 L514 642 L105 446 L105 358 Z M90 0 L530 0 L530 74 L90 74 L90 0 Z " />
<glyph glyph-name="greaterequal" unicode="&#x2265;" horiz-adv-x="620" d="M515 446 L106 642 L106 555 L431 402 L106 249 L106 162 L515 358 L515 446 Z M530 74 L90 74 L90 0 L530 0 L530 74 Z " />
<glyph glyph-name="lozenge" unicode="&#x25ca;" horiz-adv-x="620" d="M269 0 L351 0 L559 350 L351 700 L269 700 L61 350 L269 0 Z M310 81 L151 350 L310 619 L469 350 L310 81 Z " />
<glyph glyph-name="fi" unicode="&#xfb01;" horiz-adv-x="620" d="M47 428 L139 428 L139 0 L223 0 L223 428 L436 428 L436 0 L520 0 L520 504 L223 504 L223 537 C223 602 262 632 323 632 C372 632 400 617 443 577 L501 632 C454 680 405 708 324 708 C221 708 139 650 139 530 L139 504 L47 504 L47 428 Z " />
<glyph glyph-name="fl" unicode="&#xfb02;" horiz-adv-x="620" d="M293 624 L438 624 L438 0 L522 0 L522 700 L294 700 C194 700 139 645 139 522 L139 504 L47 504 L47 428 L139 428 L139 0 L223 0 L223 428 L327 428 L327 504 L223 504 L223 529 C223 594 245 624 293 624 L293 624 Z " />
</font>
</svg>
