<?xml version="1.0" encoding="UTF-8"?>
<svg xmlns="http://www.w3.org/2000/svg" xmlns:xlink="http://www.w3.org/1999/xlink" version="1.2" >
<font id="ITC Caslon 224 Bold">
<font-face  font-family="ITC Caslon 224" units-per-em="1000" ascent="729.98" descent="-193.848" font-style="normal" font-weight="700" font-stretch="normal" cap-height="750" x-height="500" underline-position="-75" underline-thickness="50" />
<missing-glyph  horiz-adv-x="296" d="" />
<glyph glyph-name="NULL" d="" />
<glyph glyph-name="CR" unicode="&#xd;" horiz-adv-x="250" d="" />
<glyph glyph-name="space" unicode="&#x20;" horiz-adv-x="296" d="" />
<glyph glyph-name="exclam" unicode="&#x21;" horiz-adv-x="278" d="M58 580 C58 478 99 400 124 250 C130 215 122 182 139 182 C156 182 148 215 154 250 C180 400 220 478 220 580 C220 666 186 694 139 694 C92 694 58 666 58 580 L58 580 Z M66 65 C66 24 99 -8 139 -8 C180 -8 212 24 212 65 C212 105 180 138 139 138 C99 138 66 105 66 65 L66 65 Z " />
<glyph glyph-name="quotedbl" unicode="&#x22;" horiz-adv-x="333" d="M62 416 C64 395 74 386 85 386 C96 386 106 395 108 416 L125 604 C126 616 127 624 127 638 C127 676 113 694 85 694 C57 694 43 676 43 638 C43 624 44 616 45 604 L62 416 Z M224 416 C226 395 236 386 247 386 C258 386 268 395 270 416 L287 604 C288 616 289 624 289 638 C289 676 275 694 247 694 C219 694 205 676 205 638 C205 624 206 616 207 604 L224 416 Z " />
<glyph glyph-name="numbersign" unicode="&#x23;" horiz-adv-x="593" d="M514 276 L433 276 L449 402 L542 402 L542 476 L461 476 L489 678 L408 678 L379 476 L262 476 L290 678 L209 678 L180 476 L79 476 L79 402 L169 402 L152 276 L50 276 L50 202 L140 202 L111 0 L193 0 L221 202 L339 202 L310 0 L392 0 L420 202 L514 202 L514 276 Z M368 402 L351 276 L234 276 L250 402 L368 402 Z " />
<glyph glyph-name="dollar" unicode="&#x24;" horiz-adv-x="593" d="M88 41 L28 -94 L56 -94 L129 69 C129 70 132 70 134 70 C148 70 164 60 188 50 L124 -94 L152 -94 L213 41 C236 32 267 26 306 26 C420 26 524 92 524 213 C524 305 462 359 374 402 L437 543 C478 462 466 432 482 432 C488 432 489 436 489 442 C489 454 487 471 487 482 L478 636 L530 754 L501 754 L452 643 C447 636 440 628 431 628 C424 628 409 636 385 644 L434 754 L406 754 L361 653 C342 660 319 664 291 664 C176 664 104 580 104 484 C104 397 154 355 215 325 L144 166 C106 256 125 308 100 308 C92 308 88 303 88 292 L88 41 Z M319 280 C376 256 422 225 422 159 C422 84 374 44 298 44 C270 44 245 51 223 64 L319 280 Z M269 447 C231 465 200 493 200 551 C200 604 231 646 296 646 C316 646 335 641 352 633 L269 447 Z M375 621 C392 609 408 593 421 573 L349 413 C335 419 307 430 293 436 L375 621 Z M201 80 C185 94 171 113 159 136 L239 315 C257 306 276 299 295 291 L201 80 Z " />
<glyph glyph-name="percent" unicode="&#x25;" horiz-adv-x="833" d="M139 492 C139 632 173 668 213 668 C253 668 287 632 287 492 C287 352 253 316 213 316 C173 316 139 352 139 492 L139 492 Z M43 492 C43 364 123 298 213 298 C303 298 383 364 383 492 C383 620 303 686 213 686 C123 686 43 620 43 492 L43 492 Z M449 186 C449 58 529 -8 619 -8 C709 -8 789 58 789 186 C789 314 709 380 619 380 C529 380 449 314 449 186 L449 186 Z M545 186 C545 326 579 362 619 362 C659 362 693 326 693 186 C693 46 659 10 619 10 C579 10 545 46 545 186 L545 186 Z M589 686 L179 -8 L235 -8 L645 686 L589 686 Z " />
<glyph glyph-name="ampersand" unicode="&#x26;" horiz-adv-x="815" d="M372 406 C317 447 252 482 252 564 C252 622 289 670 346 670 C407 670 456 626 456 546 C456 464 418 418 372 406 L372 406 Z M504 542 C504 618 444 694 333 694 C208 694 132 606 132 522 C132 463 150 427 200 378 C106 342 44 270 44 188 C44 54 147 -16 263 -16 C355 -16 437 29 496 77 C536 36 583 -16 671 -16 C756 -16 834 32 834 110 C834 119 830 124 823 124 C815 124 811 119 810 109 C806 81 790 38 742 38 C684 38 630 100 588 184 C655 293 660 351 711 393 C748 423 780 410 780 430 C780 437 775 438 762 438 C714 438 681 436 647 436 C613 436 580 438 546 438 C534 438 528 434 528 427 C528 404 612 436 612 333 C612 291 607 257 576 204 C526 281 465 345 392 392 C468 418 504 484 504 542 L504 542 Z M170 253 C170 312 188 344 216 362 C350 276 407 211 483 94 C460 74 407 38 346 38 C274 38 170 96 170 253 L170 253 Z " />
<glyph glyph-name="quotesingle" unicode="&#x27;" horiz-adv-x="222" d="M88 416 C90 395 100 386 111 386 C122 386 132 395 134 416 L151 604 C152 616 153 624 153 638 C153 676 139 694 111 694 C83 694 69 676 69 638 C69 624 70 616 71 604 L88 416 Z " />
<glyph glyph-name="parenleft" unicode="&#x28;" horiz-adv-x="407" d="M72 259 C72 105 143 -36 230 -120 C295 -183 371 -212 384 -212 C391 -212 392 -208 392 -202 C392 -192 315 -178 267 -99 C219 -19 198 96 198 259 C198 422 219 537 267 617 C315 696 392 710 392 720 C392 726 391 730 384 730 C371 730 295 701 230 638 C143 554 72 413 72 259 L72 259 Z " />
<glyph glyph-name="parenright" unicode="&#x29;" horiz-adv-x="407" d="M335 259 C335 413 264 554 177 638 C112 701 36 730 23 730 C16 730 15 726 15 720 C15 710 92 696 140 617 C188 537 209 422 209 259 C209 96 188 -19 140 -99 C92 -178 15 -192 15 -202 C15 -208 16 -212 23 -212 C36 -212 112 -183 177 -120 C264 -36 335 105 335 259 L335 259 Z " />
<glyph glyph-name="asterisk" unicode="&#x2a;" horiz-adv-x="500" d="M252 540 C270 584 296 621 296 648 C296 676 276 694 251 694 C226 694 206 680 206 647 C206 622 232 584 250 540 L252 540 Z M278 522 C345 522 382 525 404 539 C416 547 426 563 426 578 C426 601 411 624 383 624 C336 624 321 569 278 524 L278 522 Z M222 524 C179 569 164 624 117 624 C89 624 74 601 74 578 C74 563 84 547 96 539 C118 525 155 522 222 522 L222 524 Z M278 484 C321 439 336 384 383 384 C411 384 426 407 426 430 C426 445 416 461 404 469 C382 483 345 486 278 486 L278 484 Z M250 470 C232 426 206 388 206 363 C206 330 226 316 251 316 C276 316 296 334 296 362 C296 389 270 426 252 470 L250 470 Z M222 486 C155 486 118 483 96 469 C84 461 74 445 74 430 C74 407 89 384 117 384 C164 384 179 439 222 484 L222 486 Z " />
<glyph glyph-name="plus" unicode="&#x2b;" horiz-adv-x="600" d="M249 278 L73 278 L73 176 L249 176 L249 0 L351 0 L351 176 L527 176 L527 278 L351 278 L351 454 L249 454 L249 278 Z " />
<glyph glyph-name="comma" unicode="&#x2c;" horiz-adv-x="296" d="M235 32 C235 99 194 138 148 138 C104 138 75 109 75 63 C75 14 106 -8 146 -8 C153 -8 160 -7 167 -6 C173 -5 180 -3 187 -2 C186 -45 173 -68 150 -91 C125 -116 114 -117 114 -124 C114 -127 116 -130 120 -130 C139 -130 235 -66 235 32 L235 32 Z " />
<glyph glyph-name="hyphen" unicode="&#x2d;" horiz-adv-x="333" d="M42 179 L290 179 L290 275 L42 275 L42 179 Z " />
<glyph glyph-name="period" unicode="&#x2e;" horiz-adv-x="296" d="M75 65 C75 24 108 -8 148 -8 C189 -8 221 24 221 65 C221 105 189 138 148 138 C108 138 75 105 75 65 L75 65 Z " />
<glyph glyph-name="slash" unicode="&#x2f;" horiz-adv-x="278" d="M74 -16 L306 694 L204 694 L-28 -16 L74 -16 Z " />
<glyph glyph-name="zero" unicode="0" horiz-adv-x="593" d="M169 339 C169 588 224 668 296 668 C368 668 423 588 423 339 C423 90 368 10 296 10 C224 10 169 90 169 339 L169 339 Z M31 339 C31 148 148 -8 296 -8 C444 -8 561 148 561 339 C561 530 444 686 296 686 C148 686 31 530 31 339 L31 339 Z " />
<glyph glyph-name="one" unicode="1" horiz-adv-x="593" d="M384 664 C384 681 380 686 371 686 C351 686 303 634 174 618 C88 607 68 614 68 599 C68 592 73 588 82 588 L218 588 C236 588 242 583 242 560 L242 93 C242 51 216 29 159 26 C105 23 94 23 94 8 C94 2 99 -4 110 -4 C178 -4 247 -2 315 -2 C379 0 448 -2 516 -2 C527 -2 532 4 532 10 C532 25 521 25 467 28 C410 31 384 53 384 95 L384 664 Z " />
<glyph glyph-name="two" unicode="2" horiz-adv-x="593" d="M527 165 C530 176 534 190 534 195 C534 199 531 202 527 202 C516 202 520 184 497 162 C471 138 443 128 384 128 L136 128 C250 289 524 276 524 485 C524 596 436 686 302 686 C92 686 48 496 48 478 C48 473 51 470 55 470 C68 470 71 508 109 550 C139 583 182 604 233 604 C321 604 382 539 382 449 C382 258 58 218 56 0 L483 0 L527 165 Z " />
<glyph glyph-name="three" unicode="3" horiz-adv-x="593" d="M480 521 C480 629 383 686 284 686 C146 686 78 569 78 543 C78 538 81 534 86 534 C105 534 116 614 223 614 C304 614 354 572 354 498 C354 443 335 398 301 380 C251 354 212 376 212 354 C212 339 253 350 293 337 C354 317 400 258 400 174 C400 70 341 10 260 10 C212 10 174 36 172 106 C170 174 148 204 97 204 C56 204 28 168 28 129 C28 58 120 -8 262 -8 C408 -8 538 96 538 231 C538 312 491 367 428 412 C461 445 480 475 480 521 L480 521 Z " />
<glyph glyph-name="four" unicode="4" horiz-adv-x="593" d="M309 240 L59 240 L307 546 L309 546 L309 240 Z M451 678 L387 678 L19 228 L31 192 L309 192 L309 88 C309 -1 217 42 217 10 C217 1 222 -2 235 -2 C289 -2 338 0 380 0 C422 0 471 -2 525 -2 C538 -2 543 1 543 10 C543 42 451 -1 451 88 L451 192 L549 192 L573 240 L451 240 L451 678 Z " />
<glyph glyph-name="five" unicode="5" horiz-adv-x="593" d="M157 678 C142 571 120 421 97 334 C119 337 140 342 161 342 C313 342 403 256 403 140 C403 69 357 10 287 10 C234 10 213 26 201 87 C185 163 172 194 116 194 C80 194 51 166 51 130 C51 54 145 -8 275 -8 C461 -8 541 118 541 216 C541 332 428 462 224 462 C210 462 197 461 184 460 C171 459 159 457 147 454 L161 550 L485 550 L530 680 C534 692 539 700 539 707 C539 711 535 714 530 714 C520 714 520 678 477 678 L157 678 Z " />
<glyph glyph-name="six" unicode="6" horiz-adv-x="593" d="M566 204 C566 304 495 408 332 408 C278 408 237 391 198 366 C254 613 460 666 460 678 C460 683 459 686 454 686 C409 686 44 576 44 287 C44 120 144 -8 309 -8 C478 -8 566 84 566 204 L566 204 Z M428 198 C428 44 370 10 313 10 C239 10 182 60 182 241 C182 282 188 322 192 330 C203 352 256 384 304 384 C369 384 428 335 428 198 L428 198 Z " />
<glyph glyph-name="seven" unicode="7" horiz-adv-x="593" d="M534 678 L118 678 L66 535 C61 521 56 512 56 505 C56 501 58 498 63 498 C76 498 86 550 154 550 L474 550 C336 380 202 210 182 -8 C210 3 243 8 277 8 C311 8 344 3 372 -8 C372 264 428 484 552 636 L534 678 Z " />
<glyph glyph-name="eight" unicode="8" horiz-adv-x="593" d="M462 512 C462 444 444 416 420 390 C350 413 198 449 198 551 C198 622 246 668 316 668 C404 668 462 615 462 512 L462 512 Z M44 179 C44 76 137 -8 278 -8 C442 -8 556 84 556 199 C556 284 512 356 436 382 C484 415 516 470 516 529 C516 616 430 686 315 686 C176 686 72 600 72 492 C72 440 96 389 155 345 C80 304 44 236 44 179 L44 179 Z M110 194 C110 280 160 332 178 332 C192 332 200 323 301 286 C408 247 430 203 430 149 C430 73 378 10 278 10 C170 10 110 86 110 194 L110 194 Z " />
<glyph glyph-name="nine" unicode="9" horiz-adv-x="593" d="M27 474 C27 374 98 270 261 270 C315 270 356 287 395 312 C339 65 133 12 133 0 C133 -5 134 -8 139 -8 C184 -8 549 102 549 391 C549 558 449 686 284 686 C115 686 27 594 27 474 L27 474 Z M165 480 C165 634 223 668 280 668 C354 668 411 618 411 437 C411 396 405 356 401 348 C390 326 337 294 289 294 C224 294 165 343 165 480 L165 480 Z " />
<glyph glyph-name="colon" unicode="&#x3a;" horiz-adv-x="296" d="M75 65 C75 24 108 -8 148 -8 C189 -8 221 24 221 65 C221 105 189 138 148 138 C108 138 75 105 75 65 L75 65 Z M75 341 C75 300 108 268 148 268 C189 268 221 300 221 341 C221 381 189 414 148 414 C108 414 75 381 75 341 L75 341 Z " />
<glyph glyph-name="semicolon" unicode="&#x3b;" horiz-adv-x="296" d="M235 32 C235 99 194 138 148 138 C104 138 75 109 75 63 C75 14 106 -8 146 -8 C153 -8 160 -7 167 -6 C173 -5 180 -3 187 -2 C186 -45 173 -68 150 -91 C125 -116 114 -117 114 -124 C114 -127 116 -130 120 -130 C139 -130 235 -66 235 32 L235 32 Z M75 341 C75 300 108 268 148 268 C189 268 221 300 221 341 C221 381 189 414 148 414 C108 414 75 381 75 341 L75 341 Z " />
<glyph glyph-name="less" unicode="&#x3c;" horiz-adv-x="600" d="M527 93 L208 227 L527 362 L527 464 L73 264 L73 190 L527 -10 L527 93 Z " />
<glyph glyph-name="equal" unicode="&#x3d;" horiz-adv-x="600" d="M527 378 L73 378 L73 276 L527 276 L527 378 Z M527 178 L73 178 L73 76 L527 76 L527 178 Z " />
<glyph glyph-name="greater" unicode="&#x3e;" horiz-adv-x="600" d="M73 -10 L527 190 L527 264 L73 464 L73 362 L392 227 L73 93 L73 -10 Z " />
<glyph glyph-name="question" unicode="&#x3f;" horiz-adv-x="500" d="M226 188 L226 260 L258 260 C417 260 472 375 472 459 C472 576 392 694 229 694 C124 694 44 630 44 557 C44 522 69 498 101 498 C202 498 156 658 284 658 C359 658 406 608 406 538 C406 432 332 378 254 378 C214 378 184 394 166 416 L138 400 C156 348 188 265 196 182 L226 188 Z M139 65 C139 24 172 -8 212 -8 C253 -8 285 24 285 65 C285 105 253 138 212 138 C172 138 139 105 139 65 L139 65 Z " />
<glyph glyph-name="at" unicode="&#x40;" horiz-adv-x="800" d="M344 290 C344 381 411 465 459 465 C489 465 504 445 504 402 C490 265 439 206 392 206 C366 206 344 236 344 290 L344 290 Z M527 476 C513 500 505 525 457 525 C319 525 254 359 254 273 C254 198 294 143 359 146 C415 149 448 184 471 209 L473 209 C482 186 508 146 566 146 C689 146 757 286 757 391 C757 565 609 694 419 694 C216 694 43 545 43 324 C43 185 161 -16 430 -16 C510 -16 584 8 648 40 L633 101 C574 71 520 52 429 52 C287 52 157 162 157 330 C157 528 299 626 419 626 C586 626 687 502 687 390 C687 305 644 192 582 192 C556 192 550 222 550 240 C550 252 553 263 555 272 L613 511 L538 511 L527 476 Z " />
<glyph glyph-name="A" unicode="A" horiz-adv-x="704" d="M196 274 L298 543 L408 274 L196 274 Z M418 256 C472 120 490 93 490 61 C490 6 420 28 420 8 C420 2 423 -2 432 -2 C477 -2 525 0 573 0 C620 0 668 -2 714 -2 C721 -2 724 1 724 6 C724 24 672 1 639 81 L386 697 C381 710 376 722 371 722 C362 722 365 709 320 663 C274 616 254 615 254 607 C254 599 284 594 284 573 C284 562 281 555 277 544 L150 215 C114 121 68 36 1 21 C-16 17 -20 14 -20 7 C-20 1 -17 -2 -9 -2 C30 -2 69 0 108 0 C147 0 186 -2 222 -2 C229 -2 231 1 231 6 C231 23 148 17 148 107 C148 157 171 202 190 256 L418 256 Z " />
<glyph glyph-name="B" unicode="B" horiz-adv-x="667" d="M112 80 C112 0 26 39 26 11 C26 3 30 -2 46 -2 C97 -2 145 0 185 0 C268 0 345 -2 396 -2 C592 -2 641 78 641 185 C641 308 530 351 382 355 L382 357 C547 372 607 424 607 515 C607 616 515 680 362 680 C305 680 248 678 185 678 C145 678 97 680 46 680 C30 680 26 675 26 667 C26 639 112 678 112 598 L112 80 Z M258 344 L330 344 C429 344 489 296 489 180 C489 70 433 22 343 22 C295 22 258 38 258 88 L258 344 Z M258 656 L319 656 C405 656 461 605 461 507 C461 424 411 368 318 368 L258 368 L258 656 Z " />
<glyph glyph-name="C" unicode="C" horiz-adv-x="704" d="M636 668 C636 679 631 682 624 682 C603 682 624 638 584 638 C538 638 490 694 376 694 C186 694 28 540 28 339 C28 138 169 -16 376 -16 C490 -16 539 32 579 32 C627 32 609 -24 628 -24 C635 -24 640 -21 640 -7 L640 256 C640 267 637 272 631 272 C615 272 625 253 605 194 C576 111 494 8 394 8 C270 8 192 104 192 339 C192 574 270 670 388 670 C483 670 549 590 586 503 C618 427 609 396 625 396 C633 396 636 402 636 416 L636 668 Z " />
<glyph glyph-name="D" unicode="D" horiz-adv-x="759" d="M112 80 C112 0 26 39 26 11 C26 3 30 -2 46 -2 C97 -2 145 0 185 0 C272 0 347 -2 413 -2 C601 -2 731 124 731 338 C731 524 596 680 355 680 C292 680 243 678 185 678 C145 678 97 680 46 680 C30 680 26 675 26 667 C26 639 112 678 112 598 L112 80 Z M258 656 L344 656 C488 656 579 540 579 324 C579 119 494 22 376 22 C302 22 258 51 258 123 L258 656 Z " />
<glyph glyph-name="E" unicode="E" horiz-adv-x="667" d="M112 80 C112 0 26 39 26 11 C26 3 30 -2 46 -2 C97 -2 145 0 185 0 C324 0 457 -1 589 -2 L633 220 C635 231 637 243 637 249 C637 255 634 260 627 260 C618 260 617 251 611 232 C580 133 496 22 340 22 C276 22 258 46 258 92 L258 344 L283 344 C353 344 404 297 408 208 C409 188 412 183 422 183 C428 183 432 188 432 197 L432 503 C432 512 428 517 422 517 C412 517 409 512 408 492 C404 420 353 368 283 368 L258 368 L258 656 L312 656 C432 656 497 615 544 537 C583 472 582 455 591 455 C598 455 601 458 601 463 C601 466 599 474 595 489 L545 680 C427 679 309 678 185 678 C145 678 97 680 46 680 C30 680 26 675 26 667 C26 639 112 678 112 598 L112 80 Z " />
<glyph glyph-name="F" unicode="F" horiz-adv-x="611" d="M112 80 C112 0 26 39 26 11 C26 3 30 -2 185 0 C225 0 273 -2 324 -2 C340 -2 344 3 344 11 C344 39 258 0 258 80 L258 344 L283 344 C353 344 404 297 408 208 C409 188 412 183 422 183 C428 183 432 188 432 197 L432 503 C432 512 428 517 422 517 C412 517 409 512 408 492 C404 420 353 368 283 368 L258 368 L258 656 L313 656 C433 656 498 615 545 537 C584 472 583 455 592 455 C599 455 602 458 602 463 C602 466 600 474 596 489 L546 680 C427 679 309 678 185 678 C145 678 97 680 46 680 C30 680 26 675 26 667 C26 639 112 678 112 598 L112 80 Z " />
<glyph glyph-name="G" unicode="G" horiz-adv-x="778" d="M666 0 L696 0 L696 222 C696 302 782 263 782 291 C782 299 778 304 762 304 C711 304 663 302 627 302 C591 302 543 304 492 304 C476 304 472 299 472 291 C472 263 558 302 558 208 L558 152 C558 58 488 8 402 8 C302 8 192 90 192 339 C192 588 302 670 402 670 C510 670 585 602 627 484 C651 419 639 400 655 400 C659 400 664 404 664 412 L664 677 C664 684 660 688 652 688 C634 688 653 642 611 642 C581 642 506 694 399 694 C190 694 28 534 28 339 C28 144 190 -16 402 -16 C516 -16 588 28 636 58 L666 0 Z " />
<glyph glyph-name="H" unicode="H" horiz-adv-x="778" d="M112 80 C112 0 26 39 26 11 C26 3 30 -2 46 -2 C97 -2 145 0 185 0 C225 0 273 -2 324 -2 C340 -2 344 3 344 11 C344 39 258 0 258 80 L258 344 L520 344 L520 80 C520 0 434 39 434 11 C434 3 438 -2 454 -2 C505 -2 553 0 593 0 C633 0 681 -2 732 -2 C748 -2 752 3 752 11 C752 39 666 0 666 80 L666 598 C666 678 752 639 752 667 C752 675 748 680 732 680 C681 680 633 678 593 678 C553 678 505 680 454 680 C438 680 434 675 434 667 C434 639 520 678 520 598 L520 368 L258 368 L258 598 C258 678 344 639 344 667 C344 675 340 680 324 680 C273 680 225 678 185 678 C145 678 97 680 46 680 C30 680 26 675 26 667 C26 639 112 678 112 598 L112 80 Z " />
<glyph glyph-name="I" unicode="I" horiz-adv-x="370" d="M112 80 C112 0 26 39 26 11 C26 3 30 -2 46 -2 C97 -2 145 0 185 0 C225 0 273 -2 324 -2 C340 -2 344 3 344 11 C344 39 258 0 258 80 L258 598 C258 678 344 639 344 667 C344 675 340 680 324 680 C273 680 225 678 185 678 C145 678 97 680 46 680 C30 680 26 675 26 667 C26 639 112 678 112 598 L112 80 Z " />
<glyph glyph-name="J" unicode="J" horiz-adv-x="481" d="M244 92 C244 20 216 2 176 2 C136 2 116 20 116 47 C116 70 128 86 128 111 C128 144 108 174 59 174 C15 174 -14 138 -14 96 C-14 42 52 -16 170 -16 C294 -16 390 54 390 176 L390 598 C390 678 476 639 476 667 C476 675 472 680 456 680 C405 680 357 678 317 678 C277 678 229 680 178 680 C162 680 158 675 158 667 C158 639 244 678 244 598 L244 92 Z " />
<glyph glyph-name="K" unicode="K" horiz-adv-x="722" d="M266 269 L334 346 L514 0 C642 0 686 -2 718 -2 C729 -2 736 3 736 11 C736 36 678 9 634 89 L434 458 L544 582 C629 678 682 650 682 670 C682 678 678 680 652 680 C622 680 591 678 561 678 C530 678 500 680 469 680 C459 680 454 675 454 668 C454 648 506 672 506 613 C506 592 496 571 454 522 L266 304 L266 598 C266 678 352 639 352 667 C352 675 348 680 332 680 C281 680 233 678 193 678 C153 678 105 680 54 680 C38 680 34 675 34 667 C34 639 120 678 120 598 L120 80 C120 0 34 39 34 11 C34 3 38 -2 54 -2 C105 -2 153 0 193 0 C233 0 281 -2 332 -2 C348 -2 352 3 352 11 C352 39 266 0 266 80 L266 269 Z " />
<glyph glyph-name="L" unicode="L" horiz-adv-x="630" d="M112 80 C112 0 26 39 26 11 C26 3 30 -2 46 -2 C97 -2 145 0 185 0 C324 0 457 -1 562 -2 L606 220 C608 231 610 243 610 249 C610 255 607 260 600 260 C591 260 590 251 584 232 C547 116 458 22 340 22 C276 22 258 46 258 92 L258 598 C258 678 344 639 344 667 C344 675 340 680 324 680 C273 680 225 678 185 678 C145 678 97 680 46 680 C30 680 26 675 26 667 C26 639 112 678 112 598 L112 80 Z " />
<glyph glyph-name="M" unicode="M" horiz-adv-x="889" d="M246 678 L134 678 C97 678 60 680 23 680 C15 680 10 675 10 668 C11 661 15 657 29 656 C73 652 91 640 112 607 L112 166 C112 82 86 49 59 35 C23 16 4 28 4 11 C4 3 9 -2 26 -2 C51 -2 84 0 124 0 C164 0 197 -2 222 -2 C239 -2 244 3 244 11 C244 28 225 16 189 35 C162 49 136 82 136 166 L136 574 L138 574 L375 3 C377 1 380 0 383 0 C386 0 388 1 390 3 L630 600 L632 600 L632 80 C632 0 546 39 546 11 C546 3 550 -2 566 -2 C617 -2 665 0 705 0 C745 0 793 -2 844 -2 C860 -2 864 3 864 11 C864 39 778 0 778 80 L778 598 C778 678 864 639 864 667 C864 675 860 680 844 680 C793 680 745 678 705 678 L640 678 L446 202 L246 678 Z " />
<glyph glyph-name="N" unicode="N" horiz-adv-x="722" d="M135 560 L137 560 L577 0 C586 -12 593 -24 602 -24 C610 -24 611 -10 611 9 L611 524 C611 604 643 637 673 650 C701 662 727 652 727 669 C727 675 725 680 713 680 C679 680 640 678 599 678 C558 678 519 680 485 680 C473 680 471 675 471 669 C471 652 497 662 525 650 C555 637 587 604 587 524 L587 228 L585 228 L227 678 L115 678 C78 678 41 680 7 680 C-1 680 -5 677 -5 669 C-5 658 2 658 18 656 C50 652 78 639 111 591 L111 154 C111 74 79 41 49 28 C21 16 -5 26 -5 9 C-5 3 -3 -2 9 -2 C43 -2 82 0 123 0 C164 0 203 -2 237 -2 C249 -2 251 3 251 9 C251 26 225 16 197 28 C167 41 135 74 135 154 L135 560 Z " />
<glyph glyph-name="O" unicode="O" horiz-adv-x="796" d="M192 339 C192 550 272 670 398 670 C524 670 604 550 604 339 C604 128 524 8 398 8 C272 8 192 128 192 339 L192 339 Z M28 339 C28 152 176 -16 398 -16 C620 -16 768 152 768 339 C768 526 620 694 398 694 C176 694 28 526 28 339 L28 339 Z " />
<glyph glyph-name="P" unicode="P" horiz-adv-x="630" d="M258 302 L333 302 C524 302 610 378 610 492 C610 594 518 680 331 680 C287 680 240 678 185 678 C145 678 97 680 46 680 C30 680 26 675 26 667 C26 639 112 678 112 598 L112 80 C112 0 26 39 26 11 C26 3 30 -2 46 -2 C97 -2 145 0 185 0 C225 0 273 -2 324 -2 C340 -2 344 3 344 11 C344 39 258 0 258 80 L258 302 Z M258 656 L310 656 C414 656 464 598 464 493 C464 374 414 326 310 326 L258 326 L258 656 Z " />
<glyph glyph-name="Q" unicode="Q" horiz-adv-x="796" d="M192 339 C192 550 272 670 398 670 C524 670 604 550 604 339 C604 128 524 8 398 8 C272 8 192 128 192 339 L192 339 Z M216 28 C120 20 76 -46 76 -68 C76 -74 79 -78 85 -78 C96 -78 97 -61 111 -46 C129 -27 152 -16 179 -16 C311 -16 414 -186 557 -186 C742 -186 775 -62 775 -48 C775 -41 771 -37 767 -37 C758 -37 759 -50 747 -66 C729 -89 703 -108 655 -108 C575 -108 476 -42 383 -17 L385 -15 C387 -16 392 -16 398 -16 C620 -16 768 152 768 339 C768 526 620 694 398 694 C176 694 28 526 28 339 C28 210 99 90 216 30 L216 28 Z " />
<glyph glyph-name="R" unicode="R" horiz-adv-x="704" d="M516 0 L624 0 C660 0 696 -2 732 -2 C741 -2 742 3 742 9 C742 37 676 -1 635 78 L560 223 C521 298 463 324 356 324 L356 326 C562 348 614 418 614 502 C614 604 523 680 352 680 C286 680 243 678 193 678 C153 678 105 680 54 680 C38 680 34 675 34 667 C34 639 120 678 120 598 L120 80 C120 0 34 39 34 11 C34 3 38 -2 54 -2 C105 -2 153 0 193 0 C233 0 281 -2 332 -2 C348 -2 352 3 352 11 C352 39 266 0 266 80 L266 320 C324 320 371 303 395 253 L516 0 Z M266 656 L329 656 C414 656 468 610 468 500 C468 394 418 338 305 338 L266 338 L266 656 Z " />
<glyph glyph-name="S" unicode="S" horiz-adv-x="593" d="M52 5 C52 -2 55 -4 60 -4 C77 -4 71 30 110 30 C149 30 196 -16 295 -16 C446 -16 558 86 558 219 C558 490 152 399 152 563 C152 639 208 670 279 670 C390 670 444 604 488 493 C504 453 505 432 515 432 C520 432 523 435 523 442 C523 447 522 456 520 475 L502 664 C501 679 497 682 490 682 C472 682 487 654 452 654 C424 654 374 694 280 694 C156 694 56 606 56 488 C56 240 456 339 456 137 C456 60 398 8 296 8 C150 8 100 135 76 262 C72 283 72 298 62 298 C56 298 52 295 52 283 L52 5 Z " />
<glyph glyph-name="T" unicode="T" horiz-adv-x="630" d="M242 100 C242 36 211 22 162 22 C150 22 144 19 144 9 C144 1 149 -2 160 -2 C217 -2 268 0 315 0 C362 0 413 -2 470 -2 C481 -2 486 1 486 9 C486 19 480 22 468 22 C419 22 388 36 388 100 L388 654 C586 600 596 446 619 446 C624 446 628 449 628 456 C628 460 626 476 623 492 L590 675 C588 690 584 694 579 694 C574 694 570 691 565 687 C560 684 553 678 539 678 L91 678 C77 678 70 684 65 687 C60 691 56 694 51 694 C46 694 42 690 40 675 L7 492 C4 476 2 460 2 456 C2 449 6 446 11 446 C34 446 44 600 242 654 L242 100 Z " />
<glyph glyph-name="U" unicode="U" horiz-adv-x="704" d="M601 504 C601 590 633 639 679 654 C694 659 709 660 709 669 C709 675 707 680 695 680 C669 680 630 678 589 678 C548 678 509 680 483 680 C471 680 469 675 469 669 C469 660 484 659 499 654 C545 639 577 590 577 504 L577 201 C577 82 505 14 400 14 C317 14 249 78 249 160 L249 598 C249 678 335 639 335 667 C335 675 331 680 315 680 C264 680 216 678 176 678 C136 678 88 680 37 680 C21 680 17 675 17 667 C17 639 103 678 103 598 L103 160 C103 56 203 -16 359 -16 C499 -16 601 58 601 207 L601 504 Z " />
<glyph glyph-name="V" unicode="V" horiz-adv-x="685" d="M404 184 L248 584 C244 594 240 607 240 621 C240 674 310 648 310 669 C310 676 304 680 286 680 C241 680 195 678 150 678 C104 678 59 680 8 680 C-1 680 -6 675 -6 670 C-6 650 51 675 86 591 L327 7 C332 -5 337 -16 343 -16 C349 -16 354 -5 359 7 L576 535 C635 679 712 638 712 667 C712 676 700 680 680 680 C646 680 613 678 580 678 C546 678 513 680 479 680 C468 680 462 674 462 669 C462 644 548 667 548 571 C548 549 543 525 535 505 L404 184 Z " />
<glyph glyph-name="W" unicode="W" horiz-adv-x="963" d="M494 438 L652 7 C657 -5 662 -16 668 -16 C674 -16 679 -5 684 7 L878 573 C908 661 982 651 982 667 C982 677 976 680 964 680 C932 680 900 678 869 678 C837 678 805 680 773 680 C763 680 756 674 756 668 C756 646 836 667 836 568 C836 538 826 491 815 459 L728 208 L726 208 L596 578 C591 592 588 606 588 617 C588 669 650 646 650 667 C650 676 640 680 626 680 C584 680 542 678 501 678 C459 678 417 680 375 680 C364 680 358 675 358 669 C358 640 412 673 439 598 L484 475 L380 200 L241 581 C236 594 232 606 232 617 C232 670 298 645 298 670 C298 676 294 680 282 680 C223 680 181 678 140 678 C98 678 56 680 10 680 C2 680 -4 676 -4 670 C-4 642 54 674 79 606 L301 7 C306 -5 311 -16 317 -16 C323 -16 328 -5 333 7 L494 438 Z " />
<glyph glyph-name="X" unicode="X" horiz-adv-x="685" d="M287 595 C280 606 275 617 275 629 C275 668 333 646 333 668 C333 675 328 680 317 680 C271 680 224 678 178 678 C131 678 85 680 38 680 C27 680 21 675 21 668 C21 640 74 679 129 587 L287 324 L156 137 C60 0 -19 43 -19 11 C-19 4 -14 -2 8 -2 C45 -2 82 0 119 0 C155 0 192 -2 234 -2 C257 -2 261 4 261 11 C261 38 185 7 185 79 C185 108 189 134 224 190 L297 306 L417 106 C428 88 433 72 433 61 C433 13 369 34 369 9 C369 3 372 -2 382 -2 C434 -2 483 0 533 0 C582 0 631 -2 683 -2 C700 -2 703 6 703 11 C703 41 646 -2 592 88 L407 396 L526 562 C610 678 661 648 661 671 C661 675 657 680 647 680 C608 680 576 678 545 678 C513 678 481 680 441 680 C431 680 427 675 427 669 C427 649 497 670 497 592 C497 575 489 556 474 532 L397 416 L287 595 Z " />
<glyph glyph-name="Y" unicode="Y" horiz-adv-x="630" d="M258 561 C246 584 240 600 240 617 C240 673 303 649 303 670 C303 677 296 680 281 680 C234 680 188 678 141 678 C94 678 48 680 -1 680 C-12 680 -18 676 -18 669 C-18 648 38 674 81 595 L242 302 L242 80 C242 0 156 39 156 11 C156 3 160 -2 176 -2 C227 -2 275 0 315 0 C355 0 403 -2 454 -2 C470 -2 474 3 474 11 C474 39 388 0 388 80 L388 321 L506 518 C602 677 648 650 648 670 C648 676 644 680 637 680 C607 680 575 678 544 678 C504 678 480 680 448 680 C434 680 428 675 428 669 C428 653 490 663 490 596 C490 569 480 524 454 478 L376 340 L258 561 Z " />
<glyph glyph-name="Z" unicode="Z" horiz-adv-x="593" d="M184 22 L549 642 C557 656 564 667 564 672 C564 677 561 680 548 680 C472 680 399 678 325 678 C251 678 178 680 106 680 L56 489 C52 474 50 466 50 463 C50 458 52 455 58 455 C71 455 63 467 106 537 C154 615 225 656 336 656 L396 656 L23 31 C16 19 12 12 12 7 C12 3 16 -2 24 -2 C106 -2 188 0 270 0 C352 0 434 -1 514 -2 L555 209 C559 228 562 243 562 249 C562 257 557 260 553 260 C536 260 536 200 493 137 C449 75 380 22 266 22 L184 22 Z " />
<glyph glyph-name="bracketleft" unicode="&#x5b;" horiz-adv-x="407" d="M100 -188 C100 -199 105 -204 116 -204 L291 -204 C303 -204 310 -199 310 -192 C310 -183 301 -181 274 -180 C249 -179 220 -162 220 -126 L220 644 C220 680 249 697 274 698 C301 699 310 701 310 710 C310 717 303 722 291 722 L116 722 C105 722 100 717 100 706 L100 -188 Z " />
<glyph glyph-name="backslash" unicode="&#x5c;" horiz-adv-x="278" d="M306 -16 L74 694 L-28 694 L204 -16 L306 -16 Z " />
<glyph glyph-name="bracketright" unicode="&#x5d;" horiz-adv-x="407" d="M307 706 C307 717 302 722 291 722 L116 722 C104 722 97 717 97 710 C97 701 106 699 133 698 C158 697 187 680 187 644 L187 -126 C187 -162 158 -179 133 -180 C106 -181 97 -183 97 -192 C97 -199 104 -204 116 -204 L291 -204 C302 -204 307 -199 307 -188 L307 706 Z " />
<glyph glyph-name="asciicircum" unicode="&#x5e;" horiz-adv-x="600" d="M503 351 L348 678 L252 678 L97 351 L198 351 L300 562 L402 351 L503 351 Z " />
<glyph glyph-name="underscore" unicode="&#x5f;" horiz-adv-x="500" d="M500 -125 L500 -75 L0 -75 L0 -125 L500 -125 Z " />
<glyph glyph-name="grave" unicode="&#x60;" horiz-adv-x="296" d="M228 514 L86 668 C67 688 51 694 34 694 C14 694 -8 678 -8 653 C-8 638 0 625 24 610 L178 514 L228 514 Z " />
<glyph glyph-name="a" unicode="a" horiz-adv-x="500" d="M422 334 C422 428 379 462 301 462 C184 462 38 392 38 320 C38 287 59 264 89 264 C141 264 158 292 170 365 C179 416 217 440 257 440 C286 440 296 422 296 389 L296 275 L183 230 C56 179 24 145 24 84 C24 14 74 -8 126 -8 C192 -8 245 22 296 62 C311 13 333 -8 390 -8 C456 -8 510 45 510 60 C510 64 508 68 503 68 C497 68 493 59 487 54 C476 44 463 34 447 34 C431 34 422 43 422 62 L422 334 Z M296 86 C273 65 239 46 210 46 C176 46 156 66 156 124 C156 187 198 217 296 255 L296 86 Z " />
<glyph glyph-name="b" unicode="b" horiz-adv-x="593" d="M205 730 C39 677 -1 689 -1 670 C-1 649 79 664 79 595 L79 -3 C79 -6 80 -8 82 -8 C85 -8 87 -5 92 2 L131 52 C191 12 233 -8 298 -8 C447 -8 564 108 564 256 C564 382 477 462 369 462 C305 462 255 434 205 390 L205 730 Z M205 366 C231 392 259 402 286 402 C372 402 432 328 432 211 C432 92 385 10 295 10 C239 10 205 42 205 112 L205 366 Z " />
<glyph glyph-name="c" unicode="c" horiz-adv-x="481" d="M33 218 C33 100 115 -8 257 -8 C415 -8 458 131 458 154 C458 158 456 162 450 162 C437 162 427 70 304 70 C226 70 147 140 147 288 C147 380 189 444 257 444 C303 444 335 418 337 369 C337 349 335 338 335 324 C333 275 350 248 392 248 C425 248 451 270 451 318 C451 386 381 462 265 462 C129 462 33 357 33 218 L33 218 Z " />
<glyph glyph-name="d" unicode="d" horiz-adv-x="593" d="M514 730 C348 677 308 689 308 670 C308 649 388 664 388 595 L388 446 C354 457 332 462 294 462 C139 462 29 344 29 204 C29 68 125 -8 211 -8 C277 -8 337 14 386 72 L388 72 L388 -8 C554 45 596 33 596 52 C596 73 514 58 514 127 L514 730 Z M388 94 C367 68 329 52 291 52 C225 52 161 130 161 240 C161 382 217 444 291 444 C351 444 388 406 388 342 L388 94 Z " />
<glyph glyph-name="e" unicode="e" horiz-adv-x="500" d="M467 252 C463 390 368 462 256 462 C127 462 33 362 33 230 C33 88 121 -8 256 -8 C421 -8 467 124 467 154 C467 158 464 161 461 161 C452 161 453 145 432 122 C404 91 371 70 310 70 C227 70 149 130 147 252 L467 252 Z M147 276 C149 382 191 444 255 444 C311 444 345 408 347 276 L147 276 Z " />
<glyph glyph-name="f" unicode="f" horiz-adv-x="315" d="M326 454 L214 454 C205 519 182 604 182 651 C182 704 200 716 216 716 C230 716 236 704 236 655 C236 618 258 594 294 594 C326 594 356 620 356 663 C356 706 314 752 260 752 C204 752 159 734 124 604 C102 521 86 456 28 406 L90 406 L90 80 C90 0 20 36 20 10 C20 3 22 -2 32 -2 C58 -2 100 0 153 0 C206 0 248 -2 274 -2 C284 -2 286 3 286 10 C286 36 216 0 216 80 L216 406 L312 406 L326 454 Z " />
<glyph glyph-name="g" unicode="g" horiz-adv-x="519" d="M362 606 C310 606 270 566 260 462 C120 462 50 390 50 307 C50 240 84 192 172 174 L172 172 C82 160 46 110 46 57 C46 17 57 -8 90 -28 C44 -46 24 -74 24 -110 C24 -167 78 -212 236 -212 C380 -212 510 -173 510 -61 C510 23 456 62 317 62 C159 62 136 73 136 110 C136 135 166 158 247 162 C386 168 472 220 472 312 C472 390 408 450 278 462 C282 492 296 506 312 506 C332 506 347 486 372 486 C400 486 428 508 428 543 C428 578 400 606 362 606 L362 606 Z M72 -101 C72 -79 90 -46 116 -46 C128 -46 138 -60 308 -60 C406 -60 420 -84 420 -112 C420 -158 364 -188 236 -188 C126 -188 72 -159 72 -101 L72 -101 Z M182 312 C182 420 218 444 259 444 C300 444 334 420 334 312 C334 204 300 180 259 180 C218 180 182 204 182 312 L182 312 Z " />
<glyph glyph-name="h" unicode="h" horiz-adv-x="593" d="M208 730 C42 677 2 689 2 670 C2 649 82 664 82 595 L82 80 C82 0 12 36 12 10 C12 3 14 -2 24 -2 C50 -2 92 0 145 0 C198 0 240 -2 266 -2 C276 -2 278 3 278 10 C278 36 208 0 208 80 L208 366 C252 396 284 414 320 414 C363 414 384 390 384 342 L384 80 C384 0 314 36 314 10 C314 3 316 -2 326 -2 C352 -2 394 0 447 0 C500 0 542 -2 568 -2 C578 -2 580 3 580 10 C580 36 510 0 510 80 L510 348 C510 426 458 462 395 462 C327 462 282 435 208 389 L208 730 Z " />
<glyph glyph-name="i" unicode="i" horiz-adv-x="296" d="M211 462 C45 409 5 421 5 402 C5 381 85 396 85 327 L85 80 C85 0 3 36 3 10 C3 3 5 -2 15 -2 C47 -2 95 0 148 0 C201 0 249 -2 281 -2 C291 -2 293 3 293 10 C293 36 211 0 211 80 L211 462 Z M77 611 C77 572 109 540 148 540 C187 540 219 572 219 611 C219 650 187 682 148 682 C109 682 77 650 77 611 L77 611 Z " />
<glyph glyph-name="j" unicode="j" horiz-adv-x="296" d="M226 462 C60 409 20 421 20 402 C20 381 100 396 100 327 L100 -64 C100 -106 118 -108 118 -142 C118 -171 98 -194 65 -194 C45 -194 33 -181 33 -160 C33 -150 34 -146 34 -136 C34 -100 9 -76 -22 -76 C-53 -76 -76 -101 -76 -135 C-76 -173 -42 -212 26 -212 C124 -212 226 -160 226 12 L226 462 Z M92 611 C92 572 124 540 163 540 C202 540 234 572 234 611 C234 650 202 682 163 682 C124 682 92 650 92 611 L92 611 Z " />
<glyph glyph-name="k" unicode="k" horiz-adv-x="574" d="M272 242 L361 86 C366 77 372 64 372 53 C372 10 312 32 312 10 C312 3 316 -2 330 -2 C371 -2 411 0 452 0 C493 0 533 -2 574 -2 C591 -2 596 2 596 10 C596 38 553 4 521 58 L366 318 L428 383 C492 450 554 426 554 446 C554 453 551 456 538 456 C513 456 483 454 444 454 C411 454 369 456 346 456 C333 456 329 453 329 445 C329 424 396 447 396 396 C396 367 354 325 287 273 C262 253 237 237 214 222 L214 730 C48 677 8 689 8 670 C8 649 88 664 88 595 L88 80 C88 0 18 36 18 10 C18 3 20 -2 30 -2 C56 -2 98 0 151 0 C204 0 246 -2 272 -2 C282 -2 284 3 284 10 C284 36 214 0 214 80 L214 204 L272 242 Z " />
<glyph glyph-name="l" unicode="l" horiz-adv-x="296" d="M211 730 C45 677 5 689 5 670 C5 649 85 664 85 595 L85 80 C85 0 3 36 3 10 C3 3 5 -2 15 -2 C47 -2 95 0 148 0 C201 0 249 -2 281 -2 C291 -2 293 3 293 10 C293 36 211 0 211 80 L211 730 Z " />
<glyph glyph-name="m" unicode="m" horiz-adv-x="852" d="M209 462 C43 413 13 425 13 406 C13 389 83 400 83 331 L83 80 C83 0 13 36 13 10 C13 3 15 -2 25 -2 C51 -2 93 0 146 0 C199 0 241 -2 261 -2 C271 -2 273 3 273 10 C273 36 209 0 209 80 L209 367 C254 402 286 414 308 414 C343 414 363 392 363 352 L363 80 C363 0 299 36 299 10 C299 3 301 -2 311 -2 C331 -2 373 0 426 0 C479 0 521 -2 541 -2 C551 -2 553 3 553 10 C553 36 489 0 489 80 L489 367 C524 394 558 414 587 414 C623 414 643 386 643 344 L643 80 C643 0 579 36 579 10 C579 3 581 -2 591 -2 C611 -2 653 0 706 0 C759 0 801 -2 827 -2 C837 -2 839 3 839 10 C839 36 769 0 769 80 L769 347 C769 422 733 462 658 462 C594 462 535 424 487 386 C465 443 423 462 371 462 C309 462 257 422 209 387 L209 462 Z " />
<glyph glyph-name="n" unicode="n" horiz-adv-x="593" d="M208 462 C42 413 12 425 12 406 C12 389 82 400 82 331 L82 80 C82 0 12 36 12 10 C12 3 14 -2 24 -2 C50 -2 92 0 145 0 C198 0 240 -2 266 -2 C276 -2 278 3 278 10 C278 36 208 0 208 80 L208 366 C252 396 284 414 320 414 C363 414 384 390 384 342 L384 80 C384 0 314 36 314 10 C314 3 316 -2 326 -2 C352 -2 394 0 447 0 C500 0 542 -2 568 -2 C578 -2 580 3 580 10 C580 36 510 0 510 80 L510 348 C510 426 458 462 395 462 C327 462 282 435 208 389 L208 462 Z " />
<glyph glyph-name="o" unicode="o" horiz-adv-x="574" d="M29 227 C29 100 135 -8 287 -8 C439 -8 545 100 545 227 C545 354 439 462 287 462 C135 462 29 354 29 227 L29 227 Z M171 227 C171 396 223 444 287 444 C351 444 403 396 403 227 C403 58 351 10 287 10 C223 10 171 58 171 227 L171 227 Z " />
<glyph glyph-name="p" unicode="p" horiz-adv-x="593" d="M205 462 C39 409 -1 421 -1 402 C-1 381 79 396 79 327 L79 -112 C79 -192 -3 -156 -3 -182 C-3 -189 -1 -194 9 -194 C41 -194 89 -192 142 -192 C195 -192 243 -194 275 -194 C285 -194 287 -189 287 -182 C287 -156 205 -192 205 -112 L205 8 C240 -2 267 -8 304 -8 C459 -8 564 109 564 242 C564 354 488 462 376 462 C305 462 244 423 207 379 L205 380 L205 462 Z M205 354 C226 379 257 402 290 402 C367 402 432 326 432 204 C432 66 373 10 299 10 C243 10 205 55 205 116 L205 354 Z " />
<glyph glyph-name="q" unicode="q" horiz-adv-x="593" d="M388 86 C370 68 338 52 301 52 C213 52 161 123 161 243 C161 376 220 444 301 444 C358 444 388 404 388 322 L388 86 Z M450 406 C408 440 346 462 282 462 C153 462 29 350 29 216 C29 70 110 -8 227 -8 C288 -8 341 16 388 60 L388 -112 C388 -192 306 -156 306 -182 C306 -189 308 -194 318 -194 C350 -194 398 -192 451 -192 C504 -192 552 -194 584 -194 C594 -194 596 -189 596 -182 C596 -156 514 -192 514 -112 L514 450 C514 458 511 462 506 462 C502 462 495 453 489 447 L450 406 Z " />
<glyph glyph-name="r" unicode="r" horiz-adv-x="426" d="M220 462 C54 413 24 425 24 406 C24 389 94 400 94 331 L94 80 C94 0 24 36 24 10 C24 3 26 -2 36 -2 C62 -2 104 0 157 0 C210 0 252 -2 278 -2 C288 -2 290 3 290 10 C290 36 220 0 220 80 L220 272 C220 302 250 378 295 378 C330 378 320 322 374 322 C415 322 436 350 436 391 C436 436 401 462 356 462 C303 462 260 424 222 332 L220 332 L220 462 Z " />
<glyph glyph-name="s" unicode="s" horiz-adv-x="426" d="M40 21 C99 0 161 -8 209 -8 C320 -8 400 48 400 154 C400 322 132 282 132 382 C132 424 161 444 202 444 C274 444 308 395 331 353 C349 320 350 302 358 302 C362 302 364 305 364 309 L364 424 C335 443 273 462 215 462 C106 462 42 398 42 328 C42 155 310 198 310 85 C310 40 281 10 219 10 C137 10 97 77 71 133 C55 167 57 178 48 178 C44 178 40 176 40 169 L40 21 Z " />
<glyph glyph-name="t" unicode="t" horiz-adv-x="352" d="M212 454 L212 626 L210 626 C160 538 108 474 24 406 L86 406 L86 120 C86 42 130 -8 217 -8 C328 -8 368 71 368 86 C368 91 365 94 361 94 C355 94 354 84 345 74 C327 53 308 40 276 40 C239 40 212 64 212 126 L212 406 L326 406 L350 454 L212 454 Z " />
<glyph glyph-name="u" unicode="u" horiz-adv-x="593" d="M510 462 C344 413 314 425 314 406 C314 389 384 400 384 331 L384 98 C353 61 316 40 275 40 C227 40 208 60 208 108 L208 462 C42 413 12 425 12 406 C12 389 82 400 82 331 L82 102 C82 30 117 -8 203 -8 C288 -8 334 26 384 70 L384 -8 C550 41 580 29 580 48 C580 65 510 54 510 123 L510 462 Z " />
<glyph glyph-name="v" unicode="v" horiz-adv-x="500" d="M215 354 C208 372 199 389 199 399 C199 445 253 425 253 445 C253 451 250 456 238 456 C197 456 160 454 122 454 C84 454 47 456 9 456 C0 456 -3 452 -3 446 C-3 429 37 445 55 402 L227 5 C231 -5 236 -8 242 -8 C249 -8 253 -2 256 5 L423 353 C467 446 503 428 503 447 C503 452 499 456 491 456 C467 456 443 454 419 454 C395 454 371 456 347 456 C338 456 335 452 335 446 C335 428 389 443 389 376 C389 355 383 317 364 277 L303 146 L215 354 Z " />
<glyph glyph-name="w" unicode="w" horiz-adv-x="741" d="M290 156 L208 371 C204 381 198 394 198 402 C198 440 244 434 244 445 C244 452 240 456 228 456 C194 456 159 454 125 454 C91 454 56 456 23 456 C12 456 8 452 8 446 C8 429 44 442 59 405 L219 3 C222 -4 225 -8 232 -8 C239 -8 242 -4 245 3 L372 294 L489 3 C492 -4 495 -8 502 -8 C509 -8 512 -4 515 3 L648 330 C692 439 744 428 744 445 C744 450 740 456 728 456 C710 456 682 454 660 454 C638 454 616 456 592 456 C579 456 574 451 574 445 C574 424 632 447 632 374 C632 353 627 334 620 317 L556 162 L475 365 C470 379 464 391 464 400 C464 442 516 426 516 444 C516 452 512 456 504 456 C460 456 424 454 388 454 C352 454 316 456 283 456 C272 456 270 451 270 445 C270 430 308 445 324 407 L362 318 L290 156 Z " />
<glyph glyph-name="x" unicode="x" horiz-adv-x="556" d="M309 84 C316 74 322 62 322 50 C322 11 268 32 266 10 C265 3 269 -2 280 -2 C327 -2 371 0 414 0 C457 0 501 -2 548 -2 C562 -2 568 0 568 9 C568 33 516 3 468 75 L332 277 L423 373 C492 450 530 429 530 448 C530 452 526 456 516 456 C490 456 463 454 437 454 C411 454 384 456 360 456 C348 456 344 452 344 447 C344 429 392 445 392 399 C392 367 364 336 321 291 L264 374 C257 384 250 396 250 407 C250 440 302 434 302 445 C302 452 300 456 286 456 C244 456 202 454 160 454 C118 454 76 456 31 456 C21 456 18 452 18 446 C18 430 60 445 91 401 L220 214 L136 104 C56 -2 0 33 0 9 C0 1 3 -2 19 -2 C42 -2 76 0 110 0 C139 0 167 -2 204 -2 C215 -2 218 3 218 7 C218 26 162 13 162 72 C162 98 179 137 232 196 L309 84 Z " />
<glyph glyph-name="y" unicode="y" horiz-adv-x="500" d="M244 -6 L200 -115 C194 -131 188 -140 178 -140 C168 -140 168 -132 157 -115 C145 -97 129 -86 107 -86 C71 -86 50 -110 50 -147 C50 -184 81 -212 118 -212 C158 -212 186 -189 207 -140 L400 307 C428 372 456 409 477 423 C502 442 516 434 516 448 C516 453 512 456 506 456 C476 456 446 454 416 454 C386 454 356 456 326 456 C318 456 314 452 314 446 C314 426 384 451 384 366 C384 336 375 302 365 277 L310 148 L214 366 C208 380 200 398 200 406 C200 443 244 433 244 447 C244 452 240 456 232 456 C196 456 159 454 123 454 C87 454 50 456 12 456 C1 456 -4 452 -4 447 C-4 423 38 453 71 380 L244 -6 Z " />
<glyph glyph-name="z" unicode="z" horiz-adv-x="500" d="M298 438 L16 -2 C82 -1 149 0 215 0 C281 0 348 -1 414 -2 L454 196 C458 215 460 227 460 232 C460 235 458 238 453 238 C441 238 443 214 419 168 C373 81 289 16 184 16 L176 16 L460 456 C393 455 331 454 270 454 C209 454 148 455 86 456 L47 304 C43 286 40 275 40 270 C40 267 41 264 46 264 C60 264 49 286 98 345 C143 400 211 434 290 438 L298 438 Z " />
<glyph glyph-name="braceleft" unicode="&#x7b;" horiz-adv-x="407" d="M104 383 C104 313 90 279 28 259 C90 239 104 205 104 135 L104 -60 C104 -190 159 -212 305 -212 L305 -188 C242 -183 224 -153 224 -78 L224 119 C224 196 212 239 143 258 L143 260 C212 279 224 322 224 399 L224 596 C224 671 242 701 305 706 L305 730 C159 730 104 708 104 578 L104 383 Z " />
<glyph glyph-name="bar" unicode="&#x7c;" horiz-adv-x="222" d="M60 0 L162 0 L162 730 L60 730 L60 0 Z " />
<glyph glyph-name="braceright" unicode="&#x7d;" horiz-adv-x="407" d="M303 135 C303 205 317 239 379 259 C317 279 303 313 303 383 L303 578 C303 708 248 730 102 730 L102 706 C165 701 183 671 183 596 L183 399 C183 322 195 279 264 260 L264 258 C195 239 183 196 183 119 L183 -78 C183 -153 165 -183 102 -188 L102 -212 C248 -212 303 -190 303 -60 L303 135 Z " />
<glyph glyph-name="asciitilde" unicode="&#x7e;" horiz-adv-x="600" d="M475 311 C454 279 432 246 396 246 C372 246 338 264 305 278 C271 294 236 307 205 307 C145 307 113 268 85 230 L125 143 C140 175 161 209 201 209 C242 209 275 193 304 176 C333 160 362 147 395 147 C451 147 481 186 515 224 L475 311 Z " />
<glyph glyph-name="exclamdown" unicode="&#xa1;" horiz-adv-x="278" d="M220 -98 C220 4 179 82 154 232 C148 267 156 300 139 300 C122 300 130 267 124 232 C98 82 58 4 58 -98 C58 -184 92 -212 139 -212 C186 -212 220 -184 220 -98 L220 -98 Z M212 417 C212 458 179 490 139 490 C98 490 66 458 66 417 C66 377 98 344 139 344 C179 344 212 377 212 417 L212 417 Z " />
<glyph glyph-name="cent" unicode="&#xa2;" horiz-adv-x="593" d="M116 0 L200 146 C228 132 260 124 308 124 C447 124 488 253 488 273 C488 278 485 280 480 280 C468 280 433 202 342 202 C306 202 272 216 249 240 L364 440 L366 440 C372 386 388 366 424 366 C462 366 482 395 482 430 C482 459 461 509 418 538 L496 678 L466 678 L394 550 C369 562 334 570 309 570 C181 570 86 470 86 330 C86 260 129 191 178 160 L86 0 L116 0 Z M230 258 C192 306 182 353 182 398 C182 487 224 552 301 552 C334 552 358 536 368 504 L230 258 Z " />
<glyph glyph-name="sterling" unicode="&#xa3;" horiz-adv-x="593" d="M58 316 L226 316 C286 284 321 209 321 178 C321 169 322 162 319 153 C277 187 226 208 181 208 C110 208 70 156 70 100 C70 34 111 0 170 0 C215 0 256 23 278 44 C309 10 343 -8 387 -8 C526 -8 560 144 560 256 C560 263 558 268 551 268 C537 268 542 249 536 218 C524 153 490 112 424 112 C393 112 366 124 340 138 C355 172 368 222 368 266 C368 283 366 299 364 316 L478 316 L478 364 L346 364 C300 454 198 488 198 572 C198 626 231 668 284 668 C354 668 406 621 449 541 C488 469 479 438 494 438 C500 438 504 442 504 450 C504 458 502 470 502 478 L485 655 C484 667 481 670 475 670 C462 670 470 646 445 646 C402 646 365 686 288 686 C186 686 96 605 96 506 C96 446 116 406 162 364 L58 364 L58 316 Z M94 88 C94 124 116 148 152 148 C186 148 226 110 266 60 C242 32 204 18 170 18 C124 18 94 52 94 88 L94 88 Z " />
<glyph glyph-name="currency" unicode="&#xa4;" horiz-adv-x="593" d="M501 606 L442 548 C409 576 354 595 296 595 C238 595 183 576 150 548 L91 606 L31 546 L89 489 C58 455 41 397 41 339 C41 281 58 223 89 189 L31 132 L91 72 L150 130 C183 102 238 83 296 83 C354 83 409 102 442 130 L501 72 L561 132 L503 189 C534 223 551 281 551 339 C551 397 534 455 503 489 L561 546 L501 606 Z M296 507 C386 507 459 432 459 339 C459 246 386 171 296 171 C206 171 133 246 133 339 C133 432 206 507 296 507 L296 507 Z " />
<glyph glyph-name="yen" unicode="&#xa5;" horiz-adv-x="593" d="M540 220 L540 268 L367 268 L367 319 L384 348 L540 348 L540 396 L414 396 L487 518 C583 677 629 650 629 670 C629 676 625 680 618 680 C588 680 556 678 525 678 C485 678 461 680 429 680 C415 680 409 675 409 669 C409 653 479 663 479 596 C479 569 466 532 435 478 L350 330 L231 557 C219 580 209 600 209 617 C209 673 284 649 284 670 C284 677 277 680 262 680 C215 680 169 678 122 678 C75 678 29 680 -20 680 C-31 680 -37 676 -37 669 C-37 648 23 677 62 607 L178 396 L54 396 L54 348 L205 348 L225 312 L225 268 L54 268 L54 220 L225 220 L225 80 C225 0 137 39 137 11 C137 3 141 -2 157 -2 C208 -2 256 0 296 0 C336 0 384 -2 435 -2 C451 -2 455 3 455 11 C455 39 367 0 367 80 L367 220 L540 220 Z " />
<glyph glyph-name="brokenbar" unicode="&#xa6;" horiz-adv-x="222" d="M60 0 L162 0 L162 282 L60 282 L60 0 Z M60 448 L162 448 L162 730 L60 730 L60 448 Z " />
<glyph glyph-name="section" unicode="&#xa7;" horiz-adv-x="500" d="M30 -98 C30 -113 38 -114 44 -114 C59 -114 67 -84 95 -84 C121 -84 178 -124 262 -124 C376 -124 450 -57 450 27 C450 76 414 124 352 154 C405 179 470 207 470 298 C470 460 190 478 190 594 C190 648 226 670 270 670 C334 670 371 628 400 560 C416 520 414 503 428 503 C435 503 438 509 438 520 L438 673 C438 684 435 688 429 688 C418 688 414 664 383 664 C363 664 310 694 236 694 C128 694 64 644 64 563 C64 510 109 458 162 414 C92 392 36 345 36 264 C36 76 330 88 330 -28 C330 -71 294 -100 250 -100 C171 -100 109 -49 73 25 C48 76 50 94 38 94 C32 94 30 90 30 83 L30 -98 Z M374 233 C374 195 349 166 333 164 C191 235 126 274 126 328 C126 363 148 388 183 398 C278 333 374 292 374 233 L374 233 Z " />
<glyph glyph-name="dieresis" unicode="&#xa8;" horiz-adv-x="296" d="M192 587 C192 555 218 528 251 528 C284 528 310 555 310 587 C310 619 284 646 251 646 C218 646 192 619 192 587 L192 587 Z M-14 587 C-14 555 12 528 45 528 C78 528 104 555 104 587 C104 619 78 646 45 646 C12 646 -14 619 -14 587 L-14 587 Z " />
<glyph glyph-name="copyright" unicode="&#xa9;" horiz-adv-x="800" d="M400 -16 C600 -16 747 138 747 338 C747 539 600 694 400 694 C200 694 53 538 53 338 C53 138 200 -16 400 -16 L400 -16 Z M400 42 C245 42 133 174 133 338 C133 502 245 636 400 636 C555 636 667 502 667 338 C667 174 555 42 400 42 L400 42 Z M548 263 C524 209 483 170 428 170 C343 170 317 251 318 356 C319 456 353 524 428 524 C491 524 519 477 531 436 L553 436 L553 508 C553 516 546 524 530 529 C504 538 478 548 427 548 C254 548 202 435 202 350 C202 215 286 146 420 146 C466 146 508 161 526 165 C542 172 553 175 554 187 L570 263 L548 263 Z " />
<glyph glyph-name="ordfeminine" unicode="&#xaa;" horiz-adv-x="300" d="M184 577 C91 540 8 521 8 459 C8 417 40 404 74 404 C117 404 151 423 184 447 C194 418 208 404 248 404 C290 404 326 434 326 445 C326 449 323 452 319 452 C314 452 302 432 283 432 C273 432 266 436 266 449 L266 609 C266 666 238 686 188 686 C113 686 17 644 17 601 C17 581 30 567 51 567 C90 567 94 593 104 628 C110 650 128 668 162 668 C178 668 184 659 184 632 L184 577 Z M184 463 C171 451 151 442 130 442 C109 442 96 449 96 484 C96 518 121 538 184 559 L184 463 Z " />
<glyph glyph-name="guillemotleft" unicode="&#xab;" horiz-adv-x="481" d="M257 390 C263 399 267 405 267 410 C267 414 264 418 259 418 C253 418 245 410 234 400 L78 251 C67 240 61 234 61 227 C61 220 67 214 78 203 L234 54 C245 44 253 36 259 36 C264 36 267 40 267 44 C267 49 263 55 257 64 L155 227 L257 390 Z M411 390 C417 399 421 405 421 410 C421 414 418 418 413 418 C407 418 399 410 388 400 L232 251 C221 240 215 234 215 227 C215 220 221 214 232 203 L388 54 C399 44 407 36 413 36 C418 36 421 40 421 44 C421 49 417 55 411 64 L309 227 L411 390 Z " />
<glyph glyph-name="logicalnot" unicode="&#xac;" horiz-adv-x="600" d="M425 76 L527 76 L527 378 L73 378 L73 276 L425 276 L425 76 Z " />
<glyph glyph-name="registered" unicode="&#xae;" horiz-adv-x="800" d="M234 518 C278 515 277 508 277 477 L277 218 C277 186 278 180 234 177 L234 157 L410 157 L410 177 C367 180 367 186 367 218 L367 324 L394 324 C439 253 469 157 500 157 L590 157 L590 171 C570 192 547 223 527 252 L469 336 C518 351 546 394 546 437 C546 506 497 536 435 536 L234 536 L234 518 Z M367 512 L398 512 C431 512 450 492 450 434 C450 393 439 348 395 348 L367 348 L367 512 Z M400 -16 C600 -16 747 138 747 338 C747 539 600 694 400 694 C200 694 53 538 53 338 C53 138 200 -16 400 -16 L400 -16 Z M400 42 C245 42 133 174 133 338 C133 502 245 636 400 636 C555 636 667 502 667 338 C667 174 555 42 400 42 L400 42 Z " />
<glyph glyph-name="macron" unicode="&#xaf;" horiz-adv-x="296" d="M-14 554 L310 554 L310 620 L-14 620 L-14 554 Z " />
<glyph glyph-name="degree" unicode="&#xb0;" horiz-adv-x="400" d="M200 450 C151 450 111 494 111 543 C111 592 151 636 200 636 C249 636 289 592 289 543 C289 494 249 450 200 450 L200 450 Z M200 400 C280 400 343 463 343 543 C343 623 280 686 200 686 C120 686 57 623 57 543 C57 463 120 400 200 400 L200 400 Z " />
<glyph glyph-name="plusminus" unicode="&#xb1;" horiz-adv-x="600" d="M249 344 L73 344 L73 242 L249 242 L249 132 L351 132 L351 242 L527 242 L527 344 L351 344 L351 454 L249 454 L249 344 Z M73 0 L527 0 L527 102 L73 102 L73 0 Z " />
<glyph glyph-name="twosuperior" unicode="&#xb2;" horiz-adv-x="355" d="M85 352 C152 443 327 431 327 565 C327 628 269 686 182 686 C45 686 17 565 17 561 C17 558 19 556 22 556 C32 556 38 580 56 598 C78 620 105 632 137 632 C197 632 231 590 231 546 C231 437 24 413 22 274 L300 274 L329 373 C331 380 333 387 333 390 C333 392 331 398 325 398 C311 398 313 352 239 352 L85 352 Z " />
<glyph glyph-name="threesuperior" unicode="&#xb3;" horiz-adv-x="355" d="M304 587 C304 651 241 686 177 686 C77 686 41 615 41 600 C41 595 43 592 48 592 C63 592 75 642 141 642 C190 642 222 617 222 573 C222 540 207 516 185 505 C152 489 130 504 130 486 C130 473 153 481 179 473 C218 461 250 429 250 378 C250 320 209 286 161 286 C130 286 105 300 104 338 C103 378 88 398 55 398 C27 398 8 376 8 351 C8 308 68 268 162 268 C257 268 342 332 342 413 C342 461 311 494 270 521 C292 541 304 559 304 587 L304 587 Z " />
<glyph glyph-name="acute" unicode="&#xb4;" horiz-adv-x="296" d="M118 514 L272 610 C296 625 304 638 304 653 C304 678 282 694 262 694 C245 694 229 688 210 668 L68 514 L118 514 Z " />
<glyph glyph-name="mu" unicode="&#xb5;" horiz-adv-x="593" d="M208 462 C42 413 12 425 12 406 C12 389 82 400 82 331 L82 134 C82 30 76 -36 76 -110 C76 -160 88 -212 144 -212 C202 -212 214 -160 214 -110 C214 -71 210 -40 210 -8 C282 -6 327 19 384 70 L384 -8 C550 41 580 29 580 48 C580 65 510 54 510 123 L510 462 C344 413 314 425 314 406 C314 389 384 400 384 331 L384 98 C353 61 316 40 275 40 C227 40 208 60 208 108 L208 462 Z " />
<glyph glyph-name="paragraph" unicode="&#xb6;" horiz-adv-x="620" d="M560 678 L285 678 C140 678 82 621 82 486 C82 364 142 280 256 280 L256 -124 L340 -124 L340 648 L400 648 L400 -124 L484 -124 L484 608 C484 643 497 647 560 654 L560 678 Z " />
<glyph glyph-name="periodcentered" unicode="&#xb7;" horiz-adv-x="296" d="M75 227 C75 186 108 154 148 154 C189 154 221 186 221 227 C221 267 189 300 148 300 C108 300 75 267 75 227 L75 227 Z " />
<glyph glyph-name="cedilla" unicode="&#xb8;" horiz-adv-x="296" d="M118 0 L76 -96 L88 -104 C96 -101 101 -100 116 -100 C142 -100 164 -116 164 -139 C164 -167 139 -180 104 -180 C81 -180 63 -174 44 -168 L28 -204 C56 -212 86 -218 120 -218 C196 -218 248 -190 248 -129 C248 -85 210 -62 163 -62 C151 -62 139 -62 128 -66 L160 0 L118 0 Z " />
<glyph glyph-name="onesuperior" unicode="&#xb9;" horiz-adv-x="355" d="M234 672 C234 683 229 686 221 686 C215 686 160 652 99 644 C54 638 26 645 26 630 C26 623 31 620 35 620 L124 620 C134 620 138 617 138 603 L138 336 C138 308 127 296 87 296 C43 296 39 291 39 282 C39 278 42 272 51 272 C95 272 140 274 184 274 C228 274 273 272 317 272 C325 272 328 278 328 282 C328 289 323 296 280 296 C250 296 234 312 234 337 L234 672 Z " />
<glyph glyph-name="ordmasculine" unicode="&#xba;" horiz-adv-x="344" d="M4 545 C4 469 72 404 172 404 C272 404 340 469 340 545 C340 621 272 686 172 686 C72 686 4 621 4 545 L4 545 Z M94 545 C94 636 130 668 172 668 C214 668 250 636 250 545 C250 454 214 422 172 422 C130 422 94 454 94 545 L94 545 Z " />
<glyph glyph-name="guillemotright" unicode="&#xbb;" horiz-adv-x="481" d="M224 64 C218 55 214 49 214 44 C214 40 217 36 222 36 C228 36 236 44 247 54 L403 203 C414 214 420 220 420 227 C420 234 414 240 403 251 L247 400 C236 410 228 418 222 418 C217 418 214 414 214 410 C214 405 218 399 224 390 L326 227 L224 64 Z M70 64 C64 55 60 49 60 44 C60 40 63 36 68 36 C74 36 82 44 93 54 L249 203 C260 214 266 220 266 227 C266 234 260 240 249 251 L93 400 C82 410 74 418 68 418 C63 418 60 414 60 410 C60 405 64 399 70 390 L172 227 L70 64 Z " />
<glyph glyph-name="onequarter" unicode="&#xbc;" horiz-adv-x="889" d="M701 144 L548 144 L700 312 L701 312 L701 144 Z M793 407 L748 407 L508 137 L520 112 L701 112 L701 53 C701 3 641 29 641 10 C641 1 644 -2 653 -2 C688 -2 720 0 747 0 C774 0 806 -2 841 -2 C850 -2 853 1 853 10 C853 29 793 3 793 53 L793 112 L857 112 L872 144 L793 144 L793 407 Z M291 -8 L708 686 L624 686 L207 -8 L291 -8 Z M234 672 C234 683 229 686 221 686 C215 686 160 652 99 644 C54 638 26 645 26 630 C26 623 31 620 35 620 L124 620 C134 620 138 617 138 603 L138 336 C138 308 127 296 87 296 C43 296 39 291 39 282 C39 278 42 272 51 272 C95 272 140 274 184 274 C228 274 273 272 317 272 C325 272 328 278 328 282 C328 289 323 296 280 296 C250 296 234 312 234 337 L234 672 Z " />
<glyph glyph-name="onehalf" unicode="&#xbd;" horiz-adv-x="889" d="M283 -8 L700 686 L616 686 L199 -8 L283 -8 Z M234 672 C234 683 229 686 221 686 C215 686 160 652 99 644 C54 638 26 645 26 630 C26 623 31 620 35 620 L124 620 C134 620 138 617 138 603 L138 336 C138 308 127 296 87 296 C43 296 39 291 39 282 C39 278 42 272 51 272 C95 272 140 274 184 274 C228 274 273 272 317 272 C325 272 328 278 328 282 C328 289 323 296 280 296 C250 296 234 312 234 337 L234 672 Z M609 78 C676 169 851 157 851 291 C851 354 793 412 706 412 C569 412 541 291 541 287 C541 284 543 282 546 282 C556 282 562 306 580 324 C602 346 629 358 661 358 C721 358 755 316 755 272 C755 163 548 139 546 0 L824 0 L853 99 C855 106 857 113 857 116 C857 118 855 124 849 124 C835 124 837 78 763 78 L609 78 Z " />
<glyph glyph-name="threequarters" unicode="&#xbe;" horiz-adv-x="889" d="M713 144 L560 144 L712 312 L713 312 L713 144 Z M805 407 L760 407 L520 137 L532 112 L713 112 L713 53 C713 3 653 29 653 10 C653 1 656 -1 665 -1 C700 -1 732 0 759 0 C786 0 818 -1 853 -1 C862 -1 865 1 865 10 C865 29 805 3 805 53 L805 112 L869 112 L884 144 L805 144 L805 407 Z M311 -8 L728 686 L644 686 L227 -8 L311 -8 Z M328 587 C328 651 265 686 201 686 C101 686 65 615 65 600 C65 595 67 592 72 592 C87 592 99 642 165 642 C214 642 246 617 246 573 C246 540 231 516 209 505 C176 489 154 504 154 486 C154 473 177 481 203 473 C242 461 274 429 274 378 C274 320 233 286 185 286 C154 286 129 300 128 338 C127 378 112 398 79 398 C51 398 32 376 32 351 C32 308 92 268 186 268 C281 268 366 332 366 413 C366 461 335 494 294 521 C316 541 328 559 328 587 L328 587 Z " />
<glyph glyph-name="questiondown" unicode="&#xbf;" horiz-adv-x="500" d="M274 294 L274 222 L242 222 C83 222 28 107 28 23 C28 -94 108 -212 271 -212 C376 -212 456 -148 456 -75 C456 -40 431 -16 399 -16 C298 -16 344 -176 216 -176 C141 -176 94 -126 94 -56 C94 50 168 104 246 104 C286 104 316 88 334 66 L362 82 C344 134 312 217 304 300 L274 294 Z M361 417 C361 458 328 490 288 490 C247 490 215 458 215 417 C215 377 247 344 288 344 C328 344 361 377 361 417 L361 417 Z " />
<glyph glyph-name="Agrave" unicode="&#xc0;" horiz-adv-x="704" d="M196 274 L298 543 L408 274 L196 274 Z M418 256 C472 120 490 93 490 61 C490 6 420 28 420 8 C420 2 423 -2 432 -2 C477 -2 525 0 573 0 C620 0 668 -2 714 -2 C721 -2 724 1 724 6 C724 24 672 1 639 81 L386 697 C381 710 376 722 371 722 C362 722 365 709 320 663 C274 616 254 615 254 607 C254 599 284 594 284 573 C284 562 281 555 277 544 L150 215 C114 121 68 36 1 21 C-16 17 -20 14 -20 7 C-20 1 -17 -2 -9 -2 C30 -2 69 0 108 0 C147 0 186 -2 222 -2 C229 -2 231 1 231 6 C231 23 148 17 148 107 C148 157 171 202 190 256 L418 256 Z M438 721 L296 875 C277 895 261 901 244 901 C224 901 202 885 202 860 C202 845 210 832 234 817 L388 721 L438 721 Z " />
<glyph glyph-name="Aacute" unicode="&#xc1;" horiz-adv-x="704" d="M196 274 L298 543 L408 274 L196 274 Z M418 256 C472 120 490 93 490 61 C490 6 420 28 420 8 C420 2 423 -2 432 -2 C477 -2 525 0 573 0 C620 0 668 -2 714 -2 C721 -2 724 1 724 6 C724 24 672 1 639 81 L386 697 C381 710 376 722 371 722 C362 722 365 709 320 663 C274 616 254 615 254 607 C254 599 284 594 284 573 C284 562 281 555 277 544 L150 215 C114 121 68 36 1 21 C-16 17 -20 14 -20 7 C-20 1 -17 -2 -9 -2 C30 -2 69 0 108 0 C147 0 186 -2 222 -2 C229 -2 231 1 231 6 C231 23 148 17 148 107 C148 157 171 202 190 256 L418 256 Z M328 721 L482 817 C506 832 514 845 514 860 C514 885 492 901 472 901 C455 901 439 895 420 875 L278 721 L328 721 Z " />
<glyph glyph-name="Acircumflex" unicode="&#xc2;" horiz-adv-x="704" d="M196 274 L298 543 L408 274 L196 274 Z M418 256 C472 120 490 93 490 61 C490 6 420 28 420 8 C420 2 423 -2 432 -2 C477 -2 525 0 573 0 C620 0 668 -2 714 -2 C721 -2 724 1 724 6 C724 24 672 1 639 81 L386 697 C381 710 376 722 371 722 C362 722 365 709 320 663 C274 616 254 615 254 607 C254 599 284 594 284 573 C284 562 281 555 277 544 L150 215 C114 121 68 36 1 21 C-16 17 -20 14 -20 7 C-20 1 -17 -2 -9 -2 C30 -2 69 0 108 0 C147 0 186 -2 222 -2 C229 -2 231 1 231 6 C231 23 148 17 148 107 C148 157 171 202 190 256 L418 256 Z M320 895 L194 721 L244 721 L358 823 L472 721 L522 721 L398 895 L320 895 Z " />
<glyph glyph-name="Atilde" unicode="&#xc3;" horiz-adv-x="704" d="M196 274 L298 543 L408 274 L196 274 Z M418 256 C472 120 490 93 490 61 C490 6 420 28 420 8 C420 2 423 -2 432 -2 C477 -2 525 0 573 0 C620 0 668 -2 714 -2 C721 -2 724 1 724 6 C724 24 672 1 639 81 L386 697 C381 710 376 722 371 722 C362 722 365 709 320 663 C274 616 254 615 254 607 C254 599 284 594 284 573 C284 562 281 555 277 544 L150 215 C114 121 68 36 1 21 C-16 17 -20 14 -20 7 C-20 1 -17 -2 -9 -2 C30 -2 69 0 108 0 C147 0 186 -2 222 -2 C229 -2 231 1 231 6 C231 23 148 17 148 107 C148 157 171 202 190 256 L418 256 Z M498 861 C486 827 466 813 443 813 C400 813 352 861 296 861 C242 861 192 823 182 743 L218 743 C222 771 246 791 272 791 C312 791 356 743 420 743 C470 743 510 769 534 861 L498 861 Z " />
<glyph glyph-name="Adieresis" unicode="&#xc4;" horiz-adv-x="704" d="M196 274 L298 543 L408 274 L196 274 Z M418 256 C472 120 490 93 490 61 C490 6 420 28 420 8 C420 2 423 -2 432 -2 C477 -2 525 0 573 0 C620 0 668 -2 714 -2 C721 -2 724 1 724 6 C724 24 672 1 639 81 L386 697 C381 710 376 722 371 722 C362 722 365 709 320 663 C274 616 254 615 254 607 C254 599 284 594 284 573 C284 562 281 555 277 544 L150 215 C114 121 68 36 1 21 C-16 17 -20 14 -20 7 C-20 1 -17 -2 -9 -2 C30 -2 69 0 108 0 C147 0 186 -2 222 -2 C229 -2 231 1 231 6 C231 23 148 17 148 107 C148 157 171 202 190 256 L418 256 Z M402 794 C402 762 428 735 461 735 C494 735 520 762 520 794 C520 826 494 853 461 853 C428 853 402 826 402 794 L402 794 Z M196 794 C196 762 222 735 255 735 C288 735 314 762 314 794 C314 826 288 853 255 853 C222 853 196 826 196 794 L196 794 Z " />
<glyph glyph-name="Aring" unicode="&#xc5;" horiz-adv-x="704" d="M196 274 L298 543 L408 274 L196 274 Z M418 256 C472 120 490 93 490 61 C490 6 420 28 420 8 C420 2 423 -2 432 -2 C477 -2 525 0 573 0 C620 0 668 -2 714 -2 C721 -2 724 1 724 6 C724 24 672 1 639 81 L386 697 C381 710 376 722 371 722 C362 722 365 709 320 663 C274 616 254 615 254 607 C254 599 284 594 284 573 C284 562 281 555 277 544 L150 215 C114 121 68 36 1 21 C-16 17 -20 14 -20 7 C-20 1 -17 -2 -9 -2 C30 -2 69 0 108 0 C147 0 186 -2 222 -2 C229 -2 231 1 231 6 C231 23 148 17 148 107 C148 157 171 202 190 256 L418 256 Z M256 825 C256 767 299 723 358 723 C417 723 460 767 460 825 C460 883 417 927 358 927 C299 927 256 883 256 825 L256 825 Z M298 825 C298 858 325 885 358 885 C391 885 418 858 418 825 C418 792 391 765 358 765 C325 765 298 792 298 825 L298 825 Z " />
<glyph glyph-name="AE" unicode="&#xc6;" horiz-adv-x="1019" d="M464 332 L464 80 C464 0 378 39 378 11 C378 3 382 -2 398 -2 C449 -2 497 0 537 0 C674 0 805 -1 941 -2 L985 220 C987 231 989 243 989 249 C989 255 986 260 979 260 C970 260 969 251 963 232 C932 133 848 22 692 22 C628 22 610 46 610 92 L610 332 L635 332 C705 332 756 285 760 196 C761 176 764 171 774 171 C780 171 784 176 784 185 L784 491 C784 500 780 505 774 505 C764 505 761 500 760 480 C756 408 705 356 635 356 L610 356 L610 656 L664 656 C784 656 849 615 896 537 C935 472 934 455 943 455 C950 455 953 458 953 463 C953 466 951 474 947 489 L897 680 C811 680 725 678 640 678 C555 678 469 680 384 680 C369 680 364 676 364 670 C364 653 412 662 412 640 C412 631 405 620 395 605 L102 152 C27 37 -52 33 -52 12 C-52 3 -47 -2 -33 -2 C10 -2 46 0 82 0 C118 0 154 -2 193 -2 C211 -2 214 4 214 11 C214 35 128 13 128 114 C128 137 137 166 153 192 L244 332 L464 332 Z M464 356 L262 356 L462 656 L464 656 L464 356 Z " />
<glyph glyph-name="Ccedilla" unicode="&#xc7;" horiz-adv-x="704" d="M636 668 C636 679 631 682 624 682 C603 682 624 638 584 638 C538 638 490 694 376 694 C186 694 28 540 28 339 C28 138 169 -16 376 -16 C490 -16 539 32 579 32 C627 32 609 -24 628 -24 C635 -24 640 -21 640 -7 L640 256 C640 267 637 272 631 272 C615 272 625 253 605 194 C576 111 494 8 394 8 C270 8 192 104 192 339 C192 574 270 670 388 670 C483 670 549 590 586 503 C618 427 609 396 625 396 C633 396 636 402 636 416 L636 668 Z M339 0 L297 -96 L309 -104 C317 -101 322 -100 337 -100 C363 -100 385 -116 385 -139 C385 -167 360 -180 325 -180 C302 -180 284 -174 265 -168 L249 -204 C277 -212 307 -218 341 -218 C417 -218 469 -190 469 -129 C469 -85 431 -62 384 -62 C372 -62 360 -62 349 -66 L381 0 L339 0 Z " />
<glyph glyph-name="Egrave" unicode="&#xc8;" horiz-adv-x="667" d="M112 80 C112 0 26 39 26 11 C26 3 30 -2 46 -2 C97 -2 145 0 185 0 C324 0 457 -1 589 -2 L633 220 C635 231 637 243 637 249 C637 255 634 260 627 260 C618 260 617 251 611 232 C580 133 496 22 340 22 C276 22 258 46 258 92 L258 344 L283 344 C353 344 404 297 408 208 C409 188 412 183 422 183 C428 183 432 188 432 197 L432 503 C432 512 428 517 422 517 C412 517 409 512 408 492 C404 420 353 368 283 368 L258 368 L258 656 L312 656 C432 656 497 615 544 537 C583 472 582 455 591 455 C598 455 601 458 601 463 C601 466 599 474 595 489 L545 680 C427 679 309 678 185 678 C145 678 97 680 46 680 C30 680 26 675 26 667 C26 639 112 678 112 598 L112 80 Z M414 721 L272 875 C253 895 237 901 220 901 C200 901 178 885 178 860 C178 845 186 832 210 817 L364 721 L414 721 Z " />
<glyph glyph-name="Eacute" unicode="&#xc9;" horiz-adv-x="667" d="M112 80 C112 0 26 39 26 11 C26 3 30 -2 46 -2 C97 -2 145 0 185 0 C324 0 457 -1 589 -2 L633 220 C635 231 637 243 637 249 C637 255 634 260 627 260 C618 260 617 251 611 232 C580 133 496 22 340 22 C276 22 258 46 258 92 L258 344 L283 344 C353 344 404 297 408 208 C409 188 412 183 422 183 C428 183 432 188 432 197 L432 503 C432 512 428 517 422 517 C412 517 409 512 408 492 C404 420 353 368 283 368 L258 368 L258 656 L312 656 C432 656 497 615 544 537 C583 472 582 455 591 455 C598 455 601 458 601 463 C601 466 599 474 595 489 L545 680 C427 679 309 678 185 678 C145 678 97 680 46 680 C30 680 26 675 26 667 C26 639 112 678 112 598 L112 80 Z M304 721 L458 817 C482 832 490 845 490 860 C490 885 468 901 448 901 C431 901 415 895 396 875 L254 721 L304 721 Z " />
<glyph glyph-name="Ecircumflex" unicode="&#xca;" horiz-adv-x="667" d="M112 80 C112 0 26 39 26 11 C26 3 30 -2 46 -2 C97 -2 145 0 185 0 C324 0 457 -1 589 -2 L633 220 C635 231 637 243 637 249 C637 255 634 260 627 260 C618 260 617 251 611 232 C580 133 496 22 340 22 C276 22 258 46 258 92 L258 344 L283 344 C353 344 404 297 408 208 C409 188 412 183 422 183 C428 183 432 188 432 197 L432 503 C432 512 428 517 422 517 C412 517 409 512 408 492 C404 420 353 368 283 368 L258 368 L258 656 L312 656 C432 656 497 615 544 537 C583 472 582 455 591 455 C598 455 601 458 601 463 C601 466 599 474 595 489 L545 680 C427 679 309 678 185 678 C145 678 97 680 46 680 C30 680 26 675 26 667 C26 639 112 678 112 598 L112 80 Z M296 895 L170 721 L220 721 L334 823 L448 721 L498 721 L374 895 L296 895 Z " />
<glyph glyph-name="Edieresis" unicode="&#xcb;" horiz-adv-x="667" d="M112 80 C112 0 26 39 26 11 C26 3 30 -2 46 -2 C97 -2 145 0 185 0 C324 0 457 -1 589 -2 L633 220 C635 231 637 243 637 249 C637 255 634 260 627 260 C618 260 617 251 611 232 C580 133 496 22 340 22 C276 22 258 46 258 92 L258 344 L283 344 C353 344 404 297 408 208 C409 188 412 183 422 183 C428 183 432 188 432 197 L432 503 C432 512 428 517 422 517 C412 517 409 512 408 492 C404 420 353 368 283 368 L258 368 L258 656 L312 656 C432 656 497 615 544 537 C583 472 582 455 591 455 C598 455 601 458 601 463 C601 466 599 474 595 489 L545 680 C427 679 309 678 185 678 C145 678 97 680 46 680 C30 680 26 675 26 667 C26 639 112 678 112 598 L112 80 Z M378 794 C378 762 404 735 437 735 C470 735 496 762 496 794 C496 826 470 853 437 853 C404 853 378 826 378 794 L378 794 Z M172 794 C172 762 198 735 231 735 C264 735 290 762 290 794 C290 826 264 853 231 853 C198 853 172 826 172 794 L172 794 Z " />
<glyph glyph-name="Igrave" unicode="&#xcc;" horiz-adv-x="370" d="M112 80 C112 0 26 39 26 11 C26 3 30 -2 46 -2 C97 -2 145 0 185 0 C225 0 273 -2 324 -2 C340 -2 344 3 344 11 C344 39 258 0 258 80 L258 598 C258 678 344 639 344 667 C344 675 340 680 324 680 C273 680 225 678 185 678 C145 678 97 680 46 680 C30 680 26 675 26 667 C26 639 112 678 112 598 L112 80 Z M265 721 L123 875 C104 895 88 901 71 901 C51 901 29 885 29 860 C29 845 37 832 61 817 L215 721 L265 721 Z " />
<glyph glyph-name="Iacute" unicode="&#xcd;" horiz-adv-x="370" d="M112 80 C112 0 26 39 26 11 C26 3 30 -2 46 -2 C97 -2 145 0 185 0 C225 0 273 -2 324 -2 C340 -2 344 3 344 11 C344 39 258 0 258 80 L258 598 C258 678 344 639 344 667 C344 675 340 680 324 680 C273 680 225 678 185 678 C145 678 97 680 46 680 C30 680 26 675 26 667 C26 639 112 678 112 598 L112 80 Z M155 721 L309 817 C333 832 341 845 341 860 C341 885 319 901 299 901 C282 901 266 895 247 875 L105 721 L155 721 Z " />
<glyph glyph-name="Icircumflex" unicode="&#xce;" horiz-adv-x="370" d="M112 80 C112 0 26 39 26 11 C26 3 30 -2 46 -2 C97 -2 145 0 185 0 C225 0 273 -2 324 -2 C340 -2 344 3 344 11 C344 39 258 0 258 80 L258 598 C258 678 344 639 344 667 C344 675 340 680 324 680 C273 680 225 678 185 678 C145 678 97 680 46 680 C30 680 26 675 26 667 C26 639 112 678 112 598 L112 80 Z M147 895 L21 721 L71 721 L185 823 L299 721 L349 721 L225 895 L147 895 Z " />
<glyph glyph-name="Idieresis" unicode="&#xcf;" horiz-adv-x="370" d="M112 80 C112 0 26 39 26 11 C26 3 30 -2 46 -2 C97 -2 145 0 185 0 C225 0 273 -2 324 -2 C340 -2 344 3 344 11 C344 39 258 0 258 80 L258 598 C258 678 344 639 344 667 C344 675 340 680 324 680 C273 680 225 678 185 678 C145 678 97 680 46 680 C30 680 26 675 26 667 C26 639 112 678 112 598 L112 80 Z M229 794 C229 762 255 735 288 735 C321 735 347 762 347 794 C347 826 321 853 288 853 C255 853 229 826 229 794 L229 794 Z M23 794 C23 762 49 735 82 735 C115 735 141 762 141 794 C141 826 115 853 82 853 C49 853 23 826 23 794 L23 794 Z " />
<glyph glyph-name="Eth" unicode="&#xd0;" horiz-adv-x="759" d="M12 344 L112 344 L112 80 C112 0 26 39 26 11 C26 3 30 -2 46 -2 C97 -2 145 0 185 0 C272 0 347 -2 413 -2 C601 -2 731 124 731 338 C731 524 596 680 355 680 C292 680 243 678 185 678 C145 678 97 680 46 680 C30 680 26 675 26 667 C26 639 112 678 112 598 L112 380 L12 380 L12 344 Z M426 380 L258 380 L258 656 L344 656 C488 656 579 540 579 324 C579 119 494 22 376 22 C302 22 258 51 258 123 L258 344 L426 344 L426 380 Z " />
<glyph glyph-name="Ntilde" unicode="&#xd1;" horiz-adv-x="722" d="M135 560 L137 560 L577 0 C586 -12 593 -24 602 -24 C610 -24 611 -10 611 9 L611 524 C611 604 643 637 673 650 C701 662 727 652 727 669 C727 675 725 680 713 680 C679 680 640 678 599 678 C558 678 519 680 485 680 C473 680 471 675 471 669 C471 652 497 662 525 650 C555 637 587 604 587 524 L587 228 L585 228 L227 678 L115 678 C78 678 41 680 7 680 C-1 680 -5 677 -5 669 C-5 658 2 658 18 656 C50 652 78 639 111 591 L111 154 C111 74 79 41 49 28 C21 16 -5 26 -5 9 C-5 3 -3 -2 9 -2 C43 -2 82 0 123 0 C164 0 203 -2 237 -2 C249 -2 251 3 251 9 C251 26 225 16 197 28 C167 41 135 74 135 154 L135 560 Z M507 861 C495 827 475 813 452 813 C409 813 361 861 305 861 C251 861 201 823 191 743 L227 743 C231 771 255 791 281 791 C321 791 365 743 429 743 C479 743 519 769 543 861 L507 861 Z " />
<glyph glyph-name="Ograve" unicode="&#xd2;" horiz-adv-x="796" d="M192 339 C192 550 272 670 398 670 C524 670 604 550 604 339 C604 128 524 8 398 8 C272 8 192 128 192 339 L192 339 Z M28 339 C28 152 176 -16 398 -16 C620 -16 768 152 768 339 C768 526 620 694 398 694 C176 694 28 526 28 339 L28 339 Z M478 721 L336 875 C317 895 301 901 284 901 C264 901 242 885 242 860 C242 845 250 832 274 817 L428 721 L478 721 Z " />
<glyph glyph-name="Oacute" unicode="&#xd3;" horiz-adv-x="796" d="M192 339 C192 550 272 670 398 670 C524 670 604 550 604 339 C604 128 524 8 398 8 C272 8 192 128 192 339 L192 339 Z M28 339 C28 152 176 -16 398 -16 C620 -16 768 152 768 339 C768 526 620 694 398 694 C176 694 28 526 28 339 L28 339 Z M368 721 L522 817 C546 832 554 845 554 860 C554 885 532 901 512 901 C495 901 479 895 460 875 L318 721 L368 721 Z " />
<glyph glyph-name="Ocircumflex" unicode="&#xd4;" horiz-adv-x="796" d="M192 339 C192 550 272 670 398 670 C524 670 604 550 604 339 C604 128 524 8 398 8 C272 8 192 128 192 339 L192 339 Z M28 339 C28 152 176 -16 398 -16 C620 -16 768 152 768 339 C768 526 620 694 398 694 C176 694 28 526 28 339 L28 339 Z M360 895 L234 721 L284 721 L398 823 L512 721 L562 721 L438 895 L360 895 Z " />
<glyph glyph-name="Otilde" unicode="&#xd5;" horiz-adv-x="796" d="M192 339 C192 550 272 670 398 670 C524 670 604 550 604 339 C604 128 524 8 398 8 C272 8 192 128 192 339 L192 339 Z M28 339 C28 152 176 -16 398 -16 C620 -16 768 152 768 339 C768 526 620 694 398 694 C176 694 28 526 28 339 L28 339 Z M538 861 C526 827 506 813 483 813 C440 813 392 861 336 861 C282 861 232 823 222 743 L258 743 C262 771 286 791 312 791 C352 791 396 743 460 743 C510 743 550 769 574 861 L538 861 Z " />
<glyph glyph-name="Odieresis" unicode="&#xd6;" horiz-adv-x="796" d="M192 339 C192 550 272 670 398 670 C524 670 604 550 604 339 C604 128 524 8 398 8 C272 8 192 128 192 339 L192 339 Z M28 339 C28 152 176 -16 398 -16 C620 -16 768 152 768 339 C768 526 620 694 398 694 C176 694 28 526 28 339 L28 339 Z M442 794 C442 762 468 735 501 735 C534 735 560 762 560 794 C560 826 534 853 501 853 C468 853 442 826 442 794 L442 794 Z M236 794 C236 762 262 735 295 735 C328 735 354 762 354 794 C354 826 328 853 295 853 C262 853 236 826 236 794 L236 794 Z " />
<glyph glyph-name="multiply" unicode="&#xd7;" horiz-adv-x="600" d="M228 227 L73 72 L145 0 L300 156 L456 0 L527 72 L372 227 L527 383 L456 454 L300 298 L145 454 L73 383 L228 227 Z " />
<glyph glyph-name="Oslash" unicode="&#xd8;" horiz-adv-x="796" d="M241 107 C209 163 192 241 192 339 C192 550 272 670 398 670 C453 670 499 647 533 603 L241 107 Z M128 -86 L178 -86 L238 17 C284 -4 338 -16 398 -16 C620 -16 768 152 768 339 C768 460 706 573 603 637 L668 748 L618 748 L565 657 C516 681 460 694 398 694 C176 694 28 526 28 339 C28 216 92 101 200 37 L128 -86 Z M559 562 C588 508 604 432 604 339 C604 128 524 8 398 8 C346 8 302 28 268 68 L559 562 Z " />
<glyph glyph-name="Ugrave" unicode="&#xd9;" horiz-adv-x="704" d="M601 504 C601 590 633 639 679 654 C694 659 709 660 709 669 C709 675 707 680 695 680 C669 680 630 678 589 678 C548 678 509 680 483 680 C471 680 469 675 469 669 C469 660 484 659 499 654 C545 639 577 590 577 504 L577 201 C577 82 505 14 400 14 C317 14 249 78 249 160 L249 598 C249 678 335 639 335 667 C335 675 331 680 315 680 C264 680 216 678 176 678 C136 678 88 680 37 680 C21 680 17 675 17 667 C17 639 103 678 103 598 L103 160 C103 56 203 -16 359 -16 C499 -16 601 58 601 207 L601 504 Z M449 721 L307 875 C288 895 272 901 255 901 C235 901 213 885 213 860 C213 845 221 832 245 817 L399 721 L449 721 Z " />
<glyph glyph-name="Uacute" unicode="&#xda;" horiz-adv-x="704" d="M601 504 C601 590 633 639 679 654 C694 659 709 660 709 669 C709 675 707 680 695 680 C669 680 630 678 589 678 C548 678 509 680 483 680 C471 680 469 675 469 669 C469 660 484 659 499 654 C545 639 577 590 577 504 L577 201 C577 82 505 14 400 14 C317 14 249 78 249 160 L249 598 C249 678 335 639 335 667 C335 675 331 680 315 680 C264 680 216 678 176 678 C136 678 88 680 37 680 C21 680 17 675 17 667 C17 639 103 678 103 598 L103 160 C103 56 203 -16 359 -16 C499 -16 601 58 601 207 L601 504 Z M334 721 L488 817 C512 832 520 845 520 860 C520 885 498 901 478 901 C461 901 445 895 426 875 L284 721 L334 721 Z " />
<glyph glyph-name="Ucircumflex" unicode="&#xdb;" horiz-adv-x="704" d="M601 504 C601 590 633 639 679 654 C694 659 709 660 709 669 C709 675 707 680 695 680 C669 680 630 678 589 678 C548 678 509 680 483 680 C471 680 469 675 469 669 C469 660 484 659 499 654 C545 639 577 590 577 504 L577 201 C577 82 505 14 400 14 C317 14 249 78 249 160 L249 598 C249 678 335 639 335 667 C335 675 331 680 315 680 C264 680 216 678 176 678 C136 678 88 680 37 680 C21 680 17 675 17 667 C17 639 103 678 103 598 L103 160 C103 56 203 -16 359 -16 C499 -16 601 58 601 207 L601 504 Z M326 895 L200 721 L250 721 L364 823 L478 721 L528 721 L404 895 L326 895 Z " />
<glyph glyph-name="Udieresis" unicode="&#xdc;" horiz-adv-x="704" d="M601 504 C601 590 633 639 679 654 C694 659 709 660 709 669 C709 675 707 680 695 680 C669 680 630 678 589 678 C548 678 509 680 483 680 C471 680 469 675 469 669 C469 660 484 659 499 654 C545 639 577 590 577 504 L577 201 C577 82 505 14 400 14 C317 14 249 78 249 160 L249 598 C249 678 335 639 335 667 C335 675 331 680 315 680 C264 680 216 678 176 678 C136 678 88 680 37 680 C21 680 17 675 17 667 C17 639 103 678 103 598 L103 160 C103 56 203 -16 359 -16 C499 -16 601 58 601 207 L601 504 Z M413 794 C413 762 439 735 472 735 C505 735 531 762 531 794 C531 826 505 853 472 853 C439 853 413 826 413 794 L413 794 Z M207 794 C207 762 233 735 266 735 C299 735 325 762 325 794 C325 826 299 853 266 853 C233 853 207 826 207 794 L207 794 Z " />
<glyph glyph-name="Yacute" unicode="&#xdd;" horiz-adv-x="630" d="M258 561 C246 584 240 600 240 617 C240 673 303 649 303 670 C303 677 296 680 281 680 C234 680 188 678 141 678 C94 678 48 680 -1 680 C-12 680 -18 676 -18 669 C-18 648 38 674 81 595 L242 302 L242 80 C242 0 156 39 156 11 C156 3 160 -2 176 -2 C227 -2 275 0 315 0 C355 0 403 -2 454 -2 C470 -2 474 3 474 11 C474 39 388 0 388 80 L388 321 L506 518 C602 677 648 650 648 670 C648 676 644 680 637 680 C607 680 575 678 544 678 C504 678 480 680 448 680 C434 680 428 675 428 669 C428 653 490 663 490 596 C490 569 480 524 454 478 L376 340 L258 561 Z M279 721 L433 817 C457 832 465 845 465 860 C465 885 443 901 423 901 C406 901 390 895 371 875 L229 721 L279 721 Z " />
<glyph glyph-name="Thorn" unicode="&#xde;" horiz-adv-x="630" d="M258 160 L333 160 C524 160 610 236 610 350 C610 452 518 538 331 538 C309 538 287 538 258 536 L258 598 C258 678 344 639 344 667 C344 675 340 680 324 680 C273 680 225 678 185 678 C145 678 97 680 46 680 C30 680 26 675 26 667 C26 639 112 678 112 598 L112 80 C112 0 26 39 26 11 C26 3 30 -2 46 -2 C97 -2 145 0 185 0 C225 0 273 -2 324 -2 C340 -2 344 3 344 11 C344 39 258 0 258 80 L258 160 Z M258 514 L310 514 C414 514 464 456 464 351 C464 232 414 184 310 184 L258 184 L258 514 Z " />
<glyph glyph-name="germandbls" unicode="&#xdf;" horiz-adv-x="611" d="M98 406 L98 82 C98 0 28 37 28 10 C28 3 30 -2 40 -2 C66 -2 108 0 161 0 L224 0 L224 493 C224 542 206 588 206 637 C206 700 254 734 305 734 C356 734 390 703 390 627 C390 480 322 488 322 427 C322 354 440 365 440 153 C440 37 414 2 381 2 C364 2 344 11 344 29 C344 49 366 69 366 94 C366 127 342 145 313 145 C276 145 258 120 258 83 C258 25 306 -16 378 -16 C486 -16 578 43 578 163 C578 385 340 373 340 423 C340 474 468 469 468 592 C468 685 391 752 312 752 C222 752 176 696 133 604 C102 538 96 466 22 406 L98 406 Z " />
<glyph glyph-name="agrave" unicode="&#xe0;" horiz-adv-x="500" d="M422 334 C422 428 379 462 301 462 C184 462 38 392 38 320 C38 287 59 264 89 264 C141 264 158 292 170 365 C179 416 217 440 257 440 C286 440 296 422 296 389 L296 275 L183 230 C56 179 24 145 24 84 C24 14 74 -8 126 -8 C192 -8 245 22 296 62 C311 13 333 -8 390 -8 C456 -8 510 45 510 60 C510 64 508 68 503 68 C497 68 493 59 487 54 C476 44 463 34 447 34 C431 34 422 43 422 62 L422 334 Z M296 86 C273 65 239 46 210 46 C176 46 156 66 156 124 C156 187 198 217 296 255 L296 86 Z M324 514 L182 668 C163 688 147 694 130 694 C110 694 88 678 88 653 C88 638 96 625 120 610 L274 514 L324 514 Z " />
<glyph glyph-name="aacute" unicode="&#xe1;" horiz-adv-x="500" d="M422 334 C422 428 379 462 301 462 C184 462 38 392 38 320 C38 287 59 264 89 264 C141 264 158 292 170 365 C179 416 217 440 257 440 C286 440 296 422 296 389 L296 275 L183 230 C56 179 24 145 24 84 C24 14 74 -8 126 -8 C192 -8 245 22 296 62 C311 13 333 -8 390 -8 C456 -8 510 45 510 60 C510 64 508 68 503 68 C497 68 493 59 487 54 C476 44 463 34 447 34 C431 34 422 43 422 62 L422 334 Z M296 86 C273 65 239 46 210 46 C176 46 156 66 156 124 C156 187 198 217 296 255 L296 86 Z M214 514 L368 610 C392 625 400 638 400 653 C400 678 378 694 358 694 C341 694 325 688 306 668 L164 514 L214 514 Z " />
<glyph glyph-name="acircumflex" unicode="&#xe2;" horiz-adv-x="500" d="M422 334 C422 428 379 462 301 462 C184 462 38 392 38 320 C38 287 59 264 89 264 C141 264 158 292 170 365 C179 416 217 440 257 440 C286 440 296 422 296 389 L296 275 L183 230 C56 179 24 145 24 84 C24 14 74 -8 126 -8 C192 -8 245 22 296 62 C311 13 333 -8 390 -8 C456 -8 510 45 510 60 C510 64 508 68 503 68 C497 68 493 59 487 54 C476 44 463 34 447 34 C431 34 422 43 422 62 L422 334 Z M296 86 C273 65 239 46 210 46 C176 46 156 66 156 124 C156 187 198 217 296 255 L296 86 Z M206 688 L80 514 L130 514 L244 616 L358 514 L408 514 L284 688 L206 688 Z " />
<glyph glyph-name="atilde" unicode="&#xe3;" horiz-adv-x="500" d="M422 334 C422 428 379 462 301 462 C184 462 38 392 38 320 C38 287 59 264 89 264 C141 264 158 292 170 365 C179 416 217 440 257 440 C286 440 296 422 296 389 L296 275 L183 230 C56 179 24 145 24 84 C24 14 74 -8 126 -8 C192 -8 245 22 296 62 C311 13 333 -8 390 -8 C456 -8 510 45 510 60 C510 64 508 68 503 68 C497 68 493 59 487 54 C476 44 463 34 447 34 C431 34 422 43 422 62 L422 334 Z M296 86 C273 65 239 46 210 46 C176 46 156 66 156 124 C156 187 198 217 296 255 L296 86 Z M384 654 C372 620 352 606 329 606 C286 606 238 654 182 654 C128 654 78 616 68 536 L104 536 C108 564 132 584 158 584 C198 584 242 536 306 536 C356 536 396 562 420 654 L384 654 Z " />
<glyph glyph-name="adieresis" unicode="&#xe4;" horiz-adv-x="500" d="M422 334 C422 428 379 462 301 462 C184 462 38 392 38 320 C38 287 59 264 89 264 C141 264 158 292 170 365 C179 416 217 440 257 440 C286 440 296 422 296 389 L296 275 L183 230 C56 179 24 145 24 84 C24 14 74 -8 126 -8 C192 -8 245 22 296 62 C311 13 333 -8 390 -8 C456 -8 510 45 510 60 C510 64 508 68 503 68 C497 68 493 59 487 54 C476 44 463 34 447 34 C431 34 422 43 422 62 L422 334 Z M296 86 C273 65 239 46 210 46 C176 46 156 66 156 124 C156 187 198 217 296 255 L296 86 Z M288 587 C288 555 314 528 347 528 C380 528 406 555 406 587 C406 619 380 646 347 646 C314 646 288 619 288 587 L288 587 Z M82 587 C82 555 108 528 141 528 C174 528 200 555 200 587 C200 619 174 646 141 646 C108 646 82 619 82 587 L82 587 Z " />
<glyph glyph-name="aring" unicode="&#xe5;" horiz-adv-x="500" d="M422 334 C422 428 379 462 301 462 C184 462 38 392 38 320 C38 287 59 264 89 264 C141 264 158 292 170 365 C179 416 217 440 257 440 C286 440 296 422 296 389 L296 275 L183 230 C56 179 24 145 24 84 C24 14 74 -8 126 -8 C192 -8 245 22 296 62 C311 13 333 -8 390 -8 C456 -8 510 45 510 60 C510 64 508 68 503 68 C497 68 493 59 487 54 C476 44 463 34 447 34 C431 34 422 43 422 62 L422 334 Z M296 86 C273 65 239 46 210 46 C176 46 156 66 156 124 C156 187 198 217 296 255 L296 86 Z M142 618 C142 560 185 516 244 516 C303 516 346 560 346 618 C346 676 303 720 244 720 C185 720 142 676 142 618 L142 618 Z M184 618 C184 651 211 678 244 678 C277 678 304 651 304 618 C304 585 277 558 244 558 C211 558 184 585 184 618 L184 618 Z " />
<glyph glyph-name="ae" unicode="&#xe6;" horiz-adv-x="759" d="M286 86 C263 65 232 46 201 46 C164 46 144 66 144 125 C144 188 186 222 286 256 L286 86 Z M734 252 C730 390 635 462 523 462 C472 462 434 448 398 424 C369 450 335 462 289 462 C172 462 26 392 26 320 C26 287 47 264 77 264 C129 264 146 292 158 365 C167 416 205 440 245 440 C275 440 286 422 286 389 L286 275 L171 230 C44 180 12 145 12 84 C12 14 62 -8 114 -8 C170 -8 246 16 329 106 C363 35 433 -8 523 -8 C688 -8 734 124 734 154 C734 158 731 161 728 161 C719 161 720 145 699 122 C671 91 638 70 577 70 C492 70 414 130 412 252 L734 252 Z M412 276 C414 382 456 444 522 444 C578 444 612 408 614 276 L412 276 Z " />
<glyph glyph-name="ccedilla" unicode="&#xe7;" horiz-adv-x="481" d="M33 218 C33 100 115 -8 257 -8 C415 -8 458 131 458 154 C458 158 456 162 450 162 C437 162 427 70 304 70 C226 70 147 140 147 288 C147 380 189 444 257 444 C303 444 335 418 337 369 C337 349 335 338 335 324 C333 275 350 248 392 248 C425 248 451 270 451 318 C451 386 381 462 265 462 C129 462 33 357 33 218 L33 218 Z M223 0 L181 -96 L193 -104 C201 -101 206 -100 221 -100 C247 -100 269 -116 269 -139 C269 -167 244 -180 209 -180 C186 -180 168 -174 149 -168 L133 -204 C161 -212 191 -218 225 -218 C301 -218 353 -190 353 -129 C353 -85 315 -62 268 -62 C256 -62 244 -62 233 -66 L265 0 L223 0 Z " />
<glyph glyph-name="egrave" unicode="&#xe8;" horiz-adv-x="500" d="M467 252 C463 390 368 462 256 462 C127 462 33 362 33 230 C33 88 121 -8 256 -8 C421 -8 467 124 467 154 C467 158 464 161 461 161 C452 161 453 145 432 122 C404 91 371 70 310 70 C227 70 149 130 147 252 L467 252 Z M147 276 C149 382 191 444 255 444 C311 444 345 408 347 276 L147 276 Z M342 514 L200 668 C181 688 165 694 148 694 C128 694 106 678 106 653 C106 638 114 625 138 610 L292 514 L342 514 Z " />
<glyph glyph-name="eacute" unicode="&#xe9;" horiz-adv-x="500" d="M467 252 C463 390 368 462 256 462 C127 462 33 362 33 230 C33 88 121 -8 256 -8 C421 -8 467 124 467 154 C467 158 464 161 461 161 C452 161 453 145 432 122 C404 91 371 70 310 70 C227 70 149 130 147 252 L467 252 Z M147 276 C149 382 191 444 255 444 C311 444 345 408 347 276 L147 276 Z M232 514 L386 610 C410 625 418 638 418 653 C418 678 396 694 376 694 C359 694 343 688 324 668 L182 514 L232 514 Z " />
<glyph glyph-name="ecircumflex" unicode="&#xea;" horiz-adv-x="500" d="M467 252 C463 390 368 462 256 462 C127 462 33 362 33 230 C33 88 121 -8 256 -8 C421 -8 467 124 467 154 C467 158 464 161 461 161 C452 161 453 145 432 122 C404 91 371 70 310 70 C227 70 149 130 147 252 L467 252 Z M147 276 C149 382 191 444 255 444 C311 444 345 408 347 276 L147 276 Z M224 688 L98 514 L148 514 L262 616 L376 514 L426 514 L302 688 L224 688 Z " />
<glyph glyph-name="edieresis" unicode="&#xeb;" horiz-adv-x="500" d="M467 252 C463 390 368 462 256 462 C127 462 33 362 33 230 C33 88 121 -8 256 -8 C421 -8 467 124 467 154 C467 158 464 161 461 161 C452 161 453 145 432 122 C404 91 371 70 310 70 C227 70 149 130 147 252 L467 252 Z M147 276 C149 382 191 444 255 444 C311 444 345 408 347 276 L147 276 Z M306 587 C306 555 332 528 365 528 C398 528 424 555 424 587 C424 619 398 646 365 646 C332 646 306 619 306 587 L306 587 Z M100 587 C100 555 126 528 159 528 C192 528 218 555 218 587 C218 619 192 646 159 646 C126 646 100 619 100 587 L100 587 Z " />
<glyph glyph-name="igrave" unicode="&#xec;" horiz-adv-x="296" d="M211 462 C45 409 5 421 5 402 C5 381 85 396 85 327 L85 80 C85 0 3 36 3 10 C3 3 5 -2 15 -2 C47 -2 95 0 148 0 C201 0 249 -2 281 -2 C291 -2 293 3 293 10 C293 36 211 0 211 80 L211 462 Z M228 514 L86 668 C67 688 51 694 34 694 C14 694 -8 678 -8 653 C-8 638 0 625 24 610 L178 514 L228 514 Z " />
<glyph glyph-name="iacute" unicode="&#xed;" horiz-adv-x="296" d="M211 462 C45 409 5 421 5 402 C5 381 85 396 85 327 L85 80 C85 0 3 36 3 10 C3 3 5 -2 15 -2 C47 -2 95 0 148 0 C201 0 249 -2 281 -2 C291 -2 293 3 293 10 C293 36 211 0 211 80 L211 462 Z M118 514 L272 610 C296 625 304 638 304 653 C304 678 282 694 262 694 C245 694 229 688 210 668 L68 514 L118 514 Z " />
<glyph glyph-name="icircumflex" unicode="&#xee;" horiz-adv-x="296" d="M211 462 C45 409 5 421 5 402 C5 381 85 396 85 327 L85 80 C85 0 3 36 3 10 C3 3 5 -2 15 -2 C47 -2 95 0 148 0 C201 0 249 -2 281 -2 C291 -2 293 3 293 10 C293 36 211 0 211 80 L211 462 Z M110 688 L-16 514 L34 514 L148 616 L262 514 L312 514 L188 688 L110 688 Z " />
<glyph glyph-name="idieresis" unicode="&#xef;" horiz-adv-x="296" d="M211 462 C45 409 5 421 5 402 C5 381 85 396 85 327 L85 80 C85 0 3 36 3 10 C3 3 5 -2 15 -2 C47 -2 95 0 148 0 C201 0 249 -2 281 -2 C291 -2 293 3 293 10 C293 36 211 0 211 80 L211 462 Z M192 587 C192 555 218 528 251 528 C284 528 310 555 310 587 C310 619 284 646 251 646 C218 646 192 619 192 587 L192 587 Z M-14 587 C-14 555 12 528 45 528 C78 528 104 555 104 587 C104 619 78 646 45 646 C12 646 -14 619 -14 587 L-14 587 Z " />
<glyph glyph-name="eth" unicode="&#xf0;" horiz-adv-x="574" d="M171 227 C171 396 223 444 287 444 C351 444 403 396 403 227 C403 58 351 10 287 10 C223 10 171 58 171 227 L171 227 Z M289 588 C318 553 351 498 363 452 C339 459 314 462 287 462 C135 462 29 354 29 227 C29 100 135 -8 287 -8 C422 -8 545 80 545 250 C545 413 457 543 357 627 L468 690 L468 730 L328 650 C257 701 178 730 132 730 C125 730 121 726 121 720 C121 704 163 719 258 623 C261 620 264 617 266 614 L146 546 L146 506 L289 588 Z " />
<glyph glyph-name="ntilde" unicode="&#xf1;" horiz-adv-x="593" d="M208 462 C42 413 12 425 12 406 C12 389 82 400 82 331 L82 80 C82 0 12 36 12 10 C12 3 14 -2 24 -2 C50 -2 92 0 145 0 C198 0 240 -2 266 -2 C276 -2 278 3 278 10 C278 36 208 0 208 80 L208 366 C252 396 284 414 320 414 C363 414 384 390 384 342 L384 80 C384 0 314 36 314 10 C314 3 316 -2 326 -2 C352 -2 394 0 447 0 C500 0 542 -2 568 -2 C578 -2 580 3 580 10 C580 36 510 0 510 80 L510 348 C510 426 458 462 395 462 C327 462 282 435 208 389 L208 462 Z M437 654 C425 620 405 606 382 606 C339 606 291 654 235 654 C181 654 131 616 121 536 L157 536 C161 564 185 584 211 584 C251 584 295 536 359 536 C409 536 449 562 473 654 L437 654 Z " />
<glyph glyph-name="ograve" unicode="&#xf2;" horiz-adv-x="574" d="M29 227 C29 100 135 -8 287 -8 C439 -8 545 100 545 227 C545 354 439 462 287 462 C135 462 29 354 29 227 L29 227 Z M171 227 C171 396 223 444 287 444 C351 444 403 396 403 227 C403 58 351 10 287 10 C223 10 171 58 171 227 L171 227 Z M367 514 L225 668 C206 688 190 694 173 694 C153 694 131 678 131 653 C131 638 139 625 163 610 L317 514 L367 514 Z " />
<glyph glyph-name="oacute" unicode="&#xf3;" horiz-adv-x="574" d="M29 227 C29 100 135 -8 287 -8 C439 -8 545 100 545 227 C545 354 439 462 287 462 C135 462 29 354 29 227 L29 227 Z M171 227 C171 396 223 444 287 444 C351 444 403 396 403 227 C403 58 351 10 287 10 C223 10 171 58 171 227 L171 227 Z M257 514 L411 610 C435 625 443 638 443 653 C443 678 421 694 401 694 C384 694 368 688 349 668 L207 514 L257 514 Z " />
<glyph glyph-name="ocircumflex" unicode="&#xf4;" horiz-adv-x="574" d="M29 227 C29 100 135 -8 287 -8 C439 -8 545 100 545 227 C545 354 439 462 287 462 C135 462 29 354 29 227 L29 227 Z M171 227 C171 396 223 444 287 444 C351 444 403 396 403 227 C403 58 351 10 287 10 C223 10 171 58 171 227 L171 227 Z M249 688 L123 514 L173 514 L287 616 L401 514 L451 514 L327 688 L249 688 Z " />
<glyph glyph-name="otilde" unicode="&#xf5;" horiz-adv-x="574" d="M29 227 C29 100 135 -8 287 -8 C439 -8 545 100 545 227 C545 354 439 462 287 462 C135 462 29 354 29 227 L29 227 Z M171 227 C171 396 223 444 287 444 C351 444 403 396 403 227 C403 58 351 10 287 10 C223 10 171 58 171 227 L171 227 Z M427 654 C415 620 395 606 372 606 C329 606 281 654 225 654 C171 654 121 616 111 536 L147 536 C151 564 175 584 201 584 C241 584 285 536 349 536 C399 536 439 562 463 654 L427 654 Z " />
<glyph glyph-name="odieresis" unicode="&#xf6;" horiz-adv-x="574" d="M29 227 C29 100 135 -8 287 -8 C439 -8 545 100 545 227 C545 354 439 462 287 462 C135 462 29 354 29 227 L29 227 Z M171 227 C171 396 223 444 287 444 C351 444 403 396 403 227 C403 58 351 10 287 10 C223 10 171 58 171 227 L171 227 Z M331 587 C331 555 357 528 390 528 C423 528 449 555 449 587 C449 619 423 646 390 646 C357 646 331 619 331 587 L331 587 Z M125 587 C125 555 151 528 184 528 C217 528 243 555 243 587 C243 619 217 646 184 646 C151 646 125 619 125 587 L125 587 Z " />
<glyph glyph-name="divide" unicode="&#xf7;" horiz-adv-x="600" d="M527 176 L527 278 L73 278 L73 176 L527 176 Z M228 416 C228 375 261 343 301 343 C342 343 374 375 374 416 C374 456 342 489 301 489 C261 489 228 456 228 416 L228 416 Z M228 38 C228 -3 261 -35 301 -35 C342 -35 374 -3 374 38 C374 78 342 111 301 111 C261 111 228 78 228 38 L228 38 Z " />
<glyph glyph-name="oslash" unicode="&#xf8;" horiz-adv-x="574" d="M187 96 C177 127 171 170 171 227 C171 396 223 444 287 444 C317 444 343 434 365 405 L187 96 Z M386 362 C397 330 403 286 403 227 C403 58 351 10 287 10 C256 10 228 21 208 52 L386 362 Z M184 11 C214 -2 249 -8 287 -8 C439 -8 545 100 545 227 C545 311 499 386 423 427 L471 510 L425 510 L387 444 C357 456 324 462 287 462 C135 462 29 354 29 227 C29 145 73 70 148 28 L89 -74 L135 -74 L184 11 Z " />
<glyph glyph-name="ugrave" unicode="&#xf9;" horiz-adv-x="593" d="M510 462 C344 413 314 425 314 406 C314 389 384 400 384 331 L384 98 C353 61 316 40 275 40 C227 40 208 60 208 108 L208 462 C42 413 12 425 12 406 C12 389 82 400 82 331 L82 102 C82 30 117 -8 203 -8 C288 -8 334 26 384 70 L384 -8 C550 41 580 29 580 48 C580 65 510 54 510 123 L510 462 Z M377 514 L235 668 C216 688 200 694 183 694 C163 694 141 678 141 653 C141 638 149 625 173 610 L327 514 L377 514 Z " />
<glyph glyph-name="uacute" unicode="&#xfa;" horiz-adv-x="593" d="M510 462 C344 413 314 425 314 406 C314 389 384 400 384 331 L384 98 C353 61 316 40 275 40 C227 40 208 60 208 108 L208 462 C42 413 12 425 12 406 C12 389 82 400 82 331 L82 102 C82 30 117 -8 203 -8 C288 -8 334 26 384 70 L384 -8 C550 41 580 29 580 48 C580 65 510 54 510 123 L510 462 Z M267 514 L421 610 C445 625 453 638 453 653 C453 678 431 694 411 694 C394 694 378 688 359 668 L217 514 L267 514 Z " />
<glyph glyph-name="ucircumflex" unicode="&#xfb;" horiz-adv-x="593" d="M510 462 C344 413 314 425 314 406 C314 389 384 400 384 331 L384 98 C353 61 316 40 275 40 C227 40 208 60 208 108 L208 462 C42 413 12 425 12 406 C12 389 82 400 82 331 L82 102 C82 30 117 -8 203 -8 C288 -8 334 26 384 70 L384 -8 C550 41 580 29 580 48 C580 65 510 54 510 123 L510 462 Z M259 688 L133 514 L183 514 L297 616 L411 514 L461 514 L337 688 L259 688 Z " />
<glyph glyph-name="udieresis" unicode="&#xfc;" horiz-adv-x="593" d="M510 462 C344 413 314 425 314 406 C314 389 384 400 384 331 L384 98 C353 61 316 40 275 40 C227 40 208 60 208 108 L208 462 C42 413 12 425 12 406 C12 389 82 400 82 331 L82 102 C82 30 117 -8 203 -8 C288 -8 334 26 384 70 L384 -8 C550 41 580 29 580 48 C580 65 510 54 510 123 L510 462 Z M341 587 C341 555 367 528 400 528 C433 528 459 555 459 587 C459 619 433 646 400 646 C367 646 341 619 341 587 L341 587 Z M135 587 C135 555 161 528 194 528 C227 528 253 555 253 587 C253 619 227 646 194 646 C161 646 135 619 135 587 L135 587 Z " />
<glyph glyph-name="yacute" unicode="&#xfd;" horiz-adv-x="500" d="M244 -6 L200 -115 C194 -131 188 -140 178 -140 C168 -140 168 -132 157 -115 C145 -97 129 -86 107 -86 C71 -86 50 -110 50 -147 C50 -184 81 -212 118 -212 C158 -212 186 -189 207 -140 L400 307 C428 372 456 409 477 423 C502 442 516 434 516 448 C516 453 512 456 506 456 C476 456 446 454 416 454 C386 454 356 456 326 456 C318 456 314 452 314 446 C314 426 384 451 384 366 C384 336 375 302 365 277 L310 148 L214 366 C208 380 200 398 200 406 C200 443 244 433 244 447 C244 452 240 456 232 456 C196 456 159 454 123 454 C87 454 50 456 12 456 C1 456 -4 452 -4 447 C-4 423 38 453 71 380 L244 -6 Z M220 514 L374 610 C398 625 406 638 406 653 C406 678 384 694 364 694 C347 694 331 688 312 668 L170 514 L220 514 Z " />
<glyph glyph-name="thorn" unicode="&#xfe;" horiz-adv-x="593" d="M205 730 C39 677 -1 689 -1 670 C-1 649 79 664 79 595 L79 -112 C79 -192 -3 -156 -3 -182 C-3 -189 -1 -194 9 -194 C41 -194 89 -192 142 -192 C195 -192 243 -194 275 -194 C285 -194 287 -189 287 -182 C287 -156 205 -192 205 -112 L205 8 C240 -2 267 -8 304 -8 C459 -8 564 109 564 242 C564 354 488 462 376 462 C305 462 244 423 207 379 L205 380 L205 730 Z M205 354 C226 379 257 402 290 402 C367 402 432 326 432 204 C432 66 373 10 299 10 C243 10 205 55 205 116 L205 354 Z " />
<glyph glyph-name="ydieresis" unicode="&#xff;" horiz-adv-x="500" d="M244 -6 L200 -115 C194 -131 188 -140 178 -140 C168 -140 168 -132 157 -115 C145 -97 129 -86 107 -86 C71 -86 50 -110 50 -147 C50 -184 81 -212 118 -212 C158 -212 186 -189 207 -140 L400 307 C428 372 456 409 477 423 C502 442 516 434 516 448 C516 453 512 456 506 456 C476 456 446 454 416 454 C386 454 356 456 326 456 C318 456 314 452 314 446 C314 426 384 451 384 366 C384 336 375 302 365 277 L310 148 L214 366 C208 380 200 398 200 406 C200 443 244 433 244 447 C244 452 240 456 232 456 C196 456 159 454 123 454 C87 454 50 456 12 456 C1 456 -4 452 -4 447 C-4 423 38 453 71 380 L244 -6 Z M300 587 C300 555 326 528 359 528 C392 528 418 555 418 587 C418 619 392 646 359 646 C326 646 300 619 300 587 L300 587 Z M94 587 C94 555 120 528 153 528 C186 528 212 555 212 587 C212 619 186 646 153 646 C120 646 94 619 94 587 L94 587 Z " />
<glyph glyph-name="dotlessi" unicode="&#x131;" horiz-adv-x="296" d="M211 462 C45 409 5 421 5 402 C5 381 85 396 85 327 L85 80 C85 0 3 36 3 10 C3 3 5 -2 15 -2 C47 -2 95 0 148 0 C201 0 249 -2 281 -2 C291 -2 293 3 293 10 C293 36 211 0 211 80 L211 462 Z " />
<glyph glyph-name="Lslash" unicode="&#x141;" horiz-adv-x="630" d="M458 434 L458 480 L258 398 L258 598 C258 678 344 639 344 667 C344 675 340 680 324 680 C273 680 225 678 185 678 C145 678 97 680 46 680 C30 680 26 675 26 667 C26 639 112 678 112 598 L112 338 L0 292 L0 248 L112 294 L112 80 C112 0 26 39 26 11 C26 3 30 -2 46 -2 C97 -2 145 0 185 0 C324 0 457 -1 562 -2 L606 220 C608 231 610 243 610 249 C610 255 607 260 600 260 C591 260 590 251 584 232 C547 116 458 22 340 22 C276 22 258 46 258 92 L258 353 L458 434 Z " />
<glyph glyph-name="lslash" unicode="&#x142;" horiz-adv-x="296" d="M312 452 L312 496 L211 443 L211 730 C45 677 5 689 5 670 C5 649 85 664 85 595 L85 377 L-16 324 L-16 280 L85 333 L85 80 C85 0 3 36 3 10 C3 3 5 -2 15 -2 C47 -2 95 0 148 0 C201 0 249 -2 281 -2 C291 -2 293 3 293 10 C293 36 211 0 211 80 L211 399 L312 452 Z " />
<glyph glyph-name="OE" unicode="&#x152;" horiz-adv-x="1130" d="M596 -2 C679 -1 758 0 837 0 C916 0 995 -1 1073 -2 L1117 220 C1119 231 1121 243 1121 249 C1121 255 1118 260 1111 260 C1102 260 1101 251 1095 232 C1064 133 980 22 824 22 C760 22 742 46 742 92 L742 344 L767 344 C837 344 888 297 892 208 C893 188 896 183 906 183 C912 183 916 188 916 197 L916 503 C916 512 912 517 906 517 C896 517 893 512 892 492 C888 420 837 368 767 368 L742 368 L742 656 L796 656 C916 656 981 615 1028 537 C1067 472 1066 455 1075 455 C1082 455 1085 458 1085 463 C1085 466 1083 474 1079 489 L1029 680 C953 679 883 678 812 678 C741 678 671 679 596 680 L596 638 C529 670 484 694 396 694 C176 694 28 526 28 339 C28 152 176 -16 396 -16 C484 -16 529 8 596 40 L596 -2 Z M192 339 C192 550 272 670 396 670 C506 670 596 590 596 339 C592 88 506 8 396 8 C272 8 192 128 192 339 L192 339 Z " />
<glyph glyph-name="oe" unicode="&#x153;" horiz-adv-x="889" d="M171 227 C171 396 223 444 293 444 C357 444 416 396 416 227 C416 58 357 10 293 10 C223 10 171 58 171 227 L171 227 Z M856 252 C852 390 757 462 645 462 C582 462 521 435 481 390 C436 434 370 462 293 462 C135 462 29 354 29 227 C29 100 135 -8 293 -8 C369 -8 433 19 479 63 C517 18 575 -8 645 -8 C810 -8 856 124 856 154 C856 158 853 161 850 161 C841 161 842 145 821 122 C793 91 760 70 699 70 C616 70 538 130 536 252 L856 252 Z M536 276 C538 382 580 444 644 444 C700 444 734 408 736 276 L536 276 Z " />
<glyph glyph-name="Scaron" unicode="&#x160;" horiz-adv-x="593" d="M52 5 C52 -2 55 -4 60 -4 C77 -4 71 30 110 30 C149 30 196 -16 295 -16 C446 -16 558 86 558 219 C558 490 152 399 152 563 C152 639 208 670 279 670 C390 670 444 604 488 493 C504 453 505 432 515 432 C520 432 523 435 523 442 C523 447 522 456 520 475 L502 664 C501 679 497 682 490 682 C472 682 487 654 452 654 C424 654 374 694 280 694 C156 694 56 606 56 488 C56 240 456 339 456 137 C456 60 398 8 296 8 C150 8 100 135 76 262 C72 283 72 298 62 298 C56 298 52 295 52 283 L52 5 Z M331 721 L455 895 L405 895 L291 793 L177 895 L127 895 L253 721 L331 721 Z " />
<glyph glyph-name="scaron" unicode="&#x161;" horiz-adv-x="426" d="M40 21 C99 0 161 -8 209 -8 C320 -8 400 48 400 154 C400 322 132 282 132 382 C132 424 161 444 202 444 C274 444 308 395 331 353 C349 320 350 302 358 302 C362 302 364 305 364 309 L364 424 C335 443 273 462 215 462 C106 462 42 398 42 328 C42 155 310 198 310 85 C310 40 281 10 219 10 C137 10 97 77 71 133 C55 167 57 178 48 178 C44 178 40 176 40 169 L40 21 Z M253 514 L377 688 L327 688 L213 586 L99 688 L49 688 L175 514 L253 514 Z " />
<glyph glyph-name="Ydieresis" unicode="&#x178;" horiz-adv-x="630" d="M258 561 C246 584 240 600 240 617 C240 673 303 649 303 670 C303 677 296 680 281 680 C234 680 188 678 141 678 C94 678 48 680 -1 680 C-12 680 -18 676 -18 669 C-18 648 38 674 81 595 L242 302 L242 80 C242 0 156 39 156 11 C156 3 160 -2 176 -2 C227 -2 275 0 315 0 C355 0 403 -2 454 -2 C470 -2 474 3 474 11 C474 39 388 0 388 80 L388 321 L506 518 C602 677 648 650 648 670 C648 676 644 680 637 680 C607 680 575 678 544 678 C504 678 480 680 448 680 C434 680 428 675 428 669 C428 653 490 663 490 596 C490 569 480 524 454 478 L376 340 L258 561 Z M371 794 C371 762 397 735 430 735 C463 735 489 762 489 794 C489 826 463 853 430 853 C397 853 371 826 371 794 L371 794 Z M165 794 C165 762 191 735 224 735 C257 735 283 762 283 794 C283 826 257 853 224 853 C191 853 165 826 165 794 L165 794 Z " />
<glyph glyph-name="Zcaron" unicode="&#x17d;" horiz-adv-x="593" d="M184 22 L549 642 C557 656 564 667 564 672 C564 677 561 680 548 680 C472 680 399 678 325 678 C251 678 178 680 106 680 L56 489 C52 474 50 466 50 463 C50 458 52 455 58 455 C71 455 63 467 106 537 C154 615 225 656 336 656 L396 656 L23 31 C16 19 12 12 12 7 C12 3 16 -2 24 -2 C106 -2 188 0 270 0 C352 0 434 -1 514 -2 L555 209 C559 228 562 243 562 249 C562 257 557 260 553 260 C536 260 536 200 493 137 C449 75 380 22 266 22 L184 22 Z M349 721 L473 895 L423 895 L309 793 L195 895 L145 895 L271 721 L349 721 Z " />
<glyph glyph-name="zcaron" unicode="&#x17e;" horiz-adv-x="500" d="M298 438 L16 -2 C82 -1 149 0 215 0 C281 0 348 -1 414 -2 L454 196 C458 215 460 227 460 232 C460 235 458 238 453 238 C441 238 443 214 419 168 C373 81 289 16 184 16 L176 16 L460 456 C393 455 331 454 270 454 C209 454 148 455 86 456 L47 304 C43 286 40 275 40 270 C40 267 41 264 46 264 C60 264 49 286 98 345 C143 400 211 434 290 438 L298 438 Z M296 514 L420 688 L370 688 L256 586 L142 688 L92 688 L218 514 L296 514 Z " />
<glyph glyph-name="florin" unicode="&#x192;" horiz-adv-x="593" d="M492 454 L390 454 C398 662 418 710 470 710 C492 710 503 701 510 660 C516 627 532 612 562 612 C596 612 624 640 624 676 C624 716 580 752 536 752 C368 752 296 468 192 400 L256 400 C188 140 242 -158 148 -158 C99 -158 122 -80 49 -80 C14 -80 -10 -103 -10 -139 C-10 -184 18 -212 75 -212 C275 -212 360 267 382 400 L474 400 L492 454 Z " />
<glyph glyph-name="circumflex" unicode="&#x2c6;" horiz-adv-x="296" d="M110 688 L-16 514 L34 514 L148 616 L262 514 L312 514 L188 688 L110 688 Z " />
<glyph glyph-name="caron" unicode="&#x2c7;" horiz-adv-x="296" d="M188 514 L312 688 L262 688 L148 586 L34 688 L-16 688 L110 514 L188 514 Z " />
<glyph glyph-name="breve" unicode="&#x2d8;" horiz-adv-x="296" d="M256 678 C254 626 212 584 148 584 C78 584 42 626 40 678 L0 678 C0 588 44 514 148 514 C232 514 296 588 296 678 L256 678 Z " />
<glyph glyph-name="dotaccent" unicode="&#x2d9;" horiz-adv-x="296" d="M89 587 C89 555 115 528 148 528 C181 528 207 555 207 587 C207 619 181 646 148 646 C115 646 89 619 89 587 L89 587 Z " />
<glyph glyph-name="ring" unicode="&#x2da;" horiz-adv-x="296" d="M46 618 C46 560 89 516 148 516 C207 516 250 560 250 618 C250 676 207 720 148 720 C89 720 46 676 46 618 L46 618 Z M88 618 C88 651 115 678 148 678 C181 678 208 651 208 618 C208 585 181 558 148 558 C115 558 88 585 88 618 L88 618 Z " />
<glyph glyph-name="ogonek" unicode="&#x2db;" horiz-adv-x="296" d="M258 20 C106 -6 25 -54 25 -130 C25 -172 64 -218 126 -218 C185 -218 231 -186 278 -156 L260 -124 C230 -143 196 -164 158 -164 C133 -164 109 -143 109 -115 C109 -68 174 -18 258 8 L258 20 Z " />
<glyph glyph-name="tilde" unicode="&#x2dc;" horiz-adv-x="296" d="M288 654 C276 620 256 606 233 606 C190 606 142 654 86 654 C32 654 -18 616 -28 536 L8 536 C12 564 36 584 62 584 C102 584 146 536 210 536 C260 536 300 562 324 654 L288 654 Z " />
<glyph glyph-name="hungarumlaut" unicode="&#x2dd;" horiz-adv-x="296" d="M38 514 L184 610 C208 625 216 638 216 653 C216 678 194 694 174 694 C157 694 144 686 127 667 L-8 514 L38 514 Z M198 514 L352 610 C376 625 384 638 384 653 C384 678 362 694 342 694 C325 694 309 688 290 668 L148 514 L198 514 Z " />
<glyph glyph-name="endash" unicode="&#x2013;" horiz-adv-x="500" d="M0 188 L500 188 L500 266 L0 266 L0 188 Z " />
<glyph glyph-name="emdash" unicode="&#x2014;" horiz-adv-x="1000" d="M0 188 L1000 188 L1000 266 L0 266 L0 188 Z " />
<glyph glyph-name="quoteleft" unicode="&#x2018;" horiz-adv-x="241" d="M41 576 C41 509 82 470 128 470 C172 470 201 499 201 545 C201 594 170 616 130 616 C123 616 116 615 109 614 C103 613 96 611 89 610 C90 653 103 676 126 699 C151 724 162 725 162 732 C162 735 160 738 156 738 C137 738 41 674 41 576 L41 576 Z " />
<glyph glyph-name="quoteright" unicode="&#x2019;" horiz-adv-x="241" d="M200 624 C200 691 159 730 113 730 C69 730 40 701 40 655 C40 606 71 584 111 584 C118 584 125 585 132 586 C138 587 145 589 152 590 C151 547 138 524 115 501 C90 476 79 475 79 468 C79 465 81 462 85 462 C104 462 200 526 200 624 L200 624 Z " />
<glyph glyph-name="quotesinglbase" unicode="&#x201a;" horiz-adv-x="241" d="M200 32 C200 99 159 138 113 138 C69 138 40 109 40 63 C40 14 71 -8 111 -8 C118 -8 125 -7 132 -6 C138 -5 145 -3 152 -2 C151 -45 138 -68 115 -91 C90 -116 79 -117 79 -124 C79 -127 81 -130 85 -130 C104 -130 200 -66 200 32 L200 32 Z " />
<glyph glyph-name="quotedblleft" unicode="&#x201c;" horiz-adv-x="444" d="M31 576 C31 509 72 470 118 470 C162 470 191 499 191 545 C191 594 160 616 120 616 C113 616 106 615 99 614 C93 613 86 611 79 610 C80 653 93 676 116 699 C141 724 152 725 152 732 C152 735 150 738 146 738 C127 738 31 674 31 576 L31 576 Z M254 576 C254 509 295 470 341 470 C385 470 414 499 414 545 C414 594 383 616 343 616 C336 616 329 615 322 614 C316 613 309 611 302 610 C303 653 316 676 339 699 C364 724 375 725 375 732 C375 735 373 738 369 738 C350 738 254 674 254 576 L254 576 Z " />
<glyph glyph-name="quotedblright" unicode="&#x201d;" horiz-adv-x="444" d="M413 624 C413 691 372 730 326 730 C282 730 253 701 253 655 C253 606 284 584 324 584 C331 584 338 585 345 586 C351 587 358 589 365 590 C364 547 351 524 328 501 C303 476 292 475 292 468 C292 465 294 462 298 462 C317 462 413 526 413 624 L413 624 Z M190 624 C190 691 149 730 103 730 C59 730 30 701 30 655 C30 606 61 584 101 584 C108 584 115 585 122 586 C128 587 135 589 142 590 C141 547 128 524 105 501 C80 476 69 475 69 468 C69 465 71 462 75 462 C94 462 190 526 190 624 L190 624 Z " />
<glyph glyph-name="quotedblbase" unicode="&#x201e;" horiz-adv-x="444" d="M413 32 C413 99 372 138 326 138 C282 138 253 109 253 63 C253 14 284 -8 324 -8 C331 -8 338 -7 345 -6 C351 -5 358 -3 365 -2 C364 -45 351 -68 328 -91 C303 -116 292 -117 292 -124 C292 -127 294 -130 298 -130 C317 -130 413 -66 413 32 L413 32 Z M190 32 C190 99 149 138 103 138 C59 138 30 109 30 63 C30 14 61 -8 101 -8 C108 -8 115 -7 122 -6 C128 -5 135 -3 142 -2 C141 -45 128 -68 105 -91 C80 -116 69 -117 69 -124 C69 -127 71 -130 75 -130 C94 -130 190 -66 190 32 L190 32 Z " />
<glyph glyph-name="dagger" unicode="&#x2020;" horiz-adv-x="500" d="M268 -106 C268 196 282 290 314 320 C288 344 268 394 268 419 C268 434 275 446 291 446 C302 446 319 436 339 425 C358 415 380 404 399 404 C436 404 458 422 458 464 C458 501 434 524 396 524 C354 524 321 482 285 482 C274 482 268 488 268 499 C268 534 316 574 316 628 C316 670 286 694 250 694 C214 694 184 670 184 628 C184 574 232 534 232 499 C232 488 226 482 215 482 C197 482 180 493 162 503 C144 514 125 524 104 524 C66 524 42 501 42 464 C42 422 64 404 101 404 C121 404 142 415 161 425 C181 436 198 446 209 446 C225 446 232 434 232 419 C232 394 212 344 186 320 C218 290 232 196 232 -106 L268 -106 Z " />
<glyph glyph-name="daggerdbl" unicode="&#x2021;" horiz-adv-x="500" d="M278 285 C278 313 286 331 302 355 C284 373 268 398 268 422 C268 434 275 446 291 446 C302 446 319 436 339 425 C358 415 380 404 399 404 C436 404 458 422 458 464 C458 501 434 524 396 524 C354 524 321 482 285 482 C274 482 268 488 268 499 C268 534 316 574 316 628 C316 670 286 694 250 694 C214 694 184 670 184 628 C184 574 232 534 232 499 C232 488 226 482 215 482 C197 482 180 493 162 503 C144 514 125 524 104 524 C66 524 42 501 42 464 C42 422 64 404 101 404 C121 404 142 415 161 425 C181 436 198 446 209 446 C225 446 232 434 232 422 C232 398 216 373 198 355 C214 331 222 313 222 285 C222 257 214 239 198 215 C216 197 232 172 232 148 C232 136 225 124 209 124 C187 124 140 166 101 166 C64 166 42 148 42 106 C42 69 66 46 104 46 C146 46 179 88 215 88 C226 88 232 82 232 71 C232 36 184 -4 184 -58 C184 -100 214 -124 250 -124 C286 -124 316 -100 316 -58 C316 -4 268 36 268 71 C268 82 274 88 285 88 C321 88 354 46 396 46 C434 46 458 69 458 106 C458 148 436 166 399 166 C360 166 313 124 291 124 C275 124 268 136 268 148 C268 172 284 197 302 215 C286 239 278 257 278 285 L278 285 Z " />
<glyph glyph-name="bullet" unicode="&#x2022;" horiz-adv-x="500" d="M81 339 C81 246 157 170 250 170 C343 170 419 246 419 339 C419 432 343 508 250 508 C157 508 81 432 81 339 L81 339 Z " />
<glyph glyph-name="ellipsis" unicode="&#x2026;" horiz-adv-x="1000" d="M93 65 C93 24 126 -8 166 -8 C207 -8 239 24 239 65 C239 105 207 138 166 138 C126 138 93 105 93 65 L93 65 Z M427 65 C427 24 460 -8 500 -8 C541 -8 573 24 573 65 C573 105 541 138 500 138 C460 138 427 105 427 65 L427 65 Z M761 65 C761 24 794 -8 834 -8 C875 -8 907 24 907 65 C907 105 875 138 834 138 C794 138 761 105 761 65 L761 65 Z " />
<glyph glyph-name="perthousand" unicode="&#x2030;" horiz-adv-x="1167" d="M899 186 C899 326 933 362 973 362 C1013 362 1047 326 1047 186 C1047 46 1013 10 973 10 C933 10 899 46 899 186 L899 186 Z M803 186 C803 58 883 -8 973 -8 C1063 -8 1143 58 1143 186 C1143 314 1063 380 973 380 C883 380 803 314 803 186 L803 186 Z M119 492 C119 632 153 668 193 668 C233 668 267 632 267 492 C267 352 233 316 193 316 C153 316 119 352 119 492 L119 492 Z M23 492 C23 364 103 298 193 298 C283 298 363 364 363 492 C363 620 283 686 193 686 C103 686 23 620 23 492 L23 492 Z M429 186 C429 58 509 -8 599 -8 C689 -8 769 58 769 186 C769 314 689 380 599 380 C509 380 429 314 429 186 L429 186 Z M525 186 C525 326 559 362 599 362 C639 362 673 326 673 186 C673 46 639 10 599 10 C559 10 525 46 525 186 L525 186 Z M569 686 L159 -8 L215 -8 L625 686 L569 686 Z " />
<glyph glyph-name="guilsinglleft" unicode="&#x2039;" horiz-adv-x="333" d="M260 390 C266 399 270 405 270 410 C270 414 267 418 262 418 C256 418 248 410 237 400 L81 251 C70 240 64 234 64 227 C64 220 70 214 81 203 L237 54 C248 44 256 36 262 36 C267 36 270 40 270 44 C270 49 266 55 260 64 L158 227 L260 390 Z " />
<glyph glyph-name="guilsinglright" unicode="&#x203a;" horiz-adv-x="333" d="M73 64 C67 55 63 49 63 44 C63 40 66 36 71 36 C77 36 85 44 96 54 L252 203 C263 214 269 220 269 227 C269 234 263 240 252 251 L96 400 C85 410 77 418 71 418 C66 418 63 414 63 410 C63 405 67 399 73 390 L175 227 L73 64 Z " />
<glyph glyph-name="fraction" unicode="&#x2044;" horiz-adv-x="167" d="M-83 -8 L334 686 L250 686 L-167 -8 L-83 -8 Z " />
<glyph glyph-name="trademark" unicode="&#x2122;" horiz-adv-x="1000" d="M252 654 L295 654 C334 654 351 625 358 592 L382 592 L382 678 L16 678 L16 592 L40 592 C47 625 65 654 102 654 L146 654 L146 349 C146 315 146 309 96 306 L96 282 L302 282 L302 306 C252 309 252 315 252 349 L252 654 Z M654 282 L668 282 L809 561 L811 561 L811 349 C811 315 811 309 761 306 L761 282 L966 282 L966 306 C916 309 917 315 917 349 L917 611 C917 640 920 652 968 654 L968 678 L837 678 L699 408 L568 678 L420 678 L420 654 C449 654 475 634 489 602 L489 376 C489 323 487 309 439 306 L439 282 L571 282 L571 306 C523 309 521 323 521 376 L521 560 L523 560 L654 282 Z " />
<glyph glyph-name="minus" unicode="&#x2212;" horiz-adv-x="600" d="M527 176 L527 278 L73 278 L73 176 L527 176 Z " />
<glyph glyph-name="fi" unicode="&#xfb01;" horiz-adv-x="611" d="M90 406 L90 80 C90 0 20 36 20 10 C20 3 22 -2 32 -2 C58 -2 100 0 153 0 C206 0 248 -2 274 -2 C284 -2 286 3 286 10 C286 36 216 0 216 80 L216 406 L366 406 C388 406 400 392 400 366 L400 80 C400 0 330 36 330 10 C330 3 332 -2 342 -2 C368 -2 410 0 463 0 C516 0 558 -2 584 -2 C594 -2 596 3 596 10 C596 36 526 0 526 80 L526 462 C499 458 440 454 404 454 L216 454 L216 580 C216 686 252 728 308 728 C334 728 352 714 352 694 C352 676 344 660 344 637 C344 599 368 576 410 576 C440 576 470 604 470 640 C470 702 418 752 334 752 C112 752 160 516 28 406 L90 406 Z " />
<glyph glyph-name="fl" unicode="&#xfb02;" horiz-adv-x="611" d="M90 406 L90 80 C90 0 20 36 20 10 C20 3 22 -2 32 -2 C58 -2 100 0 153 0 C206 0 248 -2 274 -2 C284 -2 286 3 286 10 C286 36 216 0 216 80 L216 406 L312 406 L326 454 L216 454 L216 580 C216 686 252 728 308 728 C334 728 352 714 352 694 C352 676 344 660 344 637 C344 599 368 576 400 576 L400 80 C400 0 330 36 330 10 C330 3 332 -2 342 -2 C368 -2 410 0 463 0 C516 0 558 -2 584 -2 C594 -2 596 3 596 10 C596 36 526 0 526 80 L526 730 L454 700 C418 736 380 752 330 752 C112 752 156 512 28 406 L90 406 Z " />
</font>
</svg>
