<?xml version="1.0" encoding="UTF-8"?>
<svg xmlns="http://www.w3.org/2000/svg" xmlns:xlink="http://www.w3.org/1999/xlink" version="1.2" >
<font id="ITC Caslon 224 Book Italic">
<font-face  font-family="ITC Caslon 224" units-per-em="1000" ascent="729.98" descent="-193.848" font-style="italic" font-weight="400" font-stretch="normal" slope="-13" cap-height="750" x-height="500" underline-position="-75" underline-thickness="50" />
<missing-glyph  horiz-adv-x="278" d="" />
<glyph glyph-name="NULL" d="" />
<glyph glyph-name="CR" unicode="&#xd;" horiz-adv-x="250" d="" />
<glyph glyph-name="space" unicode="&#x20;" horiz-adv-x="278" d="" />
<glyph glyph-name="exclam" unicode="&#x21;" horiz-adv-x="370" d="M143 192 C154 192 153 198 174 272 C229 461 300 559 300 640 C300 679 283 694 255 694 C201 694 170 636 165 505 C153 242 133 236 133 203 C133 197 136 192 143 192 L143 192 Z M120 104 C84 104 56 78 56 36 C56 8 78 -8 104 -8 C140 -8 168 18 168 60 C168 88 146 104 120 104 L120 104 Z " />
<glyph glyph-name="quotedbl" unicode="&#x22;" horiz-adv-x="333" d="M86 409 C87 401 87 378 102 378 C117 378 117 401 118 409 L135 613 C137 638 141 694 102 694 C63 694 67 638 69 613 L86 409 Z M232 409 C233 401 233 378 248 378 C263 378 263 401 264 409 L281 613 C283 638 287 694 248 694 C209 694 213 638 215 613 L232 409 Z " />
<glyph glyph-name="numbersign" unicode="&#x23;" horiz-adv-x="556" d="M44 412 L150 412 L130 266 L16 266 L16 212 L122 212 L92 0 L154 0 L184 212 L310 212 L280 0 L342 0 L372 212 L476 212 L476 266 L380 266 L400 412 L504 412 L504 466 L408 466 L438 678 L376 678 L346 466 L220 466 L250 678 L188 678 L158 466 L44 466 L44 412 Z M212 412 L338 412 L318 266 L192 266 L212 412 Z " />
<glyph glyph-name="dollar" unicode="&#x24;" horiz-adv-x="556" d="M459 541 C484 475 477 410 491 410 C503 410 500 414 521 593 C527 639 534 639 583 716 L558 716 C528 676 502 620 474 620 C462 620 449 628 436 634 L492 716 L468 716 L417 641 C387 653 351 662 311 662 C209 662 108 586 108 483 C108 421 138 377 209 346 L83 171 C67 284 83 308 66 308 C39 308 63 104 -78 -68 L-52 -68 C-13 -14 14 54 60 54 C70 54 80 52 91 50 L13 -68 L38 -68 L111 42 C145 30 200 11 241 11 C375 11 484 106 484 213 C484 308 412 350 347 376 L459 541 Z M295 305 C355 281 402 249 402 185 C402 90 340 35 242 35 C204 35 162 46 135 76 L295 305 Z M258 417 C217 441 184 465 184 516 C184 566 221 644 313 644 C340 644 378 635 400 618 L258 417 Z M228 336 C244 328 258 322 275 313 L120 92 C107 106 97 121 90 146 L228 336 Z M329 384 C295 397 310 392 276 408 L416 605 C430 593 444 574 450 559 L329 384 Z " />
<glyph glyph-name="percent" unicode="&#x25;" horiz-adv-x="741" d="M231 686 C119 686 48 573 48 449 C48 364 98 320 166 320 C281 320 352 432 352 553 C352 644 293 686 231 686 L231 686 Z M234 668 C266 668 280 656 280 610 C280 514 236 338 166 338 C134 338 120 350 120 396 C120 492 164 668 234 668 L234 668 Z M537 358 C425 358 354 245 354 121 C354 36 404 -8 472 -8 C587 -8 658 104 658 225 C658 316 599 358 537 358 L537 358 Z M540 340 C572 340 586 328 586 282 C586 186 542 10 472 10 C440 10 426 22 426 68 C426 164 470 340 540 340 L540 340 Z M652 686 L24 -8 L71 -8 L698 686 L652 686 Z " />
<glyph glyph-name="ampersand" unicode="&#x26;" horiz-adv-x="759" d="M92 190 C92 281 129 347 195 362 C253 306 334 231 397 83 C364 56 311 22 239 22 C165 22 92 90 92 190 L92 190 Z M325 670 C383 670 419 635 419 574 C419 491 378 438 296 406 C249 442 212 492 212 558 C212 626 269 670 325 670 L325 670 Z M327 694 C201 694 132 582 132 506 C132 449 160 408 180 381 C67 354 -8 272 -8 167 C-8 57 82 -16 199 -16 C283 -16 351 14 411 62 C430 22 473 -16 535 -16 C630 -16 686 84 686 101 C686 106 683 110 678 110 C664 110 642 32 580 32 C523 32 499 86 480 138 C552 237 592 288 628 335 C672 395 735 378 735 400 C735 408 729 410 717 410 C689 410 654 406 613 406 C574 406 537 410 513 410 C505 410 498 408 498 400 C498 373 561 405 561 340 C561 282 520 232 470 166 C428 265 385 320 313 390 C397 422 471 461 471 554 C471 614 433 694 327 694 L327 694 Z " />
<glyph glyph-name="quotesingle" unicode="&#x27;" horiz-adv-x="222" d="M104 409 C105 401 105 378 120 378 C135 378 135 401 136 409 L153 613 C155 638 159 694 120 694 C81 694 85 638 87 613 L104 409 Z " />
<glyph glyph-name="parenleft" unicode="&#x28;" horiz-adv-x="407" d="M140 114 C140 313 231 562 342 657 C410 714 455 708 455 723 C455 728 453 730 447 730 C384 730 58 583 58 176 C58 -115 258 -194 274 -194 C281 -194 286 -194 286 -188 C286 -165 140 -167 140 114 L140 114 Z " />
<glyph glyph-name="parenright" unicode="&#x29;" horiz-adv-x="407" d="M220 422 C220 223 129 -26 18 -121 C-50 -178 -95 -172 -95 -187 C-95 -192 -93 -194 -87 -194 C-24 -194 302 -47 302 360 C302 651 102 730 86 730 C79 730 74 730 74 724 C74 701 220 703 220 422 L220 422 Z " />
<glyph glyph-name="asterisk" unicode="&#x2a;" horiz-adv-x="481" d="M343 658 C343 678 327 694 303 694 C281 694 259 679 259 651 C259 631 268 588 273 550 C320 611 343 638 343 658 L343 658 Z M439 560 C439 583 422 598 401 598 C351 598 340 555 295 534 C327 532 353 518 388 518 C423 518 439 536 439 560 L439 560 Z M172 663 C151 663 132 643 132 625 C132 580 191 573 238 555 C215 634 209 663 172 663 L172 663 Z M274 406 C274 424 266 463 257 495 C208 444 190 418 190 394 C190 369 203 356 231 356 C259 356 274 376 274 406 L274 406 Z M403 427 C403 465 349 475 291 505 C318 426 314 386 360 386 C386 386 403 410 403 427 L403 427 Z M133 535 C105 535 91 516 91 494 C91 473 104 455 133 455 C168 455 197 493 229 519 C185 527 159 535 133 535 L133 535 Z " />
<glyph glyph-name="plus" unicode="&#x2b;" horiz-adv-x="600" d="M240 258 L44 258 L44 196 L240 196 L240 0 L302 0 L302 196 L498 196 L498 258 L302 258 L302 454 L240 454 L240 258 Z " />
<glyph glyph-name="comma" unicode="&#x2c;" horiz-adv-x="278" d="M134 31 C134 79 107 104 72 104 C33 104 8 77 8 46 C8 15 23 4 50 -4 C68 -9 76 -15 76 -28 C76 -54 56 -83 28 -112 C-9 -150 -30 -156 -30 -165 C-30 -172 -26 -176 -20 -176 C-11 -176 22 -158 61 -116 C111 -62 134 -18 134 31 L134 31 Z " />
<glyph glyph-name="hyphen" unicode="&#x2d;" horiz-adv-x="333" d="M18 265 L4 189 L242 189 L256 265 L18 265 Z " />
<glyph glyph-name="period" unicode="&#x2e;" horiz-adv-x="278" d="M74 104 C38 104 10 78 10 36 C10 8 32 -8 58 -8 C94 -8 122 18 122 60 C122 88 100 104 74 104 L74 104 Z " />
<glyph glyph-name="slash" unicode="&#x2f;" horiz-adv-x="278" d="M-67 -16 L380 694 L315 694 L-132 -16 L-67 -16 Z " />
<glyph glyph-name="zero" unicode="0" horiz-adv-x="556" d="M316 686 C172 686 16 489 16 270 C16 104 106 -8 212 -8 C356 -8 512 189 512 408 C512 574 422 686 316 686 L316 686 Z M322 662 C380 662 418 616 418 506 C418 385 371 16 206 16 C148 16 110 62 110 172 C110 293 157 662 322 662 L322 662 Z " />
<glyph glyph-name="one" unicode="1" horiz-adv-x="556" d="M278 62 C278 107 403 642 403 674 C403 684 400 686 392 686 C376 686 353 658 264 636 C161 610 118 616 118 598 C118 584 135 584 242 584 C271 584 281 584 281 568 C281 554 278 534 177 95 C165 42 150 26 64 26 C9 26 2 24 2 10 C2 2 6 -2 24 -2 C82 -2 140 0 198 0 C262 0 327 -2 399 -2 C407 -2 411 5 411 12 C411 20 408 26 376 26 C298 26 278 35 278 62 L278 62 Z " />
<glyph glyph-name="two" unicode="2" horiz-adv-x="556" d="M42 92 C171 313 505 265 505 519 C505 617 420 686 320 686 C170 686 75 532 75 508 C75 503 78 500 84 500 C106 500 139 620 275 620 C343 620 405 570 405 492 C405 262 22 280 -30 0 L376 0 C433 123 446 137 446 153 C446 157 443 162 438 162 C414 162 426 92 328 92 L42 92 Z " />
<glyph glyph-name="three" unicode="3" horiz-adv-x="556" d="M-33 130 C-33 53 62 -8 168 -8 C324 -8 476 105 476 250 C476 309 448 362 404 399 C441 427 492 466 492 544 C492 636 409 686 326 686 C198 686 122 576 122 563 C122 558 124 554 131 554 C142 554 188 624 273 624 C346 624 386 583 386 522 C386 459 351 406 303 388 C268 375 230 380 230 366 C230 351 249 360 287 348 C333 334 370 299 370 222 C370 80 280 20 182 20 C147 20 116 29 101 52 C76 91 97 196 21 196 C-10 196 -33 170 -33 130 L-33 130 Z " />
<glyph glyph-name="four" unicode="4" horiz-adv-x="556" d="M421 678 L-4 235 L5 196 L272 196 C264 158 260 120 245 76 C221 3 141 40 141 10 C141 2 146 -2 161 -2 C197 -2 241 0 285 0 C329 0 373 -2 414 -2 C424 -2 428 2 428 13 C428 38 350 8 350 73 C350 102 363 160 370 196 L468 196 L481 250 L384 250 L475 678 L421 678 Z M49 250 L349 565 L351 563 L282 250 L49 250 Z " />
<glyph glyph-name="five" unicode="5" horiz-adv-x="556" d="M129 376 C237 376 375 323 375 192 C375 98 305 20 207 20 C146 20 136 43 121 78 C96 138 81 161 47 161 C16 161 -7 137 -7 105 C-7 44 75 -8 178 -8 C340 -8 458 116 461 231 C461 374 323 466 189 466 C172 466 157 464 144 462 L185 586 L486 586 C518 672 530 692 530 702 C530 707 529 710 523 710 C505 710 510 676 472 678 L185 678 L83 376 L129 376 Z " />
<glyph glyph-name="six" unicode="6" horiz-adv-x="556" d="M287 418 C227 418 180 391 151 368 L149 370 C263 646 495 654 495 678 C495 684 493 686 486 686 C452 686 16 581 16 235 C16 104 93 -8 232 -8 C380 -8 490 109 490 234 C490 335 410 418 287 418 L287 418 Z M390 263 C390 147 346 16 233 16 C144 16 106 72 106 155 C106 205 119 288 132 318 C143 342 200 390 272 390 C334 390 390 357 390 263 L390 263 Z " />
<glyph glyph-name="seven" unicode="7" horiz-adv-x="556" d="M520 678 L138 678 C109 618 72 552 72 540 C72 536 75 535 79 535 C93 535 106 586 174 586 L470 586 C246 348 131 167 102 -4 C120 -1 136 2 163 2 C186 2 203 -1 221 -4 C264 236 376 454 537 632 L520 678 Z " />
<glyph glyph-name="eight" unicode="8" horiz-adv-x="556" d="M328 686 C206 686 95 601 95 488 C95 436 127 390 161 365 C54 310 -6 261 -6 169 C-6 66 72 -8 216 -8 C387 -8 482 104 482 202 C482 270 439 322 380 359 C422 383 516 435 516 539 C516 623 444 686 328 686 L328 686 Z M60 169 C60 258 117 327 178 351 C285 283 382 257 382 164 C382 108 340 16 213 16 C113 16 60 79 60 169 L60 169 Z M460 551 C460 457 410 392 361 370 C270 423 195 447 195 537 C195 619 275 662 338 662 C414 662 460 619 460 551 L460 551 Z " />
<glyph glyph-name="nine" unicode="9" horiz-adv-x="556" d="M229 260 C289 260 336 287 365 310 L367 308 C253 32 21 28 21 1 C21 -6 23 -8 32 -8 C66 -8 500 97 500 443 C500 574 423 686 284 686 C136 686 26 569 26 444 C26 343 106 260 229 260 L229 260 Z M126 415 C126 531 170 662 283 662 C372 662 410 606 410 523 C410 473 397 390 384 360 C373 336 316 288 244 288 C182 288 126 321 126 415 L126 415 Z " />
<glyph glyph-name="colon" unicode="&#x3a;" horiz-adv-x="278" d="M74 104 C38 104 10 78 10 36 C10 8 32 -8 58 -8 C94 -8 122 18 122 60 C122 88 100 104 74 104 L74 104 Z M134 390 C98 390 70 364 70 322 C70 294 92 278 118 278 C154 278 182 304 182 346 C182 374 160 390 134 390 L134 390 Z " />
<glyph glyph-name="semicolon" unicode="&#x3b;" horiz-adv-x="278" d="M134 31 C134 79 107 104 72 104 C33 104 8 77 8 46 C8 15 23 4 50 -4 C68 -9 76 -15 76 -28 C76 -54 56 -83 28 -112 C-9 -150 -30 -156 -30 -165 C-30 -172 -26 -176 -20 -176 C-11 -176 22 -158 61 -116 C111 -62 134 -18 134 31 L134 31 Z M134 390 C98 390 70 364 70 322 C70 294 92 278 118 278 C154 278 182 304 182 346 C182 374 160 390 134 390 L134 390 Z " />
<glyph glyph-name="less" unicode="&#x3c;" horiz-adv-x="600" d="M492 58 L104 227 L492 397 L492 460 L38 259 L38 195 L492 -6 L492 58 Z " />
<glyph glyph-name="equal" unicode="&#x3d;" horiz-adv-x="600" d="M498 347 L44 347 L44 285 L498 285 L498 347 Z M498 169 L44 169 L44 107 L498 107 L498 169 Z " />
<glyph glyph-name="greater" unicode="&#x3e;" horiz-adv-x="600" d="M56 -6 L510 195 L510 259 L56 460 L56 397 L444 227 L56 58 L56 -6 Z " />
<glyph glyph-name="question" unicode="&#x3f;" horiz-adv-x="593" d="M159 419 C161 391 163 370 163 340 C163 280 155 238 155 222 C155 217 158 215 165 215 C178 215 179 237 199 296 C226 290 253 285 281 285 C416 285 507 401 507 510 C507 624 417 694 289 694 C198 694 129 654 129 608 C129 587 145 569 173 569 C245 569 249 658 348 658 C415 658 477 602 477 522 C477 467 429 363 299 363 C255 363 207 384 194 426 L159 419 Z M150 104 C114 104 86 78 86 36 C86 8 108 -8 134 -8 C170 -8 198 18 198 60 C198 88 176 104 150 104 L150 104 Z " />
<glyph glyph-name="at" unicode="&#x40;" horiz-adv-x="800" d="M370 188 C336 188 312 210 312 271 C312 370 384 478 448 478 C485 478 503 453 503 419 C503 334 445 188 370 188 L370 188 Z M520 467 L518 467 C510 494 484 520 445 520 C322 520 242 372 242 270 C242 192 280 146 342 146 C400 146 440 184 460 219 L462 219 C462 206 485 146 554 146 C677 146 746 286 746 391 C746 565 600 694 407 694 C186 694 32 532 32 332 C32 134 202 -16 410 -16 C494 -16 581 11 634 40 L621 69 C566 42 502 20 417 20 C230 20 112 154 112 332 C112 526 242 670 407 670 C590 670 710 544 710 390 C710 300 660 178 570 178 C540 178 530 198 530 218 C530 240 535 261 540 282 L599 508 L530 508 L520 467 Z " />
<glyph glyph-name="A" unicode="A" horiz-adv-x="630" d="M378 250 C389 187 410 114 410 76 C410 10 329 42 329 10 C329 3 333 -2 339 -2 C374 -2 417 0 452 0 C483 0 526 -2 557 -2 C567 -2 570 5 570 11 C570 30 514 23 502 83 L388 674 C385 691 382 698 376 698 C363 698 370 674 336 639 C301 602 290 601 290 590 C290 580 305 580 305 567 C305 551 110 229 42 127 C-41 2 -110 36 -110 10 C-110 3 -107 -2 -97 -2 C-63 -2 -19 0 21 0 C61 0 104 -2 145 -2 C154 -2 156 4 156 10 C156 29 80 24 80 89 C80 138 137 230 149 250 L378 250 Z M162 274 L319 539 L372 274 L162 274 Z " />
<glyph glyph-name="B" unicode="B" horiz-adv-x="611" d="M338 367 L338 366 C438 376 579 418 579 546 C579 615 528 680 382 680 C324 680 267 678 209 678 C173 678 138 680 102 680 C85 680 75 675 75 668 C75 643 150 665 150 610 C150 580 136 538 29 68 C15 4 -66 40 -66 8 C-66 2 -63 -2 -48 -2 C-10 -2 33 0 77 0 C143 0 220 -2 279 -2 C472 -2 546 120 546 212 C546 321 462 360 338 365 L338 367 Z M259 354 C421 354 440 295 440 224 C440 87 353 22 229 22 C150 22 133 38 133 65 C133 88 144 120 194 354 L259 354 Z M262 656 L349 656 C449 656 479 613 479 546 C479 438 402 378 269 378 L199 378 L262 656 Z " />
<glyph glyph-name="C" unicode="C" horiz-adv-x="704" d="M128 241 C128 466 242 670 410 670 C519 670 585 603 601 481 C609 421 606 398 618 398 C626 398 629 402 632 417 C676 636 683 655 683 664 C683 674 678 678 671 678 C650 678 661 628 613 628 C575 628 534 694 407 694 C229 694 22 526 22 276 C22 112 131 -16 318 -16 C425 -16 463 20 495 20 C533 20 510 -25 536 -25 C544 -25 549 -19 555 6 C599 212 604 228 604 237 C604 244 600 248 595 248 C582 248 586 240 567 199 C511 76 426 8 307 8 C206 8 128 80 128 241 L128 241 Z " />
<glyph glyph-name="D" unicode="D" horiz-adv-x="704" d="M157 612 C157 562 144 513 46 86 C29 12 -59 36 -59 6 C-59 2 -56 -2 -46 -2 C-11 -2 44 0 80 0 C117 0 178 -2 240 -2 C478 -2 650 176 650 400 C650 576 550 680 348 680 C304 680 274 678 224 678 C190 678 144 680 102 680 C90 680 84 676 84 666 C84 632 157 670 157 612 L157 612 Z M320 656 C472 656 544 596 544 441 C544 262 462 22 243 22 C180 22 147 40 147 84 C147 114 160 150 269 656 L320 656 Z " />
<glyph glyph-name="E" unicode="E" horiz-adv-x="630" d="M271 656 C440 656 519 624 551 503 C560 469 561 453 573 453 C581 453 584 456 584 466 C584 487 579 509 561 680 C467 680 374 678 280 678 C221 678 163 680 104 680 C94 680 89 676 89 666 C89 637 157 666 157 608 C157 580 145 537 40 68 C27 10 -51 30 -51 8 C-51 1 -48 -2 -31 -2 C18 -2 64 0 129 0 C228 0 346 -2 465 -2 C558 228 568 241 568 253 C568 258 566 262 559 262 C541 262 520 182 466 131 C397 65 315 22 213 22 C164 22 142 39 142 64 C142 90 153 115 200 344 C320 344 338 296 338 244 C338 224 333 206 333 194 C333 185 334 181 342 181 C356 181 355 190 391 361 C417 486 421 498 421 515 C421 521 418 523 413 523 C396 523 401 476 375 437 C347 395 307 368 206 368 L271 656 Z " />
<glyph glyph-name="F" unicode="F" horiz-adv-x="593" d="M272 656 C447 656 484 619 524 538 C545 495 554 449 565 449 C574 449 577 452 577 462 C577 475 565 597 558 680 C472 680 379 678 285 678 C226 678 151 680 113 680 C103 680 98 676 98 666 C98 643 162 667 162 605 C162 570 146 512 42 75 C25 2 -46 40 -46 12 C-46 2 -40 -2 -22 -2 C1 -2 23 0 92 0 C120 0 168 -2 212 -2 C220 -2 223 2 223 12 C223 28 148 20 148 60 C148 102 161 134 204 338 C315 338 336 286 336 242 C336 221 330 202 330 185 C330 181 333 176 339 176 C350 176 351 181 364 244 C403 431 417 486 417 500 C417 511 414 513 407 513 C390 513 395 446 351 401 C325 374 289 362 209 362 L272 656 Z " />
<glyph glyph-name="G" unicode="G" horiz-adv-x="778" d="M598 0 L649 220 C670 308 748 268 748 299 C748 307 744 310 733 310 C692 310 650 308 609 308 C568 308 526 310 485 310 C475 310 471 306 471 296 C471 278 548 294 548 236 C548 104 461 14 329 14 C196 14 128 107 128 255 C128 425 231 670 418 670 C529 670 626 584 626 461 C626 434 622 410 622 402 C622 393 626 387 635 387 C645 387 647 396 656 442 C694 637 701 656 701 665 C701 672 697 678 688 678 C668 678 671 630 643 630 C615 630 529 694 422 694 C248 694 22 540 22 294 C22 82 179 -16 327 -16 C428 -16 512 30 545 49 L563 0 L598 0 Z " />
<glyph glyph-name="H" unicode="H" horiz-adv-x="722" d="M494 344 L430 73 C414 4 331 36 331 9 C331 2 335 -2 352 -2 C385 -2 428 0 472 0 C508 0 543 -2 583 -2 C597 -2 599 2 599 8 C599 29 529 11 529 60 C529 84 552 167 646 603 C661 674 748 641 748 668 C748 676 744 680 733 680 C694 680 651 678 607 678 C571 678 536 680 500 680 C487 680 481 674 481 666 C481 642 552 661 552 626 C552 606 544 580 500 368 L206 368 L256 601 C272 673 356 642 356 668 C356 676 352 680 344 680 C302 680 259 678 215 678 C179 678 144 680 108 680 C91 680 85 676 85 666 C85 646 158 664 158 612 C158 580 135 495 31 62 C18 8 -61 34 -61 11 C-61 2 -56 -2 -42 -2 C-7 -2 36 0 80 0 C116 0 151 -2 187 -2 C204 -2 210 2 210 12 C210 32 135 9 135 56 C135 79 147 108 200 344 L494 344 Z " />
<glyph glyph-name="I" unicode="I" horiz-adv-x="352" d="M176 611 C176 573 161 532 52 68 C37 4 -41 35 -41 12 C-41 2 -38 -2 -16 -2 C13 -2 56 0 100 0 C136 0 171 -2 211 -2 C228 -2 230 2 230 12 C230 33 155 8 155 56 C155 76 165 129 275 599 C293 675 376 640 376 667 C376 676 372 680 363 680 C322 680 279 678 235 678 C199 678 164 680 128 680 C111 680 105 676 105 666 C105 641 176 667 176 611 L176 611 Z " />
<glyph glyph-name="J" unicode="J" horiz-adv-x="481" d="M409 603 C423 669 501 638 501 666 C501 676 497 680 481 680 C455 680 412 678 368 678 C332 678 297 680 261 680 C244 680 238 676 238 666 C238 646 311 661 311 610 C311 596 305 565 219 163 C195 51 173 8 101 8 C63 8 43 26 43 45 C43 69 70 86 70 126 C70 148 55 172 20 172 C-16 172 -46 143 -46 94 C-46 19 38 -16 99 -16 C174 -16 282 17 311 150 L409 603 Z " />
<glyph glyph-name="K" unicode="K" horiz-adv-x="648" d="M311 385 L433 0 L510 0 C535 0 561 -2 580 -2 C593 -2 597 2 597 8 C597 34 532 4 501 98 L383 450 L527 584 C619 671 674 649 674 666 C674 676 669 680 660 680 C632 680 598 678 562 678 C532 678 488 680 464 680 C443 680 439 676 439 666 C439 643 483 664 483 617 C483 580 434 538 202 311 L200 313 L259 596 C275 672 360 642 360 667 C360 674 357 680 349 680 C306 680 263 678 219 678 C183 678 148 680 112 680 C94 680 87 676 87 666 C87 640 164 668 164 602 C164 580 124 396 51 74 C36 8 -45 37 -45 9 C-45 2 -42 -2 -32 -2 C-5 -2 27 0 101 0 C140 0 183 -2 203 -2 C218 -2 222 2 222 11 C222 30 151 11 151 61 C151 92 161 125 190 268 L311 385 Z " />
<glyph glyph-name="L" unicode="L" horiz-adv-x="593" d="M160 602 C160 588 148 544 45 83 C28 7 -73 42 -73 10 C-73 2 -68 -2 -56 -2 C8 -2 60 0 170 0 C302 0 397 -2 448 -2 C538 212 553 236 553 253 C553 260 549 265 542 265 C526 265 500 174 402 95 C356 58 266 22 205 22 C162 22 145 44 145 70 C145 92 158 157 255 590 C275 679 356 640 356 666 C356 676 349 680 336 680 C293 680 250 678 207 678 C174 678 140 680 107 680 C92 680 86 676 86 666 C86 636 160 671 160 602 L160 602 Z " />
<glyph glyph-name="M" unicode="M" horiz-adv-x="833" d="M265 678 C154 678 121 680 101 680 C83 680 79 676 79 666 C79 637 164 662 164 622 C164 611 123 450 60 157 C28 8 -85 32 -85 9 C-85 2 -82 -2 -74 -2 C-28 -2 17 0 61 0 C90 0 120 -2 153 -2 C162 -2 166 2 166 9 C166 30 89 10 89 101 C89 164 122 282 182 594 L184 594 C282 10 272 -2 292 -2 C310 -2 304 10 651 598 L653 596 L542 75 C526 1 443 34 443 8 C443 2 447 -2 457 -2 C501 -2 544 0 588 0 C624 0 659 -2 705 -2 C717 -2 721 2 721 9 C721 34 643 3 643 67 C643 98 661 177 747 590 C765 676 847 636 847 666 C847 676 843 680 834 680 C797 680 757 678 669 678 L354 148 L265 678 Z " />
<glyph glyph-name="N" unicode="N" horiz-adv-x="704" d="M229 678 C155 678 101 680 75 680 C67 680 64 676 64 666 C64 644 114 669 151 599 L167 569 L62 129 C32 1 -77 38 -77 7 C-77 2 -72 -2 -64 -2 C-20 -2 25 0 69 0 C98 0 128 -2 169 -2 C189 -2 192 2 192 11 C192 31 98 12 98 102 C98 132 112 180 188 534 L190 534 C467 4 457 -16 480 -16 C498 -16 489 15 609 523 C641 659 756 648 756 670 C756 676 751 680 743 680 C705 680 660 678 634 678 C587 678 557 680 516 680 C501 680 497 674 497 667 C497 646 588 655 588 578 C588 552 580 520 500 155 L498 155 L229 678 Z " />
<glyph glyph-name="O" unicode="O" horiz-adv-x="778" d="M22 280 C22 118 152 -16 326 -16 C504 -16 724 132 724 398 C724 560 594 694 420 694 C242 694 22 546 22 280 L22 280 Z M128 232 C128 428 224 670 418 670 C530 670 618 610 618 446 C618 250 522 8 328 8 C216 8 128 68 128 232 L128 232 Z " />
<glyph glyph-name="P" unicode="P" horiz-adv-x="593" d="M270 302 C454 302 582 398 582 519 C582 615 510 680 365 680 C322 680 279 678 236 678 C192 678 149 680 106 680 C95 680 90 676 90 666 C90 643 160 669 160 612 C160 592 155 573 48 81 C31 3 -52 38 -52 12 C-52 2 -48 -2 -32 -2 C-14 -2 13 0 93 0 C149 0 177 -2 200 -2 C222 -2 227 2 227 12 C227 35 146 11 146 70 C146 92 151 108 192 302 L270 302 Z M269 656 L369 656 C447 656 476 608 476 545 C476 414 406 326 272 326 L197 326 L269 656 Z " />
<glyph glyph-name="Q" unicode="Q" horiz-adv-x="778" d="M420 694 C242 694 22 546 22 280 C22 146 112 40 207 10 L205 8 C70 9 -6 -82 -6 -108 C-6 -116 -2 -119 5 -119 C20 -119 39 -42 134 -42 C238 -42 336 -148 464 -148 C644 -148 707 -38 707 -18 C707 -12 704 -7 699 -7 C679 -7 669 -86 566 -86 C503 -86 399 -45 330 -18 L330 -16 C507 -14 724 134 724 398 C724 560 594 694 420 694 L420 694 Z M418 670 C530 670 618 610 618 446 C618 250 522 8 328 8 C216 8 128 68 128 232 C128 428 224 670 418 670 L418 670 Z " />
<glyph glyph-name="R" unicode="R" horiz-adv-x="630" d="M426 0 C498 0 544 -2 568 -2 C587 -2 594 2 594 8 C594 40 531 -2 505 79 C432 306 440 327 317 344 L317 346 C460 352 578 428 578 539 C578 645 488 680 380 680 C333 680 288 678 244 678 C199 678 154 680 109 680 C92 680 89 675 89 666 C89 640 157 663 157 604 C157 580 142 528 46 80 C30 5 -51 36 -51 8 C-51 2 -47 -2 -41 -2 C3 -2 46 0 90 0 C126 0 161 -2 203 -2 C216 -2 220 2 220 11 C220 32 145 13 145 60 C145 80 156 116 201 336 C299 332 328 330 348 263 L426 0 Z M269 656 L336 656 C433 656 472 624 472 550 C472 495 447 425 402 391 C368 365 314 360 206 360 L269 656 Z " />
<glyph glyph-name="S" unicode="S" horiz-adv-x="593" d="M412 179 C412 65 340 8 236 8 C92 8 66 142 66 254 C66 307 66 312 54 312 C37 312 44 295 11 140 C-15 24 -20 14 -20 4 C-20 -1 -16 -4 -9 -4 C6 -4 3 32 42 32 C96 32 125 -16 238 -16 C377 -16 502 76 502 208 C502 413 190 381 190 540 C190 609 241 670 325 670 C447 670 491 563 500 443 C501 429 500 415 512 415 C526 415 522 423 539 541 C554 643 557 655 557 666 C557 673 554 678 546 678 C531 678 530 647 504 647 C475 647 424 694 330 694 C195 694 100 602 100 499 C100 310 412 327 412 179 L412 179 Z " />
<glyph glyph-name="T" unicode="T" horiz-adv-x="630" d="M163 682 C146 682 146 694 138 694 C130 694 131 686 115 652 C40 493 26 466 26 459 C26 453 30 448 36 448 C64 448 98 632 316 658 C273 461 218 179 190 73 C172 3 78 38 78 11 C78 1 81 -2 98 -2 C148 -2 191 0 235 0 C271 0 306 -2 364 -2 C384 -2 387 2 387 14 C387 34 294 10 294 66 C294 106 305 136 412 658 C476 653 539 608 571 542 C606 472 588 450 607 450 C615 450 618 456 618 463 C618 507 611 619 611 676 C611 690 610 694 605 694 C600 694 596 691 590 688 C585 685 578 682 567 682 L163 682 Z " />
<glyph glyph-name="U" unicode="U" horiz-adv-x="704" d="M52 137 C52 28 186 -16 261 -16 C386 -16 505 43 536 188 C606 517 604 537 644 598 C697 679 748 641 748 666 C748 676 744 680 736 680 C708 680 679 678 651 678 C606 678 562 680 517 680 C508 680 503 676 503 666 C503 645 582 665 582 563 C582 520 574 489 514 193 C494 94 418 14 294 14 C213 14 152 56 152 138 C152 172 169 232 246 597 C263 678 342 643 342 666 C342 676 337 680 330 680 C291 680 251 678 211 678 C175 678 138 680 102 680 C83 680 79 676 79 666 C79 638 148 671 148 604 C148 554 52 197 52 137 L52 137 Z " />
<glyph glyph-name="V" unicode="V" horiz-adv-x="611" d="M268 125 C208 529 196 582 196 607 C196 668 280 644 280 667 C280 676 273 680 259 680 C230 680 193 678 157 678 C120 678 83 680 46 680 C28 680 21 676 21 666 C21 642 76 659 84 616 C200 -6 194 -16 210 -16 C225 -16 225 -5 541 526 C631 677 691 640 691 667 C691 676 688 680 673 680 C641 680 610 678 578 678 C546 678 513 680 481 680 C458 680 453 676 453 667 C453 641 522 661 522 595 C522 540 496 518 270 125 L268 125 Z " />
<glyph glyph-name="W" unicode="W" horiz-adv-x="870" d="M254 146 L252 146 C203 556 197 574 197 601 C197 662 275 638 275 666 C275 676 269 680 259 680 C223 680 187 678 151 678 C120 678 89 680 58 680 C40 680 32 676 32 666 C32 641 83 661 91 603 L170 6 C173 -15 177 -16 185 -16 C191 -16 196 -10 202 1 L427 417 L429 417 L480 6 C483 -15 487 -16 495 -16 C501 -16 506 -10 512 1 L822 558 C883 668 950 640 950 666 C950 676 946 680 939 680 C908 680 877 678 846 678 C810 678 774 680 738 680 C729 680 721 676 721 666 C721 636 785 663 785 590 C785 554 773 528 562 141 L560 141 C511 554 506 578 506 604 C506 660 585 646 585 666 C585 676 581 680 570 680 C538 680 503 678 467 678 C431 678 395 680 359 680 C342 680 340 676 340 666 C340 641 394 661 401 616 L423 465 L254 146 Z " />
<glyph glyph-name="X" unicode="X" horiz-adv-x="630" d="M348 381 L518 568 C616 676 660 643 660 668 C660 675 657 680 645 680 C617 680 589 678 561 678 C516 678 471 680 427 680 C417 680 413 676 413 667 C413 645 472 662 472 602 C472 553 446 530 337 411 C264 580 251 605 251 619 C251 672 322 643 322 669 C322 676 318 680 308 680 C272 680 235 678 199 678 C162 678 126 680 89 680 C71 680 63 676 63 665 C63 641 120 668 146 611 L264 347 L46 110 C-46 10 -126 36 -126 9 C-126 3 -122 -2 -115 -2 C-66 -2 -18 0 30 0 C72 0 115 -2 157 -2 C167 -2 172 3 172 10 C172 34 103 12 103 75 C103 125 128 150 275 319 C358 120 367 92 367 74 C367 14 286 37 286 9 C286 2 290 -2 299 -2 C350 -2 399 0 447 0 C482 0 516 -2 551 -2 C562 -2 565 4 565 11 C565 35 502 9 472 81 L348 381 Z " />
<glyph glyph-name="Y" unicode="Y" horiz-adv-x="593" d="M215 318 L164 89 C145 3 56 39 56 10 C56 2 61 -2 68 -2 C118 -2 161 0 205 0 C241 0 276 -2 317 -2 C332 -2 335 2 335 12 C335 36 258 5 258 74 C258 91 267 116 311 319 C385 402 458 491 530 567 C629 672 669 643 669 666 C669 676 664 680 653 680 C626 680 599 678 572 678 C532 678 493 680 453 680 C439 680 435 676 435 666 C435 641 488 667 488 609 C488 569 457 518 303 352 C236 546 220 584 220 610 C220 670 303 645 303 666 C303 676 298 680 286 680 C251 680 216 678 181 678 C141 678 101 680 61 680 C40 680 36 676 36 666 C36 642 92 660 109 613 L215 318 Z " />
<glyph glyph-name="Z" unicode="Z" horiz-adv-x="630" d="M500 656 L-35 22 C-43 12 -52 7 -52 2 C-52 -2 -46 -2 -33 -2 C0 -2 67 0 178 0 C303 0 343 -2 426 -2 C515 219 528 237 528 251 C528 260 524 263 517 263 C501 263 492 200 426 132 C367 71 284 22 162 22 L80 22 L610 646 C621 659 631 667 631 672 C631 677 627 680 621 680 C598 680 559 678 429 678 C347 678 288 680 176 680 C94 504 81 478 81 470 C81 463 84 460 91 460 C121 460 165 656 447 656 L500 656 Z " />
<glyph glyph-name="bracketleft" unicode="&#x5b;" horiz-adv-x="407" d="M190 -176 C193 -176 204 -175 204 -165 C204 -144 111 -170 111 -110 C111 -90 123 -36 279 649 C294 715 387 679 387 706 C387 713 381 716 374 716 L228 716 C210 716 208 715 200 681 C158 501 5 -144 5 -167 C5 -172 11 -176 25 -176 L190 -176 Z " />
<glyph glyph-name="backslash" unicode="&#x5c;" horiz-adv-x="278" d="M282 -16 L19 694 L-42 694 L221 -16 L282 -16 Z " />
<glyph glyph-name="bracketright" unicode="&#x5d;" horiz-adv-x="407" d="M162 716 C159 716 148 715 148 705 C148 684 241 710 241 650 C241 630 229 576 73 -109 C58 -175 -35 -139 -35 -166 C-35 -173 -29 -176 -22 -176 L124 -176 C142 -176 144 -175 152 -141 C194 39 347 684 347 707 C347 712 341 716 327 716 L162 716 Z " />
<glyph glyph-name="asciicircum" unicode="&#x5e;" horiz-adv-x="600" d="M274 678 L112 351 L178 351 L300 598 L422 351 L488 351 L326 678 L274 678 Z " />
<glyph glyph-name="underscore" unicode="&#x5f;" horiz-adv-x="500" d="M500 -125 L500 -75 L0 -75 L0 -125 L500 -125 Z " />
<glyph glyph-name="grave" unicode="&#x60;" horiz-adv-x="315" d="M247 508 L139 650 C122 672 109 682 94 682 C74 682 57 669 57 647 C57 633 64 625 81 612 L216 508 L247 508 Z " />
<glyph glyph-name="a" unicode="a" horiz-adv-x="574" d="M315 128 C313 106 313 93 313 77 C313 22 339 -8 397 -8 C499 -8 530 149 530 164 C530 171 527 174 522 174 C515 174 513 167 500 129 C481 73 463 50 434 50 C416 50 403 61 403 80 C403 110 412 137 447 306 C461 372 495 426 495 441 C495 449 490 454 483 454 C469 454 456 437 373 361 C365 391 344 462 255 462 C153 462 -8 334 -8 139 C-8 52 34 -8 121 -8 C230 -8 290 89 313 130 L315 128 Z M355 322 C355 244 275 30 153 30 C111 30 82 48 82 126 C82 252 158 438 258 438 C313 438 355 402 355 322 L355 322 Z " />
<glyph glyph-name="b" unicode="b" horiz-adv-x="556" d="M255 730 C118 697 73 704 73 686 C73 669 137 680 137 630 C137 592 36 238 36 166 C36 61 105 -8 207 -8 C364 -8 482 141 482 270 C482 393 409 462 326 462 C251 462 199 410 163 345 L161 347 L255 730 Z M112 109 C112 168 169 430 302 430 C357 430 392 394 392 328 C392 214 331 16 204 16 C137 16 112 51 112 109 L112 109 Z " />
<glyph glyph-name="c" unicode="c" horiz-adv-x="500" d="M88 203 C88 315 165 444 272 444 C330 444 356 406 356 371 C356 352 345 325 345 297 C345 274 359 256 388 256 C427 256 446 291 446 329 C446 407 378 462 277 462 C118 462 -2 333 -2 196 C-2 67 78 -8 196 -8 C338 -8 412 110 412 128 C412 133 409 135 405 135 C389 135 352 50 242 50 C148 50 88 112 88 203 L88 203 Z " />
<glyph glyph-name="d" unicode="d" horiz-adv-x="593" d="M332 146 C326 121 322 96 322 74 C322 27 346 -8 399 -8 C503 -8 534 142 534 153 C534 160 532 162 526 162 C518 162 518 152 506 119 C491 77 469 42 435 42 C413 42 404 55 404 74 C404 100 412 130 549 730 C412 697 367 704 367 686 C367 669 431 680 431 630 C431 604 426 584 379 367 L377 367 C363 411 338 462 262 462 C136 462 -2 305 -2 152 C-2 52 46 -8 130 -8 C209 -8 276 49 330 148 L332 146 Z M361 319 C361 231 278 30 168 30 C120 30 88 60 88 130 C88 244 164 438 264 438 C340 438 361 370 361 319 L361 319 Z " />
<glyph glyph-name="e" unicode="e" horiz-adv-x="463" d="M-2 185 C-2 82 70 -8 185 -8 C320 -8 401 104 401 117 C401 122 398 125 394 125 C388 125 380 113 340 84 C318 68 282 50 242 50 C138 50 86 120 88 201 C163 215 235 232 274 245 C375 279 408 325 408 368 C408 429 354 462 278 462 C178 462 -2 369 -2 185 L-2 185 Z M275 444 C309 444 332 426 332 382 C332 356 324 324 302 298 C264 253 161 235 88 221 C99 381 206 444 275 444 L275 444 Z " />
<glyph glyph-name="f" unicode="f" horiz-adv-x="296" d="M91 404 C59 292 31 74 12 -15 C-4 -92 -46 -148 -87 -148 C-127 -148 -92 -68 -163 -68 C-192 -68 -216 -94 -216 -129 C-216 -172 -183 -194 -148 -194 C24 -194 125 86 186 404 L294 404 L302 454 L195 454 C212 540 207 589 223 641 C235 681 270 722 294 722 C308 722 315 713 315 696 C315 681 301 664 301 640 C301 623 314 608 338 608 C373 608 401 646 401 684 C401 722 375 752 329 752 C193 752 147 476 25 404 L91 404 Z " />
<glyph glyph-name="g" unicode="g" horiz-adv-x="519" d="M50 300 C50 227 94 194 153 174 L153 172 C55 169 -12 127 -12 64 C-12 39 0 17 19 5 C-9 -5 -72 -25 -72 -88 C-72 -152 12 -194 139 -194 C336 -194 414 -115 414 -39 C414 8 382 44 324 52 C220 66 68 48 68 109 C68 149 110 154 238 163 C368 172 438 243 438 327 C438 404 376 452 288 462 C294 487 300 512 330 512 C349 512 360 504 380 504 C412 504 430 520 430 543 C430 566 416 580 392 580 C333 580 280 512 270 462 C141 462 50 401 50 300 L50 300 Z M-22 -82 C-22 -42 6 -16 38 -5 C56 -12 118 -17 161 -20 C260 -27 334 -20 334 -75 C334 -140 266 -176 139 -176 C24 -176 -22 -134 -22 -82 L-22 -82 Z M140 254 C140 317 163 444 265 444 C316 444 348 420 348 370 C348 307 325 180 223 180 C172 180 140 204 140 254 L140 254 Z " />
<glyph glyph-name="h" unicode="h" horiz-adv-x="574" d="M134 191 C162 295 234 424 313 424 C339 424 367 409 367 369 C367 320 305 150 305 74 C305 27 333 -8 386 -8 C494 -8 525 142 525 153 C525 160 523 162 517 162 C509 162 509 152 497 119 C482 77 460 42 426 42 C404 42 395 55 395 74 C393 102 457 306 457 354 C457 422 418 462 350 462 C271 462 208 408 146 278 L144 280 L254 730 C117 697 72 704 72 686 C72 669 136 680 136 630 C136 610 126 562 -4 -4 C9 0 23 2 38 2 C55 2 68 0 82 -4 L134 191 Z " />
<glyph glyph-name="i" unicode="i" horiz-adv-x="315" d="M166 42 C144 42 135 55 135 74 C135 107 208 326 208 383 C208 427 184 462 127 462 C23 462 -12 319 -12 309 C-12 302 -8 300 -4 300 C3 300 7 314 15 335 C31 377 53 412 87 412 C109 412 118 399 118 380 C118 341 45 131 45 77 C45 29 73 -8 126 -8 C233 -8 265 142 265 153 C265 160 263 162 257 162 C249 162 249 152 237 119 C222 77 200 42 166 42 L166 42 Z M215 654 C183 654 157 632 157 599 C157 572 179 550 207 550 C239 550 265 572 265 605 C265 632 243 654 215 654 L215 654 Z " />
<glyph glyph-name="j" unicode="j" horiz-adv-x="296" d="M220 383 C220 427 196 462 139 462 C35 462 0 319 0 309 C0 302 4 300 8 300 C15 300 19 314 27 335 C43 377 65 412 99 412 C121 412 130 399 130 380 C130 344 38 -22 38 -51 C38 -75 49 -87 49 -112 C49 -148 18 -170 -24 -170 C-46 -170 -51 -162 -53 -139 C-56 -106 -71 -80 -106 -80 C-137 -80 -156 -101 -156 -128 C-156 -164 -125 -194 -53 -194 C20 -194 99 -155 115 -88 C206 292 220 346 220 383 L220 383 Z M215 654 C183 654 157 632 157 599 C157 572 179 550 207 550 C239 550 265 572 265 605 C265 632 243 654 215 654 L215 654 Z " />
<glyph glyph-name="k" unicode="k" horiz-adv-x="574" d="M256 730 C119 697 74 704 74 686 C74 669 138 680 138 630 C138 600 123 554 0 -4 C14 0 29 2 43 2 C57 2 70 0 84 -4 C103 62 122 134 147 206 L176 206 C241 206 238 188 285 91 C309 40 337 -8 384 -8 C473 -8 518 127 518 143 C518 149 513 153 508 153 C498 153 496 136 485 114 C470 83 455 62 427 62 C404 62 396 78 368 134 C343 185 324 225 279 223 L279 225 C427 253 488 316 488 376 C488 416 455 462 382 462 C273 462 203 351 152 264 L150 266 L256 730 Z M156 230 C179 281 261 412 331 412 C367 412 388 391 388 357 C388 292 308 230 193 230 L156 230 Z " />
<glyph glyph-name="l" unicode="l" horiz-adv-x="296" d="M139 630 C139 570 16 134 16 74 C16 27 40 -8 93 -8 C205 -8 236 142 236 153 C236 160 234 162 228 162 C220 162 220 152 208 119 C193 77 171 42 137 42 C115 42 106 55 106 74 C106 94 129 185 257 730 C120 697 75 704 75 686 C75 669 139 680 139 630 L139 630 Z " />
<glyph glyph-name="m" unicode="m" horiz-adv-x="889" d="M453 181 C474 268 548 424 634 424 C668 424 684 406 684 375 C684 323 619 132 619 71 C619 27 643 -8 696 -8 C810 -8 839 142 839 153 C839 160 837 162 831 162 C823 162 823 152 811 119 C796 77 774 42 740 42 C718 42 709 55 709 74 C709 113 774 299 774 354 C774 413 733 462 665 462 C568 462 517 373 482 309 L480 309 C483 322 485 336 485 352 C485 435 429 462 379 462 C307 462 252 416 201 315 L199 317 C201 330 204 343 204 367 C204 428 176 462 126 462 C29 462 -4 317 -4 304 C-4 297 -2 293 3 293 C11 293 11 301 22 333 C35 368 53 412 92 412 C111 412 122 395 122 373 C122 341 101 287 39 -4 C53 0 66 2 80 2 C95 2 111 0 126 -4 L155 119 C194 282 260 424 350 424 C382 424 403 407 403 368 C403 330 385 276 320 -4 C334 0 347 2 361 2 C376 2 392 0 407 -4 L453 181 Z " />
<glyph glyph-name="n" unicode="n" horiz-adv-x="611" d="M174 185 C188 242 254 424 349 424 C385 424 404 403 404 369 C404 317 346 130 346 74 C346 27 370 -8 425 -8 C539 -8 566 142 566 153 C566 160 564 162 558 162 C550 162 550 152 538 119 C523 77 501 42 467 42 C445 42 436 55 436 74 C436 104 494 300 494 352 C494 415 451 462 386 462 C308 462 257 413 200 310 L198 312 C202 330 205 359 205 380 C205 427 179 462 124 462 C20 462 -15 319 -15 309 C-15 302 -11 300 -7 300 C0 300 4 314 12 335 C28 377 50 412 84 412 C106 412 115 397 115 375 C115 336 76 159 43 -4 C56 0 70 2 82 2 C94 2 111 0 128 -4 L174 185 Z " />
<glyph glyph-name="o" unicode="o" horiz-adv-x="519" d="M259 444 C324 444 361 402 361 312 C361 188 309 10 190 10 C125 10 88 52 88 142 C88 266 140 444 259 444 L259 444 Z M257 462 C102 462 -2 340 -2 196 C-2 70 76 -8 192 -8 C347 -8 451 114 451 258 C451 384 373 462 257 462 L257 462 Z " />
<glyph glyph-name="p" unicode="p" horiz-adv-x="593" d="M141 39 C162 21 197 -8 260 -8 C391 -8 525 114 525 275 C525 386 454 462 367 462 C288 462 246 409 212 350 L210 350 C210 416 189 462 120 462 C19 462 -15 317 -15 305 C-15 300 -12 298 -8 298 C-2 298 0 314 15 345 C32 381 51 412 82 412 C109 412 120 399 120 370 C120 340 108 308 1 -194 C13 -190 25 -186 41 -186 C54 -186 71 -190 88 -194 L141 39 Z M435 318 C435 242 384 16 257 16 C188 16 164 66 164 110 C164 229 236 430 347 430 C397 430 435 396 435 318 L435 318 Z " />
<glyph glyph-name="q" unicode="q" horiz-adv-x="556" d="M439 257 C468 403 502 429 502 445 C502 449 500 454 493 454 C468 454 410 399 381 362 C363 429 317 462 261 462 C148 462 -2 322 -2 150 C-2 44 52 -8 129 -8 C229 -8 293 81 325 135 L327 133 L263 -194 C275 -190 287 -186 303 -186 C316 -186 333 -190 350 -194 L439 257 Z M88 126 C88 197 142 438 267 438 C314 438 357 398 357 332 C357 239 277 30 166 30 C118 30 88 60 88 126 L88 126 Z " />
<glyph glyph-name="r" unicode="r" horiz-adv-x="444" d="M206 328 C209 342 210 359 210 375 C210 432 176 462 130 462 C23 462 -7 311 -7 296 C-7 291 -4 288 0 288 C7 288 8 295 19 326 C33 365 55 412 92 412 C111 412 120 399 120 379 C120 361 114 324 39 -4 C51 -2 67 2 82 2 C96 2 111 -1 128 -4 L168 156 C196 271 246 390 302 390 C332 390 340 362 381 362 C414 362 436 380 436 415 C436 444 414 462 381 462 C288 462 231 372 208 328 L206 328 Z " />
<glyph glyph-name="s" unicode="s" horiz-adv-x="463" d="M402 366 C402 407 350 462 230 462 C144 462 55 408 55 316 C55 179 305 204 305 105 C305 50 256 10 180 10 C109 10 99 42 93 94 C89 134 80 168 45 168 C14 168 -2 144 -2 106 C-2 42 59 -8 172 -8 C322 -8 381 70 381 142 C381 294 131 260 131 366 C131 407 169 444 226 444 C286 444 295 423 301 386 C307 350 315 318 360 318 C389 318 402 338 402 366 L402 366 Z " />
<glyph glyph-name="t" unicode="t" horiz-adv-x="333" d="M95 404 C42 178 24 114 24 71 C24 23 63 -8 119 -8 C214 -8 286 77 286 88 C286 93 283 96 279 96 C268 96 225 42 170 42 C137 42 114 60 114 90 C114 110 128 157 181 404 L286 404 L301 454 L192 454 L222 594 C150 482 94 440 10 404 L95 404 Z " />
<glyph glyph-name="u" unicode="u" horiz-adv-x="611" d="M373 269 C359 212 293 30 194 30 C160 30 143 51 143 80 C143 137 201 318 201 380 C201 427 173 462 120 462 C12 462 -19 312 -19 301 C-19 294 -17 292 -11 292 C-3 292 -3 302 9 335 C24 377 46 412 80 412 C102 412 111 399 111 380 C111 350 53 156 53 102 C53 32 95 -8 161 -8 C233 -8 290 36 347 146 L349 144 C345 117 342 101 342 74 C342 27 366 -8 419 -8 C533 -8 562 142 562 153 C562 160 560 162 554 162 C546 162 546 152 534 119 C519 77 497 42 463 42 C442 42 432 55 432 78 C432 118 471 295 504 458 C491 454 477 452 465 452 C453 452 436 454 419 458 L373 269 Z " />
<glyph glyph-name="v" unicode="v" horiz-adv-x="574" d="M371 409 C371 336 479 351 479 267 C479 204 431 68 308 68 C230 68 175 105 175 199 C175 307 303 432 303 447 C303 451 301 454 296 454 C290 454 279 446 250 446 C219 446 161 462 122 462 C39 462 -14 397 -14 328 C-14 262 17 239 57 239 C90 239 110 258 110 287 C110 321 87 333 66 333 C54 333 47 331 37 331 C24 331 16 338 16 360 C16 386 35 416 73 416 C121 416 131 381 213 370 C162 297 113 216 113 138 C113 62 158 -8 254 -8 C406 -8 509 164 509 303 C509 398 470 462 417 462 C390 462 371 440 371 409 L371 409 Z " />
<glyph glyph-name="w" unicode="w" horiz-adv-x="852" d="M494 400 C521 400 535 384 535 352 C535 288 495 212 438 148 C423 171 412 204 412 247 C412 329 449 400 494 400 L494 400 Z M647 400 C647 334 751 342 751 257 C751 230 715 68 574 68 C514 68 481 94 453 127 C549 235 587 331 587 381 C587 430 569 462 525 462 C445 462 370 322 370 185 C370 154 375 116 383 94 C364 76 332 58 295 58 C222 58 181 105 181 203 C181 313 309 435 309 448 C309 452 306 454 303 454 C295 454 282 448 262 448 C231 448 168 462 129 462 C31 462 -14 397 -14 328 C-14 264 17 239 61 239 C90 239 110 259 110 289 C110 317 91 333 68 333 C58 333 48 331 38 331 C24 331 16 340 16 358 C16 386 37 416 77 416 C119 416 158 375 217 370 C143 260 105 214 105 135 C105 42 159 -8 227 -8 C288 -8 341 24 393 66 C417 24 461 -8 518 -8 C665 -8 787 163 787 328 C787 390 755 454 702 454 C671 454 647 430 647 400 L647 400 Z " />
<glyph glyph-name="x" unicode="x" horiz-adv-x="574" d="M223 203 C161 96 118 54 72 54 C42 54 21 70 21 112 C21 162 78 194 78 203 C78 208 75 211 70 211 C61 211 -29 145 -29 70 C-29 25 -3 -8 38 -8 C96 -8 130 23 181 100 L233 179 C297 19 308 -8 361 -8 C451 -8 488 157 488 169 C488 175 486 177 481 177 C475 177 474 165 461 132 C446 94 435 72 405 72 C377 72 366 89 341 149 L295 259 C321 301 372 400 443 400 C475 400 485 377 485 357 C485 304 437 279 437 266 C437 260 439 258 444 258 C459 258 527 337 527 391 C527 438 494 462 458 462 C383 462 337 356 285 283 L243 383 C220 435 204 462 173 462 C95 462 46 316 46 306 C46 299 48 298 53 298 C61 298 68 317 85 346 C97 367 109 386 131 386 C149 386 157 366 189 287 L223 203 Z " />
<glyph glyph-name="y" unicode="y" horiz-adv-x="500" d="M162 399 C147 441 128 462 98 462 C19 462 -20 307 -20 285 C-20 279 -18 276 -13 276 C-7 276 -4 286 3 307 C21 362 35 386 57 386 C85 386 85 366 125 245 C196 29 204 16 204 -5 C204 -41 98 -146 45 -146 C-1 -146 7 -81 -56 -81 C-86 -81 -108 -100 -108 -129 C-108 -164 -74 -194 -15 -194 C71 -194 167 -109 259 1 C410 182 459 293 459 371 C459 439 422 462 391 462 C362 462 342 445 342 416 C342 367 397 356 397 288 C397 215 350 149 280 61 L162 399 Z " />
<glyph glyph-name="z" unicode="z" horiz-adv-x="500" d="M437 403 C450 414 466 426 466 441 C466 452 455 462 445 462 C431 462 424 446 414 430 C404 414 390 398 361 398 C341 398 317 410 289 430 C267 446 236 462 200 462 C136 462 35 404 35 310 C35 258 65 236 98 236 C134 236 154 257 154 283 C154 332 97 321 97 371 C97 396 115 420 151 420 C187 420 197 393 222 371 C244 352 269 344 294 344 C307 344 318 344 326 346 L328 344 L45 86 C28 71 -42 57 -42 18 C-42 3 -33 -8 -16 -8 C34 -8 31 70 81 70 C123 70 153 -8 252 -8 C386 -8 429 80 429 129 C429 174 407 203 367 203 C331 203 315 179 315 156 C315 112 367 112 367 71 C367 50 347 30 312 30 C243 30 242 124 146 124 C137 124 129 123 121 122 L119 124 L437 403 Z " />
<glyph glyph-name="braceleft" unicode="&#x7b;" horiz-adv-x="407" d="M135 270 C208 289 230 331 247 406 L287 587 C303 661 332 702 395 706 L400 730 C293 730 233 708 204 581 L161 390 C146 322 124 289 58 269 C96 256 113 237 113 196 C113 139 55 -37 55 -104 C55 -179 105 -194 192 -194 L198 -170 C155 -167 137 -146 137 -107 C137 -78 151 -17 166 45 C181 107 195 170 195 198 C195 233 169 259 135 268 L135 270 Z " />
<glyph glyph-name="bar" unicode="&#x7c;" horiz-adv-x="222" d="M60 0 L122 0 L122 730 L60 730 L60 0 Z " />
<glyph glyph-name="braceright" unicode="&#x7d;" horiz-adv-x="407" d="M227 266 C154 247 132 205 115 130 L75 -51 C59 -125 30 -166 -33 -170 L-38 -194 C69 -194 129 -172 158 -45 L201 146 C216 214 238 247 304 267 C266 280 249 299 249 340 C249 397 307 573 307 640 C307 715 257 730 170 730 L164 706 C207 703 225 682 225 643 C225 614 211 553 196 491 C181 429 167 366 167 338 C167 303 193 277 227 268 L227 266 Z " />
<glyph glyph-name="asciitilde" unicode="&#x7e;" horiz-adv-x="600" d="M432 293 C411 260 389 227 353 227 C329 227 295 245 262 260 C227 275 192 289 162 289 C102 289 70 249 50 211 L82 161 C96 193 118 225 157 225 C199 225 232 211 261 195 C290 179 319 165 352 165 C408 165 437 205 464 242 L432 293 Z " />
<glyph glyph-name="exclamdown" unicode="&#xa1;" horiz-adv-x="370" d="M169 290 C158 290 159 284 138 210 C83 21 12 -77 12 -158 C12 -197 29 -212 57 -212 C111 -212 142 -154 147 -23 C159 240 179 246 179 279 C179 285 176 290 169 290 L169 290 Z M192 378 C228 378 256 404 256 446 C256 474 234 490 208 490 C172 490 144 464 144 422 C144 394 166 378 192 378 L192 378 Z " />
<glyph glyph-name="cent" unicode="&#xa2;" horiz-adv-x="556" d="M173 239 C158 264 145 282 145 338 C145 424 213 544 312 544 C348 544 369 525 376 510 L173 239 Z M524 664 L490 664 L399 541 C372 555 343 562 313 562 C202 562 59 459 59 316 C59 255 77 208 122 169 L10 16 L44 16 L144 154 C169 140 200 129 239 129 C374 129 436 240 436 257 C436 263 434 266 430 266 C414 266 393 187 278 187 C249 187 213 198 193 217 L381 477 L383 477 C383 458 375 431 375 410 C375 387 389 373 412 373 C451 373 469 403 469 438 C469 483 442 510 424 527 L524 664 Z " />
<glyph glyph-name="sterling" unicode="&#xa3;" horiz-adv-x="556" d="M83 354 L78 316 L244 316 C254 296 270 273 270 234 C270 188 241 150 206 112 C159 152 112 177 73 177 C13 177 -32 132 -32 81 C-32 26 1 -2 57 -2 C89 -2 126 14 162 43 C190 13 225 -16 270 -16 C437 -16 468 199 468 252 C468 259 465 264 458 264 C437 264 453 60 311 60 C271 60 243 82 221 98 C271 157 322 210 322 316 L448 316 L454 354 L317 354 C286 457 227 476 227 541 C227 617 293 668 350 668 C430 668 485 591 485 474 C485 466 483 458 483 448 C483 441 486 438 492 438 C499 438 502 443 505 457 L537 611 C542 636 544 645 544 653 C544 660 541 662 535 662 C522 662 523 634 499 634 C470 634 430 686 352 686 C236 686 155 572 155 490 C155 439 172 400 214 354 L83 354 Z M50 139 C84 139 104 117 149 58 C133 44 101 22 58 22 C19 22 -8 40 -8 82 C-8 116 15 139 50 139 L50 139 Z " />
<glyph glyph-name="currency" unicode="&#xa4;" horiz-adv-x="556" d="M512 339 C512 395 496 451 459 493 L514 547 L472 589 L416 533 C374 569 320 587 264 587 C208 587 154 569 112 533 L56 589 L14 547 L69 493 C32 451 16 395 16 339 C16 283 32 227 69 185 L14 131 L56 89 L112 145 C154 109 208 91 264 91 C320 91 374 109 416 145 L472 89 L514 131 L459 185 C496 227 512 283 512 339 L512 339 Z M450 339 C450 237 369 149 264 149 C159 149 78 237 78 339 C78 441 159 529 264 529 C369 529 450 441 450 339 L450 339 Z " />
<glyph glyph-name="yen" unicode="&#xa5;" horiz-adv-x="556" d="M457 252 L276 252 C284 289 287 302 291 319 L312 343 L470 343 L477 381 L345 381 C411 457 461 515 510 567 C609 672 649 643 649 666 C649 676 644 680 633 680 C606 680 579 678 552 678 C512 678 473 680 433 680 C419 680 415 676 415 666 C415 641 468 667 468 609 C468 569 437 518 283 352 C211 562 200 585 200 611 C200 671 283 643 283 667 C283 676 278 680 266 680 C231 680 196 678 161 678 C121 678 81 680 49 680 C28 680 24 676 24 666 C24 642 80 660 97 613 L180 381 L51 381 L44 343 L194 343 L203 318 L188 252 L31 252 L24 214 L180 214 L152 89 C133 3 44 39 44 10 C44 2 49 -2 56 -2 C98 -2 141 0 185 0 C221 0 256 -2 297 -2 C312 -2 315 2 315 12 C315 36 238 5 238 74 C238 88 244 107 268 214 L450 214 L457 252 Z " />
<glyph glyph-name="brokenbar" unicode="&#xa6;" horiz-adv-x="222" d="M60 0 L122 0 L122 275 L60 275 L60 0 Z M60 455 L122 455 L122 730 L60 730 L60 455 Z " />
<glyph glyph-name="section" unicode="&#xa7;" horiz-adv-x="500" d="M104 315 C104 356 123 388 183 411 C262 356 337 316 337 255 C337 215 302 179 258 166 C140 238 104 274 104 315 L104 315 Z M266 670 C334 670 372 616 382 572 C398 500 392 482 406 482 C418 482 417 507 429 577 C439 635 446 661 446 670 C446 673 443 675 438 675 C426 675 423 654 397 654 C369 654 332 694 251 694 C155 694 89 619 89 552 C89 503 107 466 165 424 C90 414 18 367 18 284 C18 136 260 117 260 -3 C260 -55 224 -98 155 -98 C79 -98 20 -32 7 36 C-5 98 -1 115 -11 115 C-22 115 -19 111 -35 23 C-52 -76 -57 -95 -57 -105 C-57 -110 -53 -112 -50 -112 C-38 -112 -36 -85 -6 -85 C12 -85 62 -122 140 -122 C274 -122 350 -48 350 27 C350 84 322 115 277 152 C383 168 417 238 417 288 C417 426 175 478 175 582 C175 626 206 670 266 670 L266 670 Z " />
<glyph glyph-name="dieresis" unicode="&#xa8;" horiz-adv-x="315" d="M44 574 C44 546 66 524 94 524 C122 524 144 546 144 574 C144 602 122 624 94 624 C66 624 44 602 44 574 L44 574 Z M242 574 C242 546 264 524 292 524 C320 524 342 546 342 574 C342 602 320 624 292 624 C264 624 242 602 242 574 L242 574 Z " />
<glyph glyph-name="copyright" unicode="&#xa9;" horiz-adv-x="800" d="M384 -16 C581 -16 732 141 732 339 C732 537 581 694 384 694 C187 694 36 537 36 339 C36 141 187 -16 384 -16 L384 -16 Z M384 34 C227 34 104 175 104 339 C104 503 227 644 384 644 C541 644 664 503 664 339 C664 175 541 34 384 34 L384 34 Z M536 260 C513 209 473 170 413 170 C334 170 286 224 286 355 C286 470 344 524 411 524 C468 524 504 490 520 436 L538 436 L538 510 C538 528 472 548 412 548 C264 548 186 460 186 350 C186 212 276 146 404 146 C465 146 536 170 538 181 L554 260 L536 260 Z " />
<glyph glyph-name="ordfeminine" unicode="&#xaa;" horiz-adv-x="344" d="M185 686 C117 686 13 609 13 492 C13 440 40 404 98 404 C169 404 208 454 222 479 L224 478 C222 465 222 457 222 449 C222 422 239 404 276 404 C351 404 368 498 368 505 C368 511 365 515 358 515 C341 515 335 444 300 444 C289 444 282 451 282 461 C282 475 290 497 310 593 C319 636 341 666 341 678 C341 681 338 682 334 682 C323 682 315 671 262 633 C256 651 243 686 185 686 L185 686 Z M81 482 C81 510 103 668 189 668 C222 668 242 644 242 602 C242 555 192 434 122 434 C94 434 81 453 81 482 L81 482 Z " />
<glyph glyph-name="guillemotleft" unicode="&#xab;" horiz-adv-x="444" d="M4 222 C4 211 14 206 72 128 C133 47 134 41 143 41 C149 41 156 45 156 53 C156 61 138 91 69 224 C172 340 230 392 230 404 C230 410 225 413 221 413 C215 413 210 404 87 298 C12 233 4 231 4 222 L4 222 Z M134 222 C134 211 144 206 202 128 C263 47 264 41 273 41 C279 41 286 45 286 53 C286 61 268 91 199 224 C302 340 360 392 360 404 C360 410 355 413 351 413 C345 413 340 404 217 298 C142 233 134 231 134 222 L134 222 Z " />
<glyph glyph-name="logicalnot" unicode="&#xac;" horiz-adv-x="600" d="M436 107 L498 107 L498 347 L44 347 L44 285 L436 285 L436 107 Z " />
<glyph glyph-name="registered" unicode="&#xae;" horiz-adv-x="800" d="M216 518 C262 515 266 511 266 476 L266 216 C266 181 262 177 216 174 L216 156 L394 156 L394 174 C348 177 344 181 344 216 L344 322 L380 322 C433 242 462 156 493 156 L574 156 L574 168 C554 186 527 219 504 252 L446 334 C494 350 526 391 526 438 C526 500 472 536 411 536 L216 536 L216 518 Z M344 512 L378 512 C422 512 442 488 442 440 C442 376 412 346 378 346 L344 346 L344 512 Z M384 -16 C581 -16 732 141 732 339 C732 537 581 694 384 694 C187 694 36 537 36 339 C36 141 187 -16 384 -16 L384 -16 Z M384 34 C227 34 104 175 104 339 C104 503 227 644 384 644 C541 644 664 503 664 339 C664 175 541 34 384 34 L384 34 Z " />
<glyph glyph-name="macron" unicode="&#xaf;" horiz-adv-x="315" d="M347 600 L46 600 L35 550 L336 550 L347 600 Z " />
<glyph glyph-name="degree" unicode="&#xb0;" horiz-adv-x="400" d="M62 544 C62 466 126 402 204 402 C282 402 346 466 346 544 C346 622 282 686 204 686 C126 686 62 622 62 544 L62 544 Z M112 544 C112 598 153 642 204 642 C255 642 296 598 296 544 C296 489 255 446 204 446 C153 446 112 489 112 544 L112 544 Z " />
<glyph glyph-name="plusminus" unicode="&#xb1;" horiz-adv-x="600" d="M240 312 L44 312 L44 250 L240 250 L240 97 L302 97 L302 250 L498 250 L498 312 L302 312 L302 454 L240 454 L240 312 Z M44 0 L498 0 L498 62 L44 62 L44 0 Z " />
<glyph glyph-name="twosuperior" unicode="&#xb2;" horiz-adv-x="333" d="M49 336 C141 462 338 427 338 585 C338 644 283 686 217 686 C112 686 55 593 55 579 C55 575 57 571 64 571 C78 571 105 640 188 640 C226 640 264 616 264 569 C264 436 17 442 -10 274 L259 274 C296 346 303 353 303 364 C303 369 300 375 293 375 C274 375 282 336 218 336 L49 336 Z " />
<glyph glyph-name="threesuperior" unicode="&#xb3;" horiz-adv-x="333" d="M-8 352 C-8 306 53 268 122 268 C224 268 322 337 322 424 C322 459 310 491 283 514 C307 533 332 554 332 600 C332 656 279 686 225 686 C135 686 88 620 88 612 C88 606 93 602 98 602 C103 602 138 640 190 640 C232 640 258 620 258 585 C258 549 236 521 207 511 C183 502 159 507 159 494 C159 481 175 485 200 478 C229 469 248 449 248 407 C248 322 191 292 131 292 C101 292 86 301 76 313 C65 328 76 392 27 392 C7 392 -8 376 -8 352 L-8 352 Z " />
<glyph glyph-name="acute" unicode="&#xb4;" horiz-adv-x="315" d="M148 508 L312 609 C329 620 340 630 340 647 C340 670 323 682 308 682 C290 682 276 665 263 653 L114 508 L148 508 Z " />
<glyph glyph-name="mu" unicode="&#xb5;" horiz-adv-x="611" d="M373 269 C359 212 293 30 194 30 C160 30 143 51 143 80 C143 137 201 318 201 380 C201 427 173 462 120 462 C12 462 -19 312 -19 301 C-19 294 -17 292 -11 292 C-3 292 -3 302 9 335 C24 377 46 412 80 412 C102 412 111 399 111 380 C111 362 98 321 86 267 L22 -17 C9 -75 -5 -124 -5 -150 C-5 -176 12 -194 39 -194 C93 -194 87 -135 122 -3 C133 -6 145 -8 161 -8 C233 -8 290 36 347 146 L349 144 C345 117 342 101 342 74 C342 27 366 -8 419 -8 C533 -8 562 142 562 153 C562 160 560 162 554 162 C546 162 546 152 534 119 C519 77 497 42 463 42 C442 42 432 55 432 78 C432 118 471 295 504 458 C491 454 477 452 465 452 C453 452 436 454 419 458 L373 269 Z " />
<glyph glyph-name="paragraph" unicode="&#xb6;" horiz-adv-x="600" d="M151 -140 L209 -140 L387 648 L447 648 L269 -140 L327 -140 L492 592 C502 636 525 652 588 654 L593 678 L345 678 C184 678 82 582 82 414 C82 332 127 267 243 267 L151 -140 Z " />
<glyph glyph-name="periodcentered" unicode="&#xb7;" horiz-adv-x="278" d="M52 227 C52 196 77 171 108 171 C139 171 164 196 164 227 C164 258 139 283 108 283 C77 283 52 258 52 227 L52 227 Z " />
<glyph glyph-name="cedilla" unicode="&#xb8;" horiz-adv-x="315" d="M44 0 L-16 -96 L-7 -104 C3 -100 14 -97 28 -97 C49 -97 71 -114 71 -138 C71 -164 49 -182 16 -182 C-9 -182 -32 -174 -50 -167 L-66 -195 C-35 -211 -1 -216 23 -216 C87 -216 145 -190 145 -135 C145 -87 111 -63 65 -63 C53 -63 47 -64 38 -66 L82 0 L44 0 Z " />
<glyph glyph-name="onesuperior" unicode="&#xb9;" horiz-adv-x="333" d="M43 296 C11 296 3 292 3 281 C3 273 5 272 17 272 C55 272 92 274 130 274 C172 274 214 272 255 272 C263 272 268 273 268 282 C268 290 263 296 247 296 C203 296 190 301 190 318 C190 336 269 657 269 676 C269 682 265 686 257 686 C246 686 231 671 173 658 C99 641 76 650 76 631 C76 619 88 618 153 618 C171 618 178 618 178 609 C178 595 162 552 112 337 C106 309 99 296 43 296 L43 296 Z " />
<glyph glyph-name="ordmasculine" unicode="&#xba;" horiz-adv-x="311" d="M239 606 C239 522 205 422 146 422 C115 422 97 444 97 485 C97 565 131 668 190 668 C215 668 239 643 239 606 L239 606 Z M189 686 C88 686 21 613 21 527 C21 451 71 404 147 404 C248 404 315 477 315 564 C315 639 264 686 189 686 L189 686 Z " />
<glyph glyph-name="guillemotright" unicode="&#xbb;" horiz-adv-x="444" d="M360 232 C360 243 350 248 292 326 C231 407 230 413 221 413 C215 413 208 409 208 401 C208 393 226 363 295 230 C192 114 134 62 134 50 C134 44 139 41 143 41 C149 41 154 50 277 156 C352 221 360 223 360 232 L360 232 Z M230 232 C230 243 220 248 162 326 C101 407 100 413 91 413 C85 413 78 409 78 401 C78 393 96 363 165 230 C62 114 4 62 4 50 C4 44 9 41 13 41 C19 41 24 50 147 156 C222 221 230 223 230 232 L230 232 Z " />
<glyph glyph-name="onequarter" unicode="&#xbc;" horiz-adv-x="834" d="M735 412 L458 141 L465 114 L633 114 C628 95 626 74 619 54 C604 10 549 32 549 11 C549 1 553 -2 566 -2 C589 -2 618 0 646 0 C675 0 703 -2 730 -2 C740 -2 743 1 743 11 C743 31 693 13 693 52 C693 61 701 96 706 114 L765 114 L776 154 L717 154 L774 412 L735 412 Z M509 154 L677 318 L679 316 L641 154 L509 154 Z M590 686 L166 -8 L243 -8 L667 686 L590 686 Z M36 296 C4 296 -4 292 -4 281 C-4 273 -2 272 10 272 C48 272 85 274 123 274 C165 274 207 272 248 272 C256 272 261 273 261 282 C261 290 256 296 240 296 C196 296 183 301 183 318 C183 336 262 657 262 676 C262 682 258 686 250 686 C239 686 224 671 166 658 C92 641 69 650 69 631 C69 619 81 618 146 618 C164 618 171 618 171 609 C171 595 155 552 105 337 C99 309 92 296 36 296 L36 296 Z " />
<glyph glyph-name="onehalf" unicode="&#xbd;" horiz-adv-x="834" d="M578 686 L154 -8 L231 -8 L655 686 L578 686 Z M24 296 C-8 296 -16 292 -16 281 C-16 273 -14 272 -2 272 C36 272 73 274 111 274 C153 274 195 272 236 272 C244 272 249 273 249 282 C249 290 244 296 228 296 C184 296 171 301 171 318 C171 336 250 657 250 676 C250 682 246 686 238 686 C227 686 212 671 154 658 C80 641 57 650 57 631 C57 619 69 618 134 618 C152 618 159 618 159 609 C159 595 143 552 93 337 C87 309 80 296 24 296 L24 296 Z M503 62 C595 188 792 153 792 311 C792 370 737 412 671 412 C566 412 509 319 509 305 C509 301 511 297 518 297 C532 297 559 366 642 366 C680 366 718 342 718 295 C718 162 471 168 444 0 L713 0 C750 72 757 79 757 90 C757 95 754 101 747 101 C728 101 736 62 672 62 L503 62 Z " />
<glyph glyph-name="threequarters" unicode="&#xbe;" horiz-adv-x="834" d="M742 412 L465 141 L472 114 L640 114 C635 95 633 74 626 54 C611 10 556 32 556 11 C556 1 560 -2 573 -2 C596 -2 625 0 653 0 C682 0 710 -2 737 -2 C747 -2 750 1 750 11 C750 31 700 13 700 52 C700 61 708 96 713 114 L772 114 L783 154 L724 154 L781 412 L742 412 Z M516 154 L684 318 L686 316 L648 154 L516 154 Z M-4 352 C-4 306 57 268 126 268 C228 268 326 337 326 424 C326 459 314 491 287 514 C311 533 336 554 336 600 C336 656 283 686 229 686 C139 686 92 620 92 612 C92 606 97 602 102 602 C107 602 142 640 194 640 C236 640 262 620 262 585 C262 549 240 521 211 511 C187 502 163 507 163 494 C163 481 179 485 204 478 C233 469 252 449 252 407 C252 322 195 292 135 292 C105 292 90 301 80 313 C69 328 80 392 31 392 C11 392 -4 376 -4 352 L-4 352 Z M605 686 L181 -8 L258 -8 L682 686 L605 686 Z " />
<glyph glyph-name="questiondown" unicode="&#xbf;" horiz-adv-x="593" d="M358 63 C356 91 354 112 354 142 C354 202 362 244 362 260 C362 265 359 267 352 267 C339 267 338 245 318 186 C291 192 264 197 236 197 C101 197 10 81 10 -28 C10 -142 100 -212 228 -212 C319 -212 388 -172 388 -126 C388 -105 372 -87 344 -87 C272 -87 268 -176 169 -176 C102 -176 40 -120 40 -40 C40 15 88 119 218 119 C262 119 310 98 323 56 L358 63 Z M367 378 C403 378 431 404 431 446 C431 474 409 490 383 490 C347 490 319 464 319 422 C319 394 341 378 367 378 L367 378 Z " />
<glyph glyph-name="Agrave" unicode="&#xc0;" horiz-adv-x="630" d="M378 250 C389 187 410 114 410 76 C410 10 329 42 329 10 C329 3 333 -2 339 -2 C374 -2 417 0 452 0 C483 0 526 -2 557 -2 C567 -2 570 5 570 11 C570 30 514 23 502 83 L388 674 C385 691 382 698 376 698 C363 698 370 674 336 639 C301 602 290 601 290 590 C290 580 305 580 305 567 C305 551 110 229 42 127 C-41 2 -110 36 -110 10 C-110 3 -107 -2 -97 -2 C-63 -2 -19 0 21 0 C61 0 104 -2 145 -2 C154 -2 156 4 156 10 C156 29 80 24 80 89 C80 138 137 230 149 250 L378 250 Z M162 274 L319 539 L372 274 L162 274 Z M446 711 L338 853 C321 875 308 885 293 885 C273 885 256 872 256 850 C256 836 263 828 280 815 L415 711 L446 711 Z " />
<glyph glyph-name="Aacute" unicode="&#xc1;" horiz-adv-x="630" d="M378 250 C389 187 410 114 410 76 C410 10 329 42 329 10 C329 3 333 -2 339 -2 C374 -2 417 0 452 0 C483 0 526 -2 557 -2 C567 -2 570 5 570 11 C570 30 514 23 502 83 L388 674 C385 691 382 698 376 698 C363 698 370 674 336 639 C301 602 290 601 290 590 C290 580 305 580 305 567 C305 551 110 229 42 127 C-41 2 -110 36 -110 10 C-110 3 -107 -2 -97 -2 C-63 -2 -19 0 21 0 C61 0 104 -2 145 -2 C154 -2 156 4 156 10 C156 29 80 24 80 89 C80 138 137 230 149 250 L378 250 Z M162 274 L319 539 L372 274 L162 274 Z M347 711 L511 812 C528 823 539 833 539 850 C539 873 522 885 507 885 C489 885 475 868 462 856 L313 711 L347 711 Z " />
<glyph glyph-name="Acircumflex" unicode="&#xc2;" horiz-adv-x="630" d="M378 250 C389 187 410 114 410 76 C410 10 329 42 329 10 C329 3 333 -2 339 -2 C374 -2 417 0 452 0 C483 0 526 -2 557 -2 C567 -2 570 5 570 11 C570 30 514 23 502 83 L388 674 C385 691 382 698 376 698 C363 698 370 674 336 639 C301 602 290 601 290 590 C290 580 305 580 305 567 C305 551 110 229 42 127 C-41 2 -110 36 -110 10 C-110 3 -107 -2 -97 -2 C-63 -2 -19 0 21 0 C61 0 104 -2 145 -2 C154 -2 156 4 156 10 C156 29 80 24 80 89 C80 138 137 230 149 250 L378 250 Z M162 274 L319 539 L372 274 L162 274 Z M515 711 L426 881 L377 881 L219 711 L258 711 L396 815 L479 711 L515 711 Z " />
<glyph glyph-name="Atilde" unicode="&#xc3;" horiz-adv-x="630" d="M378 250 C389 187 410 114 410 76 C410 10 329 42 329 10 C329 3 333 -2 339 -2 C374 -2 417 0 452 0 C483 0 526 -2 557 -2 C567 -2 570 5 570 11 C570 30 514 23 502 83 L388 674 C385 691 382 698 376 698 C363 698 370 674 336 639 C301 602 290 601 290 590 C290 580 305 580 305 567 C305 551 110 229 42 127 C-41 2 -110 36 -110 10 C-110 3 -107 -2 -97 -2 C-63 -2 -19 0 21 0 C61 0 104 -2 145 -2 C154 -2 156 4 156 10 C156 29 80 24 80 89 C80 138 137 230 149 250 L378 250 Z M162 274 L319 539 L372 274 L162 274 Z M533 845 C524 817 513 799 484 799 C463 799 439 811 414 822 C388 834 361 845 333 845 C271 845 246 789 235 739 L265 739 C270 766 289 787 316 787 C339 787 363 776 388 764 C413 752 439 741 466 741 C519 741 552 790 561 845 L533 845 Z " />
<glyph glyph-name="Adieresis" unicode="&#xc4;" horiz-adv-x="630" d="M378 250 C389 187 410 114 410 76 C410 10 329 42 329 10 C329 3 333 -2 339 -2 C374 -2 417 0 452 0 C483 0 526 -2 557 -2 C567 -2 570 5 570 11 C570 30 514 23 502 83 L388 674 C385 691 382 698 376 698 C363 698 370 674 336 639 C301 602 290 601 290 590 C290 580 305 580 305 567 C305 551 110 229 42 127 C-41 2 -110 36 -110 10 C-110 3 -107 -2 -97 -2 C-63 -2 -19 0 21 0 C61 0 104 -2 145 -2 C154 -2 156 4 156 10 C156 29 80 24 80 89 C80 138 137 230 149 250 L378 250 Z M162 274 L319 539 L372 274 L162 274 Z M243 777 C243 749 265 727 293 727 C321 727 343 749 343 777 C343 805 321 827 293 827 C265 827 243 805 243 777 L243 777 Z M441 777 C441 749 463 727 491 727 C519 727 541 749 541 777 C541 805 519 827 491 827 C463 827 441 805 441 777 L441 777 Z " />
<glyph glyph-name="Aring" unicode="&#xc5;" horiz-adv-x="630" d="M378 250 C389 187 410 114 410 76 C410 10 329 42 329 10 C329 3 333 -2 339 -2 C374 -2 417 0 452 0 C483 0 526 -2 557 -2 C567 -2 570 5 570 11 C570 30 514 23 502 83 L388 674 C385 691 382 698 376 698 C363 698 370 674 336 639 C301 602 290 601 290 590 C290 580 305 580 305 567 C305 551 110 229 42 127 C-41 2 -110 36 -110 10 C-110 3 -107 -2 -97 -2 C-63 -2 -19 0 21 0 C61 0 104 -2 145 -2 C154 -2 156 4 156 10 C156 29 80 24 80 89 C80 138 137 230 149 250 L378 250 Z M162 274 L319 539 L372 274 L162 274 Z M294 811 C294 756 338 711 394 711 C449 711 494 756 494 811 C494 866 449 911 394 911 C338 911 294 866 294 811 L294 811 Z M328 811 C328 847 357 877 394 877 C430 877 460 847 460 811 C460 775 430 745 394 745 C357 745 328 775 328 811 L328 811 Z " />
<glyph glyph-name="AE" unicode="&#xc6;" horiz-adv-x="963" d="M438 332 L376 71 C361 7 285 33 285 8 C285 0 288 -2 314 -2 C361 -2 440 0 526 0 C630 0 712 -2 798 -2 C891 228 901 241 901 253 C901 258 899 262 892 262 C874 262 853 182 799 131 C730 65 648 22 546 22 C497 22 478 39 478 64 C478 90 486 115 532 332 C638 332 656 284 656 232 C656 212 651 194 651 182 C651 173 652 169 660 169 C674 169 673 178 709 349 C735 474 739 486 739 503 C739 509 736 511 731 511 C714 511 719 464 693 425 C665 383 625 356 537 356 L604 656 C773 656 852 624 884 503 C893 469 894 453 906 453 C914 453 917 456 917 466 C917 487 912 509 894 680 C812 680 726 678 641 678 C555 678 452 680 384 680 C369 680 363 676 363 668 C363 646 414 668 414 630 C414 598 391 589 30 162 C-106 1 -160 33 -160 11 C-160 0 -154 -2 -134 -2 C-105 -2 -63 0 -21 0 C21 0 62 -2 104 -2 C115 -2 120 2 120 12 C120 32 47 6 47 95 C47 150 96 182 212 332 L438 332 Z M509 655 L443 356 L229 356 L479 655 L509 655 Z " />
<glyph glyph-name="Ccedilla" unicode="&#xc7;" horiz-adv-x="704" d="M128 241 C128 466 242 670 410 670 C519 670 585 603 601 481 C609 421 606 398 618 398 C626 398 629 402 632 417 C676 636 683 655 683 664 C683 674 678 678 671 678 C650 678 661 628 613 628 C575 628 534 694 407 694 C229 694 22 526 22 276 C22 112 131 -16 318 -16 C425 -16 463 20 495 20 C533 20 510 -25 536 -25 C544 -25 549 -19 555 6 C599 212 604 228 604 237 C604 244 600 248 595 248 C582 248 586 240 567 199 C511 76 426 8 307 8 C206 8 128 80 128 241 L128 241 Z M297 0 L237 -96 L246 -104 C256 -100 267 -97 281 -97 C302 -97 324 -114 324 -138 C324 -164 302 -182 269 -182 C244 -182 221 -174 203 -167 L187 -195 C218 -211 252 -216 276 -216 C340 -216 398 -190 398 -135 C398 -87 364 -63 318 -63 C306 -63 300 -64 291 -66 L335 0 L297 0 Z " />
<glyph glyph-name="Egrave" unicode="&#xc8;" horiz-adv-x="630" d="M271 656 C440 656 519 624 551 503 C560 469 561 453 573 453 C581 453 584 456 584 466 C584 487 579 509 561 680 C467 680 374 678 280 678 C221 678 163 680 104 680 C94 680 89 676 89 666 C89 637 157 666 157 608 C157 580 145 537 40 68 C27 10 -51 30 -51 8 C-51 1 -48 -2 -31 -2 C18 -2 64 0 129 0 C228 0 346 -2 465 -2 C558 228 568 241 568 253 C568 258 566 262 559 262 C541 262 520 182 466 131 C397 65 315 22 213 22 C164 22 142 39 142 64 C142 90 153 115 200 344 C320 344 338 296 338 244 C338 224 333 206 333 194 C333 185 334 181 342 181 C356 181 355 190 391 361 C417 486 421 498 421 515 C421 521 418 523 413 523 C396 523 401 476 375 437 C347 395 307 368 206 368 L271 656 Z M440 711 L332 853 C315 875 302 885 287 885 C267 885 250 872 250 850 C250 836 257 828 274 815 L409 711 L440 711 Z " />
<glyph glyph-name="Eacute" unicode="&#xc9;" horiz-adv-x="630" d="M271 656 C440 656 519 624 551 503 C560 469 561 453 573 453 C581 453 584 456 584 466 C584 487 579 509 561 680 C467 680 374 678 280 678 C221 678 163 680 104 680 C94 680 89 676 89 666 C89 637 157 666 157 608 C157 580 145 537 40 68 C27 10 -51 30 -51 8 C-51 1 -48 -2 -31 -2 C18 -2 64 0 129 0 C228 0 346 -2 465 -2 C558 228 568 241 568 253 C568 258 566 262 559 262 C541 262 520 182 466 131 C397 65 315 22 213 22 C164 22 142 39 142 64 C142 90 153 115 200 344 C320 344 338 296 338 244 C338 224 333 206 333 194 C333 185 334 181 342 181 C356 181 355 190 391 361 C417 486 421 498 421 515 C421 521 418 523 413 523 C396 523 401 476 375 437 C347 395 307 368 206 368 L271 656 Z M341 711 L505 812 C522 823 533 833 533 850 C533 873 516 885 501 885 C483 885 469 868 456 856 L307 711 L341 711 Z " />
<glyph glyph-name="Ecircumflex" unicode="&#xca;" horiz-adv-x="630" d="M271 656 C440 656 519 624 551 503 C560 469 561 453 573 453 C581 453 584 456 584 466 C584 487 579 509 561 680 C467 680 374 678 280 678 C221 678 163 680 104 680 C94 680 89 676 89 666 C89 637 157 666 157 608 C157 580 145 537 40 68 C27 10 -51 30 -51 8 C-51 1 -48 -2 -31 -2 C18 -2 64 0 129 0 C228 0 346 -2 465 -2 C558 228 568 241 568 253 C568 258 566 262 559 262 C541 262 520 182 466 131 C397 65 315 22 213 22 C164 22 142 39 142 64 C142 90 153 115 200 344 C320 344 338 296 338 244 C338 224 333 206 333 194 C333 185 334 181 342 181 C356 181 355 190 391 361 C417 486 421 498 421 515 C421 521 418 523 413 523 C396 523 401 476 375 437 C347 395 307 368 206 368 L271 656 Z M509 711 L420 881 L371 881 L213 711 L252 711 L390 815 L473 711 L509 711 Z " />
<glyph glyph-name="Edieresis" unicode="&#xcb;" horiz-adv-x="630" d="M271 656 C440 656 519 624 551 503 C560 469 561 453 573 453 C581 453 584 456 584 466 C584 487 579 509 561 680 C467 680 374 678 280 678 C221 678 163 680 104 680 C94 680 89 676 89 666 C89 637 157 666 157 608 C157 580 145 537 40 68 C27 10 -51 30 -51 8 C-51 1 -48 -2 -31 -2 C18 -2 64 0 129 0 C228 0 346 -2 465 -2 C558 228 568 241 568 253 C568 258 566 262 559 262 C541 262 520 182 466 131 C397 65 315 22 213 22 C164 22 142 39 142 64 C142 90 153 115 200 344 C320 344 338 296 338 244 C338 224 333 206 333 194 C333 185 334 181 342 181 C356 181 355 190 391 361 C417 486 421 498 421 515 C421 521 418 523 413 523 C396 523 401 476 375 437 C347 395 307 368 206 368 L271 656 Z M237 777 C237 749 259 727 287 727 C315 727 337 749 337 777 C337 805 315 827 287 827 C259 827 237 805 237 777 L237 777 Z M435 777 C435 749 457 727 485 727 C513 727 535 749 535 777 C535 805 513 827 485 827 C457 827 435 805 435 777 L435 777 Z " />
<glyph glyph-name="Igrave" unicode="&#xcc;" horiz-adv-x="352" d="M176 611 C176 573 161 532 52 68 C37 4 -41 35 -41 12 C-41 2 -38 -2 -16 -2 C13 -2 56 0 100 0 C136 0 171 -2 211 -2 C228 -2 230 2 230 12 C230 33 155 8 155 56 C155 76 165 129 275 599 C293 675 376 640 376 667 C376 676 372 680 363 680 C322 680 279 678 235 678 C199 678 164 680 128 680 C111 680 105 676 105 666 C105 641 176 667 176 611 L176 611 Z M324 711 L216 853 C199 875 186 885 171 885 C151 885 134 872 134 850 C134 836 141 828 158 815 L293 711 L324 711 Z " />
<glyph glyph-name="Iacute" unicode="&#xcd;" horiz-adv-x="352" d="M176 611 C176 573 161 532 52 68 C37 4 -41 35 -41 12 C-41 2 -38 -2 -16 -2 C13 -2 56 0 100 0 C136 0 171 -2 211 -2 C228 -2 230 2 230 12 C230 33 155 8 155 56 C155 76 165 129 275 599 C293 675 376 640 376 667 C376 676 372 680 363 680 C322 680 279 678 235 678 C199 678 164 680 128 680 C111 680 105 676 105 666 C105 641 176 667 176 611 L176 611 Z M225 711 L389 812 C406 823 417 833 417 850 C417 873 400 885 385 885 C367 885 353 868 340 856 L191 711 L225 711 Z " />
<glyph glyph-name="Icircumflex" unicode="&#xce;" horiz-adv-x="352" d="M176 611 C176 573 161 532 52 68 C37 4 -41 35 -41 12 C-41 2 -38 -2 -16 -2 C13 -2 56 0 100 0 C136 0 171 -2 211 -2 C228 -2 230 2 230 12 C230 33 155 8 155 56 C155 76 165 129 275 599 C293 675 376 640 376 667 C376 676 372 680 363 680 C322 680 279 678 235 678 C199 678 164 680 128 680 C111 680 105 676 105 666 C105 641 176 667 176 611 L176 611 Z M393 711 L304 881 L255 881 L97 711 L136 711 L274 815 L357 711 L393 711 Z " />
<glyph glyph-name="Idieresis" unicode="&#xcf;" horiz-adv-x="352" d="M176 611 C176 573 161 532 52 68 C37 4 -41 35 -41 12 C-41 2 -38 -2 -16 -2 C13 -2 56 0 100 0 C136 0 171 -2 211 -2 C228 -2 230 2 230 12 C230 33 155 8 155 56 C155 76 165 129 275 599 C293 675 376 640 376 667 C376 676 372 680 363 680 C322 680 279 678 235 678 C199 678 164 680 128 680 C111 680 105 676 105 666 C105 641 176 667 176 611 L176 611 Z M121 777 C121 749 143 727 171 727 C199 727 221 749 221 777 C221 805 199 827 171 827 C143 827 121 805 121 777 L121 777 Z M319 777 C319 749 341 727 369 727 C397 727 419 749 419 777 C419 805 397 827 369 827 C341 827 319 805 319 777 L319 777 Z " />
<glyph glyph-name="Eth" unicode="&#xd0;" horiz-adv-x="704" d="M17 344 L105 344 C100 322 78 223 46 86 C29 12 -59 36 -59 6 C-59 2 -56 -2 -46 -2 C-11 -2 44 0 80 0 C117 0 178 -2 240 -2 C478 -2 650 176 650 400 C650 576 550 680 348 680 C304 680 274 678 224 678 C190 678 144 680 102 680 C90 680 84 676 84 666 C84 632 157 670 157 612 C157 580 152 549 110 368 L24 368 L17 344 Z M391 368 L206 368 C211 388 236 500 269 656 L320 656 C472 656 544 596 544 441 C544 262 462 22 243 22 C180 22 147 40 147 84 C147 104 153 127 201 344 L384 344 L391 368 Z " />
<glyph glyph-name="Ntilde" unicode="&#xd1;" horiz-adv-x="704" d="M229 678 C155 678 101 680 75 680 C67 680 64 676 64 666 C64 644 114 669 151 599 L167 569 L62 129 C32 1 -77 38 -77 7 C-77 2 -72 -2 -64 -2 C-20 -2 25 0 69 0 C98 0 128 -2 169 -2 C189 -2 192 2 192 11 C192 31 98 12 98 102 C98 132 112 180 188 534 L190 534 C467 4 457 -16 480 -16 C498 -16 489 15 609 523 C641 659 756 648 756 670 C756 676 751 680 743 680 C705 680 660 678 634 678 C587 678 557 680 516 680 C501 680 497 674 497 667 C497 646 588 655 588 578 C588 552 580 520 500 155 L498 155 L229 678 Z M570 845 C561 817 550 799 521 799 C500 799 476 811 451 822 C425 834 398 845 370 845 C308 845 283 789 272 739 L302 739 C307 766 326 787 353 787 C376 787 400 776 425 764 C450 752 476 741 503 741 C556 741 589 790 598 845 L570 845 Z " />
<glyph glyph-name="Ograve" unicode="&#xd2;" horiz-adv-x="778" d="M22 280 C22 118 152 -16 326 -16 C504 -16 724 132 724 398 C724 560 594 694 420 694 C242 694 22 546 22 280 L22 280 Z M128 232 C128 428 224 670 418 670 C530 670 618 610 618 446 C618 250 522 8 328 8 C216 8 128 68 128 232 L128 232 Z M520 711 L412 853 C395 875 382 885 367 885 C347 885 330 872 330 850 C330 836 337 828 354 815 L489 711 L520 711 Z " />
<glyph glyph-name="Oacute" unicode="&#xd3;" horiz-adv-x="778" d="M22 280 C22 118 152 -16 326 -16 C504 -16 724 132 724 398 C724 560 594 694 420 694 C242 694 22 546 22 280 L22 280 Z M128 232 C128 428 224 670 418 670 C530 670 618 610 618 446 C618 250 522 8 328 8 C216 8 128 68 128 232 L128 232 Z M421 711 L585 812 C602 823 613 833 613 850 C613 873 596 885 581 885 C563 885 549 868 536 856 L387 711 L421 711 Z " />
<glyph glyph-name="Ocircumflex" unicode="&#xd4;" horiz-adv-x="778" d="M22 280 C22 118 152 -16 326 -16 C504 -16 724 132 724 398 C724 560 594 694 420 694 C242 694 22 546 22 280 L22 280 Z M128 232 C128 428 224 670 418 670 C530 670 618 610 618 446 C618 250 522 8 328 8 C216 8 128 68 128 232 L128 232 Z M589 711 L500 881 L451 881 L293 711 L332 711 L470 815 L553 711 L589 711 Z " />
<glyph glyph-name="Otilde" unicode="&#xd5;" horiz-adv-x="778" d="M22 280 C22 118 152 -16 326 -16 C504 -16 724 132 724 398 C724 560 594 694 420 694 C242 694 22 546 22 280 L22 280 Z M128 232 C128 428 224 670 418 670 C530 670 618 610 618 446 C618 250 522 8 328 8 C216 8 128 68 128 232 L128 232 Z M607 845 C598 817 587 799 558 799 C537 799 513 811 488 822 C462 834 435 845 407 845 C345 845 320 789 309 739 L339 739 C344 766 363 787 390 787 C413 787 437 776 462 764 C487 752 513 741 540 741 C593 741 626 790 635 845 L607 845 Z " />
<glyph glyph-name="Odieresis" unicode="&#xd6;" horiz-adv-x="778" d="M22 280 C22 118 152 -16 326 -16 C504 -16 724 132 724 398 C724 560 594 694 420 694 C242 694 22 546 22 280 L22 280 Z M128 232 C128 428 224 670 418 670 C530 670 618 610 618 446 C618 250 522 8 328 8 C216 8 128 68 128 232 L128 232 Z M317 777 C317 749 339 727 367 727 C395 727 417 749 417 777 C417 805 395 827 367 827 C339 827 317 805 317 777 L317 777 Z M515 777 C515 749 537 727 565 727 C593 727 615 749 615 777 C615 805 593 827 565 827 C537 827 515 805 515 777 L515 777 Z " />
<glyph glyph-name="multiply" unicode="&#xd7;" horiz-adv-x="600" d="M224 227 L42 44 L86 0 L269 183 L453 0 L498 44 L315 227 L498 410 L453 454 L269 271 L86 454 L42 410 L224 227 Z " />
<glyph glyph-name="Oslash" unicode="&#xd8;" horiz-adv-x="778" d="M168 81 C142 117 128 166 128 232 C128 428 224 670 418 670 C465 670 509 659 542 635 L168 81 Z M571 608 C600 572 618 519 618 446 C618 250 522 8 328 8 C276 8 229 21 195 51 L571 608 Z M103 -84 L175 22 C218 -2 270 -16 326 -16 C504 -16 724 132 724 398 C724 498 674 588 594 642 L667 750 L620 750 L560 662 C519 683 471 694 420 694 C242 694 22 546 22 280 C22 184 68 97 143 43 L57 -84 L103 -84 Z " />
<glyph glyph-name="Ugrave" unicode="&#xd9;" horiz-adv-x="704" d="M52 137 C52 28 186 -16 261 -16 C386 -16 505 43 536 188 C606 517 604 537 644 598 C697 679 748 641 748 666 C748 676 744 680 736 680 C708 680 679 678 651 678 C606 678 562 680 517 680 C508 680 503 676 503 666 C503 645 582 665 582 563 C582 520 574 489 514 193 C494 94 418 14 294 14 C213 14 152 56 152 138 C152 172 169 232 246 597 C263 678 342 643 342 666 C342 676 337 680 330 680 C291 680 251 678 211 678 C175 678 138 680 102 680 C83 680 79 676 79 666 C79 638 148 671 148 604 C148 554 52 197 52 137 L52 137 Z M483 711 L375 853 C358 875 345 885 330 885 C310 885 293 872 293 850 C293 836 300 828 317 815 L452 711 L483 711 Z " />
<glyph glyph-name="Uacute" unicode="&#xda;" horiz-adv-x="704" d="M52 137 C52 28 186 -16 261 -16 C386 -16 505 43 536 188 C606 517 604 537 644 598 C697 679 748 641 748 666 C748 676 744 680 736 680 C708 680 679 678 651 678 C606 678 562 680 517 680 C508 680 503 676 503 666 C503 645 582 665 582 563 C582 520 574 489 514 193 C494 94 418 14 294 14 C213 14 152 56 152 138 C152 172 169 232 246 597 C263 678 342 643 342 666 C342 676 337 680 330 680 C291 680 251 678 211 678 C175 678 138 680 102 680 C83 680 79 676 79 666 C79 638 148 671 148 604 C148 554 52 197 52 137 L52 137 Z M384 711 L548 812 C565 823 576 833 576 850 C576 873 559 885 544 885 C526 885 512 868 499 856 L350 711 L384 711 Z " />
<glyph glyph-name="Ucircumflex" unicode="&#xdb;" horiz-adv-x="704" d="M52 137 C52 28 186 -16 261 -16 C386 -16 505 43 536 188 C606 517 604 537 644 598 C697 679 748 641 748 666 C748 676 744 680 736 680 C708 680 679 678 651 678 C606 678 562 680 517 680 C508 680 503 676 503 666 C503 645 582 665 582 563 C582 520 574 489 514 193 C494 94 418 14 294 14 C213 14 152 56 152 138 C152 172 169 232 246 597 C263 678 342 643 342 666 C342 676 337 680 330 680 C291 680 251 678 211 678 C175 678 138 680 102 680 C83 680 79 676 79 666 C79 638 148 671 148 604 C148 554 52 197 52 137 L52 137 Z M552 711 L463 881 L414 881 L256 711 L295 711 L433 815 L516 711 L552 711 Z " />
<glyph glyph-name="Udieresis" unicode="&#xdc;" horiz-adv-x="704" d="M52 137 C52 28 186 -16 261 -16 C386 -16 505 43 536 188 C606 517 604 537 644 598 C697 679 748 641 748 666 C748 676 744 680 736 680 C708 680 679 678 651 678 C606 678 562 680 517 680 C508 680 503 676 503 666 C503 645 582 665 582 563 C582 520 574 489 514 193 C494 94 418 14 294 14 C213 14 152 56 152 138 C152 172 169 232 246 597 C263 678 342 643 342 666 C342 676 337 680 330 680 C291 680 251 678 211 678 C175 678 138 680 102 680 C83 680 79 676 79 666 C79 638 148 671 148 604 C148 554 52 197 52 137 L52 137 Z M280 777 C280 749 302 727 330 727 C358 727 380 749 380 777 C380 805 358 827 330 827 C302 827 280 805 280 777 L280 777 Z M478 777 C478 749 500 727 528 727 C556 727 578 749 578 777 C578 805 556 827 528 827 C500 827 478 805 478 777 L478 777 Z " />
<glyph glyph-name="Yacute" unicode="&#xdd;" horiz-adv-x="593" d="M215 318 L164 89 C145 3 56 39 56 10 C56 2 61 -2 68 -2 C118 -2 161 0 205 0 C241 0 276 -2 317 -2 C332 -2 335 2 335 12 C335 36 258 5 258 74 C258 91 267 116 311 319 C385 402 458 491 530 567 C629 672 669 643 669 666 C669 676 664 680 653 680 C626 680 599 678 572 678 C532 678 493 680 453 680 C439 680 435 676 435 666 C435 641 488 667 488 609 C488 569 457 518 303 352 C236 546 220 584 220 610 C220 670 303 645 303 666 C303 676 298 680 286 680 C251 680 216 678 181 678 C141 678 101 680 61 680 C40 680 36 676 36 666 C36 642 92 660 109 613 L215 318 Z M322 711 L486 812 C503 823 514 833 514 850 C514 873 497 885 482 885 C464 885 450 868 437 856 L288 711 L322 711 Z " />
<glyph glyph-name="Thorn" unicode="&#xde;" horiz-adv-x="593" d="M160 612 C160 592 155 573 48 81 C31 3 -52 38 -52 12 C-52 2 -48 -2 -32 -2 C-14 -2 13 0 93 0 C149 0 177 -2 200 -2 C222 -2 227 2 227 12 C227 35 146 11 146 70 C146 92 151 108 162 164 L240 164 C424 164 552 260 552 381 C552 477 480 542 335 542 C305 542 275 541 244 540 L257 599 C275 676 358 639 358 666 C358 676 355 680 348 680 C304 680 261 678 217 678 C192 678 149 680 106 680 C95 680 90 676 90 666 C90 643 160 669 160 612 L160 612 Z M239 518 L339 518 C417 518 446 470 446 407 C446 276 376 188 242 188 L167 188 L239 518 Z " />
<glyph glyph-name="germandbls" unicode="&#xdf;" horiz-adv-x="556" d="M95 391 L22 65 C9 8 -59 31 -59 10 C-59 1 -55 -2 -48 -2 C-24 -2 26 0 98 0 L229 582 C244 649 290 706 354 706 C398 706 418 679 418 630 C418 483 306 476 306 399 C306 347 386 333 386 235 C386 213 377 155 359 88 C343 29 307 2 260 2 C238 2 221 9 221 27 C221 42 243 61 243 83 C243 100 228 121 197 121 C161 121 141 90 141 64 C141 9 188 -16 251 -16 C375 -16 480 76 480 203 C480 355 334 367 334 414 C334 451 484 468 484 608 C484 683 430 730 361 730 C187 730 154 470 24 391 L95 391 Z " />
<glyph glyph-name="agrave" unicode="&#xe0;" horiz-adv-x="574" d="M315 128 C313 106 313 93 313 77 C313 22 339 -8 397 -8 C499 -8 530 149 530 164 C530 171 527 174 522 174 C515 174 513 167 500 129 C481 73 463 50 434 50 C416 50 403 61 403 80 C403 110 412 137 447 306 C461 372 495 426 495 441 C495 449 490 454 483 454 C469 454 456 437 373 361 C365 391 344 462 255 462 C153 462 -8 334 -8 139 C-8 52 34 -8 121 -8 C230 -8 290 89 313 130 L315 128 Z M355 322 C355 244 275 30 153 30 C111 30 82 48 82 126 C82 252 158 438 258 438 C313 438 355 402 355 322 L355 322 Z M385 508 L277 650 C260 672 247 682 232 682 C212 682 195 669 195 647 C195 633 202 625 219 612 L354 508 L385 508 Z " />
<glyph glyph-name="aacute" unicode="&#xe1;" horiz-adv-x="574" d="M315 128 C313 106 313 93 313 77 C313 22 339 -8 397 -8 C499 -8 530 149 530 164 C530 171 527 174 522 174 C515 174 513 167 500 129 C481 73 463 50 434 50 C416 50 403 61 403 80 C403 110 412 137 447 306 C461 372 495 426 495 441 C495 449 490 454 483 454 C469 454 456 437 373 361 C365 391 344 462 255 462 C153 462 -8 334 -8 139 C-8 52 34 -8 121 -8 C230 -8 290 89 313 130 L315 128 Z M355 322 C355 244 275 30 153 30 C111 30 82 48 82 126 C82 252 158 438 258 438 C313 438 355 402 355 322 L355 322 Z M286 508 L450 609 C467 620 478 630 478 647 C478 670 461 682 446 682 C428 682 414 665 401 653 L252 508 L286 508 Z " />
<glyph glyph-name="acircumflex" unicode="&#xe2;" horiz-adv-x="574" d="M315 128 C313 106 313 93 313 77 C313 22 339 -8 397 -8 C499 -8 530 149 530 164 C530 171 527 174 522 174 C515 174 513 167 500 129 C481 73 463 50 434 50 C416 50 403 61 403 80 C403 110 412 137 447 306 C461 372 495 426 495 441 C495 449 490 454 483 454 C469 454 456 437 373 361 C365 391 344 462 255 462 C153 462 -8 334 -8 139 C-8 52 34 -8 121 -8 C230 -8 290 89 313 130 L315 128 Z M355 322 C355 244 275 30 153 30 C111 30 82 48 82 126 C82 252 158 438 258 438 C313 438 355 402 355 322 L355 322 Z M454 508 L365 678 L316 678 L158 508 L197 508 L335 612 L418 508 L454 508 Z " />
<glyph glyph-name="atilde" unicode="&#xe3;" horiz-adv-x="574" d="M315 128 C313 106 313 93 313 77 C313 22 339 -8 397 -8 C499 -8 530 149 530 164 C530 171 527 174 522 174 C515 174 513 167 500 129 C481 73 463 50 434 50 C416 50 403 61 403 80 C403 110 412 137 447 306 C461 372 495 426 495 441 C495 449 490 454 483 454 C469 454 456 437 373 361 C365 391 344 462 255 462 C153 462 -8 334 -8 139 C-8 52 34 -8 121 -8 C230 -8 290 89 313 130 L315 128 Z M355 322 C355 244 275 30 153 30 C111 30 82 48 82 126 C82 252 158 438 258 438 C313 438 355 402 355 322 L355 322 Z M472 642 C463 614 452 596 423 596 C402 596 378 608 353 619 C327 631 300 642 272 642 C210 642 185 586 174 536 L204 536 C209 563 228 584 255 584 C278 584 302 573 327 561 C352 549 378 538 405 538 C458 538 491 587 500 642 L472 642 Z " />
<glyph glyph-name="adieresis" unicode="&#xe4;" horiz-adv-x="574" d="M315 128 C313 106 313 93 313 77 C313 22 339 -8 397 -8 C499 -8 530 149 530 164 C530 171 527 174 522 174 C515 174 513 167 500 129 C481 73 463 50 434 50 C416 50 403 61 403 80 C403 110 412 137 447 306 C461 372 495 426 495 441 C495 449 490 454 483 454 C469 454 456 437 373 361 C365 391 344 462 255 462 C153 462 -8 334 -8 139 C-8 52 34 -8 121 -8 C230 -8 290 89 313 130 L315 128 Z M355 322 C355 244 275 30 153 30 C111 30 82 48 82 126 C82 252 158 438 258 438 C313 438 355 402 355 322 L355 322 Z M182 574 C182 546 204 524 232 524 C260 524 282 546 282 574 C282 602 260 624 232 624 C204 624 182 602 182 574 L182 574 Z M380 574 C380 546 402 524 430 524 C458 524 480 546 480 574 C480 602 458 624 430 624 C402 624 380 602 380 574 L380 574 Z " />
<glyph glyph-name="aring" unicode="&#xe5;" horiz-adv-x="574" d="M315 128 C313 106 313 93 313 77 C313 22 339 -8 397 -8 C499 -8 530 149 530 164 C530 171 527 174 522 174 C515 174 513 167 500 129 C481 73 463 50 434 50 C416 50 403 61 403 80 C403 110 412 137 447 306 C461 372 495 426 495 441 C495 449 490 454 483 454 C469 454 456 437 373 361 C365 391 344 462 255 462 C153 462 -8 334 -8 139 C-8 52 34 -8 121 -8 C230 -8 290 89 313 130 L315 128 Z M355 322 C355 244 275 30 153 30 C111 30 82 48 82 126 C82 252 158 438 258 438 C313 438 355 402 355 322 L355 322 Z M233 608 C233 553 277 508 333 508 C388 508 433 553 433 608 C433 663 388 708 333 708 C277 708 233 663 233 608 L233 608 Z M267 608 C267 644 296 674 333 674 C369 674 399 644 399 608 C399 572 369 542 333 542 C296 542 267 572 267 608 L267 608 Z " />
<glyph glyph-name="ae" unicode="&#xe6;" horiz-adv-x="685" d="M524 462 C473 462 422 438 375 416 C362 446 344 462 290 462 C196 462 39 381 39 315 C39 294 50 282 76 282 C113 282 125 317 155 366 C181 409 221 438 258 438 C286 438 298 430 298 408 C298 386 288 334 277 291 C90 217 -22 178 -22 79 C-22 20 8 -8 58 -8 C134 -8 232 62 275 91 C310 34 370 -8 438 -8 C574 -8 635 105 635 117 C635 121 633 124 629 124 C616 124 577 50 484 50 C418 50 344 88 344 204 C464 229 641 292 641 380 C641 430 596 462 524 462 L524 462 Z M239 90 C193 57 142 30 110 30 C82 30 68 40 68 76 C68 179 112 204 272 266 L239 90 Z M503 438 C546 438 565 420 565 383 C565 318 507 259 344 223 C350 345 426 438 503 438 L503 438 Z " />
<glyph glyph-name="ccedilla" unicode="&#xe7;" horiz-adv-x="500" d="M88 203 C88 315 165 444 272 444 C330 444 356 406 356 371 C356 352 345 325 345 297 C345 274 359 256 388 256 C427 256 446 291 446 329 C446 407 378 462 277 462 C118 462 -2 333 -2 196 C-2 67 78 -8 196 -8 C338 -8 412 110 412 128 C412 133 409 135 405 135 C389 135 352 50 242 50 C148 50 88 112 88 203 L88 203 Z M160 0 L100 -96 L109 -104 C119 -100 130 -97 144 -97 C165 -97 187 -114 187 -138 C187 -164 165 -182 132 -182 C107 -182 84 -174 66 -167 L50 -195 C81 -211 115 -216 139 -216 C203 -216 261 -190 261 -135 C261 -87 227 -63 181 -63 C169 -63 163 -64 154 -66 L198 0 L160 0 Z " />
<glyph glyph-name="egrave" unicode="&#xe8;" horiz-adv-x="463" d="M-2 185 C-2 82 70 -8 185 -8 C320 -8 401 104 401 117 C401 122 398 125 394 125 C388 125 380 113 340 84 C318 68 282 50 242 50 C138 50 86 120 88 201 C163 215 235 232 274 245 C375 279 408 325 408 368 C408 429 354 462 278 462 C178 462 -2 369 -2 185 L-2 185 Z M275 444 C309 444 332 426 332 382 C332 356 324 324 302 298 C264 253 161 235 88 221 C99 381 206 444 275 444 L275 444 Z M344 508 L236 650 C219 672 206 682 191 682 C171 682 154 669 154 647 C154 633 161 625 178 612 L313 508 L344 508 Z " />
<glyph glyph-name="eacute" unicode="&#xe9;" horiz-adv-x="463" d="M-2 185 C-2 82 70 -8 185 -8 C320 -8 401 104 401 117 C401 122 398 125 394 125 C388 125 380 113 340 84 C318 68 282 50 242 50 C138 50 86 120 88 201 C163 215 235 232 274 245 C375 279 408 325 408 368 C408 429 354 462 278 462 C178 462 -2 369 -2 185 L-2 185 Z M275 444 C309 444 332 426 332 382 C332 356 324 324 302 298 C264 253 161 235 88 221 C99 381 206 444 275 444 L275 444 Z M245 508 L409 609 C426 620 437 630 437 647 C437 670 420 682 405 682 C387 682 373 665 360 653 L211 508 L245 508 Z " />
<glyph glyph-name="ecircumflex" unicode="&#xea;" horiz-adv-x="463" d="M-2 185 C-2 82 70 -8 185 -8 C320 -8 401 104 401 117 C401 122 398 125 394 125 C388 125 380 113 340 84 C318 68 282 50 242 50 C138 50 86 120 88 201 C163 215 235 232 274 245 C375 279 408 325 408 368 C408 429 354 462 278 462 C178 462 -2 369 -2 185 L-2 185 Z M275 444 C309 444 332 426 332 382 C332 356 324 324 302 298 C264 253 161 235 88 221 C99 381 206 444 275 444 L275 444 Z M413 508 L324 678 L275 678 L117 508 L156 508 L294 612 L377 508 L413 508 Z " />
<glyph glyph-name="edieresis" unicode="&#xeb;" horiz-adv-x="463" d="M-2 185 C-2 82 70 -8 185 -8 C320 -8 401 104 401 117 C401 122 398 125 394 125 C388 125 380 113 340 84 C318 68 282 50 242 50 C138 50 86 120 88 201 C163 215 235 232 274 245 C375 279 408 325 408 368 C408 429 354 462 278 462 C178 462 -2 369 -2 185 L-2 185 Z M275 444 C309 444 332 426 332 382 C332 356 324 324 302 298 C264 253 161 235 88 221 C99 381 206 444 275 444 L275 444 Z M141 574 C141 546 163 524 191 524 C219 524 241 546 241 574 C241 602 219 624 191 624 C163 624 141 602 141 574 L141 574 Z M339 574 C339 546 361 524 389 524 C417 524 439 546 439 574 C439 602 417 624 389 624 C361 624 339 602 339 574 L339 574 Z " />
<glyph glyph-name="igrave" unicode="&#xec;" horiz-adv-x="315" d="M166 42 C144 42 135 55 135 74 C135 107 208 326 208 383 C208 427 184 462 127 462 C23 462 -12 319 -12 309 C-12 302 -8 300 -4 300 C3 300 7 314 15 335 C31 377 53 412 87 412 C109 412 118 399 118 380 C118 341 45 131 45 77 C45 29 73 -8 126 -8 C233 -8 265 142 265 153 C265 160 263 162 257 162 C249 162 249 152 237 119 C222 77 200 42 166 42 L166 42 Z M224 508 L116 650 C99 672 86 682 71 682 C51 682 34 669 34 647 C34 633 41 625 58 612 L193 508 L224 508 Z " />
<glyph glyph-name="iacute" unicode="&#xed;" horiz-adv-x="315" d="M166 42 C144 42 135 55 135 74 C135 107 208 326 208 383 C208 427 184 462 127 462 C23 462 -12 319 -12 309 C-12 302 -8 300 -4 300 C3 300 7 314 15 335 C31 377 53 412 87 412 C109 412 118 399 118 380 C118 341 45 131 45 77 C45 29 73 -8 126 -8 C233 -8 265 142 265 153 C265 160 263 162 257 162 C249 162 249 152 237 119 C222 77 200 42 166 42 L166 42 Z M125 508 L289 609 C306 620 317 630 317 647 C317 670 300 682 285 682 C267 682 253 665 240 653 L91 508 L125 508 Z " />
<glyph glyph-name="icircumflex" unicode="&#xee;" horiz-adv-x="315" d="M166 42 C144 42 135 55 135 74 C135 107 208 326 208 383 C208 427 184 462 127 462 C23 462 -12 319 -12 309 C-12 302 -8 300 -4 300 C3 300 7 314 15 335 C31 377 53 412 87 412 C109 412 118 399 118 380 C118 341 45 131 45 77 C45 29 73 -8 126 -8 C233 -8 265 142 265 153 C265 160 263 162 257 162 C249 162 249 152 237 119 C222 77 200 42 166 42 L166 42 Z M293 508 L204 678 L155 678 L-3 508 L36 508 L174 612 L257 508 L293 508 Z " />
<glyph glyph-name="idieresis" unicode="&#xef;" horiz-adv-x="315" d="M166 42 C144 42 135 55 135 74 C135 107 208 326 208 383 C208 427 184 462 127 462 C23 462 -12 319 -12 309 C-12 302 -8 300 -4 300 C3 300 7 314 15 335 C31 377 53 412 87 412 C109 412 118 399 118 380 C118 341 45 131 45 77 C45 29 73 -8 126 -8 C233 -8 265 142 265 153 C265 160 263 162 257 162 C249 162 249 152 237 119 C222 77 200 42 166 42 L166 42 Z M21 574 C21 546 43 524 71 524 C99 524 121 546 121 574 C121 602 99 624 71 624 C43 624 21 602 21 574 L21 574 Z M219 574 C219 546 241 524 269 524 C297 524 319 546 319 574 C319 602 297 624 269 624 C241 624 219 602 219 574 L219 574 Z " />
<glyph glyph-name="eth" unicode="&#xf0;" horiz-adv-x="519" d="M259 444 C324 444 361 402 361 312 C361 188 309 10 190 10 C125 10 88 52 88 142 C88 266 140 444 259 444 L259 444 Z M166 551 L180 526 L331 602 C348 561 362 506 368 432 C332 456 287 462 257 462 C102 462 -2 340 -2 196 C-2 70 76 -8 192 -8 C347 -8 463 110 463 322 C463 456 428 558 384 628 L540 706 L526 734 L367 653 C319 719 264 752 237 752 C229 752 226 749 226 742 C226 731 277 712 319 628 L166 551 Z " />
<glyph glyph-name="ntilde" unicode="&#xf1;" horiz-adv-x="611" d="M174 185 C188 242 254 424 349 424 C385 424 404 403 404 369 C404 317 346 130 346 74 C346 27 370 -8 425 -8 C539 -8 566 142 566 153 C566 160 564 162 558 162 C550 162 550 152 538 119 C523 77 501 42 467 42 C445 42 436 55 436 74 C436 104 494 300 494 352 C494 415 451 462 386 462 C308 462 257 413 200 310 L198 312 C202 330 205 359 205 380 C205 427 179 462 124 462 C20 462 -15 319 -15 309 C-15 302 -11 300 -7 300 C0 300 4 314 12 335 C28 377 50 412 84 412 C106 412 115 397 115 375 C115 336 76 159 43 -4 C56 0 70 2 82 2 C94 2 111 0 128 -4 L174 185 Z M476 642 C467 614 456 596 427 596 C406 596 382 608 357 619 C331 631 304 642 276 642 C214 642 189 586 178 536 L208 536 C213 563 232 584 259 584 C282 584 306 573 331 561 C356 549 382 538 409 538 C462 538 495 587 504 642 L476 642 Z " />
<glyph glyph-name="ograve" unicode="&#xf2;" horiz-adv-x="519" d="M259 444 C324 444 361 402 361 312 C361 188 309 10 190 10 C125 10 88 52 88 142 C88 266 140 444 259 444 L259 444 Z M257 462 C102 462 -2 340 -2 196 C-2 70 76 -8 192 -8 C347 -8 451 114 451 258 C451 384 373 462 257 462 L257 462 Z M349 508 L241 650 C224 672 211 682 196 682 C176 682 159 669 159 647 C159 633 166 625 183 612 L318 508 L349 508 Z " />
<glyph glyph-name="oacute" unicode="&#xf3;" horiz-adv-x="519" d="M259 444 C324 444 361 402 361 312 C361 188 309 10 190 10 C125 10 88 52 88 142 C88 266 140 444 259 444 L259 444 Z M257 462 C102 462 -2 340 -2 196 C-2 70 76 -8 192 -8 C347 -8 451 114 451 258 C451 384 373 462 257 462 L257 462 Z M250 508 L414 609 C431 620 442 630 442 647 C442 670 425 682 410 682 C392 682 378 665 365 653 L216 508 L250 508 Z " />
<glyph glyph-name="ocircumflex" unicode="&#xf4;" horiz-adv-x="519" d="M259 444 C324 444 361 402 361 312 C361 188 309 10 190 10 C125 10 88 52 88 142 C88 266 140 444 259 444 L259 444 Z M257 462 C102 462 -2 340 -2 196 C-2 70 76 -8 192 -8 C347 -8 451 114 451 258 C451 384 373 462 257 462 L257 462 Z M418 508 L329 678 L280 678 L122 508 L161 508 L299 612 L382 508 L418 508 Z " />
<glyph glyph-name="otilde" unicode="&#xf5;" horiz-adv-x="519" d="M259 444 C324 444 361 402 361 312 C361 188 309 10 190 10 C125 10 88 52 88 142 C88 266 140 444 259 444 L259 444 Z M257 462 C102 462 -2 340 -2 196 C-2 70 76 -8 192 -8 C347 -8 451 114 451 258 C451 384 373 462 257 462 L257 462 Z M436 642 C427 614 416 596 387 596 C366 596 342 608 317 619 C291 631 264 642 236 642 C174 642 149 586 138 536 L168 536 C173 563 192 584 219 584 C242 584 266 573 291 561 C316 549 342 538 369 538 C422 538 455 587 464 642 L436 642 Z " />
<glyph glyph-name="odieresis" unicode="&#xf6;" horiz-adv-x="519" d="M259 444 C324 444 361 402 361 312 C361 188 309 10 190 10 C125 10 88 52 88 142 C88 266 140 444 259 444 L259 444 Z M257 462 C102 462 -2 340 -2 196 C-2 70 76 -8 192 -8 C347 -8 451 114 451 258 C451 384 373 462 257 462 L257 462 Z M146 574 C146 546 168 524 196 524 C224 524 246 546 246 574 C246 602 224 624 196 624 C168 624 146 602 146 574 L146 574 Z M344 574 C344 546 366 524 394 524 C422 524 444 546 444 574 C444 602 422 624 394 624 C366 624 344 602 344 574 L344 574 Z " />
<glyph glyph-name="divide" unicode="&#xf7;" horiz-adv-x="600" d="M498 196 L498 258 L44 258 L44 196 L498 196 Z M215 44 C215 13 240 -12 271 -12 C302 -12 327 13 327 44 C327 75 302 100 271 100 C240 100 215 75 215 44 L215 44 Z M215 410 C215 379 240 354 271 354 C302 354 327 379 327 410 C327 441 302 466 271 466 C240 466 215 441 215 410 L215 410 Z " />
<glyph glyph-name="oslash" unicode="&#xf8;" horiz-adv-x="519" d="M97 77 C91 95 88 117 88 142 C88 266 140 444 259 444 C288 444 311 436 329 418 L97 77 Z M347 389 C356 370 361 344 361 312 C361 188 309 10 190 10 C156 10 129 22 113 45 L347 389 Z M-11 -82 L27 -82 L93 16 C120 0 154 -8 192 -8 C347 -8 451 114 451 258 C451 335 422 393 373 428 L443 530 L405 530 L346 443 C321 456 291 462 257 462 C102 462 -2 340 -2 196 C-2 124 23 68 68 34 L-11 -82 Z " />
<glyph glyph-name="ugrave" unicode="&#xf9;" horiz-adv-x="611" d="M373 269 C359 212 293 30 194 30 C160 30 143 51 143 80 C143 137 201 318 201 380 C201 427 173 462 120 462 C12 462 -19 312 -19 301 C-19 294 -17 292 -11 292 C-3 292 -3 302 9 335 C24 377 46 412 80 412 C102 412 111 399 111 380 C111 350 53 156 53 102 C53 32 95 -8 161 -8 C233 -8 290 36 347 146 L349 144 C345 117 342 101 342 74 C342 27 366 -8 419 -8 C533 -8 562 142 562 153 C562 160 560 162 554 162 C546 162 546 152 534 119 C519 77 497 42 463 42 C442 42 432 55 432 78 C432 118 471 295 504 458 C491 454 477 452 465 452 C453 452 436 454 419 458 L373 269 Z M389 508 L281 650 C264 672 251 682 236 682 C216 682 199 669 199 647 C199 633 206 625 223 612 L358 508 L389 508 Z " />
<glyph glyph-name="uacute" unicode="&#xfa;" horiz-adv-x="611" d="M373 269 C359 212 293 30 194 30 C160 30 143 51 143 80 C143 137 201 318 201 380 C201 427 173 462 120 462 C12 462 -19 312 -19 301 C-19 294 -17 292 -11 292 C-3 292 -3 302 9 335 C24 377 46 412 80 412 C102 412 111 399 111 380 C111 350 53 156 53 102 C53 32 95 -8 161 -8 C233 -8 290 36 347 146 L349 144 C345 117 342 101 342 74 C342 27 366 -8 419 -8 C533 -8 562 142 562 153 C562 160 560 162 554 162 C546 162 546 152 534 119 C519 77 497 42 463 42 C442 42 432 55 432 78 C432 118 471 295 504 458 C491 454 477 452 465 452 C453 452 436 454 419 458 L373 269 Z M290 508 L454 609 C471 620 482 630 482 647 C482 670 465 682 450 682 C432 682 418 665 405 653 L256 508 L290 508 Z " />
<glyph glyph-name="ucircumflex" unicode="&#xfb;" horiz-adv-x="611" d="M373 269 C359 212 293 30 194 30 C160 30 143 51 143 80 C143 137 201 318 201 380 C201 427 173 462 120 462 C12 462 -19 312 -19 301 C-19 294 -17 292 -11 292 C-3 292 -3 302 9 335 C24 377 46 412 80 412 C102 412 111 399 111 380 C111 350 53 156 53 102 C53 32 95 -8 161 -8 C233 -8 290 36 347 146 L349 144 C345 117 342 101 342 74 C342 27 366 -8 419 -8 C533 -8 562 142 562 153 C562 160 560 162 554 162 C546 162 546 152 534 119 C519 77 497 42 463 42 C442 42 432 55 432 78 C432 118 471 295 504 458 C491 454 477 452 465 452 C453 452 436 454 419 458 L373 269 Z M458 508 L369 678 L320 678 L162 508 L201 508 L339 612 L422 508 L458 508 Z " />
<glyph glyph-name="udieresis" unicode="&#xfc;" horiz-adv-x="611" d="M373 269 C359 212 293 30 194 30 C160 30 143 51 143 80 C143 137 201 318 201 380 C201 427 173 462 120 462 C12 462 -19 312 -19 301 C-19 294 -17 292 -11 292 C-3 292 -3 302 9 335 C24 377 46 412 80 412 C102 412 111 399 111 380 C111 350 53 156 53 102 C53 32 95 -8 161 -8 C233 -8 290 36 347 146 L349 144 C345 117 342 101 342 74 C342 27 366 -8 419 -8 C533 -8 562 142 562 153 C562 160 560 162 554 162 C546 162 546 152 534 119 C519 77 497 42 463 42 C442 42 432 55 432 78 C432 118 471 295 504 458 C491 454 477 452 465 452 C453 452 436 454 419 458 L373 269 Z M186 574 C186 546 208 524 236 524 C264 524 286 546 286 574 C286 602 264 624 236 624 C208 624 186 602 186 574 L186 574 Z M384 574 C384 546 406 524 434 524 C462 524 484 546 484 574 C484 602 462 624 434 624 C406 624 384 602 384 574 L384 574 Z " />
<glyph glyph-name="yacute" unicode="&#xfd;" horiz-adv-x="500" d="M162 399 C147 441 128 462 98 462 C19 462 -20 307 -20 285 C-20 279 -18 276 -13 276 C-7 276 -4 286 3 307 C21 362 35 386 57 386 C85 386 85 366 125 245 C196 29 204 16 204 -5 C204 -41 98 -146 45 -146 C-1 -146 7 -81 -56 -81 C-86 -81 -108 -100 -108 -129 C-108 -164 -74 -194 -15 -194 C71 -194 167 -109 259 1 C410 182 459 293 459 371 C459 439 422 462 391 462 C362 462 342 445 342 416 C342 367 397 356 397 288 C397 215 350 149 280 61 L162 399 Z M241 508 L405 609 C422 620 433 630 433 647 C433 670 416 682 401 682 C383 682 369 665 356 653 L207 508 L241 508 Z " />
<glyph glyph-name="thorn" unicode="&#xfe;" horiz-adv-x="593" d="M298 730 C161 697 116 704 116 686 C116 669 180 680 180 630 C180 596 166 560 1 -194 C16 -188 29 -186 42 -186 C58 -186 74 -188 88 -194 L141 39 C162 21 197 -8 260 -8 C391 -8 525 114 525 275 C525 386 454 462 367 462 C288 462 246 409 212 350 L210 350 L298 730 Z M435 318 C435 242 384 16 257 16 C188 16 164 66 164 110 C164 229 236 430 347 430 C397 430 435 396 435 318 L435 318 Z " />
<glyph glyph-name="ydieresis" unicode="&#xff;" horiz-adv-x="500" d="M162 399 C147 441 128 462 98 462 C19 462 -20 307 -20 285 C-20 279 -18 276 -13 276 C-7 276 -4 286 3 307 C21 362 35 386 57 386 C85 386 85 366 125 245 C196 29 204 16 204 -5 C204 -41 98 -146 45 -146 C-1 -146 7 -81 -56 -81 C-86 -81 -108 -100 -108 -129 C-108 -164 -74 -194 -15 -194 C71 -194 167 -109 259 1 C410 182 459 293 459 371 C459 439 422 462 391 462 C362 462 342 445 342 416 C342 367 397 356 397 288 C397 215 350 149 280 61 L162 399 Z M137 574 C137 546 159 524 187 524 C215 524 237 546 237 574 C237 602 215 624 187 624 C159 624 137 602 137 574 L137 574 Z M335 574 C335 546 357 524 385 524 C413 524 435 546 435 574 C435 602 413 624 385 624 C357 624 335 602 335 574 L335 574 Z " />
<glyph glyph-name="dotlessi" unicode="&#x131;" horiz-adv-x="315" d="M166 42 C144 42 135 55 135 74 C135 107 208 326 208 383 C208 427 184 462 127 462 C23 462 -12 319 -12 309 C-12 302 -8 300 -4 300 C3 300 7 314 15 335 C31 377 53 412 87 412 C109 412 118 399 118 380 C118 341 45 131 45 77 C45 29 73 -8 126 -8 C233 -8 265 142 265 153 C265 160 263 162 257 162 C249 162 249 152 237 119 C222 77 200 42 166 42 L166 42 Z " />
<glyph glyph-name="Lslash" unicode="&#x141;" horiz-adv-x="593" d="M430 438 L206 367 C209 384 229 474 255 590 C275 679 356 640 356 666 C356 676 349 680 336 680 C293 680 250 678 207 678 C174 678 140 680 107 680 C92 680 86 676 86 666 C86 636 160 671 160 602 C160 592 154 569 102 334 L-6 300 L-24 253 L92 290 C90 282 70 194 45 83 C28 7 -73 42 -73 10 C-73 2 -68 -2 -56 -2 C8 -2 60 0 170 0 C302 0 397 -2 448 -2 C538 212 553 236 553 253 C553 260 549 265 542 265 C526 265 500 174 402 95 C356 58 266 22 205 22 C162 22 145 44 145 70 C145 85 151 120 196 323 L414 392 L430 438 Z " />
<glyph glyph-name="lslash" unicode="&#x142;" horiz-adv-x="296" d="M301 483 L187 429 C192 455 221 574 257 730 C120 697 75 704 75 686 C75 669 139 680 139 630 C139 603 113 497 85 381 L-26 329 L-37 291 L76 344 C45 223 16 104 16 74 C16 27 40 -8 93 -8 C205 -8 236 142 236 153 C236 160 234 162 228 162 C220 162 220 152 208 119 C193 77 171 42 137 42 C115 42 106 55 106 74 C106 88 117 134 178 392 L290 445 L301 483 Z " />
<glyph glyph-name="OE" unicode="&#x152;" horiz-adv-x="1130" d="M418 670 C530 670 618 610 618 446 C618 250 522 8 328 8 C216 8 128 68 128 232 C128 428 224 670 418 670 L418 670 Z M773 656 C940 656 1019 624 1051 503 C1060 469 1061 453 1073 453 C1081 453 1084 456 1084 466 C1084 487 1079 509 1061 680 C967 680 924 678 844 678 C768 678 722 680 678 680 L657 580 C604 646 524 694 420 694 C242 694 22 546 22 290 C22 142 136 -16 326 -16 C399 -16 479 9 548 58 L536 -2 C582 -2 629 0 675 0 C728 0 846 -2 965 -2 C1058 228 1068 241 1068 253 C1068 258 1066 262 1059 262 C1041 262 1020 182 966 131 C897 65 815 22 713 22 C664 22 644 39 644 64 C644 90 655 115 702 344 C820 344 838 296 838 244 C838 224 833 206 833 194 C833 185 834 181 842 181 C856 181 855 190 891 361 C917 486 921 498 921 515 C921 521 918 523 913 523 C896 523 901 476 875 437 C847 395 807 368 708 368 L773 656 Z " />
<glyph glyph-name="oe" unicode="&#x153;" horiz-adv-x="759" d="M88 126 C88 266 134 444 247 444 C312 444 343 402 343 328 C343 188 297 10 190 10 C125 10 88 52 88 126 L88 126 Z M715 368 C715 429 661 462 585 462 C530 462 458 434 404 378 C371 433 309 462 245 462 C102 462 -2 340 -2 196 C-2 70 76 -8 184 -8 C250 -8 319 20 361 69 C389 24 437 -8 499 -8 C627 -8 708 104 708 117 C708 122 705 125 701 125 C695 125 687 113 647 84 C625 68 589 50 549 50 C459 50 419 132 419 202 C487 215 547 230 581 241 C684 274 715 323 715 368 L715 368 Z M639 382 C639 354 633 322 609 294 C575 254 490 235 419 222 C423 315 479 444 582 444 C616 444 639 426 639 382 L639 382 Z " />
<glyph glyph-name="Scaron" unicode="&#x160;" horiz-adv-x="593" d="M412 179 C412 65 340 8 236 8 C92 8 66 142 66 254 C66 307 66 312 54 312 C37 312 44 295 11 140 C-15 24 -20 14 -20 4 C-20 -1 -16 -4 -9 -4 C6 -4 3 32 42 32 C96 32 125 -16 238 -16 C377 -16 502 76 502 208 C502 413 190 381 190 540 C190 609 241 670 325 670 C447 670 491 563 500 443 C501 429 500 415 512 415 C526 415 522 423 539 541 C554 643 557 655 557 666 C557 673 554 678 546 678 C531 678 530 647 504 647 C475 647 424 694 330 694 C195 694 100 602 100 499 C100 310 412 327 412 179 L412 179 Z M236 881 L325 711 L374 711 L532 881 L493 881 L355 777 L272 881 L236 881 Z " />
<glyph glyph-name="scaron" unicode="&#x161;" horiz-adv-x="463" d="M402 366 C402 407 350 462 230 462 C144 462 55 408 55 316 C55 179 305 204 305 105 C305 50 256 10 180 10 C109 10 99 42 93 94 C89 134 80 168 45 168 C14 168 -2 144 -2 106 C-2 42 59 -8 172 -8 C322 -8 381 70 381 142 C381 294 131 260 131 366 C131 407 169 444 226 444 C286 444 295 423 301 386 C307 350 315 318 360 318 C389 318 402 338 402 366 L402 366 Z M136 678 L225 508 L274 508 L432 678 L393 678 L255 574 L172 678 L136 678 Z " />
<glyph glyph-name="Ydieresis" unicode="&#x178;" horiz-adv-x="593" d="M215 318 L164 89 C145 3 56 39 56 10 C56 2 61 -2 68 -2 C118 -2 161 0 205 0 C241 0 276 -2 317 -2 C332 -2 335 2 335 12 C335 36 258 5 258 74 C258 91 267 116 311 319 C385 402 458 491 530 567 C629 672 669 643 669 666 C669 676 664 680 653 680 C626 680 599 678 572 678 C532 678 493 680 453 680 C439 680 435 676 435 666 C435 641 488 667 488 609 C488 569 457 518 303 352 C236 546 220 584 220 610 C220 670 303 645 303 666 C303 676 298 680 286 680 C251 680 216 678 181 678 C141 678 101 680 61 680 C40 680 36 676 36 666 C36 642 92 660 109 613 L215 318 Z M218 777 C218 749 240 727 268 727 C296 727 318 749 318 777 C318 805 296 827 268 827 C240 827 218 805 218 777 L218 777 Z M416 777 C416 749 438 727 466 727 C494 727 516 749 516 777 C516 805 494 827 466 827 C438 827 416 805 416 777 L416 777 Z " />
<glyph glyph-name="Zcaron" unicode="&#x17d;" horiz-adv-x="630" d="M500 656 L-35 22 C-43 12 -52 7 -52 2 C-52 -2 -46 -2 -33 -2 C0 -2 67 0 178 0 C303 0 343 -2 426 -2 C515 219 528 237 528 251 C528 260 524 263 517 263 C501 263 492 200 426 132 C367 71 284 22 162 22 L80 22 L610 646 C621 659 631 667 631 672 C631 677 627 680 621 680 C598 680 559 678 429 678 C347 678 288 680 176 680 C94 504 81 478 81 470 C81 463 84 460 91 460 C121 460 165 656 447 656 L500 656 Z M255 881 L344 711 L393 711 L551 881 L512 881 L374 777 L291 881 L255 881 Z " />
<glyph glyph-name="zcaron" unicode="&#x17e;" horiz-adv-x="500" d="M437 403 C450 414 466 426 466 441 C466 452 455 462 445 462 C431 462 424 446 414 430 C404 414 390 398 361 398 C341 398 317 410 289 430 C267 446 236 462 200 462 C136 462 35 404 35 310 C35 258 65 236 98 236 C134 236 154 257 154 283 C154 332 97 321 97 371 C97 396 115 420 151 420 C187 420 197 393 222 371 C244 352 269 344 294 344 C307 344 318 344 326 346 L328 344 L45 86 C28 71 -42 57 -42 18 C-42 3 -33 -8 -16 -8 C34 -8 31 70 81 70 C123 70 153 -8 252 -8 C386 -8 429 80 429 129 C429 174 407 203 367 203 C331 203 315 179 315 156 C315 112 367 112 367 71 C367 50 347 30 312 30 C243 30 242 124 146 124 C137 124 129 123 121 122 L119 124 L437 403 Z M155 678 L244 508 L293 508 L451 678 L412 678 L274 574 L191 678 L155 678 Z " />
<glyph glyph-name="florin" unicode="&#x192;" horiz-adv-x="556" d="M198 404 C111 94 112 -136 17 -136 C-3 -136 -12 -86 -61 -86 C-101 -86 -120 -112 -120 -144 C-120 -172 -100 -194 -57 -194 C140 -194 233 172 291 404 L389 404 L411 454 L300 454 C313 594 380 700 458 700 C469 700 480 698 480 689 C480 679 478 668 478 655 C478 619 497 602 522 602 C568 602 578 643 578 663 C578 708 541 730 496 730 C328 730 239 483 119 404 L198 404 Z " />
<glyph glyph-name="circumflex" unicode="&#x2c6;" horiz-adv-x="315" d="M316 508 L227 678 L178 678 L20 508 L59 508 L197 612 L280 508 L316 508 Z " />
<glyph glyph-name="caron" unicode="&#x2c7;" horiz-adv-x="315" d="M62 678 L151 508 L200 508 L358 678 L319 678 L181 574 L98 678 L62 678 Z " />
<glyph glyph-name="breve" unicode="&#x2d8;" horiz-adv-x="315" d="M326 668 C295 594 245 566 191 566 C124 566 84 606 82 668 L52 668 C53 582 78 508 187 508 C287 508 337 593 354 668 L326 668 Z " />
<glyph glyph-name="dotaccent" unicode="&#x2d9;" horiz-adv-x="315" d="M142 574 C142 546 164 524 192 524 C220 524 242 546 242 574 C242 602 220 624 192 624 C164 624 142 602 142 574 L142 574 Z " />
<glyph glyph-name="ring" unicode="&#x2da;" horiz-adv-x="315" d="M95 608 C95 553 139 508 195 508 C250 508 295 553 295 608 C295 663 250 708 195 708 C139 708 95 663 95 608 L95 608 Z M129 608 C129 644 158 674 195 674 C231 674 261 644 261 608 C261 572 231 542 195 542 C158 542 129 572 129 608 L129 608 Z " />
<glyph glyph-name="ogonek" unicode="&#x2db;" horiz-adv-x="315" d="M221 18 C68 -8 -27 -59 -27 -140 C-27 -181 6 -212 64 -212 C125 -212 177 -179 218 -153 L204 -125 C171 -144 131 -168 92 -168 C65 -168 47 -150 47 -130 C47 -54 161 -10 221 9 L221 18 Z " />
<glyph glyph-name="tilde" unicode="&#x2dc;" horiz-adv-x="315" d="M334 642 C325 614 314 596 285 596 C264 596 240 608 215 619 C189 631 162 642 134 642 C72 642 47 586 36 536 L66 536 C71 563 90 584 117 584 C140 584 164 573 189 561 C214 549 240 538 267 538 C320 538 353 587 362 642 L334 642 Z " />
<glyph glyph-name="hungarumlaut" unicode="&#x2dd;" horiz-adv-x="315" d="M78 508 L221 609 C237 621 248 634 248 649 C248 671 231 682 217 682 C195 682 185 663 173 650 L50 508 L78 508 Z M220 508 L384 609 C401 620 412 630 412 647 C412 670 395 682 380 682 C362 682 348 665 335 653 L186 508 L220 508 Z " />
<glyph glyph-name="endash" unicode="&#x2013;" horiz-adv-x="500" d="M-38 256 L-52 198 L462 198 L476 256 L-38 256 Z " />
<glyph glyph-name="emdash" unicode="&#x2014;" horiz-adv-x="1000" d="M-38 256 L-52 198 L962 198 L976 256 L-38 256 Z " />
<glyph glyph-name="quoteleft" unicode="&#x2018;" horiz-adv-x="222" d="M52 531 C52 483 79 458 114 458 C153 458 178 485 178 516 C178 547 163 558 136 566 C118 571 110 577 110 590 C110 616 130 645 158 674 C195 712 216 718 216 727 C216 734 212 738 206 738 C197 738 164 720 125 678 C75 624 52 580 52 531 L52 531 Z " />
<glyph glyph-name="quoteright" unicode="&#x2019;" horiz-adv-x="222" d="M244 657 C244 705 217 730 182 730 C143 730 118 703 118 672 C118 641 133 630 160 622 C178 617 186 611 186 598 C186 572 166 543 138 514 C101 476 80 470 80 461 C80 454 84 450 90 450 C99 450 132 468 171 510 C221 564 244 608 244 657 L244 657 Z " />
<glyph glyph-name="quotesinglbase" unicode="&#x201a;" horiz-adv-x="222" d="M94 31 C94 79 67 104 32 104 C-7 104 -32 77 -32 46 C-32 15 -17 4 10 -4 C28 -9 36 -15 36 -28 C36 -54 16 -83 -12 -112 C-49 -150 -70 -156 -70 -165 C-70 -172 -66 -176 -60 -176 C-51 -176 -18 -158 21 -116 C71 -62 94 -18 94 31 L94 31 Z " />
<glyph glyph-name="quotedblleft" unicode="&#x201c;" horiz-adv-x="444" d="M274 531 C274 483 301 458 336 458 C375 458 400 485 400 516 C400 547 385 558 358 566 C340 571 332 577 332 590 C332 616 352 645 380 674 C417 712 438 718 438 727 C438 734 434 738 428 738 C419 738 386 720 347 678 C297 624 274 580 274 531 L274 531 Z M70 531 C70 483 97 458 132 458 C171 458 196 485 196 516 C196 547 181 558 154 566 C136 571 128 577 128 590 C128 616 148 645 176 674 C213 712 234 718 234 727 C234 734 230 738 224 738 C215 738 182 720 143 678 C93 624 70 580 70 531 L70 531 Z " />
<glyph glyph-name="quotedblright" unicode="&#x201d;" horiz-adv-x="444" d="M244 657 C244 705 217 730 182 730 C143 730 118 703 118 672 C118 641 133 630 160 622 C178 617 186 611 186 598 C186 572 166 543 138 514 C101 476 80 470 80 461 C80 454 84 450 90 450 C99 450 132 468 171 510 C221 564 244 608 244 657 L244 657 Z M448 657 C448 705 421 730 386 730 C347 730 322 703 322 672 C322 641 337 630 364 622 C382 617 390 611 390 598 C390 572 370 543 342 514 C305 476 284 470 284 461 C284 454 288 450 294 450 C303 450 336 468 375 510 C425 564 448 608 448 657 L448 657 Z " />
<glyph glyph-name="quotedblbase" unicode="&#x201e;" horiz-adv-x="444" d="M94 27 C94 75 67 100 32 100 C-7 100 -32 73 -32 42 C-32 11 -17 0 10 -8 C28 -13 36 -19 36 -32 C36 -58 16 -87 -12 -116 C-49 -154 -70 -160 -70 -169 C-70 -176 -66 -180 -60 -180 C-51 -180 -18 -162 21 -120 C71 -66 94 -22 94 27 L94 27 Z M298 27 C298 75 271 100 236 100 C197 100 172 73 172 42 C172 11 187 0 214 -8 C232 -13 240 -19 240 -32 C240 -58 220 -87 192 -116 C155 -154 134 -160 134 -169 C134 -176 138 -180 144 -180 C153 -180 186 -162 225 -120 C275 -66 298 -22 298 27 L298 27 Z " />
<glyph glyph-name="dagger" unicode="&#x2020;" horiz-adv-x="500" d="M147 -104 C194 148 212 220 280 356 C262 378 261 405 261 428 C261 447 268 458 290 458 C326 458 361 426 401 426 C440 426 462 444 462 473 C462 493 450 514 425 514 C403 514 329 476 293 476 C282 476 274 482 274 498 C274 525 345 596 345 652 C345 677 334 694 304 694 C267 694 243 655 243 612 C243 578 256 549 256 527 C256 493 250 476 227 476 C199 476 159 514 120 514 C78 514 54 495 54 465 C54 447 66 430 98 430 C136 430 183 458 214 458 C234 458 243 454 243 440 C243 419 226 391 190 355 C190 282 179 175 123 -104 L147 -104 Z " />
<glyph glyph-name="daggerdbl" unicode="&#x2021;" horiz-adv-x="500" d="M304 694 C267 694 243 655 243 612 C243 578 256 549 256 527 C256 493 250 476 227 476 C199 476 159 514 120 514 C78 514 54 495 54 465 C54 447 66 430 98 430 C136 430 183 458 214 458 C234 458 243 454 243 440 C243 419 224 391 192 361 C195 353 200 340 200 314 C200 293 185 248 163 216 C177 202 182 177 182 148 C182 129 175 118 153 118 C117 118 82 150 42 150 C3 150 -19 132 -19 103 C-19 83 -7 62 18 62 C40 62 114 100 150 100 C161 100 169 94 169 78 C169 51 98 -20 98 -76 C98 -101 109 -118 139 -118 C176 -118 200 -79 200 -36 C200 -2 187 27 187 49 C187 83 193 100 216 100 C244 100 284 62 323 62 C365 62 389 81 389 111 C389 129 377 146 345 146 C307 146 260 118 229 118 C209 118 200 122 200 136 C200 157 217 185 253 221 C247 237 242 249 242 265 C242 302 264 338 279 361 C267 379 261 405 261 428 C261 447 268 458 290 458 C326 458 361 426 401 426 C440 426 462 444 462 473 C462 493 450 514 425 514 C403 514 329 476 293 476 C282 476 274 482 274 498 C274 525 345 596 345 652 C345 677 334 694 304 694 L304 694 Z " />
<glyph glyph-name="bullet" unicode="&#x2022;" horiz-adv-x="500" d="M54 339 C54 246 130 170 223 170 C316 170 392 246 392 339 C392 432 316 508 223 508 C130 508 54 432 54 339 L54 339 Z " />
<glyph glyph-name="ellipsis" unicode="&#x2026;" horiz-adv-x="1000" d="M104 104 C68 104 40 78 40 36 C40 8 62 -8 88 -8 C124 -8 152 18 152 60 C152 88 130 104 104 104 L104 104 Z M437 104 C401 104 373 78 373 36 C373 8 395 -8 421 -8 C457 -8 485 18 485 60 C485 88 463 104 437 104 L437 104 Z M770 104 C734 104 706 78 706 36 C706 8 728 -8 754 -8 C790 -8 818 18 818 60 C818 88 796 104 770 104 L770 104 Z " />
<glyph glyph-name="perthousand" unicode="&#x2030;" horiz-adv-x="1000" d="M861 358 C749 358 678 245 678 121 C678 36 728 -8 796 -8 C911 -8 982 104 982 225 C982 316 923 358 861 358 L861 358 Z M864 340 C896 340 910 328 910 282 C910 186 866 10 796 10 C764 10 750 22 750 68 C750 164 794 340 864 340 L864 340 Z M197 686 C85 686 14 573 14 449 C14 364 64 320 132 320 C247 320 318 432 318 553 C318 644 259 686 197 686 L197 686 Z M200 668 C232 668 246 656 246 610 C246 514 202 338 132 338 C100 338 86 350 86 396 C86 492 130 668 200 668 L200 668 Z M503 358 C391 358 320 245 320 121 C320 36 370 -8 438 -8 C553 -8 624 104 624 225 C624 316 565 358 503 358 L503 358 Z M506 340 C538 340 552 328 552 282 C552 186 508 10 438 10 C406 10 392 22 392 68 C392 164 436 340 506 340 L506 340 Z M618 686 L-10 -8 L37 -8 L664 686 L618 686 Z " />
<glyph glyph-name="guilsinglleft" unicode="&#x2039;" horiz-adv-x="333" d="M14 222 C14 211 24 206 82 128 C143 47 144 41 153 41 C159 41 166 45 166 53 C166 61 148 91 79 224 C182 340 240 392 240 404 C240 410 235 413 231 413 C225 413 220 404 97 298 C22 233 14 231 14 222 L14 222 Z " />
<glyph glyph-name="guilsinglright" unicode="&#x203a;" horiz-adv-x="333" d="M239 232 C239 243 229 248 171 326 C110 407 109 413 100 413 C94 413 87 409 87 401 C87 393 105 363 174 230 C71 114 13 62 13 50 C13 44 18 41 22 41 C28 41 33 50 156 156 C231 221 239 223 239 232 L239 232 Z " />
<glyph glyph-name="fraction" unicode="&#x2044;" horiz-adv-x="167" d="M257 686 L-167 -8 L-90 -8 L334 686 L257 686 Z " />
<glyph glyph-name="trademark" unicode="&#x2122;" horiz-adv-x="990" d="M239 654 L288 654 C329 654 346 623 354 587 L374 587 L374 678 L35 678 L35 587 L55 587 C64 623 81 654 123 654 L171 654 L171 365 C171 316 172 317 123 312 L123 288 L288 288 L288 312 C237 317 240 316 239 365 L239 654 Z M668 284 L677 284 L828 572 L830 572 L830 365 C832 310 832 311 784 306 L784 288 L947 288 L947 312 C896 317 898 316 898 365 L898 598 C898 632 911 652 954 654 L954 678 L846 678 L692 393 L545 678 L420 678 L420 654 C448 654 486 634 486 605 L486 373 C486 331 479 316 436 312 L436 288 L566 288 L566 312 C523 316 514 331 514 373 L514 585 L516 585 L668 284 Z " />
<glyph glyph-name="minus" unicode="&#x2212;" horiz-adv-x="600" d="M498 196 L498 258 L44 258 L44 196 L498 196 Z " />
<glyph glyph-name="fi" unicode="&#xfb01;" horiz-adv-x="574" d="M328 404 C354 404 368 398 368 383 C368 361 296 124 296 74 C296 27 320 -8 371 -8 C475 -8 506 142 506 153 C506 160 504 162 498 162 C490 162 490 152 478 119 C463 77 441 42 411 42 C393 42 386 55 386 74 C386 106 458 369 458 403 C458 445 424 454 376 454 L198 454 C232 665 304 728 362 728 C384 728 396 714 396 697 C396 673 376 661 376 633 C376 609 395 591 425 591 C456 591 482 616 482 662 C482 706 442 752 376 752 C162 752 156 444 17 404 L91 404 C59 292 31 74 12 -15 C-4 -92 -46 -148 -87 -148 C-127 -148 -92 -68 -163 -68 C-192 -68 -216 -94 -216 -129 C-216 -172 -183 -194 -148 -194 C24 -194 125 86 186 404 L328 404 Z " />
<glyph glyph-name="fl" unicode="&#xfb02;" horiz-adv-x="574" d="M285 404 L301 454 L198 454 C232 665 304 728 362 728 C382 728 396 717 396 696 C396 680 376 657 376 635 C376 611 394 595 412 593 C326 236 291 118 291 74 C291 27 315 -8 366 -8 C470 -8 501 142 501 153 C501 160 499 162 493 162 C485 162 485 152 473 119 C458 77 436 42 406 42 C387 42 381 55 381 74 C381 98 402 168 535 720 C517 714 497 710 469 706 C455 730 419 752 376 752 C162 752 156 444 17 404 L91 404 C59 292 31 74 12 -15 C-4 -92 -46 -148 -87 -148 C-127 -148 -92 -68 -163 -68 C-192 -68 -216 -94 -216 -129 C-216 -172 -183 -194 -148 -194 C24 -194 125 86 186 404 L285 404 Z " />
</font>
</svg>
